<?xml version="1.0" standalone="no"?>
<!DOCTYPE svg PUBLIC "-//W3C//DTD SVG 1.1//EN" "http://www.w3.org/Graphics/SVG/1.1/DTD/svg11.dtd">
<svg xmlns="http://www.w3.org/2000/svg" xmlns:xlink="http://www.w3.org/1999/xlink" version="1.1" id="body_1" width="232" height="232">

<defs>
    <clipPath  id="1">

    <path id=""  clip-rule="evenodd" transform="matrix(1 0 0 1 0 0)"  d="M0 174L0 -0.9599915L0 -0.9599915L174 -0.9599915L174 -0.9599915L174 174L174 174L0 174z" />    </clipPath>
    <clipPath  id="2">

    <path id=""  clip-rule="evenodd" transform="matrix(1 0 0 1 0 0)"  d="M0 -0.9599915L174.2344 -0.9599915L174.2344 -0.9599915L174.2344 174.0009L174.2344 174.0009L0 174.0009z" />    </clipPath>
    <clipPath  id="3">

    <path id=""  clip-rule="evenodd" transform="matrix(1 0 0 1 0 0)"  d="M18.75 17.79001L155.25 17.79001L155.25 17.79001L155.25 155.04L155.25 155.04L18.75 155.04z" />    </clipPath>
</defs>

<g transform="matrix(1.3333 0 0 1.3333 0 0)">
	<g clip-path="url(#1)" >
		<g clip-path="url(#2)" >
    <path id=""  transform="matrix(1 0 0 -1 0 174)"  d="M0 174.96L174 174.96L174 174.96L174 0.2099915L174 0.2099915L0 0.2099915z" stroke="none" fill="#FFFFFF" fill-rule="nonzero" />
		</g>
		<g clip-path="url(#3)" >
    <path id=""  transform="matrix(1 0 0 -1 0 174)"  d="M109.376 110.2345L120.54 110.2345L120.54 110.2345L120.54 99.0705L120.54 99.0705L109.376 99.0705z" stroke="none" fill="#FFFFFF" fill-rule="nonzero" />
    <path id=""  transform="matrix(1 0 0 -1 0 174)"  d="M109.376 110.2345L120.54 110.2345L120.54 110.2345L120.54 99.0705L120.54 99.0705L109.376 99.0705z" stroke="#000000" stroke-width="0.5582014" stroke-linejoin="miter" fill="none" />
    <path id=""  transform="matrix(1 0 0 -1 0 174)"  d="M109.376 99.0705L120.54 99.0705L120.54 99.0705L120.54 87.90648L120.54 87.90648L109.376 87.90648z" stroke="none" fill="#FFFFFF" fill-rule="nonzero" />
    <path id=""  transform="matrix(1 0 0 -1 0 174)"  d="M109.376 99.0705L120.54 99.0705L120.54 99.0705L120.54 87.90648L120.54 87.90648L109.376 87.90648z" stroke="#000000" stroke-width="0.5582014" stroke-linejoin="miter" fill="none" />
    <path id=""  transform="matrix(1 0 0 -1 0 174)"  d="M109.376 87.90648L120.54 87.90648L120.54 87.90648L120.54 76.74245L120.54 76.74245L109.376 76.74245z" stroke="none" fill="#FFFFFF" fill-rule="nonzero" />
    <path id=""  transform="matrix(1 0 0 -1 0 174)"  d="M109.376 87.90648L120.54 87.90648L120.54 87.90648L120.54 76.74245L120.54 76.74245L109.376 76.74245z" stroke="#000000" stroke-width="0.5582014" stroke-linejoin="miter" fill="none" />
    <path id=""  transform="matrix(1 0 0 -1 0 174)"  d="M120.54 110.2345L131.7041 110.2345L131.7041 110.2345L131.7041 99.0705L131.7041 99.0705L120.54 99.0705z" stroke="none" fill="#FFFFFF" fill-rule="nonzero" />
    <path id=""  transform="matrix(1 0 0 -1 0 174)"  d="M120.54 110.2345L131.7041 110.2345L131.7041 110.2345L131.7041 99.0705L131.7041 99.0705L120.54 99.0705z" stroke="#000000" stroke-width="0.5582014" stroke-linejoin="miter" fill="none" />
    <path id=""  transform="matrix(1 0 0 -1 0 174)"  d="M120.54 99.0705L131.7041 99.0705L131.7041 99.0705L131.7041 87.90648L131.7041 87.90648L120.54 87.90648z" stroke="none" fill="#FFFFFF" fill-rule="nonzero" />
    <path id=""  transform="matrix(1 0 0 -1 0 174)"  d="M120.54 99.0705L131.7041 99.0705L131.7041 99.0705L131.7041 87.90648L131.7041 87.90648L120.54 87.90648z" stroke="#000000" stroke-width="0.5582014" stroke-linejoin="miter" fill="none" />
    <path id=""  transform="matrix(1 0 0 -1 0 174)"  d="M120.54 87.90648L131.7041 87.90648L131.7041 87.90648L131.7041 76.74245L131.7041 76.74245L120.54 76.74245z" stroke="none" fill="#FFFFFF" fill-rule="nonzero" />
    <path id=""  transform="matrix(1 0 0 -1 0 174)"  d="M120.54 87.90648L131.7041 87.90648L131.7041 87.90648L131.7041 76.74245L131.7041 76.74245L120.54 76.74245z" stroke="#000000" stroke-width="0.5582014" stroke-linejoin="miter" fill="none" />
    <path id=""  transform="matrix(1 0 0 -1 0 174)"  d="M131.7041 110.2345L142.8681 110.2345L142.8681 110.2345L142.8681 99.0705L142.8681 99.0705L131.7041 99.0705z" stroke="none" fill="#FFFFFF" fill-rule="nonzero" />
    <path id=""  transform="matrix(1 0 0 -1 0 174)"  d="M131.7041 110.2345L142.8681 110.2345L142.8681 110.2345L142.8681 99.0705L142.8681 99.0705L131.7041 99.0705z" stroke="#000000" stroke-width="0.5582014" stroke-linejoin="miter" fill="none" />
    <path id=""  transform="matrix(1 0 0 -1 0 174)"  d="M131.7041 99.0705L142.8681 99.0705L142.8681 99.0705L142.8681 87.90648L142.8681 87.90648L131.7041 87.90648z" stroke="none" fill="#FFFFFF" fill-rule="nonzero" />
    <path id=""  transform="matrix(1 0 0 -1 0 174)"  d="M131.7041 99.0705L142.8681 99.0705L142.8681 99.0705L142.8681 87.90648L142.8681 87.90648L131.7041 87.90648z" stroke="#000000" stroke-width="0.5582014" stroke-linejoin="miter" fill="none" />
    <path id=""  transform="matrix(1 0 0 -1 0 174)"  d="M131.7041 87.90648L142.8681 87.90648L142.8681 87.90648L142.8681 76.74245L142.8681 76.74245L131.7041 76.74245z" stroke="none" fill="#FFFFFF" fill-rule="nonzero" />
    <path id=""  transform="matrix(1 0 0 -1 0 174)"  d="M131.7041 87.90648L142.8681 87.90648L142.8681 87.90648L142.8681 76.74245L142.8681 76.74245L131.7041 76.74245z" stroke="#000000" stroke-width="0.5582014" stroke-linejoin="miter" fill="none" />
    <path id=""  transform="matrix(1 0 0 -1 0 174)"  d="M98.21201 110.229L109.376 110.229L109.376 110.229L109.376 99.06493L109.376 99.06493L98.21201 99.06493z" stroke="none" fill="#FFFFFF" fill-rule="nonzero" />
    <path id=""  transform="matrix(1 0 0 -1 0 174)"  d="M98.21201 110.229L109.376 110.229L109.376 110.229L109.376 99.06493L109.376 99.06493L98.21201 99.06493z" stroke="#000000" stroke-width="0.5582014" stroke-linejoin="miter" fill="none" />
    <path id=""  transform="matrix(1 0 0 -1 0 174)"  d="M98.21201 99.06493L109.376 99.06493L109.376 99.06493L109.376 87.90091L109.376 87.90091L98.21201 87.90091z" stroke="none" fill="#FFFFFF" fill-rule="nonzero" />
    <path id=""  transform="matrix(1 0 0 -1 0 174)"  d="M98.21201 99.06493L109.376 99.06493L109.376 99.06493L109.376 87.90091L109.376 87.90091L98.21201 87.90091z" stroke="#000000" stroke-width="0.5582014" stroke-linejoin="miter" fill="none" />
    <path id=""  transform="matrix(1 0 0 -1 0 174)"  d="M98.21201 87.90091L109.376 87.90091L109.376 87.90091L109.376 76.73688L109.376 76.73688L98.21201 76.73688z" stroke="none" fill="#7EA6E0" fill-rule="nonzero" />
    <path id=""  transform="matrix(1 0 0 -1 0 174)"  d="M98.21201 87.90091L109.376 87.90091L109.376 87.90091L109.376 76.73688L109.376 76.73688L98.21201 76.73688z" stroke="#000000" stroke-width="0.5582014" stroke-linejoin="miter" fill="none" />
    <path id=""  transform="matrix(1 0 0 -1 0 174)"  d="M142.8681 99.06493L154.0321 99.06493L154.0321 99.06493L154.0321 87.90091L154.0321 87.90091L142.8681 87.90091z" stroke="none" fill="#FFFFFF" fill-rule="nonzero" />
    <path id=""  transform="matrix(1 0 0 -1 0 174)"  d="M142.8681 99.06493L154.0321 99.06493L154.0321 99.06493L154.0321 87.90091L154.0321 87.90091L142.8681 87.90091z" stroke="#000000" stroke-width="0.5582014" stroke-linejoin="miter" fill="none" />
    <path id=""  transform="matrix(1 0 0 -1 0 174)"  d="M142.8681 121.3986L154.0321 121.3986L154.0321 121.3986L154.0321 110.2345L154.0321 110.2345L142.8681 110.2345z" stroke="none" fill="#FFFFFF" fill-rule="nonzero" />
    <path id=""  transform="matrix(1 0 0 -1 0 174)"  d="M142.8681 121.3986L154.0321 121.3986L154.0321 121.3986L154.0321 110.2345L154.0321 110.2345L142.8681 110.2345z" stroke="#000000" stroke-width="0.5582014" stroke-linejoin="miter" fill="none" />
    <path id=""  transform="matrix(1 0 0 -1 0 174)"  d="M142.8681 143.7266L154.0321 143.7266L154.0321 143.7266L154.0321 132.5626L154.0321 132.5626L142.8681 132.5626z" stroke="none" fill="#FFFFFF" fill-rule="nonzero" />
    <path id=""  transform="matrix(1 0 0 -1 0 174)"  d="M142.8681 143.7266L154.0321 143.7266L154.0321 143.7266L154.0321 132.5626L154.0321 132.5626L142.8681 132.5626z" stroke="#000000" stroke-width="0.5582014" stroke-linejoin="miter" fill="none" />
    <path id=""  transform="matrix(1 0 0 -1 0 174)"  d="M142.8681 87.90091L154.0321 87.90091L154.0321 87.90091L154.0321 76.73688L154.0321 76.73688L142.8681 76.73688z" stroke="none" fill="#FFFFFF" fill-rule="nonzero" />
    <path id=""  transform="matrix(1 0 0 -1 0 174)"  d="M142.8681 87.90091L154.0321 87.90091L154.0321 87.90091L154.0321 76.73688L154.0321 76.73688L142.8681 76.73688z" stroke="#000000" stroke-width="0.5582014" stroke-linejoin="miter" fill="none" />
    <path id=""  transform="matrix(1 0 0 -1 0 174)"  d="M142.8681 110.229L154.0321 110.229L154.0321 110.229L154.0321 99.06493L154.0321 99.06493L142.8681 99.06493z" stroke="none" fill="#FFFFFF" fill-rule="nonzero" />
    <path id=""  transform="matrix(1 0 0 -1 0 174)"  d="M142.8681 110.229L154.0321 110.229L154.0321 110.229L154.0321 99.06493L154.0321 99.06493L142.8681 99.06493z" stroke="#000000" stroke-width="0.5582014" stroke-linejoin="miter" fill="none" />
    <path id=""  transform="matrix(1 0 0 -1 0 174)"  d="M142.8681 132.5626L154.0321 132.5626L154.0321 132.5626L154.0321 121.3986L154.0321 121.3986L142.8681 121.3986z" stroke="none" fill="#FFFFFF" fill-rule="nonzero" />
    <path id=""  transform="matrix(1 0 0 -1 0 174)"  d="M142.8681 132.5626L154.0321 132.5626L154.0321 132.5626L154.0321 121.3986L154.0321 121.3986L142.8681 121.3986z" stroke="#000000" stroke-width="0.5582014" stroke-linejoin="miter" fill="none" />
    <path id=""  transform="matrix(1 0 0 -1 0 174)"  d="M98.21201 132.5626L109.376 132.5626L109.376 132.5626L109.376 121.3986L109.376 121.3986L98.21201 121.3986z" stroke="none" fill="#FFFFFF" fill-rule="nonzero" />
    <path id=""  transform="matrix(1 0 0 -1 0 174)"  d="M98.21201 132.5626L109.376 132.5626L109.376 132.5626L109.376 121.3986L109.376 121.3986L98.21201 121.3986z" stroke="#000000" stroke-width="0.5582014" stroke-linejoin="miter" fill="none" />
    <path id=""  transform="matrix(1 0 0 -1 0 174)"  d="M98.21201 121.3986L109.376 121.3986L109.376 121.3986L109.376 110.2345L109.376 110.2345L98.21201 110.2345z" stroke="none" fill="#FFFFFF" fill-rule="nonzero" />
    <path id=""  transform="matrix(1 0 0 -1 0 174)"  d="M98.21201 121.3986L109.376 121.3986L109.376 121.3986L109.376 110.2345L109.376 110.2345L98.21201 110.2345z" stroke="#000000" stroke-width="0.5582014" stroke-linejoin="miter" fill="none" />
    <path id=""  transform="matrix(1 0 0 -1 0 174)"  d="M98.21201 143.7266L109.376 143.7266L109.376 143.7266L109.376 132.5626L109.376 132.5626L98.21201 132.5626z" stroke="none" fill="#FFFFFF" fill-rule="nonzero" />
    <path id=""  transform="matrix(1 0 0 -1 0 174)"  d="M98.21201 143.7266L109.376 143.7266L109.376 143.7266L109.376 132.5626L109.376 132.5626L98.21201 132.5626z" stroke="#000000" stroke-width="0.5582014" stroke-linejoin="miter" fill="none" />
    <path id=""  transform="matrix(1 0 0 -1 0 174)"  d="M98.21201 154.8906L109.376 154.8906L109.376 154.8906L109.376 143.7266L109.376 143.7266L98.21201 143.7266z" stroke="none" fill="#FFFFFF" fill-rule="nonzero" />
    <path id=""  transform="matrix(1 0 0 -1 0 174)"  d="M98.21201 154.8906L109.376 154.8906L109.376 154.8906L109.376 143.7266L109.376 143.7266L98.21201 143.7266z" stroke="#000000" stroke-width="0.5582014" stroke-linejoin="miter" fill="none" />
    <path id=""  transform="matrix(1 0 0 -1 0 174)"  d="M109.376 132.5626L120.54 132.5626L120.54 132.5626L120.54 121.3986L120.54 121.3986L109.376 121.3986z" stroke="none" fill="#FFFFFF" fill-rule="nonzero" />
    <path id=""  transform="matrix(1 0 0 -1 0 174)"  d="M109.376 132.5626L120.54 132.5626L120.54 132.5626L120.54 121.3986L120.54 121.3986L109.376 121.3986z" stroke="#000000" stroke-width="0.5582014" stroke-linejoin="miter" fill="none" />
    <path id=""  transform="matrix(1 0 0 -1 0 174)"  d="M109.376 121.3986L120.54 121.3986L120.54 121.3986L120.54 110.2345L120.54 110.2345L109.376 110.2345z" stroke="none" fill="#FFFFFF" fill-rule="nonzero" />
    <path id=""  transform="matrix(1 0 0 -1 0 174)"  d="M109.376 121.3986L120.54 121.3986L120.54 121.3986L120.54 110.2345L120.54 110.2345L109.376 110.2345z" stroke="#000000" stroke-width="0.5582014" stroke-linejoin="miter" fill="none" />
    <path id=""  transform="matrix(1 0 0 -1 0 174)"  d="M109.376 143.7266L120.54 143.7266L120.54 143.7266L120.54 132.5626L120.54 132.5626L109.376 132.5626z" stroke="none" fill="#FFFFFF" fill-rule="nonzero" />
    <path id=""  transform="matrix(1 0 0 -1 0 174)"  d="M109.376 143.7266L120.54 143.7266L120.54 143.7266L120.54 132.5626L120.54 132.5626L109.376 132.5626z" stroke="#000000" stroke-width="0.5582014" stroke-linejoin="miter" fill="none" />
    <path id=""  transform="matrix(1 0 0 -1 0 174)"  d="M109.376 154.8906L120.54 154.8906L120.54 154.8906L120.54 143.7266L120.54 143.7266L109.376 143.7266z" stroke="none" fill="#FFFFFF" fill-rule="nonzero" />
    <path id=""  transform="matrix(1 0 0 -1 0 174)"  d="M109.376 154.8906L120.54 154.8906L120.54 154.8906L120.54 143.7266L120.54 143.7266L109.376 143.7266z" stroke="#000000" stroke-width="0.5582014" stroke-linejoin="miter" fill="none" />
    <path id=""  transform="matrix(1 0 0 -1 0 174)"  d="M120.54 132.5626L131.7041 132.5626L131.7041 132.5626L131.7041 121.3986L131.7041 121.3986L120.54 121.3986z" stroke="none" fill="#FFFFFF" fill-rule="nonzero" />
    <path id=""  transform="matrix(1 0 0 -1 0 174)"  d="M120.54 132.5626L131.7041 132.5626L131.7041 132.5626L131.7041 121.3986L131.7041 121.3986L120.54 121.3986z" stroke="#000000" stroke-width="0.5582014" stroke-linejoin="miter" fill="none" />
    <path id=""  transform="matrix(1 0 0 -1 0 174)"  d="M120.54 121.3986L131.7041 121.3986L131.7041 121.3986L131.7041 110.2345L131.7041 110.2345L120.54 110.2345z" stroke="none" fill="#FFFFFF" fill-rule="nonzero" />
    <path id=""  transform="matrix(1 0 0 -1 0 174)"  d="M120.54 121.3986L131.7041 121.3986L131.7041 121.3986L131.7041 110.2345L131.7041 110.2345L120.54 110.2345z" stroke="#000000" stroke-width="0.5582014" stroke-linejoin="miter" fill="none" />
    <path id=""  transform="matrix(1 0 0 -1 0 174)"  d="M120.54 143.7266L131.7041 143.7266L131.7041 143.7266L131.7041 132.5626L131.7041 132.5626L120.54 132.5626z" stroke="none" fill="#FFFFFF" fill-rule="nonzero" />
    <path id=""  transform="matrix(1 0 0 -1 0 174)"  d="M120.54 143.7266L131.7041 143.7266L131.7041 143.7266L131.7041 132.5626L131.7041 132.5626L120.54 132.5626z" stroke="#000000" stroke-width="0.5582014" stroke-linejoin="miter" fill="none" />
    <path id=""  transform="matrix(1 0 0 -1 0 174)"  d="M120.54 154.8906L131.7041 154.8906L131.7041 154.8906L131.7041 143.7266L131.7041 143.7266L120.54 143.7266z" stroke="none" fill="#FFFFFF" fill-rule="nonzero" />
    <path id=""  transform="matrix(1 0 0 -1 0 174)"  d="M120.54 154.8906L131.7041 154.8906L131.7041 154.8906L131.7041 143.7266L131.7041 143.7266L120.54 143.7266z" stroke="#000000" stroke-width="0.5582014" stroke-linejoin="miter" fill="none" />
    <path id=""  transform="matrix(1 0 0 -1 0 174)"  d="M131.7041 132.5626L142.8681 132.5626L142.8681 132.5626L142.8681 121.3986L142.8681 121.3986L131.7041 121.3986z" stroke="none" fill="#FFFFFF" fill-rule="nonzero" />
    <path id=""  transform="matrix(1 0 0 -1 0 174)"  d="M131.7041 132.5626L142.8681 132.5626L142.8681 132.5626L142.8681 121.3986L142.8681 121.3986L131.7041 121.3986z" stroke="#000000" stroke-width="0.5582014" stroke-linejoin="miter" fill="none" />
    <path id=""  transform="matrix(1 0 0 -1 0 174)"  d="M131.7041 121.3986L142.8681 121.3986L142.8681 121.3986L142.8681 110.2345L142.8681 110.2345L131.7041 110.2345z" stroke="none" fill="#FFFFFF" fill-rule="nonzero" />
    <path id=""  transform="matrix(1 0 0 -1 0 174)"  d="M131.7041 121.3986L142.8681 121.3986L142.8681 121.3986L142.8681 110.2345L142.8681 110.2345L131.7041 110.2345z" stroke="#000000" stroke-width="0.5582014" stroke-linejoin="miter" fill="none" />
    <path id=""  transform="matrix(1 0 0 -1 0 174)"  d="M131.7041 143.7266L142.8681 143.7266L142.8681 143.7266L142.8681 132.5626L142.8681 132.5626L131.7041 132.5626z" stroke="none" fill="#FFFFFF" fill-rule="nonzero" />
    <path id=""  transform="matrix(1 0 0 -1 0 174)"  d="M131.7041 143.7266L142.8681 143.7266L142.8681 143.7266L142.8681 132.5626L142.8681 132.5626L131.7041 132.5626z" stroke="#000000" stroke-width="0.5582014" stroke-linejoin="miter" fill="none" />
    <path id=""  transform="matrix(1 0 0 -1 0 174)"  d="M131.7041 154.8906L142.8681 154.8906L142.8681 154.8906L142.8681 143.7266L142.8681 143.7266L131.7041 143.7266z" stroke="none" fill="#FFFFFF" fill-rule="nonzero" />
    <path id=""  transform="matrix(1 0 0 -1 0 174)"  d="M131.7041 154.8906L142.8681 154.8906L142.8681 154.8906L142.8681 143.7266L142.8681 143.7266L131.7041 143.7266z" stroke="#000000" stroke-width="0.5582014" stroke-linejoin="miter" fill="none" />
    <path id=""  transform="matrix(1 0 0 -1 0 174)"  d="M109.376 76.73688L120.54 76.73688L120.54 76.73688L120.54 65.57285L120.54 65.57285L109.376 65.57285z" stroke="none" fill="#7EA6E0" fill-rule="nonzero" />
    <path id=""  transform="matrix(1 0 0 -1 0 174)"  d="M109.376 76.73688L120.54 76.73688L120.54 76.73688L120.54 65.57285L120.54 65.57285L109.376 65.57285z" stroke="#000000" stroke-width="0.5582014" stroke-linejoin="miter" fill="none" />
    <path id=""  transform="matrix(1 0 0 -1 0 174)"  d="M109.376 65.57285L120.54 65.57285L120.54 65.57285L120.54 54.40881L120.54 54.40881L109.376 54.40881z" stroke="none" fill="#7EA6E0" fill-rule="nonzero" />
    <path id=""  transform="matrix(1 0 0 -1 0 174)"  d="M109.376 65.57285L120.54 65.57285L120.54 65.57285L120.54 54.40881L120.54 54.40881L109.376 54.40881z" stroke="#000000" stroke-width="0.5582014" stroke-linejoin="miter" fill="none" />
    <path id=""  transform="matrix(1 0 0 -1 0 174)"  d="M120.54 76.73688L131.7041 76.73688L131.7041 76.73688L131.7041 65.57285L131.7041 65.57285L120.54 65.57285z" stroke="none" fill="#FFFFFF" fill-rule="nonzero" />
    <path id=""  transform="matrix(1 0 0 -1 0 174)"  d="M120.54 76.73688L131.7041 76.73688L131.7041 76.73688L131.7041 65.57285L131.7041 65.57285L120.54 65.57285z" stroke="#000000" stroke-width="0.5582014" stroke-linejoin="miter" fill="none" />
    <path id=""  transform="matrix(1 0 0 -1 0 174)"  d="M120.54 65.57285L131.7041 65.57285L131.7041 65.57285L131.7041 54.40881L131.7041 54.40881L120.54 54.40881z" stroke="none" fill="#7EA6E0" fill-rule="nonzero" />
    <path id=""  transform="matrix(1 0 0 -1 0 174)"  d="M120.54 65.57285L131.7041 65.57285L131.7041 65.57285L131.7041 54.40881L131.7041 54.40881L120.54 54.40881z" stroke="#000000" stroke-width="0.5582014" stroke-linejoin="miter" fill="none" />
    <path id=""  transform="matrix(1 0 0 -1 0 174)"  d="M131.7041 76.73688L142.8681 76.73688L142.8681 76.73688L142.8681 65.57285L142.8681 65.57285L131.7041 65.57285z" stroke="none" fill="#FFFFFF" fill-rule="nonzero" />
    <path id=""  transform="matrix(1 0 0 -1 0 174)"  d="M131.7041 76.73688L142.8681 76.73688L142.8681 76.73688L142.8681 65.57285L142.8681 65.57285L131.7041 65.57285z" stroke="#000000" stroke-width="0.5582014" stroke-linejoin="miter" fill="none" />
    <path id=""  transform="matrix(1 0 0 -1 0 174)"  d="M131.7041 65.57285L142.8681 65.57285L142.8681 65.57285L142.8681 54.40881L142.8681 54.40881L131.7041 54.40881z" stroke="none" fill="#FFFFFF" fill-rule="nonzero" />
    <path id=""  transform="matrix(1 0 0 -1 0 174)"  d="M131.7041 65.57285L142.8681 65.57285L142.8681 65.57285L142.8681 54.40881L142.8681 54.40881L131.7041 54.40881z" stroke="#000000" stroke-width="0.5582014" stroke-linejoin="miter" fill="none" />
    <path id=""  transform="matrix(1 0 0 -1 0 174)"  d="M98.21201 76.73129L109.376 76.73129L109.376 76.73129L109.376 65.56726L109.376 65.56726L98.21201 65.56726z" stroke="none" fill="#7EA6E0" fill-rule="nonzero" />
    <path id=""  transform="matrix(1 0 0 -1 0 174)"  d="M98.21201 76.73129L109.376 76.73129L109.376 76.73129L109.376 65.56726L109.376 65.56726L98.21201 65.56726z" stroke="#000000" stroke-width="0.5582014" stroke-linejoin="miter" fill="none" />
    <path id=""  transform="matrix(1 0 0 -1 0 174)"  d="M98.21201 65.56726L109.376 65.56726L109.376 65.56726L109.376 54.40323L109.376 54.40323L98.21201 54.40323z" stroke="none" fill="#7EA6E0" fill-rule="nonzero" />
    <path id=""  transform="matrix(1 0 0 -1 0 174)"  d="M98.21201 65.56726L109.376 65.56726L109.376 65.56726L109.376 54.40323L109.376 54.40323L98.21201 54.40323z" stroke="#000000" stroke-width="0.5582014" stroke-linejoin="miter" fill="none" />
    <path id=""  transform="matrix(1 0 0 -1 0 174)"  d="M142.8681 76.73129L154.0321 76.73129L154.0321 76.73129L154.0321 65.56726L154.0321 65.56726L142.8681 65.56726z" stroke="none" fill="#FFFFFF" fill-rule="nonzero" />
    <path id=""  transform="matrix(1 0 0 -1 0 174)"  d="M142.8681 76.73129L154.0321 76.73129L154.0321 76.73129L154.0321 65.56726L154.0321 65.56726L142.8681 65.56726z" stroke="#000000" stroke-width="0.5582014" stroke-linejoin="miter" fill="none" />
    <path id=""  transform="matrix(1 0 0 -1 0 174)"  d="M142.8681 65.56726L154.0321 65.56726L154.0321 65.56726L154.0321 54.40323L154.0321 54.40323L142.8681 54.40323z" stroke="none" fill="#FFFFFF" fill-rule="nonzero" />
    <path id=""  transform="matrix(1 0 0 -1 0 174)"  d="M142.8681 65.56726L154.0321 65.56726L154.0321 65.56726L154.0321 54.40323L154.0321 54.40323L142.8681 54.40323z" stroke="#000000" stroke-width="0.5582014" stroke-linejoin="miter" fill="none" />
    <path id=""  transform="matrix(1 0 0 -1 0 174)"  d="M109.376 54.42557L120.54 54.42557L120.54 54.42557L120.54 43.26154L120.54 43.26154L109.376 43.26154z" stroke="none" fill="#7EA6E0" fill-rule="nonzero" />
    <path id=""  transform="matrix(1 0 0 -1 0 174)"  d="M109.376 54.42557L120.54 54.42557L120.54 54.42557L120.54 43.26154L120.54 43.26154L109.376 43.26154z" stroke="#000000" stroke-width="0.5582014" stroke-linejoin="miter" fill="none" />
    <path id=""  transform="matrix(1 0 0 -1 0 174)"  d="M120.54 54.42557L131.7041 54.42557L131.7041 54.42557L131.7041 43.26154L131.7041 43.26154L120.54 43.26154z" stroke="none" fill="#7EA6E0" fill-rule="nonzero" />
    <path id=""  transform="matrix(1 0 0 -1 0 174)"  d="M120.54 54.42557L131.7041 54.42557L131.7041 54.42557L131.7041 43.26154L131.7041 43.26154L120.54 43.26154z" stroke="#000000" stroke-width="0.5582014" stroke-linejoin="miter" fill="none" />
    <path id=""  transform="matrix(1 0 0 -1 0 174)"  d="M131.7041 54.42557L142.8681 54.42557L142.8681 54.42557L142.8681 43.26154L142.8681 43.26154L131.7041 43.26154z" stroke="none" fill="#7EA6E0" fill-rule="nonzero" />
    <path id=""  transform="matrix(1 0 0 -1 0 174)"  d="M131.7041 54.42557L142.8681 54.42557L142.8681 54.42557L142.8681 43.26154L142.8681 43.26154L131.7041 43.26154z" stroke="#000000" stroke-width="0.5582014" stroke-linejoin="miter" fill="none" />
    <path id=""  transform="matrix(1 0 0 -1 0 174)"  d="M98.21201 54.41998L109.376 54.41998L109.376 54.41998L109.376 43.25595L109.376 43.25595L98.21201 43.25595z" stroke="none" fill="#FFFFFF" fill-rule="nonzero" />
    <path id=""  transform="matrix(1 0 0 -1 0 174)"  d="M98.21201 54.41998L109.376 54.41998L109.376 54.41998L109.376 43.25595L109.376 43.25595L98.21201 43.25595z" stroke="#000000" stroke-width="0.5582014" stroke-linejoin="miter" fill="none" />
    <path id=""  transform="matrix(1 0 0 -1 0 174)"  d="M142.8681 54.41998L154.0321 54.41998L154.0321 54.41998L154.0321 43.25595L154.0321 43.25595L142.8681 43.25595z" stroke="none" fill="#FFFFFF" fill-rule="nonzero" />
    <path id=""  transform="matrix(1 0 0 -1 0 174)"  d="M142.8681 54.41998L154.0321 54.41998L154.0321 54.41998L154.0321 43.25595L154.0321 43.25595L142.8681 43.25595z" stroke="#000000" stroke-width="0.5582014" stroke-linejoin="miter" fill="none" />
    <path id=""  transform="matrix(1 0 0 -1 0 174)"  d="M109.376 43.25595L120.54 43.25595L120.54 43.25595L120.54 32.09192L120.54 32.09192L109.376 32.09192z" stroke="none" fill="#FFFFFF" fill-rule="nonzero" />
    <path id=""  transform="matrix(1 0 0 -1 0 174)"  d="M109.376 43.25595L120.54 43.25595L120.54 43.25595L120.54 32.09192L120.54 32.09192L109.376 32.09192z" stroke="#000000" stroke-width="0.5582014" stroke-linejoin="miter" fill="none" />
    <path id=""  transform="matrix(1 0 0 -1 0 174)"  d="M109.376 32.09192L120.54 32.09192L120.54 32.09192L120.54 20.92789L120.54 20.92789L109.376 20.92789z" stroke="none" fill="#FFFFFF" fill-rule="nonzero" />
    <path id=""  transform="matrix(1 0 0 -1 0 174)"  d="M109.376 32.09192L120.54 32.09192L120.54 32.09192L120.54 20.92789L120.54 20.92789L109.376 20.92789z" stroke="#000000" stroke-width="0.5582014" stroke-linejoin="miter" fill="none" />
    <path id=""  transform="matrix(1 0 0 -1 0 174)"  d="M120.54 43.25595L131.7041 43.25595L131.7041 43.25595L131.7041 32.09192L131.7041 32.09192L120.54 32.09192z" stroke="none" fill="#7EA6E0" fill-rule="nonzero" />
    <path id=""  transform="matrix(1 0 0 -1 0 174)"  d="M120.54 43.25595L131.7041 43.25595L131.7041 43.25595L131.7041 32.09192L131.7041 32.09192L120.54 32.09192z" stroke="#000000" stroke-width="0.5582014" stroke-linejoin="miter" fill="none" />
    <path id=""  transform="matrix(1 0 0 -1 0 174)"  d="M120.54 32.09192L131.7041 32.09192L131.7041 32.09192L131.7041 20.92789L131.7041 20.92789L120.54 20.92789z" stroke="none" fill="#FFFFFF" fill-rule="nonzero" />
    <path id=""  transform="matrix(1 0 0 -1 0 174)"  d="M120.54 32.09192L131.7041 32.09192L131.7041 32.09192L131.7041 20.92789L131.7041 20.92789L120.54 20.92789z" stroke="#000000" stroke-width="0.5582014" stroke-linejoin="miter" fill="none" />
    <path id=""  transform="matrix(1 0 0 -1 0 174)"  d="M131.7041 43.25595L142.8681 43.25595L142.8681 43.25595L142.8681 32.09192L142.8681 32.09192L131.7041 32.09192z" stroke="none" fill="#7EA6E0" fill-rule="nonzero" />
    <path id=""  transform="matrix(1 0 0 -1 0 174)"  d="M131.7041 43.25595L142.8681 43.25595L142.8681 43.25595L142.8681 32.09192L142.8681 32.09192L131.7041 32.09192z" stroke="#000000" stroke-width="0.5582014" stroke-linejoin="miter" fill="none" />
    <path id=""  transform="matrix(1 0 0 -1 0 174)"  d="M131.7041 32.09192L142.8681 32.09192L142.8681 32.09192L142.8681 20.92789L142.8681 20.92789L131.7041 20.92789z" stroke="none" fill="#7EA6E0" fill-rule="nonzero" />
    <path id=""  transform="matrix(1 0 0 -1 0 174)"  d="M131.7041 32.09192L142.8681 32.09192L142.8681 32.09192L142.8681 20.92789L142.8681 20.92789L131.7041 20.92789z" stroke="#000000" stroke-width="0.5582014" stroke-linejoin="miter" fill="none" />
    <path id=""  transform="matrix(1 0 0 -1 0 174)"  d="M98.21201 43.25037L109.376 43.25037L109.376 43.25037L109.376 32.08633L109.376 32.08633L98.21201 32.08633z" stroke="none" fill="#FFFFFF" fill-rule="nonzero" />
    <path id=""  transform="matrix(1 0 0 -1 0 174)"  d="M98.21201 43.25037L109.376 43.25037L109.376 43.25037L109.376 32.08633L109.376 32.08633L98.21201 32.08633z" stroke="#000000" stroke-width="0.5582014" stroke-linejoin="miter" fill="none" />
    <path id=""  transform="matrix(1 0 0 -1 0 174)"  d="M98.21201 32.08633L109.376 32.08633L109.376 32.08633L109.376 20.9223L109.376 20.9223L98.21201 20.9223z" stroke="none" fill="#FFFFFF" fill-rule="nonzero" />
    <path id=""  transform="matrix(1 0 0 -1 0 174)"  d="M98.21201 32.08633L109.376 32.08633L109.376 32.08633L109.376 20.9223L109.376 20.9223L98.21201 20.9223z" stroke="#000000" stroke-width="0.5582014" stroke-linejoin="miter" fill="none" />
    <path id=""  transform="matrix(1 0 0 -1 0 174)"  d="M142.8681 43.25037L154.0321 43.25037L154.0321 43.25037L154.0321 32.08633L154.0321 32.08633L142.8681 32.08633z" stroke="none" fill="#7EA6E0" fill-rule="nonzero" />
    <path id=""  transform="matrix(1 0 0 -1 0 174)"  d="M142.8681 43.25037L154.0321 43.25037L154.0321 43.25037L154.0321 32.08633L154.0321 32.08633L142.8681 32.08633z" stroke="#000000" stroke-width="0.5582014" stroke-linejoin="miter" fill="none" />
    <path id=""  transform="matrix(1 0 0 -1 0 174)"  d="M142.8681 32.08633L154.0321 32.08633L154.0321 32.08633L154.0321 20.9223L154.0321 20.9223L142.8681 20.9223z" stroke="none" fill="#7EA6E0" fill-rule="nonzero" />
    <path id=""  transform="matrix(1 0 0 -1 0 174)"  d="M142.8681 32.08633L154.0321 32.08633L154.0321 32.08633L154.0321 20.9223L154.0321 20.9223L142.8681 20.9223z" stroke="#000000" stroke-width="0.5582014" stroke-linejoin="miter" fill="none" />
    <path id=""  transform="matrix(1 0 0 -1 0 174)"  d="M142.8681 154.8906L154.0321 154.8906L154.0321 154.8906L154.0321 143.7266L154.0321 143.7266L142.8681 143.7266z" stroke="none" fill="#FFFFFF" fill-rule="nonzero" />
    <path id=""  transform="matrix(1 0 0 -1 0 174)"  d="M142.8681 154.8906L154.0321 154.8906L154.0321 154.8906L154.0321 143.7266L154.0321 143.7266L142.8681 143.7266z" stroke="#000000" stroke-width="0.5582014" stroke-linejoin="miter" fill="none" />
    <path id=""  transform="matrix(1 0 0 -1 0 174)"  d="M53.55588 110.2401L64.71991 110.2401L64.71991 110.2401L64.71991 99.07608L64.71991 99.07608L53.55588 99.07608z" stroke="none" fill="#7EA6E0" fill-rule="nonzero" />
    <path id=""  transform="matrix(1 0 0 -1 0 174)"  d="M53.55588 110.2401L64.71991 110.2401L64.71991 110.2401L64.71991 99.07608L64.71991 99.07608L53.55588 99.07608z" stroke="#000000" stroke-width="0.5582014" stroke-linejoin="miter" fill="none" />
    <path id=""  transform="matrix(1 0 0 -1 0 174)"  d="M53.55588 99.07608L64.71991 99.07608L64.71991 99.07608L64.71991 87.91206L64.71991 87.91206L53.55588 87.91206z" stroke="none" fill="#FFFFFF" fill-rule="nonzero" />
    <path id=""  transform="matrix(1 0 0 -1 0 174)"  d="M53.55588 99.07608L64.71991 99.07608L64.71991 99.07608L64.71991 87.91206L64.71991 87.91206L53.55588 87.91206z" stroke="#000000" stroke-width="0.5582014" stroke-linejoin="miter" fill="none" />
    <path id=""  transform="matrix(1 0 0 -1 0 174)"  d="M53.55588 87.91206L64.71991 87.91206L64.71991 87.91206L64.71991 76.74803L64.71991 76.74803L53.55588 76.74803z" stroke="none" fill="#FFFFFF" fill-rule="nonzero" />
    <path id=""  transform="matrix(1 0 0 -1 0 174)"  d="M53.55588 87.91206L64.71991 87.91206L64.71991 87.91206L64.71991 76.74803L64.71991 76.74803L53.55588 76.74803z" stroke="#000000" stroke-width="0.5582014" stroke-linejoin="miter" fill="none" />
    <path id=""  transform="matrix(1 0 0 -1 0 174)"  d="M64.71991 110.2401L75.88394 110.2401L75.88394 110.2401L75.88394 99.07608L75.88394 99.07608L64.71991 99.07608z" stroke="none" fill="#7EA6E0" fill-rule="nonzero" />
    <path id=""  transform="matrix(1 0 0 -1 0 174)"  d="M64.71991 110.2401L75.88394 110.2401L75.88394 110.2401L75.88394 99.07608L75.88394 99.07608L64.71991 99.07608z" stroke="#000000" stroke-width="0.5582014" stroke-linejoin="miter" fill="none" />
    <path id=""  transform="matrix(1 0 0 -1 0 174)"  d="M64.71991 99.07608L75.88394 99.07608L75.88394 99.07608L75.88394 87.91206L75.88394 87.91206L64.71991 87.91206z" stroke="none" fill="#7EA6E0" fill-rule="nonzero" />
    <path id=""  transform="matrix(1 0 0 -1 0 174)"  d="M64.71991 99.07608L75.88394 99.07608L75.88394 99.07608L75.88394 87.91206L75.88394 87.91206L64.71991 87.91206z" stroke="#000000" stroke-width="0.5582014" stroke-linejoin="miter" fill="none" />
    <path id=""  transform="matrix(1 0 0 -1 0 174)"  d="M64.71991 87.91206L75.88394 87.91206L75.88394 87.91206L75.88394 76.74803L75.88394 76.74803L64.71991 76.74803z" stroke="none" fill="#FFFFFF" fill-rule="nonzero" />
    <path id=""  transform="matrix(1 0 0 -1 0 174)"  d="M64.71991 87.91206L75.88394 87.91206L75.88394 87.91206L75.88394 76.74803L75.88394 76.74803L64.71991 76.74803z" stroke="#000000" stroke-width="0.5582014" stroke-linejoin="miter" fill="none" />
    <path id=""  transform="matrix(1 0 0 -1 0 174)"  d="M75.88394 110.2401L87.04797 110.2401L87.04797 110.2401L87.04797 99.07608L87.04797 99.07608L75.88394 99.07608z" stroke="none" fill="#7EA6E0" fill-rule="nonzero" />
    <path id=""  transform="matrix(1 0 0 -1 0 174)"  d="M75.88394 110.2401L87.04797 110.2401L87.04797 110.2401L87.04797 99.07608L87.04797 99.07608L75.88394 99.07608z" stroke="#000000" stroke-width="0.5582014" stroke-linejoin="miter" fill="none" />
    <path id=""  transform="matrix(1 0 0 -1 0 174)"  d="M75.88394 99.07608L87.04797 99.07608L87.04797 99.07608L87.04797 87.91206L87.04797 87.91206L75.88394 87.91206z" stroke="none" fill="#7EA6E0" fill-rule="nonzero" />
    <path id=""  transform="matrix(1 0 0 -1 0 174)"  d="M75.88394 99.07608L87.04797 99.07608L87.04797 99.07608L87.04797 87.91206L87.04797 87.91206L75.88394 87.91206z" stroke="#000000" stroke-width="0.5582014" stroke-linejoin="miter" fill="none" />
    <path id=""  transform="matrix(1 0 0 -1 0 174)"  d="M75.88394 87.91206L87.04797 87.91206L87.04797 87.91206L87.04797 76.74803L87.04797 76.74803L75.88394 76.74803z" stroke="none" fill="#7EA6E0" fill-rule="nonzero" />
    <path id=""  transform="matrix(1 0 0 -1 0 174)"  d="M75.88394 87.91206L87.04797 87.91206L87.04797 87.91206L87.04797 76.74803L87.04797 76.74803L75.88394 76.74803z" stroke="#000000" stroke-width="0.5582014" stroke-linejoin="miter" fill="none" />
    <path id=""  transform="matrix(1 0 0 -1 0 174)"  d="M42.39185 110.2345L53.55588 110.2345L53.55588 110.2345L53.55588 99.0705L53.55588 99.0705L42.39185 99.0705z" stroke="none" fill="#FFFFFF" fill-rule="nonzero" />
    <path id=""  transform="matrix(1 0 0 -1 0 174)"  d="M42.39185 110.2345L53.55588 110.2345L53.55588 110.2345L53.55588 99.0705L53.55588 99.0705L42.39185 99.0705z" stroke="#000000" stroke-width="0.5582014" stroke-linejoin="miter" fill="none" />
    <path id=""  transform="matrix(1 0 0 -1 0 174)"  d="M42.39185 99.0705L53.55588 99.0705L53.55588 99.0705L53.55588 87.90648L53.55588 87.90648L42.39185 87.90648z" stroke="none" fill="#FFFFFF" fill-rule="nonzero" />
    <path id=""  transform="matrix(1 0 0 -1 0 174)"  d="M42.39185 99.0705L53.55588 99.0705L53.55588 99.0705L53.55588 87.90648L53.55588 87.90648L42.39185 87.90648z" stroke="#000000" stroke-width="0.5582014" stroke-linejoin="miter" fill="none" />
    <path id=""  transform="matrix(1 0 0 -1 0 174)"  d="M42.39185 87.90648L53.55588 87.90648L53.55588 87.90648L53.55588 76.74245L53.55588 76.74245L42.39185 76.74245z" stroke="none" fill="#FFFFFF" fill-rule="nonzero" />
    <path id=""  transform="matrix(1 0 0 -1 0 174)"  d="M42.39185 87.90648L53.55588 87.90648L53.55588 87.90648L53.55588 76.74245L53.55588 76.74245L42.39185 76.74245z" stroke="#000000" stroke-width="0.5582014" stroke-linejoin="miter" fill="none" />
    <path id=""  transform="matrix(1 0 0 -1 0 174)"  d="M87.04797 99.0705L98.21201 99.0705L98.21201 99.0705L98.21201 87.90648L98.21201 87.90648L87.04797 87.90648z" stroke="none" fill="#7EA6E0" fill-rule="nonzero" />
    <path id=""  transform="matrix(1 0 0 -1 0 174)"  d="M87.04797 99.0705L98.21201 99.0705L98.21201 99.0705L98.21201 87.90648L98.21201 87.90648L87.04797 87.90648z" stroke="#000000" stroke-width="0.5582014" stroke-linejoin="miter" fill="none" />
    <path id=""  transform="matrix(1 0 0 -1 0 174)"  d="M87.04797 121.4041L98.21201 121.4041L98.21201 121.4041L98.21201 110.2401L98.21201 110.2401L87.04797 110.2401z" stroke="none" fill="#FFFFFF" fill-rule="nonzero" />
    <path id=""  transform="matrix(1 0 0 -1 0 174)"  d="M87.04797 121.4041L98.21201 121.4041L98.21201 121.4041L98.21201 110.2401L98.21201 110.2401L87.04797 110.2401z" stroke="#000000" stroke-width="0.5582014" stroke-linejoin="miter" fill="none" />
    <path id=""  transform="matrix(1 0 0 -1 0 174)"  d="M87.04797 143.7322L98.21201 143.7322L98.21201 143.7322L98.21201 132.5682L98.21201 132.5682L87.04797 132.5682z" stroke="none" fill="#FFFFFF" fill-rule="nonzero" />
    <path id=""  transform="matrix(1 0 0 -1 0 174)"  d="M87.04797 143.7322L98.21201 143.7322L98.21201 143.7322L98.21201 132.5682L98.21201 132.5682L87.04797 132.5682z" stroke="#000000" stroke-width="0.5582014" stroke-linejoin="miter" fill="none" />
    <path id=""  transform="matrix(1 0 0 -1 0 174)"  d="M87.04797 87.90648L98.21201 87.90648L98.21201 87.90648L98.21201 76.74245L98.21201 76.74245L87.04797 76.74245z" stroke="none" fill="#7EA6E0" fill-rule="nonzero" />
    <path id=""  transform="matrix(1 0 0 -1 0 174)"  d="M87.04797 87.90648L98.21201 87.90648L98.21201 87.90648L98.21201 76.74245L98.21201 76.74245L87.04797 76.74245z" stroke="#000000" stroke-width="0.5582014" stroke-linejoin="miter" fill="none" />
    <path id=""  transform="matrix(1 0 0 -1 0 174)"  d="M87.04797 110.2345L98.21201 110.2345L98.21201 110.2345L98.21201 99.0705L98.21201 99.0705L87.04797 99.0705z" stroke="none" fill="#FFFFFF" fill-rule="nonzero" />
    <path id=""  transform="matrix(1 0 0 -1 0 174)"  d="M87.04797 110.2345L98.21201 110.2345L98.21201 110.2345L98.21201 99.0705L98.21201 99.0705L87.04797 99.0705z" stroke="#000000" stroke-width="0.5582014" stroke-linejoin="miter" fill="none" />
    <path id=""  transform="matrix(1 0 0 -1 0 174)"  d="M87.04797 132.5682L98.21201 132.5682L98.21201 132.5682L98.21201 121.4041L98.21201 121.4041L87.04797 121.4041z" stroke="none" fill="#FFFFFF" fill-rule="nonzero" />
    <path id=""  transform="matrix(1 0 0 -1 0 174)"  d="M87.04797 132.5682L98.21201 132.5682L98.21201 132.5682L98.21201 121.4041L98.21201 121.4041L87.04797 121.4041z" stroke="#000000" stroke-width="0.5582014" stroke-linejoin="miter" fill="none" />
    <path id=""  transform="matrix(1 0 0 -1 0 174)"  d="M42.39185 132.5682L53.55588 132.5682L53.55588 132.5682L53.55588 121.4041L53.55588 121.4041L42.39185 121.4041z" stroke="none" fill="#7EA6E0" fill-rule="nonzero" />
    <path id=""  transform="matrix(1 0 0 -1 0 174)"  d="M42.39185 132.5682L53.55588 132.5682L53.55588 132.5682L53.55588 121.4041L53.55588 121.4041L42.39185 121.4041z" stroke="#000000" stroke-width="0.5582014" stroke-linejoin="miter" fill="none" />
    <path id=""  transform="matrix(1 0 0 -1 0 174)"  d="M42.39185 121.4041L53.55588 121.4041L53.55588 121.4041L53.55588 110.2401L53.55588 110.2401L42.39185 110.2401z" stroke="none" fill="#7EA6E0" fill-rule="nonzero" />
    <path id=""  transform="matrix(1 0 0 -1 0 174)"  d="M42.39185 121.4041L53.55588 121.4041L53.55588 121.4041L53.55588 110.2401L53.55588 110.2401L42.39185 110.2401z" stroke="#000000" stroke-width="0.5582014" stroke-linejoin="miter" fill="none" />
    <path id=""  transform="matrix(1 0 0 -1 0 174)"  d="M42.39185 143.7322L53.55588 143.7322L53.55588 143.7322L53.55588 132.5682L53.55588 132.5682L42.39185 132.5682z" stroke="none" fill="#7EA6E0" fill-rule="nonzero" />
    <path id=""  transform="matrix(1 0 0 -1 0 174)"  d="M42.39185 143.7322L53.55588 143.7322L53.55588 143.7322L53.55588 132.5682L53.55588 132.5682L42.39185 132.5682z" stroke="#000000" stroke-width="0.5582014" stroke-linejoin="miter" fill="none" />
    <path id=""  transform="matrix(1 0 0 -1 0 174)"  d="M42.39185 154.8962L53.55588 154.8962L53.55588 154.8962L53.55588 143.7322L53.55588 143.7322L42.39185 143.7322z" stroke="none" fill="#FFFFFF" fill-rule="nonzero" />
    <path id=""  transform="matrix(1 0 0 -1 0 174)"  d="M42.39185 154.8962L53.55588 154.8962L53.55588 154.8962L53.55588 143.7322L53.55588 143.7322L42.39185 143.7322z" stroke="#000000" stroke-width="0.5582014" stroke-linejoin="miter" fill="none" />
    <path id=""  transform="matrix(1 0 0 -1 0 174)"  d="M53.55588 132.5682L64.71991 132.5682L64.71991 132.5682L64.71991 121.4041L64.71991 121.4041L53.55588 121.4041z" stroke="none" fill="#7EA6E0" fill-rule="nonzero" />
    <path id=""  transform="matrix(1 0 0 -1 0 174)"  d="M53.55588 132.5682L64.71991 132.5682L64.71991 132.5682L64.71991 121.4041L64.71991 121.4041L53.55588 121.4041z" stroke="#000000" stroke-width="0.5582014" stroke-linejoin="miter" fill="none" />
    <path id=""  transform="matrix(1 0 0 -1 0 174)"  d="M53.55588 121.4041L64.71991 121.4041L64.71991 121.4041L64.71991 110.2401L64.71991 110.2401L53.55588 110.2401z" stroke="none" fill="#7EA6E0" fill-rule="nonzero" />
    <path id=""  transform="matrix(1 0 0 -1 0 174)"  d="M53.55588 121.4041L64.71991 121.4041L64.71991 121.4041L64.71991 110.2401L64.71991 110.2401L53.55588 110.2401z" stroke="#000000" stroke-width="0.5582014" stroke-linejoin="miter" fill="none" />
    <path id=""  transform="matrix(1 0 0 -1 0 174)"  d="M53.55588 143.7322L64.71991 143.7322L64.71991 143.7322L64.71991 132.5682L64.71991 132.5682L53.55588 132.5682z" stroke="none" fill="#FFFFFF" fill-rule="nonzero" />
    <path id=""  transform="matrix(1 0 0 -1 0 174)"  d="M53.55588 143.7322L64.71991 143.7322L64.71991 143.7322L64.71991 132.5682L64.71991 132.5682L53.55588 132.5682z" stroke="#000000" stroke-width="0.5582014" stroke-linejoin="miter" fill="none" />
    <path id=""  transform="matrix(1 0 0 -1 0 174)"  d="M53.55588 154.8962L64.71991 154.8962L64.71991 154.8962L64.71991 143.7322L64.71991 143.7322L53.55588 143.7322z" stroke="none" fill="#FFFFFF" fill-rule="nonzero" />
    <path id=""  transform="matrix(1 0 0 -1 0 174)"  d="M53.55588 154.8962L64.71991 154.8962L64.71991 154.8962L64.71991 143.7322L64.71991 143.7322L53.55588 143.7322z" stroke="#000000" stroke-width="0.5582014" stroke-linejoin="miter" fill="none" />
    <path id=""  transform="matrix(1 0 0 -1 0 174)"  d="M64.71991 132.5682L75.88394 132.5682L75.88394 132.5682L75.88394 121.4041L75.88394 121.4041L64.71991 121.4041z" stroke="none" fill="#FFFFFF" fill-rule="nonzero" />
    <path id=""  transform="matrix(1 0 0 -1 0 174)"  d="M64.71991 132.5682L75.88394 132.5682L75.88394 132.5682L75.88394 121.4041L75.88394 121.4041L64.71991 121.4041z" stroke="#000000" stroke-width="0.5582014" stroke-linejoin="miter" fill="none" />
    <path id=""  transform="matrix(1 0 0 -1 0 174)"  d="M64.71991 121.4041L75.88394 121.4041L75.88394 121.4041L75.88394 110.2401L75.88394 110.2401L64.71991 110.2401z" stroke="none" fill="#7EA6E0" fill-rule="nonzero" />
    <path id=""  transform="matrix(1 0 0 -1 0 174)"  d="M64.71991 121.4041L75.88394 121.4041L75.88394 121.4041L75.88394 110.2401L75.88394 110.2401L64.71991 110.2401z" stroke="#000000" stroke-width="0.5582014" stroke-linejoin="miter" fill="none" />
    <path id=""  transform="matrix(1 0 0 -1 0 174)"  d="M64.71991 143.7322L75.88394 143.7322L75.88394 143.7322L75.88394 132.5682L75.88394 132.5682L64.71991 132.5682z" stroke="none" fill="#FFFFFF" fill-rule="nonzero" />
    <path id=""  transform="matrix(1 0 0 -1 0 174)"  d="M64.71991 143.7322L75.88394 143.7322L75.88394 143.7322L75.88394 132.5682L75.88394 132.5682L64.71991 132.5682z" stroke="#000000" stroke-width="0.5582014" stroke-linejoin="miter" fill="none" />
    <path id=""  transform="matrix(1 0 0 -1 0 174)"  d="M64.71991 154.8962L75.88394 154.8962L75.88394 154.8962L75.88394 143.7322L75.88394 143.7322L64.71991 143.7322z" stroke="none" fill="#FFFFFF" fill-rule="nonzero" />
    <path id=""  transform="matrix(1 0 0 -1 0 174)"  d="M64.71991 154.8962L75.88394 154.8962L75.88394 154.8962L75.88394 143.7322L75.88394 143.7322L64.71991 143.7322z" stroke="#000000" stroke-width="0.5582014" stroke-linejoin="miter" fill="none" />
    <path id=""  transform="matrix(1 0 0 -1 0 174)"  d="M75.88394 132.5682L87.04797 132.5682L87.04797 132.5682L87.04797 121.4041L87.04797 121.4041L75.88394 121.4041z" stroke="none" fill="#FFFFFF" fill-rule="nonzero" />
    <path id=""  transform="matrix(1 0 0 -1 0 174)"  d="M75.88394 132.5682L87.04797 132.5682L87.04797 132.5682L87.04797 121.4041L87.04797 121.4041L75.88394 121.4041z" stroke="#000000" stroke-width="0.5582014" stroke-linejoin="miter" fill="none" />
    <path id=""  transform="matrix(1 0 0 -1 0 174)"  d="M75.88394 121.4041L87.04797 121.4041L87.04797 121.4041L87.04797 110.2401L87.04797 110.2401L75.88394 110.2401z" stroke="none" fill="#FFFFFF" fill-rule="nonzero" />
    <path id=""  transform="matrix(1 0 0 -1 0 174)"  d="M75.88394 121.4041L87.04797 121.4041L87.04797 121.4041L87.04797 110.2401L87.04797 110.2401L75.88394 110.2401z" stroke="#000000" stroke-width="0.5582014" stroke-linejoin="miter" fill="none" />
    <path id=""  transform="matrix(1 0 0 -1 0 174)"  d="M75.88394 143.7322L87.04797 143.7322L87.04797 143.7322L87.04797 132.5682L87.04797 132.5682L75.88394 132.5682z" stroke="none" fill="#FFFFFF" fill-rule="nonzero" />
    <path id=""  transform="matrix(1 0 0 -1 0 174)"  d="M75.88394 143.7322L87.04797 143.7322L87.04797 143.7322L87.04797 132.5682L87.04797 132.5682L75.88394 132.5682z" stroke="#000000" stroke-width="0.5582014" stroke-linejoin="miter" fill="none" />
    <path id=""  transform="matrix(1 0 0 -1 0 174)"  d="M75.88394 154.8962L87.04797 154.8962L87.04797 154.8962L87.04797 143.7322L87.04797 143.7322L75.88394 143.7322z" stroke="none" fill="#FFFFFF" fill-rule="nonzero" />
    <path id=""  transform="matrix(1 0 0 -1 0 174)"  d="M75.88394 154.8962L87.04797 154.8962L87.04797 154.8962L87.04797 143.7322L87.04797 143.7322L75.88394 143.7322z" stroke="#000000" stroke-width="0.5582014" stroke-linejoin="miter" fill="none" />
    <path id=""  transform="matrix(1 0 0 -1 0 174)"  d="M53.55588 76.74245L64.71991 76.74245L64.71991 76.74245L64.71991 65.57841L64.71991 65.57841L53.55588 65.57841z" stroke="none" fill="#FFFFFF" fill-rule="nonzero" />
    <path id=""  transform="matrix(1 0 0 -1 0 174)"  d="M53.55588 76.74245L64.71991 76.74245L64.71991 76.74245L64.71991 65.57841L64.71991 65.57841L53.55588 65.57841z" stroke="#000000" stroke-width="0.5582014" stroke-linejoin="miter" fill="none" />
    <path id=""  transform="matrix(1 0 0 -1 0 174)"  d="M53.55588 65.57841L64.71991 65.57841L64.71991 65.57841L64.71991 54.41438L64.71991 54.41438L53.55588 54.41438z" stroke="none" fill="#FFFFFF" fill-rule="nonzero" />
    <path id=""  transform="matrix(1 0 0 -1 0 174)"  d="M53.55588 65.57841L64.71991 65.57841L64.71991 65.57841L64.71991 54.41438L64.71991 54.41438L53.55588 54.41438z" stroke="#000000" stroke-width="0.5582014" stroke-linejoin="miter" fill="none" />
    <path id=""  transform="matrix(1 0 0 -1 0 174)"  d="M64.71991 76.74245L75.88394 76.74245L75.88394 76.74245L75.88394 65.57841L75.88394 65.57841L64.71991 65.57841z" stroke="none" fill="#FFFFFF" fill-rule="nonzero" />
    <path id=""  transform="matrix(1 0 0 -1 0 174)"  d="M64.71991 76.74245L75.88394 76.74245L75.88394 76.74245L75.88394 65.57841L75.88394 65.57841L64.71991 65.57841z" stroke="#000000" stroke-width="0.5582014" stroke-linejoin="miter" fill="none" />
    <path id=""  transform="matrix(1 0 0 -1 0 174)"  d="M64.71991 65.57841L75.88394 65.57841L75.88394 65.57841L75.88394 54.41438L75.88394 54.41438L64.71991 54.41438z" stroke="none" fill="#FFFFFF" fill-rule="nonzero" />
    <path id=""  transform="matrix(1 0 0 -1 0 174)"  d="M64.71991 65.57841L75.88394 65.57841L75.88394 65.57841L75.88394 54.41438L75.88394 54.41438L64.71991 54.41438z" stroke="#000000" stroke-width="0.5582014" stroke-linejoin="miter" fill="none" />
    <path id=""  transform="matrix(1 0 0 -1 0 174)"  d="M75.88394 76.74245L87.04797 76.74245L87.04797 76.74245L87.04797 65.57841L87.04797 65.57841L75.88394 65.57841z" stroke="none" fill="#FFFFFF" fill-rule="nonzero" />
    <path id=""  transform="matrix(1 0 0 -1 0 174)"  d="M75.88394 76.74245L87.04797 76.74245L87.04797 76.74245L87.04797 65.57841L87.04797 65.57841L75.88394 65.57841z" stroke="#000000" stroke-width="0.5582014" stroke-linejoin="miter" fill="none" />
    <path id=""  transform="matrix(1 0 0 -1 0 174)"  d="M75.88394 65.57841L87.04797 65.57841L87.04797 65.57841L87.04797 54.41438L87.04797 54.41438L75.88394 54.41438z" stroke="none" fill="#FFFFFF" fill-rule="nonzero" />
    <path id=""  transform="matrix(1 0 0 -1 0 174)"  d="M75.88394 65.57841L87.04797 65.57841L87.04797 65.57841L87.04797 54.41438L87.04797 54.41438L75.88394 54.41438z" stroke="#000000" stroke-width="0.5582014" stroke-linejoin="miter" fill="none" />
    <path id=""  transform="matrix(1 0 0 -1 0 174)"  d="M42.39185 76.73688L53.55588 76.73688L53.55588 76.73688L53.55588 65.57285L53.55588 65.57285L42.39185 65.57285z" stroke="none" fill="#FFFFFF" fill-rule="nonzero" />
    <path id=""  transform="matrix(1 0 0 -1 0 174)"  d="M42.39185 76.73688L53.55588 76.73688L53.55588 76.73688L53.55588 65.57285L53.55588 65.57285L42.39185 65.57285z" stroke="#000000" stroke-width="0.5582014" stroke-linejoin="miter" fill="none" />
    <path id=""  transform="matrix(1 0 0 -1 0 174)"  d="M42.39185 65.57285L53.55588 65.57285L53.55588 65.57285L53.55588 54.40881L53.55588 54.40881L42.39185 54.40881z" stroke="none" fill="#FFFFFF" fill-rule="nonzero" />
    <path id=""  transform="matrix(1 0 0 -1 0 174)"  d="M42.39185 65.57285L53.55588 65.57285L53.55588 65.57285L53.55588 54.40881L53.55588 54.40881L42.39185 54.40881z" stroke="#000000" stroke-width="0.5582014" stroke-linejoin="miter" fill="none" />
    <path id=""  transform="matrix(1 0 0 -1 0 174)"  d="M87.04797 76.73688L98.21201 76.73688L98.21201 76.73688L98.21201 65.57285L98.21201 65.57285L87.04797 65.57285z" stroke="none" fill="#7EA6E0" fill-rule="nonzero" />
    <path id=""  transform="matrix(1 0 0 -1 0 174)"  d="M87.04797 76.73688L98.21201 76.73688L98.21201 76.73688L98.21201 65.57285L98.21201 65.57285L87.04797 65.57285z" stroke="#000000" stroke-width="0.5582014" stroke-linejoin="miter" fill="none" />
    <path id=""  transform="matrix(1 0 0 -1 0 174)"  d="M87.04797 65.57285L98.21201 65.57285L98.21201 65.57285L98.21201 54.40881L98.21201 54.40881L87.04797 54.40881z" stroke="none" fill="#FFFFFF" fill-rule="nonzero" />
    <path id=""  transform="matrix(1 0 0 -1 0 174)"  d="M87.04797 65.57285L98.21201 65.57285L98.21201 65.57285L98.21201 54.40881L98.21201 54.40881L87.04797 54.40881z" stroke="#000000" stroke-width="0.5582014" stroke-linejoin="miter" fill="none" />
    <path id=""  transform="matrix(1 0 0 -1 0 174)"  d="M53.55588 54.43114L64.71991 54.43114L64.71991 54.43114L64.71991 43.26711L64.71991 43.26711L53.55588 43.26711z" stroke="none" fill="#FFFFFF" fill-rule="nonzero" />
    <path id=""  transform="matrix(1 0 0 -1 0 174)"  d="M53.55588 54.43114L64.71991 54.43114L64.71991 54.43114L64.71991 43.26711L64.71991 43.26711L53.55588 43.26711z" stroke="#000000" stroke-width="0.5582014" stroke-linejoin="miter" fill="none" />
    <path id=""  transform="matrix(1 0 0 -1 0 174)"  d="M64.71991 54.43114L75.88394 54.43114L75.88394 54.43114L75.88394 43.26711L75.88394 43.26711L64.71991 43.26711z" stroke="none" fill="#FFFFFF" fill-rule="nonzero" />
    <path id=""  transform="matrix(1 0 0 -1 0 174)"  d="M64.71991 54.43114L75.88394 54.43114L75.88394 54.43114L75.88394 43.26711L75.88394 43.26711L64.71991 43.26711z" stroke="#000000" stroke-width="0.5582014" stroke-linejoin="miter" fill="none" />
    <path id=""  transform="matrix(1 0 0 -1 0 174)"  d="M75.88394 54.43114L87.04797 54.43114L87.04797 54.43114L87.04797 43.26711L87.04797 43.26711L75.88394 43.26711z" stroke="none" fill="#FFFFFF" fill-rule="nonzero" />
    <path id=""  transform="matrix(1 0 0 -1 0 174)"  d="M75.88394 54.43114L87.04797 54.43114L87.04797 54.43114L87.04797 43.26711L87.04797 43.26711L75.88394 43.26711z" stroke="#000000" stroke-width="0.5582014" stroke-linejoin="miter" fill="none" />
    <path id=""  transform="matrix(1 0 0 -1 0 174)"  d="M42.39185 54.42557L53.55588 54.42557L53.55588 54.42557L53.55588 43.26154L53.55588 43.26154L42.39185 43.26154z" stroke="none" fill="#FFFFFF" fill-rule="nonzero" />
    <path id=""  transform="matrix(1 0 0 -1 0 174)"  d="M42.39185 54.42557L53.55588 54.42557L53.55588 54.42557L53.55588 43.26154L53.55588 43.26154L42.39185 43.26154z" stroke="#000000" stroke-width="0.5582014" stroke-linejoin="miter" fill="none" />
    <path id=""  transform="matrix(1 0 0 -1 0 174)"  d="M87.04797 54.42557L98.21201 54.42557L98.21201 54.42557L98.21201 43.26154L98.21201 43.26154L87.04797 43.26154z" stroke="none" fill="#FFFFFF" fill-rule="nonzero" />
    <path id=""  transform="matrix(1 0 0 -1 0 174)"  d="M87.04797 54.42557L98.21201 54.42557L98.21201 54.42557L98.21201 43.26154L98.21201 43.26154L87.04797 43.26154z" stroke="#000000" stroke-width="0.5582014" stroke-linejoin="miter" fill="none" />
    <path id=""  transform="matrix(1 0 0 -1 0 174)"  d="M53.55588 43.26154L64.71991 43.26154L64.71991 43.26154L64.71991 32.0975L64.71991 32.0975L53.55588 32.0975z" stroke="none" fill="#FFFFFF" fill-rule="nonzero" />
    <path id=""  transform="matrix(1 0 0 -1 0 174)"  d="M53.55588 43.26154L64.71991 43.26154L64.71991 43.26154L64.71991 32.0975L64.71991 32.0975L53.55588 32.0975z" stroke="#000000" stroke-width="0.5582014" stroke-linejoin="miter" fill="none" />
    <path id=""  transform="matrix(1 0 0 -1 0 174)"  d="M53.55588 32.0975L64.71991 32.0975L64.71991 32.0975L64.71991 20.93347L64.71991 20.93347L53.55588 20.93347z" stroke="none" fill="#FFFFFF" fill-rule="nonzero" />
    <path id=""  transform="matrix(1 0 0 -1 0 174)"  d="M53.55588 32.0975L64.71991 32.0975L64.71991 32.0975L64.71991 20.93347L64.71991 20.93347L53.55588 20.93347z" stroke="#000000" stroke-width="0.5582014" stroke-linejoin="miter" fill="none" />
    <path id=""  transform="matrix(1 0 0 -1 0 174)"  d="M64.71991 43.26154L75.88394 43.26154L75.88394 43.26154L75.88394 32.0975L75.88394 32.0975L64.71991 32.0975z" stroke="none" fill="#FFFFFF" fill-rule="nonzero" />
    <path id=""  transform="matrix(1 0 0 -1 0 174)"  d="M64.71991 43.26154L75.88394 43.26154L75.88394 43.26154L75.88394 32.0975L75.88394 32.0975L64.71991 32.0975z" stroke="#000000" stroke-width="0.5582014" stroke-linejoin="miter" fill="none" />
    <path id=""  transform="matrix(1 0 0 -1 0 174)"  d="M64.71991 32.0975L75.88394 32.0975L75.88394 32.0975L75.88394 20.93347L75.88394 20.93347L64.71991 20.93347z" stroke="none" fill="#FFFFFF" fill-rule="nonzero" />
    <path id=""  transform="matrix(1 0 0 -1 0 174)"  d="M64.71991 32.0975L75.88394 32.0975L75.88394 32.0975L75.88394 20.93347L75.88394 20.93347L64.71991 20.93347z" stroke="#000000" stroke-width="0.5582014" stroke-linejoin="miter" fill="none" />
    <path id=""  transform="matrix(1 0 0 -1 0 174)"  d="M75.88394 43.26154L87.04797 43.26154L87.04797 43.26154L87.04797 32.0975L87.04797 32.0975L75.88394 32.0975z" stroke="none" fill="#FFFFFF" fill-rule="nonzero" />
    <path id=""  transform="matrix(1 0 0 -1 0 174)"  d="M75.88394 43.26154L87.04797 43.26154L87.04797 43.26154L87.04797 32.0975L87.04797 32.0975L75.88394 32.0975z" stroke="#000000" stroke-width="0.5582014" stroke-linejoin="miter" fill="none" />
    <path id=""  transform="matrix(1 0 0 -1 0 174)"  d="M75.88394 32.0975L87.04797 32.0975L87.04797 32.0975L87.04797 20.93347L87.04797 20.93347L75.88394 20.93347z" stroke="none" fill="#FFFFFF" fill-rule="nonzero" />
    <path id=""  transform="matrix(1 0 0 -1 0 174)"  d="M75.88394 32.0975L87.04797 32.0975L87.04797 32.0975L87.04797 20.93347L87.04797 20.93347L75.88394 20.93347z" stroke="#000000" stroke-width="0.5582014" stroke-linejoin="miter" fill="none" />
    <path id=""  transform="matrix(1 0 0 -1 0 174)"  d="M42.39185 43.25595L53.55588 43.25595L53.55588 43.25595L53.55588 32.09192L53.55588 32.09192L42.39185 32.09192z" stroke="none" fill="#FFFFFF" fill-rule="nonzero" />
    <path id=""  transform="matrix(1 0 0 -1 0 174)"  d="M42.39185 43.25595L53.55588 43.25595L53.55588 43.25595L53.55588 32.09192L53.55588 32.09192L42.39185 32.09192z" stroke="#000000" stroke-width="0.5582014" stroke-linejoin="miter" fill="none" />
    <path id=""  transform="matrix(1 0 0 -1 0 174)"  d="M42.39185 32.09192L53.55588 32.09192L53.55588 32.09192L53.55588 20.92789L53.55588 20.92789L42.39185 20.92789z" stroke="none" fill="#FFFFFF" fill-rule="nonzero" />
    <path id=""  transform="matrix(1 0 0 -1 0 174)"  d="M42.39185 32.09192L53.55588 32.09192L53.55588 32.09192L53.55588 20.92789L53.55588 20.92789L42.39185 20.92789z" stroke="#000000" stroke-width="0.5582014" stroke-linejoin="miter" fill="none" />
    <path id=""  transform="matrix(1 0 0 -1 0 174)"  d="M87.04797 43.25595L98.21201 43.25595L98.21201 43.25595L98.21201 32.09192L98.21201 32.09192L87.04797 32.09192z" stroke="none" fill="#FFFFFF" fill-rule="nonzero" />
    <path id=""  transform="matrix(1 0 0 -1 0 174)"  d="M87.04797 43.25595L98.21201 43.25595L98.21201 43.25595L98.21201 32.09192L98.21201 32.09192L87.04797 32.09192z" stroke="#000000" stroke-width="0.5582014" stroke-linejoin="miter" fill="none" />
    <path id=""  transform="matrix(1 0 0 -1 0 174)"  d="M87.04797 32.09192L98.21201 32.09192L98.21201 32.09192L98.21201 20.92789L98.21201 20.92789L87.04797 20.92789z" stroke="none" fill="#FFFFFF" fill-rule="nonzero" />
    <path id=""  transform="matrix(1 0 0 -1 0 174)"  d="M87.04797 32.09192L98.21201 32.09192L98.21201 32.09192L98.21201 20.92789L98.21201 20.92789L87.04797 20.92789z" stroke="#000000" stroke-width="0.5582014" stroke-linejoin="miter" fill="none" />
    <path id=""  transform="matrix(1 0 0 -1 0 174)"  d="M87.04797 154.8962L98.21201 154.8962L98.21201 154.8962L98.21201 143.7322L98.21201 143.7322L87.04797 143.7322z" stroke="none" fill="#FFFFFF" fill-rule="nonzero" />
    <path id=""  transform="matrix(1 0 0 -1 0 174)"  d="M87.04797 154.8962L98.21201 154.8962L98.21201 154.8962L98.21201 143.7322L98.21201 143.7322L87.04797 143.7322z" stroke="#000000" stroke-width="0.5582014" stroke-linejoin="miter" fill="none" />
    <path id=""  transform="matrix(1 0 0 -1 0 174)"  d="M31.22784 110.2457L42.39185 110.2457L42.39185 110.2457L42.39185 99.08168L42.39185 99.08168L31.22784 99.08168z" stroke="none" fill="#FFFFFF" fill-rule="nonzero" />
    <path id=""  transform="matrix(1 0 0 -1 0 174)"  d="M31.22784 110.2457L42.39185 110.2457L42.39185 110.2457L42.39185 99.08168L42.39185 99.08168L31.22784 99.08168z" stroke="#000000" stroke-width="0.5582014" stroke-linejoin="miter" fill="none" />
    <path id=""  transform="matrix(1 0 0 -1 0 174)"  d="M31.22784 99.08168L42.39185 99.08168L42.39185 99.08168L42.39185 87.91765L42.39185 87.91765L31.22784 87.91765z" stroke="none" fill="#FFFFFF" fill-rule="nonzero" />
    <path id=""  transform="matrix(1 0 0 -1 0 174)"  d="M31.22784 99.08168L42.39185 99.08168L42.39185 99.08168L42.39185 87.91765L42.39185 87.91765L31.22784 87.91765z" stroke="#000000" stroke-width="0.5582014" stroke-linejoin="miter" fill="none" />
    <path id=""  transform="matrix(1 0 0 -1 0 174)"  d="M31.22784 87.91765L42.39185 87.91765L42.39185 87.91765L42.39185 76.75362L42.39185 76.75362L31.22784 76.75362z" stroke="none" fill="#FFFFFF" fill-rule="nonzero" />
    <path id=""  transform="matrix(1 0 0 -1 0 174)"  d="M31.22784 87.91765L42.39185 87.91765L42.39185 87.91765L42.39185 76.75362L42.39185 76.75362L31.22784 76.75362z" stroke="#000000" stroke-width="0.5582014" stroke-linejoin="miter" fill="none" />
    <path id=""  transform="matrix(1 0 0 -1 0 174)"  d="M20.06381 110.2401L31.22784 110.2401L31.22784 110.2401L31.22784 99.07608L31.22784 99.07608L20.06381 99.07608z" stroke="none" fill="#FFFFFF" fill-rule="nonzero" />
    <path id=""  transform="matrix(1 0 0 -1 0 174)"  d="M20.06381 110.2401L31.22784 110.2401L31.22784 110.2401L31.22784 99.07608L31.22784 99.07608L20.06381 99.07608z" stroke="#000000" stroke-width="0.5582014" stroke-linejoin="miter" fill="none" />
    <path id=""  transform="matrix(1 0 0 -1 0 174)"  d="M20.06381 99.07608L31.22784 99.07608L31.22784 99.07608L31.22784 87.91206L31.22784 87.91206L20.06381 87.91206z" stroke="none" fill="#FFFFFF" fill-rule="nonzero" />
    <path id=""  transform="matrix(1 0 0 -1 0 174)"  d="M20.06381 99.07608L31.22784 99.07608L31.22784 99.07608L31.22784 87.91206L31.22784 87.91206L20.06381 87.91206z" stroke="#000000" stroke-width="0.5582014" stroke-linejoin="miter" fill="none" />
    <path id=""  transform="matrix(1 0 0 -1 0 174)"  d="M20.06381 87.91206L31.22784 87.91206L31.22784 87.91206L31.22784 76.74803L31.22784 76.74803L20.06381 76.74803z" stroke="none" fill="#FFFFFF" fill-rule="nonzero" />
    <path id=""  transform="matrix(1 0 0 -1 0 174)"  d="M20.06381 87.91206L31.22784 87.91206L31.22784 87.91206L31.22784 76.74803L31.22784 76.74803L20.06381 76.74803z" stroke="#000000" stroke-width="0.5582014" stroke-linejoin="miter" fill="none" />
    <path id=""  transform="matrix(1 0 0 -1 0 174)"  d="M20.06381 132.5738L31.22784 132.5738L31.22784 132.5738L31.22784 121.4097L31.22784 121.4097L20.06381 121.4097z" stroke="none" fill="#FFFFFF" fill-rule="nonzero" />
    <path id=""  transform="matrix(1 0 0 -1 0 174)"  d="M20.06381 132.5738L31.22784 132.5738L31.22784 132.5738L31.22784 121.4097L31.22784 121.4097L20.06381 121.4097z" stroke="#000000" stroke-width="0.5582014" stroke-linejoin="miter" fill="none" />
    <path id=""  transform="matrix(1 0 0 -1 0 174)"  d="M20.06381 121.4097L31.22784 121.4097L31.22784 121.4097L31.22784 110.2457L31.22784 110.2457L20.06381 110.2457z" stroke="none" fill="#FFFFFF" fill-rule="nonzero" />
    <path id=""  transform="matrix(1 0 0 -1 0 174)"  d="M20.06381 121.4097L31.22784 121.4097L31.22784 121.4097L31.22784 110.2457L31.22784 110.2457L20.06381 110.2457z" stroke="#000000" stroke-width="0.5582014" stroke-linejoin="miter" fill="none" />
    <path id=""  transform="matrix(1 0 0 -1 0 174)"  d="M20.06381 143.7378L31.22784 143.7378L31.22784 143.7378L31.22784 132.5738L31.22784 132.5738L20.06381 132.5738z" stroke="none" fill="#7EA6E0" fill-rule="nonzero" />
    <path id=""  transform="matrix(1 0 0 -1 0 174)"  d="M20.06381 143.7378L31.22784 143.7378L31.22784 143.7378L31.22784 132.5738L31.22784 132.5738L20.06381 132.5738z" stroke="#000000" stroke-width="0.5582014" stroke-linejoin="miter" fill="none" />
    <path id=""  transform="matrix(1 0 0 -1 0 174)"  d="M20.06381 154.9018L31.22784 154.9018L31.22784 154.9018L31.22784 143.7378L31.22784 143.7378L20.06381 143.7378z" stroke="none" fill="#7EA6E0" fill-rule="nonzero" />
    <path id=""  transform="matrix(1 0 0 -1 0 174)"  d="M20.06381 154.9018L31.22784 154.9018L31.22784 154.9018L31.22784 143.7378L31.22784 143.7378L20.06381 143.7378z" stroke="#000000" stroke-width="0.5582014" stroke-linejoin="miter" fill="none" />
    <path id=""  transform="matrix(1 0 0 -1 0 174)"  d="M31.22784 132.5738L42.39185 132.5738L42.39185 132.5738L42.39185 121.4097L42.39185 121.4097L31.22784 121.4097z" stroke="none" fill="#7EA6E0" fill-rule="nonzero" />
    <path id=""  transform="matrix(1 0 0 -1 0 174)"  d="M31.22784 132.5738L42.39185 132.5738L42.39185 132.5738L42.39185 121.4097L42.39185 121.4097L31.22784 121.4097z" stroke="#000000" stroke-width="0.5582014" stroke-linejoin="miter" fill="none" />
    <path id=""  transform="matrix(1 0 0 -1 0 174)"  d="M31.22784 121.4097L42.39185 121.4097L42.39185 121.4097L42.39185 110.2457L42.39185 110.2457L31.22784 110.2457z" stroke="none" fill="#FFFFFF" fill-rule="nonzero" />
    <path id=""  transform="matrix(1 0 0 -1 0 174)"  d="M31.22784 121.4097L42.39185 121.4097L42.39185 121.4097L42.39185 110.2457L42.39185 110.2457L31.22784 110.2457z" stroke="#000000" stroke-width="0.5582014" stroke-linejoin="miter" fill="none" />
    <path id=""  transform="matrix(1 0 0 -1 0 174)"  d="M31.22784 143.7378L42.39185 143.7378L42.39185 143.7378L42.39185 132.5738L42.39185 132.5738L31.22784 132.5738z" stroke="none" fill="#7EA6E0" fill-rule="nonzero" />
    <path id=""  transform="matrix(1 0 0 -1 0 174)"  d="M31.22784 143.7378L42.39185 143.7378L42.39185 143.7378L42.39185 132.5738L42.39185 132.5738L31.22784 132.5738z" stroke="#000000" stroke-width="0.5582014" stroke-linejoin="miter" fill="none" />
    <path id=""  transform="matrix(1 0 0 -1 0 174)"  d="M31.22784 154.9018L42.39185 154.9018L42.39185 154.9018L42.39185 143.7378L42.39185 143.7378L31.22784 143.7378z" stroke="none" fill="#7EA6E0" fill-rule="nonzero" />
    <path id=""  transform="matrix(1 0 0 -1 0 174)"  d="M31.22784 154.9018L42.39185 154.9018L42.39185 154.9018L42.39185 143.7378L42.39185 143.7378L31.22784 143.7378z" stroke="#000000" stroke-width="0.5582014" stroke-linejoin="miter" fill="none" />
    <path id=""  transform="matrix(1 0 0 -1 0 174)"  d="M31.22784 76.74803L42.39185 76.74803L42.39185 76.74803L42.39185 65.584L42.39185 65.584L31.22784 65.584z" stroke="none" fill="#FFFFFF" fill-rule="nonzero" />
    <path id=""  transform="matrix(1 0 0 -1 0 174)"  d="M31.22784 76.74803L42.39185 76.74803L42.39185 76.74803L42.39185 65.584L42.39185 65.584L31.22784 65.584z" stroke="#000000" stroke-width="0.5582014" stroke-linejoin="miter" fill="none" />
    <path id=""  transform="matrix(1 0 0 -1 0 174)"  d="M31.22784 65.584L42.39185 65.584L42.39185 65.584L42.39185 54.41998L42.39185 54.41998L31.22784 54.41998z" stroke="none" fill="#FFFFFF" fill-rule="nonzero" />
    <path id=""  transform="matrix(1 0 0 -1 0 174)"  d="M31.22784 65.584L42.39185 65.584L42.39185 65.584L42.39185 54.41998L42.39185 54.41998L31.22784 54.41998z" stroke="#000000" stroke-width="0.5582014" stroke-linejoin="miter" fill="none" />
    <path id=""  transform="matrix(1 0 0 -1 0 174)"  d="M20.06381 76.74245L31.22784 76.74245L31.22784 76.74245L31.22784 65.57841L31.22784 65.57841L20.06381 65.57841z" stroke="none" fill="#FFFFFF" fill-rule="nonzero" />
    <path id=""  transform="matrix(1 0 0 -1 0 174)"  d="M20.06381 76.74245L31.22784 76.74245L31.22784 76.74245L31.22784 65.57841L31.22784 65.57841L20.06381 65.57841z" stroke="#000000" stroke-width="0.5582014" stroke-linejoin="miter" fill="none" />
    <path id=""  transform="matrix(1 0 0 -1 0 174)"  d="M20.06381 65.57841L31.22784 65.57841L31.22784 65.57841L31.22784 54.41438L31.22784 54.41438L20.06381 54.41438z" stroke="none" fill="#FFFFFF" fill-rule="nonzero" />
    <path id=""  transform="matrix(1 0 0 -1 0 174)"  d="M20.06381 65.57841L31.22784 65.57841L31.22784 65.57841L31.22784 54.41438L31.22784 54.41438L20.06381 54.41438z" stroke="#000000" stroke-width="0.5582014" stroke-linejoin="miter" fill="none" />
    <path id=""  transform="matrix(1 0 0 -1 0 174)"  d="M31.22784 54.43672L42.39185 54.43672L42.39185 54.43672L42.39185 43.27269L42.39185 43.27269L31.22784 43.27269z" stroke="none" fill="#FFFFFF" fill-rule="nonzero" />
    <path id=""  transform="matrix(1 0 0 -1 0 174)"  d="M31.22784 54.43672L42.39185 54.43672L42.39185 54.43672L42.39185 43.27269L42.39185 43.27269L31.22784 43.27269z" stroke="#000000" stroke-width="0.5582014" stroke-linejoin="miter" fill="none" />
    <path id=""  transform="matrix(1 0 0 -1 0 174)"  d="M20.06381 54.43114L31.22784 54.43114L31.22784 54.43114L31.22784 43.26711L31.22784 43.26711L20.06381 43.26711z" stroke="none" fill="#FFFFFF" fill-rule="nonzero" />
    <path id=""  transform="matrix(1 0 0 -1 0 174)"  d="M20.06381 54.43114L31.22784 54.43114L31.22784 54.43114L31.22784 43.26711L31.22784 43.26711L20.06381 43.26711z" stroke="#000000" stroke-width="0.5582014" stroke-linejoin="miter" fill="none" />
    <path id=""  transform="matrix(1 0 0 -1 0 174)"  d="M31.22784 43.26711L42.39185 43.26711L42.39185 43.26711L42.39185 32.10309L42.39185 32.10309L31.22784 32.10309z" stroke="none" fill="#FFFFFF" fill-rule="nonzero" />
    <path id=""  transform="matrix(1 0 0 -1 0 174)"  d="M31.22784 43.26711L42.39185 43.26711L42.39185 43.26711L42.39185 32.10309L42.39185 32.10309L31.22784 32.10309z" stroke="#000000" stroke-width="0.5582014" stroke-linejoin="miter" fill="none" />
    <path id=""  transform="matrix(1 0 0 -1 0 174)"  d="M31.22784 32.10309L42.39185 32.10309L42.39185 32.10309L42.39185 20.93906L42.39185 20.93906L31.22784 20.93906z" stroke="none" fill="#FFFFFF" fill-rule="nonzero" />
    <path id=""  transform="matrix(1 0 0 -1 0 174)"  d="M31.22784 32.10309L42.39185 32.10309L42.39185 32.10309L42.39185 20.93906L42.39185 20.93906L31.22784 20.93906z" stroke="#000000" stroke-width="0.5582014" stroke-linejoin="miter" fill="none" />
    <path id=""  transform="matrix(1 0 0 -1 0 174)"  d="M20.06381 43.26154L31.22784 43.26154L31.22784 43.26154L31.22784 32.0975L31.22784 32.0975L20.06381 32.0975z" stroke="none" fill="#FFFFFF" fill-rule="nonzero" />
    <path id=""  transform="matrix(1 0 0 -1 0 174)"  d="M20.06381 43.26154L31.22784 43.26154L31.22784 43.26154L31.22784 32.0975L31.22784 32.0975L20.06381 32.0975z" stroke="#000000" stroke-width="0.5582014" stroke-linejoin="miter" fill="none" />
    <path id=""  transform="matrix(1 0 0 -1 0 174)"  d="M20.06381 32.0975L31.22784 32.0975L31.22784 32.0975L31.22784 20.93347L31.22784 20.93347L20.06381 20.93347z" stroke="none" fill="#FFFFFF" fill-rule="nonzero" />
    <path id=""  transform="matrix(1 0 0 -1 0 174)"  d="M20.06381 32.0975L31.22784 32.0975L31.22784 32.0975L31.22784 20.93347L31.22784 20.93347L20.06381 20.93347z" stroke="#000000" stroke-width="0.5582014" stroke-linejoin="miter" fill="none" />
		</g>
	</g>
</g>
</svg>