<?xml version="1.0" standalone="no"?>
<!DOCTYPE svg PUBLIC "-//W3C//DTD SVG 1.1//EN" "http://www.w3.org/Graphics/SVG/1.1/DTD/svg11.dtd">
<svg xmlns="http://www.w3.org/2000/svg" xmlns:xlink="http://www.w3.org/1999/xlink" version="1.1" id="body_1" width="232" height="232">

<defs>
    <clipPath  id="1">

    <path id=""  clip-rule="evenodd" transform="matrix(1 0 0 1 0 0)"  d="M0 174L0 -0.9599915L0 -0.9599915L174 -0.9599915L174 -0.9599915L174 174L174 174L0 174z" />    </clipPath>
    <clipPath  id="2">

    <path id=""  clip-rule="evenodd" transform="matrix(1 0 0 1 0 0)"  d="M0 -0.9599915L174.2344 -0.9599915L174.2344 -0.9599915L174.2344 174.0009L174.2344 174.0009L0 174.0009z" />    </clipPath>
    <clipPath  id="3">

    <path id=""  clip-rule="evenodd" transform="matrix(1 0 0 1 0 0)"  d="M18.75 17.79001L155.25 17.79001L155.25 17.79001L155.25 155.04L155.25 155.04L18.75 155.04z" />    </clipPath>
</defs>

<g transform="matrix(1.3333 0 0 1.3333 0 0)">
	<g clip-path="url(#1)" >
		<g clip-path="url(#2)" >
    <path id=""  transform="matrix(1 0 0 -1 0 174)"  d="M0 174.96L174 174.96L174 174.96L174 0.2099915L174 0.2099915L0 0.2099915z" stroke="none" fill="#FFFFFF" fill-rule="nonzero" />
		</g>
		<g clip-path="url(#3)" >
    <path id=""  transform="matrix(1 0 0 -1 0 174)"  d="M109.376 110.2345L120.54 110.2345L120.54 110.2345L120.54 99.0705L120.54 99.0705L109.376 99.0705z" stroke="none" fill="#FFFFFF" fill-rule="nonzero" />
    <path id=""  transform="matrix(1 0 0 -1 0 174)"  d="M109.376 110.2345L120.54 110.2345L120.54 110.2345L120.54 99.0705L120.54 99.0705L109.376 99.0705z" stroke="#000000" stroke-width="0.5582014" stroke-linejoin="miter" fill="none" />
    <path id=""  transform="matrix(1 0 0 -1 0 174)"  d="M109.376 99.0705L120.54 99.0705L120.54 99.0705L120.54 87.90643L120.54 87.90643L109.376 87.90643z" stroke="none" fill="#FFFFFF" fill-rule="nonzero" />
    <path id=""  transform="matrix(1 0 0 -1 0 174)"  d="M109.376 99.0705L120.54 99.0705L120.54 99.0705L120.54 87.90643L120.54 87.90643L109.376 87.90643z" stroke="#000000" stroke-width="0.5582014" stroke-linejoin="miter" fill="none" />
    <path id=""  transform="matrix(1 0 0 -1 0 174)"  d="M109.376 87.90643L120.54 87.90643L120.54 87.90643L120.54 76.74243L120.54 76.74243L109.376 76.74243z" stroke="none" fill="#FFFFFF" fill-rule="nonzero" />
    <path id=""  transform="matrix(1 0 0 -1 0 174)"  d="M109.376 87.90643L120.54 87.90643L120.54 87.90643L120.54 76.74243L120.54 76.74243L109.376 76.74243z" stroke="#000000" stroke-width="0.5582014" stroke-linejoin="miter" fill="none" />
    <path id=""  transform="matrix(1 0 0 -1 0 174)"  d="M120.54 110.2345L131.7041 110.2345L131.7041 110.2345L131.7041 99.0705L131.7041 99.0705L120.54 99.0705z" stroke="none" fill="#FFFFFF" fill-rule="nonzero" />
    <path id=""  transform="matrix(1 0 0 -1 0 174)"  d="M120.54 110.2345L131.7041 110.2345L131.7041 110.2345L131.7041 99.0705L131.7041 99.0705L120.54 99.0705z" stroke="#000000" stroke-width="0.5582014" stroke-linejoin="miter" fill="none" />
    <path id=""  transform="matrix(1 0 0 -1 0 174)"  d="M120.54 99.0705L131.7041 99.0705L131.7041 99.0705L131.7041 87.90643L131.7041 87.90643L120.54 87.90643z" stroke="none" fill="#FFFFFF" fill-rule="nonzero" />
    <path id=""  transform="matrix(1 0 0 -1 0 174)"  d="M120.54 99.0705L131.7041 99.0705L131.7041 99.0705L131.7041 87.90643L131.7041 87.90643L120.54 87.90643z" stroke="#000000" stroke-width="0.5582014" stroke-linejoin="miter" fill="none" />
    <path id=""  transform="matrix(1 0 0 -1 0 174)"  d="M120.54 87.90643L131.7041 87.90643L131.7041 87.90643L131.7041 76.74243L131.7041 76.74243L120.54 76.74243z" stroke="none" fill="#FFFFFF" fill-rule="nonzero" />
    <path id=""  transform="matrix(1 0 0 -1 0 174)"  d="M120.54 87.90643L131.7041 87.90643L131.7041 87.90643L131.7041 76.74243L131.7041 76.74243L120.54 76.74243z" stroke="#000000" stroke-width="0.5582014" stroke-linejoin="miter" fill="none" />
    <path id=""  transform="matrix(1 0 0 -1 0 174)"  d="M131.7041 110.2345L142.8681 110.2345L142.8681 110.2345L142.8681 99.0705L142.8681 99.0705L131.7041 99.0705z" stroke="none" fill="#FFFFFF" fill-rule="nonzero" />
    <path id=""  transform="matrix(1 0 0 -1 0 174)"  d="M131.7041 110.2345L142.8681 110.2345L142.8681 110.2345L142.8681 99.0705L142.8681 99.0705L131.7041 99.0705z" stroke="#000000" stroke-width="0.5582014" stroke-linejoin="miter" fill="none" />
    <path id=""  transform="matrix(1 0 0 -1 0 174)"  d="M131.7041 99.0705L142.8681 99.0705L142.8681 99.0705L142.8681 87.90643L142.8681 87.90643L131.7041 87.90643z" stroke="none" fill="#FFFFFF" fill-rule="nonzero" />
    <path id=""  transform="matrix(1 0 0 -1 0 174)"  d="M131.7041 99.0705L142.8681 99.0705L142.8681 99.0705L142.8681 87.90643L142.8681 87.90643L131.7041 87.90643z" stroke="#000000" stroke-width="0.5582014" stroke-linejoin="miter" fill="none" />
    <path id=""  transform="matrix(1 0 0 -1 0 174)"  d="M131.7041 87.90643L142.8681 87.90643L142.8681 87.90643L142.8681 76.74243L142.8681 76.74243L131.7041 76.74243z" stroke="none" fill="#FFFFFF" fill-rule="nonzero" />
    <path id=""  transform="matrix(1 0 0 -1 0 174)"  d="M131.7041 87.90643L142.8681 87.90643L142.8681 87.90643L142.8681 76.74243L142.8681 76.74243L131.7041 76.74243z" stroke="#000000" stroke-width="0.5582014" stroke-linejoin="miter" fill="none" />
    <path id=""  transform="matrix(1 0 0 -1 0 174)"  d="M98.21198 110.2289L109.376 110.2289L109.376 110.2289L109.376 99.06488L109.376 99.06488L98.21198 99.06488z" stroke="none" fill="#FFFFFF" fill-rule="nonzero" />
    <path id=""  transform="matrix(1 0 0 -1 0 174)"  d="M98.21198 110.2289L109.376 110.2289L109.376 110.2289L109.376 99.06488L109.376 99.06488L98.21198 99.06488z" stroke="#000000" stroke-width="0.5582014" stroke-linejoin="miter" fill="none" />
    <path id=""  transform="matrix(1 0 0 -1 0 174)"  d="M98.21198 99.06488L109.376 99.06488L109.376 99.06488L109.376 87.90088L109.376 87.90088L98.21198 87.90088z" stroke="none" fill="#FFFFFF" fill-rule="nonzero" />
    <path id=""  transform="matrix(1 0 0 -1 0 174)"  d="M98.21198 99.06488L109.376 99.06488L109.376 99.06488L109.376 87.90088L109.376 87.90088L98.21198 87.90088z" stroke="#000000" stroke-width="0.5582014" stroke-linejoin="miter" fill="none" />
    <path id=""  transform="matrix(1 0 0 -1 0 174)"  d="M98.21198 87.90088L109.376 87.90088L109.376 87.90088L109.376 76.73682L109.376 76.73682L98.21198 76.73682z" stroke="none" fill="#7EA6E0" fill-rule="nonzero" />
    <path id=""  transform="matrix(1 0 0 -1 0 174)"  d="M98.21198 87.90088L109.376 87.90088L109.376 87.90088L109.376 76.73682L109.376 76.73682L98.21198 76.73682z" stroke="#000000" stroke-width="0.5582014" stroke-linejoin="miter" fill="none" />
    <path id=""  transform="matrix(1 0 0 -1 0 174)"  d="M142.8681 99.06488L154.0321 99.06488L154.0321 99.06488L154.0321 87.90088L154.0321 87.90088L142.8681 87.90088z" stroke="none" fill="#FFFFFF" fill-rule="nonzero" />
    <path id=""  transform="matrix(1 0 0 -1 0 174)"  d="M142.8681 99.06488L154.0321 99.06488L154.0321 99.06488L154.0321 87.90088L154.0321 87.90088L142.8681 87.90088z" stroke="#000000" stroke-width="0.5582014" stroke-linejoin="miter" fill="none" />
    <path id=""  transform="matrix(1 0 0 -1 0 174)"  d="M142.8681 121.3985L154.0321 121.3985L154.0321 121.3985L154.0321 110.2345L154.0321 110.2345L142.8681 110.2345z" stroke="none" fill="#FFFFFF" fill-rule="nonzero" />
    <path id=""  transform="matrix(1 0 0 -1 0 174)"  d="M142.8681 121.3985L154.0321 121.3985L154.0321 121.3985L154.0321 110.2345L154.0321 110.2345L142.8681 110.2345z" stroke="#000000" stroke-width="0.5582014" stroke-linejoin="miter" fill="none" />
    <path id=""  transform="matrix(1 0 0 -1 0 174)"  d="M142.8681 143.7266L154.0321 143.7266L154.0321 143.7266L154.0321 132.5626L154.0321 132.5626L142.8681 132.5626z" stroke="none" fill="#7EA6E0" fill-rule="nonzero" />
    <path id=""  transform="matrix(1 0 0 -1 0 174)"  d="M142.8681 143.7266L154.0321 143.7266L154.0321 143.7266L154.0321 132.5626L154.0321 132.5626L142.8681 132.5626z" stroke="#000000" stroke-width="0.5582014" stroke-linejoin="miter" fill="none" />
    <path id=""  transform="matrix(1 0 0 -1 0 174)"  d="M142.8681 87.90088L154.0321 87.90088L154.0321 87.90088L154.0321 76.73682L154.0321 76.73682L142.8681 76.73682z" stroke="none" fill="#FFFFFF" fill-rule="nonzero" />
    <path id=""  transform="matrix(1 0 0 -1 0 174)"  d="M142.8681 87.90088L154.0321 87.90088L154.0321 87.90088L154.0321 76.73682L154.0321 76.73682L142.8681 76.73682z" stroke="#000000" stroke-width="0.5582014" stroke-linejoin="miter" fill="none" />
    <path id=""  transform="matrix(1 0 0 -1 0 174)"  d="M142.8681 110.2289L154.0321 110.2289L154.0321 110.2289L154.0321 99.06488L154.0321 99.06488L142.8681 99.06488z" stroke="none" fill="#FFFFFF" fill-rule="nonzero" />
    <path id=""  transform="matrix(1 0 0 -1 0 174)"  d="M142.8681 110.2289L154.0321 110.2289L154.0321 110.2289L154.0321 99.06488L154.0321 99.06488L142.8681 99.06488z" stroke="#000000" stroke-width="0.5582014" stroke-linejoin="miter" fill="none" />
    <path id=""  transform="matrix(1 0 0 -1 0 174)"  d="M142.8681 132.5626L154.0321 132.5626L154.0321 132.5626L154.0321 121.3985L154.0321 121.3985L142.8681 121.3985z" stroke="none" fill="#FFFFFF" fill-rule="nonzero" />
    <path id=""  transform="matrix(1 0 0 -1 0 174)"  d="M142.8681 132.5626L154.0321 132.5626L154.0321 132.5626L154.0321 121.3985L154.0321 121.3985L142.8681 121.3985z" stroke="#000000" stroke-width="0.5582014" stroke-linejoin="miter" fill="none" />
    <path id=""  transform="matrix(1 0 0 -1 0 174)"  d="M98.21198 132.5626L109.376 132.5626L109.376 132.5626L109.376 121.3985L109.376 121.3985L98.21198 121.3985z" stroke="none" fill="#FFFFFF" fill-rule="nonzero" />
    <path id=""  transform="matrix(1 0 0 -1 0 174)"  d="M98.21198 132.5626L109.376 132.5626L109.376 132.5626L109.376 121.3985L109.376 121.3985L98.21198 121.3985z" stroke="#000000" stroke-width="0.5582014" stroke-linejoin="miter" fill="none" />
    <path id=""  transform="matrix(1 0 0 -1 0 174)"  d="M98.21198 121.3985L109.376 121.3985L109.376 121.3985L109.376 110.2345L109.376 110.2345L98.21198 110.2345z" stroke="none" fill="#FFFFFF" fill-rule="nonzero" />
    <path id=""  transform="matrix(1 0 0 -1 0 174)"  d="M98.21198 121.3985L109.376 121.3985L109.376 121.3985L109.376 110.2345L109.376 110.2345L98.21198 110.2345z" stroke="#000000" stroke-width="0.5582014" stroke-linejoin="miter" fill="none" />
    <path id=""  transform="matrix(1 0 0 -1 0 174)"  d="M98.21198 143.7266L109.376 143.7266L109.376 143.7266L109.376 132.5626L109.376 132.5626L98.21198 132.5626z" stroke="none" fill="#FFFFFF" fill-rule="nonzero" />
    <path id=""  transform="matrix(1 0 0 -1 0 174)"  d="M98.21198 143.7266L109.376 143.7266L109.376 143.7266L109.376 132.5626L109.376 132.5626L98.21198 132.5626z" stroke="#000000" stroke-width="0.5582014" stroke-linejoin="miter" fill="none" />
    <path id=""  transform="matrix(1 0 0 -1 0 174)"  d="M98.21198 154.8906L109.376 154.8906L109.376 154.8906L109.376 143.7266L109.376 143.7266L98.21198 143.7266z" stroke="none" fill="#97D077" fill-rule="nonzero" />
    <path id=""  transform="matrix(1 0 0 -1 0 174)"  d="M98.21198 154.8906L109.376 154.8906L109.376 154.8906L109.376 143.7266L109.376 143.7266L98.21198 143.7266z" stroke="#000000" stroke-width="0.5582014" stroke-linejoin="miter" fill="none" />
    <path id=""  transform="matrix(1 0 0 -1 0 174)"  d="M109.376 132.5626L120.54 132.5626L120.54 132.5626L120.54 121.3985L120.54 121.3985L109.376 121.3985z" stroke="none" fill="#FFFFFF" fill-rule="nonzero" />
    <path id=""  transform="matrix(1 0 0 -1 0 174)"  d="M109.376 132.5626L120.54 132.5626L120.54 132.5626L120.54 121.3985L120.54 121.3985L109.376 121.3985z" stroke="#000000" stroke-width="0.5582014" stroke-linejoin="miter" fill="none" />
    <path id=""  transform="matrix(1 0 0 -1 0 174)"  d="M109.376 121.3985L120.54 121.3985L120.54 121.3985L120.54 110.2345L120.54 110.2345L109.376 110.2345z" stroke="none" fill="#FFFFFF" fill-rule="nonzero" />
    <path id=""  transform="matrix(1 0 0 -1 0 174)"  d="M109.376 121.3985L120.54 121.3985L120.54 121.3985L120.54 110.2345L120.54 110.2345L109.376 110.2345z" stroke="#000000" stroke-width="0.5582014" stroke-linejoin="miter" fill="none" />
    <path id=""  transform="matrix(1 0 0 -1 0 174)"  d="M109.376 143.7266L120.54 143.7266L120.54 143.7266L120.54 132.5626L120.54 132.5626L109.376 132.5626z" stroke="none" fill="#FFFFFF" fill-rule="nonzero" />
    <path id=""  transform="matrix(1 0 0 -1 0 174)"  d="M109.376 143.7266L120.54 143.7266L120.54 143.7266L120.54 132.5626L120.54 132.5626L109.376 132.5626z" stroke="#000000" stroke-width="0.5582014" stroke-linejoin="miter" fill="none" />
    <path id=""  transform="matrix(1 0 0 -1 0 174)"  d="M109.376 154.8906L120.54 154.8906L120.54 154.8906L120.54 143.7266L120.54 143.7266L109.376 143.7266z" stroke="none" fill="#97D077" fill-rule="nonzero" />
    <path id=""  transform="matrix(1 0 0 -1 0 174)"  d="M109.376 154.8906L120.54 154.8906L120.54 154.8906L120.54 143.7266L120.54 143.7266L109.376 143.7266z" stroke="#000000" stroke-width="0.5582014" stroke-linejoin="miter" fill="none" />
    <path id=""  transform="matrix(1 0 0 -1 0 174)"  d="M120.54 132.5626L131.7041 132.5626L131.7041 132.5626L131.7041 121.3985L131.7041 121.3985L120.54 121.3985z" stroke="none" fill="#FFFFFF" fill-rule="nonzero" />
    <path id=""  transform="matrix(1 0 0 -1 0 174)"  d="M120.54 132.5626L131.7041 132.5626L131.7041 132.5626L131.7041 121.3985L131.7041 121.3985L120.54 121.3985z" stroke="#000000" stroke-width="0.5582014" stroke-linejoin="miter" fill="none" />
    <path id=""  transform="matrix(1 0 0 -1 0 174)"  d="M120.54 121.3985L131.7041 121.3985L131.7041 121.3985L131.7041 110.2345L131.7041 110.2345L120.54 110.2345z" stroke="none" fill="#FFFFFF" fill-rule="nonzero" />
    <path id=""  transform="matrix(1 0 0 -1 0 174)"  d="M120.54 121.3985L131.7041 121.3985L131.7041 121.3985L131.7041 110.2345L131.7041 110.2345L120.54 110.2345z" stroke="#000000" stroke-width="0.5582014" stroke-linejoin="miter" fill="none" />
    <path id=""  transform="matrix(1 0 0 -1 0 174)"  d="M120.54 143.7266L131.7041 143.7266L131.7041 143.7266L131.7041 132.5626L131.7041 132.5626L120.54 132.5626z" stroke="none" fill="#FFFFFF" fill-rule="nonzero" />
    <path id=""  transform="matrix(1 0 0 -1 0 174)"  d="M120.54 143.7266L131.7041 143.7266L131.7041 143.7266L131.7041 132.5626L131.7041 132.5626L120.54 132.5626z" stroke="#000000" stroke-width="0.5582014" stroke-linejoin="miter" fill="none" />
    <path id=""  transform="matrix(1 0 0 -1 0 174)"  d="M120.54 154.8906L131.7041 154.8906L131.7041 154.8906L131.7041 143.7266L131.7041 143.7266L120.54 143.7266z" stroke="none" fill="#97D077" fill-rule="nonzero" />
    <path id=""  transform="matrix(1 0 0 -1 0 174)"  d="M120.54 154.8906L131.7041 154.8906L131.7041 154.8906L131.7041 143.7266L131.7041 143.7266L120.54 143.7266z" stroke="#000000" stroke-width="0.5582014" stroke-linejoin="miter" fill="none" />
    <path id=""  transform="matrix(1 0 0 -1 0 174)"  d="M131.7041 132.5626L142.8681 132.5626L142.8681 132.5626L142.8681 121.3985L142.8681 121.3985L131.7041 121.3985z" stroke="none" fill="#FFFFFF" fill-rule="nonzero" />
    <path id=""  transform="matrix(1 0 0 -1 0 174)"  d="M131.7041 132.5626L142.8681 132.5626L142.8681 132.5626L142.8681 121.3985L142.8681 121.3985L131.7041 121.3985z" stroke="#000000" stroke-width="0.5582014" stroke-linejoin="miter" fill="none" />
    <path id=""  transform="matrix(1 0 0 -1 0 174)"  d="M131.7041 121.3985L142.8681 121.3985L142.8681 121.3985L142.8681 110.2345L142.8681 110.2345L131.7041 110.2345z" stroke="none" fill="#FFFFFF" fill-rule="nonzero" />
    <path id=""  transform="matrix(1 0 0 -1 0 174)"  d="M131.7041 121.3985L142.8681 121.3985L142.8681 121.3985L142.8681 110.2345L142.8681 110.2345L131.7041 110.2345z" stroke="#000000" stroke-width="0.5582014" stroke-linejoin="miter" fill="none" />
    <path id=""  transform="matrix(1 0 0 -1 0 174)"  d="M131.7041 143.7266L142.8681 143.7266L142.8681 143.7266L142.8681 132.5626L142.8681 132.5626L131.7041 132.5626z" stroke="none" fill="#FFFFFF" fill-rule="nonzero" />
    <path id=""  transform="matrix(1 0 0 -1 0 174)"  d="M131.7041 143.7266L142.8681 143.7266L142.8681 143.7266L142.8681 132.5626L142.8681 132.5626L131.7041 132.5626z" stroke="#000000" stroke-width="0.5582014" stroke-linejoin="miter" fill="none" />
    <path id=""  transform="matrix(1 0 0 -1 0 174)"  d="M131.7041 154.8906L142.8681 154.8906L142.8681 154.8906L142.8681 143.7266L142.8681 143.7266L131.7041 143.7266z" stroke="none" fill="#97D077" fill-rule="nonzero" />
    <path id=""  transform="matrix(1 0 0 -1 0 174)"  d="M131.7041 154.8906L142.8681 154.8906L142.8681 154.8906L142.8681 143.7266L142.8681 143.7266L131.7041 143.7266z" stroke="#000000" stroke-width="0.5582014" stroke-linejoin="miter" fill="none" />
    <path id=""  transform="matrix(1 0 0 -1 0 174)"  d="M109.376 76.73682L120.54 76.73682L120.54 76.73682L120.54 65.57281L120.54 65.57281L109.376 65.57281z" stroke="none" fill="#7EA6E0" fill-rule="nonzero" />
    <path id=""  transform="matrix(1 0 0 -1 0 174)"  d="M109.376 76.73682L120.54 76.73682L120.54 76.73682L120.54 65.57281L120.54 65.57281L109.376 65.57281z" stroke="#000000" stroke-width="0.5582014" stroke-linejoin="miter" fill="none" />
    <path id=""  transform="matrix(1 0 0 -1 0 174)"  d="M109.376 65.57281L120.54 65.57281L120.54 65.57281L120.54 54.40875L120.54 54.40875L109.376 54.40875z" stroke="none" fill="#7EA6E0" fill-rule="nonzero" />
    <path id=""  transform="matrix(1 0 0 -1 0 174)"  d="M109.376 65.57281L120.54 65.57281L120.54 65.57281L120.54 54.40875L120.54 54.40875L109.376 54.40875z" stroke="#000000" stroke-width="0.5582014" stroke-linejoin="miter" fill="none" />
    <path id=""  transform="matrix(1 0 0 -1 0 174)"  d="M120.54 76.73682L131.7041 76.73682L131.7041 76.73682L131.7041 65.57281L131.7041 65.57281L120.54 65.57281z" stroke="none" fill="#FFFFFF" fill-rule="nonzero" />
    <path id=""  transform="matrix(1 0 0 -1 0 174)"  d="M120.54 76.73682L131.7041 76.73682L131.7041 76.73682L131.7041 65.57281L131.7041 65.57281L120.54 65.57281z" stroke="#000000" stroke-width="0.5582014" stroke-linejoin="miter" fill="none" />
    <path id=""  transform="matrix(1 0 0 -1 0 174)"  d="M120.54 65.57281L131.7041 65.57281L131.7041 65.57281L131.7041 54.40875L131.7041 54.40875L120.54 54.40875z" stroke="none" fill="#7EA6E0" fill-rule="nonzero" />
    <path id=""  transform="matrix(1 0 0 -1 0 174)"  d="M120.54 65.57281L131.7041 65.57281L131.7041 65.57281L131.7041 54.40875L131.7041 54.40875L120.54 54.40875z" stroke="#000000" stroke-width="0.5582014" stroke-linejoin="miter" fill="none" />
    <path id=""  transform="matrix(1 0 0 -1 0 174)"  d="M131.7041 76.73682L142.8681 76.73682L142.8681 76.73682L142.8681 65.57281L142.8681 65.57281L131.7041 65.57281z" stroke="none" fill="#FFFFFF" fill-rule="nonzero" />
    <path id=""  transform="matrix(1 0 0 -1 0 174)"  d="M131.7041 76.73682L142.8681 76.73682L142.8681 76.73682L142.8681 65.57281L142.8681 65.57281L131.7041 65.57281z" stroke="#000000" stroke-width="0.5582014" stroke-linejoin="miter" fill="none" />
    <path id=""  transform="matrix(1 0 0 -1 0 174)"  d="M131.7041 65.57281L142.8681 65.57281L142.8681 65.57281L142.8681 54.40875L142.8681 54.40875L131.7041 54.40875z" stroke="none" fill="#FFFFFF" fill-rule="nonzero" />
    <path id=""  transform="matrix(1 0 0 -1 0 174)"  d="M131.7041 65.57281L142.8681 65.57281L142.8681 65.57281L142.8681 54.40875L142.8681 54.40875L131.7041 54.40875z" stroke="#000000" stroke-width="0.5582014" stroke-linejoin="miter" fill="none" />
    <path id=""  transform="matrix(1 0 0 -1 0 174)"  d="M98.21198 76.73126L109.376 76.73126L109.376 76.73126L109.376 65.5672L109.376 65.5672L98.21198 65.5672z" stroke="none" fill="#7EA6E0" fill-rule="nonzero" />
    <path id=""  transform="matrix(1 0 0 -1 0 174)"  d="M98.21198 76.73126L109.376 76.73126L109.376 76.73126L109.376 65.5672L109.376 65.5672L98.21198 65.5672z" stroke="#000000" stroke-width="0.5582014" stroke-linejoin="miter" fill="none" />
    <path id=""  transform="matrix(1 0 0 -1 0 174)"  d="M98.21198 65.5672L109.376 65.5672L109.376 65.5672L109.376 54.4032L109.376 54.4032L98.21198 54.4032z" stroke="none" fill="#7EA6E0" fill-rule="nonzero" />
    <path id=""  transform="matrix(1 0 0 -1 0 174)"  d="M98.21198 65.5672L109.376 65.5672L109.376 65.5672L109.376 54.4032L109.376 54.4032L98.21198 54.4032z" stroke="#000000" stroke-width="0.5582014" stroke-linejoin="miter" fill="none" />
    <path id=""  transform="matrix(1 0 0 -1 0 174)"  d="M142.8681 76.73126L154.0321 76.73126L154.0321 76.73126L154.0321 65.5672L154.0321 65.5672L142.8681 65.5672z" stroke="none" fill="#FFFFFF" fill-rule="nonzero" />
    <path id=""  transform="matrix(1 0 0 -1 0 174)"  d="M142.8681 76.73126L154.0321 76.73126L154.0321 76.73126L154.0321 65.5672L154.0321 65.5672L142.8681 65.5672z" stroke="#000000" stroke-width="0.5582014" stroke-linejoin="miter" fill="none" />
    <path id=""  transform="matrix(1 0 0 -1 0 174)"  d="M142.8681 65.5672L154.0321 65.5672L154.0321 65.5672L154.0321 54.4032L154.0321 54.4032L142.8681 54.4032z" stroke="none" fill="#FFFFFF" fill-rule="nonzero" />
    <path id=""  transform="matrix(1 0 0 -1 0 174)"  d="M142.8681 65.5672L154.0321 65.5672L154.0321 65.5672L154.0321 54.4032L154.0321 54.4032L142.8681 54.4032z" stroke="#000000" stroke-width="0.5582014" stroke-linejoin="miter" fill="none" />
    <path id=""  transform="matrix(1 0 0 -1 0 174)"  d="M109.376 54.42554L120.54 54.42554L120.54 54.42554L120.54 43.26147L120.54 43.26147L109.376 43.26147z" stroke="none" fill="#7EA6E0" fill-rule="nonzero" />
    <path id=""  transform="matrix(1 0 0 -1 0 174)"  d="M109.376 54.42554L120.54 54.42554L120.54 54.42554L120.54 43.26147L120.54 43.26147L109.376 43.26147z" stroke="#000000" stroke-width="0.5582014" stroke-linejoin="miter" fill="none" />
    <path id=""  transform="matrix(1 0 0 -1 0 174)"  d="M120.54 54.42554L131.7041 54.42554L131.7041 54.42554L131.7041 43.26147L131.7041 43.26147L120.54 43.26147z" stroke="none" fill="#7EA6E0" fill-rule="nonzero" />
    <path id=""  transform="matrix(1 0 0 -1 0 174)"  d="M120.54 54.42554L131.7041 54.42554L131.7041 54.42554L131.7041 43.26147L131.7041 43.26147L120.54 43.26147z" stroke="#000000" stroke-width="0.5582014" stroke-linejoin="miter" fill="none" />
    <path id=""  transform="matrix(1 0 0 -1 0 174)"  d="M131.7041 54.42554L142.8681 54.42554L142.8681 54.42554L142.8681 43.26147L142.8681 43.26147L131.7041 43.26147z" stroke="none" fill="#7EA6E0" fill-rule="nonzero" />
    <path id=""  transform="matrix(1 0 0 -1 0 174)"  d="M131.7041 54.42554L142.8681 54.42554L142.8681 54.42554L142.8681 43.26147L142.8681 43.26147L131.7041 43.26147z" stroke="#000000" stroke-width="0.5582014" stroke-linejoin="miter" fill="none" />
    <path id=""  transform="matrix(1 0 0 -1 0 174)"  d="M98.21198 54.41992L109.376 54.41992L109.376 54.41992L109.376 43.25592L109.376 43.25592L98.21198 43.25592z" stroke="none" fill="#FFFFFF" fill-rule="nonzero" />
    <path id=""  transform="matrix(1 0 0 -1 0 174)"  d="M98.21198 54.41992L109.376 54.41992L109.376 54.41992L109.376 43.25592L109.376 43.25592L98.21198 43.25592z" stroke="#000000" stroke-width="0.5582014" stroke-linejoin="miter" fill="none" />
    <path id=""  transform="matrix(1 0 0 -1 0 174)"  d="M142.8681 54.41992L154.0321 54.41992L154.0321 54.41992L154.0321 43.25592L154.0321 43.25592L142.8681 43.25592z" stroke="none" fill="#FFFFFF" fill-rule="nonzero" />
    <path id=""  transform="matrix(1 0 0 -1 0 174)"  d="M142.8681 54.41992L154.0321 54.41992L154.0321 54.41992L154.0321 43.25592L154.0321 43.25592L142.8681 43.25592z" stroke="#000000" stroke-width="0.5582014" stroke-linejoin="miter" fill="none" />
    <path id=""  transform="matrix(1 0 0 -1 0 174)"  d="M109.376 43.25592L120.54 43.25592L120.54 43.25592L120.54 32.09192L120.54 32.09192L109.376 32.09192z" stroke="none" fill="#FFFFFF" fill-rule="nonzero" />
    <path id=""  transform="matrix(1 0 0 -1 0 174)"  d="M109.376 43.25592L120.54 43.25592L120.54 43.25592L120.54 32.09192L120.54 32.09192L109.376 32.09192z" stroke="#000000" stroke-width="0.5582014" stroke-linejoin="miter" fill="none" />
    <path id=""  transform="matrix(1 0 0 -1 0 174)"  d="M109.376 32.09192L120.54 32.09192L120.54 32.09192L120.54 20.92786L120.54 20.92786L109.376 20.92786z" stroke="none" fill="#FFFFFF" fill-rule="nonzero" />
    <path id=""  transform="matrix(1 0 0 -1 0 174)"  d="M109.376 32.09192L120.54 32.09192L120.54 32.09192L120.54 20.92786L120.54 20.92786L109.376 20.92786z" stroke="#000000" stroke-width="0.5582014" stroke-linejoin="miter" fill="none" />
    <path id=""  transform="matrix(1 0 0 -1 0 174)"  d="M120.54 43.25592L131.7041 43.25592L131.7041 43.25592L131.7041 32.09192L131.7041 32.09192L120.54 32.09192z" stroke="none" fill="#7EA6E0" fill-rule="nonzero" />
    <path id=""  transform="matrix(1 0 0 -1 0 174)"  d="M120.54 43.25592L131.7041 43.25592L131.7041 43.25592L131.7041 32.09192L131.7041 32.09192L120.54 32.09192z" stroke="#000000" stroke-width="0.5582014" stroke-linejoin="miter" fill="none" />
    <path id=""  transform="matrix(1 0 0 -1 0 174)"  d="M120.54 32.09192L131.7041 32.09192L131.7041 32.09192L131.7041 20.92786L131.7041 20.92786L120.54 20.92786z" stroke="none" fill="#FFFFFF" fill-rule="nonzero" />
    <path id=""  transform="matrix(1 0 0 -1 0 174)"  d="M120.54 32.09192L131.7041 32.09192L131.7041 32.09192L131.7041 20.92786L131.7041 20.92786L120.54 20.92786z" stroke="#000000" stroke-width="0.5582014" stroke-linejoin="miter" fill="none" />
    <path id=""  transform="matrix(1 0 0 -1 0 174)"  d="M131.7041 43.25592L142.8681 43.25592L142.8681 43.25592L142.8681 32.09192L142.8681 32.09192L131.7041 32.09192z" stroke="none" fill="#7EA6E0" fill-rule="nonzero" />
    <path id=""  transform="matrix(1 0 0 -1 0 174)"  d="M131.7041 43.25592L142.8681 43.25592L142.8681 43.25592L142.8681 32.09192L142.8681 32.09192L131.7041 32.09192z" stroke="#000000" stroke-width="0.5582014" stroke-linejoin="miter" fill="none" />
    <path id=""  transform="matrix(1 0 0 -1 0 174)"  d="M131.7041 32.09192L142.8681 32.09192L142.8681 32.09192L142.8681 20.92786L142.8681 20.92786L131.7041 20.92786z" stroke="none" fill="#7EA6E0" fill-rule="nonzero" />
    <path id=""  transform="matrix(1 0 0 -1 0 174)"  d="M131.7041 32.09192L142.8681 32.09192L142.8681 32.09192L142.8681 20.92786L142.8681 20.92786L131.7041 20.92786z" stroke="#000000" stroke-width="0.5582014" stroke-linejoin="miter" fill="none" />
    <path id=""  transform="matrix(1 0 0 -1 0 174)"  d="M98.21198 43.25031L109.376 43.25031L109.376 43.25031L109.376 32.0863L109.376 32.0863L98.21198 32.0863z" stroke="none" fill="#FFFFFF" fill-rule="nonzero" />
    <path id=""  transform="matrix(1 0 0 -1 0 174)"  d="M98.21198 43.25031L109.376 43.25031L109.376 43.25031L109.376 32.0863L109.376 32.0863L98.21198 32.0863z" stroke="#000000" stroke-width="0.5582014" stroke-linejoin="miter" fill="none" />
    <path id=""  transform="matrix(1 0 0 -1 0 174)"  d="M98.21198 32.0863L109.376 32.0863L109.376 32.0863L109.376 20.9223L109.376 20.9223L98.21198 20.9223z" stroke="none" fill="#FFFFFF" fill-rule="nonzero" />
    <path id=""  transform="matrix(1 0 0 -1 0 174)"  d="M98.21198 32.0863L109.376 32.0863L109.376 32.0863L109.376 20.9223L109.376 20.9223L98.21198 20.9223z" stroke="#000000" stroke-width="0.5582014" stroke-linejoin="miter" fill="none" />
    <path id=""  transform="matrix(1 0 0 -1 0 174)"  d="M142.8681 43.25031L154.0321 43.25031L154.0321 43.25031L154.0321 32.0863L154.0321 32.0863L142.8681 32.0863z" stroke="none" fill="#7EA6E0" fill-rule="nonzero" />
    <path id=""  transform="matrix(1 0 0 -1 0 174)"  d="M142.8681 43.25031L154.0321 43.25031L154.0321 43.25031L154.0321 32.0863L154.0321 32.0863L142.8681 32.0863z" stroke="#000000" stroke-width="0.5582014" stroke-linejoin="miter" fill="none" />
    <path id=""  transform="matrix(1 0 0 -1 0 174)"  d="M142.8681 32.0863L154.0321 32.0863L154.0321 32.0863L154.0321 20.9223L154.0321 20.9223L142.8681 20.9223z" stroke="none" fill="#7EA6E0" fill-rule="nonzero" />
    <path id=""  transform="matrix(1 0 0 -1 0 174)"  d="M142.8681 32.0863L154.0321 32.0863L154.0321 32.0863L154.0321 20.9223L154.0321 20.9223L142.8681 20.9223z" stroke="#000000" stroke-width="0.5582014" stroke-linejoin="miter" fill="none" />
    <path id=""  transform="matrix(1 0 0 -1 0 174)"  d="M142.8681 154.8906L154.0321 154.8906L154.0321 154.8906L154.0321 143.7266L154.0321 143.7266L142.8681 143.7266z" stroke="none" fill="#97D077" fill-rule="nonzero" />
    <path id=""  transform="matrix(1 0 0 -1 0 174)"  d="M142.8681 154.8906L154.0321 154.8906L154.0321 154.8906L154.0321 143.7266L154.0321 143.7266L142.8681 143.7266z" stroke="#000000" stroke-width="0.5582014" stroke-linejoin="miter" fill="none" />
    <path id=""  transform="matrix(1 0 0 -1 0 174)"  d="M53.55587 110.2401L64.71989 110.2401L64.71989 110.2401L64.71989 99.07605L64.71989 99.07605L53.55587 99.07605z" stroke="none" fill="#7EA6E0" fill-rule="nonzero" />
    <path id=""  transform="matrix(1 0 0 -1 0 174)"  d="M53.55587 110.2401L64.71989 110.2401L64.71989 110.2401L64.71989 99.07605L64.71989 99.07605L53.55587 99.07605z" stroke="#000000" stroke-width="0.5582014" stroke-linejoin="miter" fill="none" />
    <path id=""  transform="matrix(1 0 0 -1 0 174)"  d="M53.55587 99.07605L64.71989 99.07605L64.71989 99.07605L64.71989 87.91205L64.71989 87.91205L53.55587 87.91205z" stroke="none" fill="#FFFFFF" fill-rule="nonzero" />
    <path id=""  transform="matrix(1 0 0 -1 0 174)"  d="M53.55587 99.07605L64.71989 99.07605L64.71989 99.07605L64.71989 87.91205L64.71989 87.91205L53.55587 87.91205z" stroke="#000000" stroke-width="0.5582014" stroke-linejoin="miter" fill="none" />
    <path id=""  transform="matrix(1 0 0 -1 0 174)"  d="M53.55587 87.91205L64.71989 87.91205L64.71989 87.91205L64.71989 76.74799L64.71989 76.74799L53.55587 76.74799z" stroke="none" fill="#FFFFFF" fill-rule="nonzero" />
    <path id=""  transform="matrix(1 0 0 -1 0 174)"  d="M53.55587 87.91205L64.71989 87.91205L64.71989 87.91205L64.71989 76.74799L64.71989 76.74799L53.55587 76.74799z" stroke="#000000" stroke-width="0.5582014" stroke-linejoin="miter" fill="none" />
    <path id=""  transform="matrix(1 0 0 -1 0 174)"  d="M64.71989 110.2401L75.88393 110.2401L75.88393 110.2401L75.88393 99.07605L75.88393 99.07605L64.71989 99.07605z" stroke="none" fill="#7EA6E0" fill-rule="nonzero" />
    <path id=""  transform="matrix(1 0 0 -1 0 174)"  d="M64.71989 110.2401L75.88393 110.2401L75.88393 110.2401L75.88393 99.07605L75.88393 99.07605L64.71989 99.07605z" stroke="#000000" stroke-width="0.5582014" stroke-linejoin="miter" fill="none" />
    <path id=""  transform="matrix(1 0 0 -1 0 174)"  d="M64.71989 99.07605L75.88393 99.07605L75.88393 99.07605L75.88393 87.91205L75.88393 87.91205L64.71989 87.91205z" stroke="none" fill="#7EA6E0" fill-rule="nonzero" />
    <path id=""  transform="matrix(1 0 0 -1 0 174)"  d="M64.71989 99.07605L75.88393 99.07605L75.88393 99.07605L75.88393 87.91205L75.88393 87.91205L64.71989 87.91205z" stroke="#000000" stroke-width="0.5582014" stroke-linejoin="miter" fill="none" />
    <path id=""  transform="matrix(1 0 0 -1 0 174)"  d="M64.71989 87.91205L75.88393 87.91205L75.88393 87.91205L75.88393 76.74799L75.88393 76.74799L64.71989 76.74799z" stroke="none" fill="#FFFFFF" fill-rule="nonzero" />
    <path id=""  transform="matrix(1 0 0 -1 0 174)"  d="M64.71989 87.91205L75.88393 87.91205L75.88393 87.91205L75.88393 76.74799L75.88393 76.74799L64.71989 76.74799z" stroke="#000000" stroke-width="0.5582014" stroke-linejoin="miter" fill="none" />
    <path id=""  transform="matrix(1 0 0 -1 0 174)"  d="M75.88393 110.2401L87.04795 110.2401L87.04795 110.2401L87.04795 99.07605L87.04795 99.07605L75.88393 99.07605z" stroke="none" fill="#7EA6E0" fill-rule="nonzero" />
    <path id=""  transform="matrix(1 0 0 -1 0 174)"  d="M75.88393 110.2401L87.04795 110.2401L87.04795 110.2401L87.04795 99.07605L87.04795 99.07605L75.88393 99.07605z" stroke="#000000" stroke-width="0.5582014" stroke-linejoin="miter" fill="none" />
    <path id=""  transform="matrix(1 0 0 -1 0 174)"  d="M75.88393 99.07605L87.04795 99.07605L87.04795 99.07605L87.04795 87.91205L87.04795 87.91205L75.88393 87.91205z" stroke="none" fill="#7EA6E0" fill-rule="nonzero" />
    <path id=""  transform="matrix(1 0 0 -1 0 174)"  d="M75.88393 99.07605L87.04795 99.07605L87.04795 99.07605L87.04795 87.91205L87.04795 87.91205L75.88393 87.91205z" stroke="#000000" stroke-width="0.5582014" stroke-linejoin="miter" fill="none" />
    <path id=""  transform="matrix(1 0 0 -1 0 174)"  d="M75.88393 87.91205L87.04795 87.91205L87.04795 87.91205L87.04795 76.74799L87.04795 76.74799L75.88393 76.74799z" stroke="none" fill="#7EA6E0" fill-rule="nonzero" />
    <path id=""  transform="matrix(1 0 0 -1 0 174)"  d="M75.88393 87.91205L87.04795 87.91205L87.04795 87.91205L87.04795 76.74799L87.04795 76.74799L75.88393 76.74799z" stroke="#000000" stroke-width="0.5582014" stroke-linejoin="miter" fill="none" />
    <path id=""  transform="matrix(1 0 0 -1 0 174)"  d="M42.39184 110.2345L53.55587 110.2345L53.55587 110.2345L53.55587 99.0705L53.55587 99.0705L42.39184 99.0705z" stroke="none" fill="#FFFFFF" fill-rule="nonzero" />
    <path id=""  transform="matrix(1 0 0 -1 0 174)"  d="M42.39184 110.2345L53.55587 110.2345L53.55587 110.2345L53.55587 99.0705L53.55587 99.0705L42.39184 99.0705z" stroke="#000000" stroke-width="0.5582014" stroke-linejoin="miter" fill="none" />
    <path id=""  transform="matrix(1 0 0 -1 0 174)"  d="M42.39184 99.0705L53.55587 99.0705L53.55587 99.0705L53.55587 87.90643L53.55587 87.90643L42.39184 87.90643z" stroke="none" fill="#FFFFFF" fill-rule="nonzero" />
    <path id=""  transform="matrix(1 0 0 -1 0 174)"  d="M42.39184 99.0705L53.55587 99.0705L53.55587 99.0705L53.55587 87.90643L53.55587 87.90643L42.39184 87.90643z" stroke="#000000" stroke-width="0.5582014" stroke-linejoin="miter" fill="none" />
    <path id=""  transform="matrix(1 0 0 -1 0 174)"  d="M42.39184 87.90643L53.55587 87.90643L53.55587 87.90643L53.55587 76.74243L53.55587 76.74243L42.39184 76.74243z" stroke="none" fill="#FFFFFF" fill-rule="nonzero" />
    <path id=""  transform="matrix(1 0 0 -1 0 174)"  d="M42.39184 87.90643L53.55587 87.90643L53.55587 87.90643L53.55587 76.74243L53.55587 76.74243L42.39184 76.74243z" stroke="#000000" stroke-width="0.5582014" stroke-linejoin="miter" fill="none" />
    <path id=""  transform="matrix(1 0 0 -1 0 174)"  d="M87.04795 99.0705L98.21198 99.0705L98.21198 99.0705L98.21198 87.90643L98.21198 87.90643L87.04795 87.90643z" stroke="none" fill="#7EA6E0" fill-rule="nonzero" />
    <path id=""  transform="matrix(1 0 0 -1 0 174)"  d="M87.04795 99.0705L98.21198 99.0705L98.21198 99.0705L98.21198 87.90643L98.21198 87.90643L87.04795 87.90643z" stroke="#000000" stroke-width="0.5582014" stroke-linejoin="miter" fill="none" />
    <path id=""  transform="matrix(1 0 0 -1 0 174)"  d="M87.04795 121.4041L98.21198 121.4041L98.21198 121.4041L98.21198 110.2401L98.21198 110.2401L87.04795 110.2401z" stroke="none" fill="#FFFFFF" fill-rule="nonzero" />
    <path id=""  transform="matrix(1 0 0 -1 0 174)"  d="M87.04795 121.4041L98.21198 121.4041L98.21198 121.4041L98.21198 110.2401L98.21198 110.2401L87.04795 110.2401z" stroke="#000000" stroke-width="0.5582014" stroke-linejoin="miter" fill="none" />
    <path id=""  transform="matrix(1 0 0 -1 0 174)"  d="M87.04795 143.7322L98.21198 143.7322L98.21198 143.7322L98.21198 132.5681L98.21198 132.5681L87.04795 132.5681z" stroke="none" fill="#FFFFFF" fill-rule="nonzero" />
    <path id=""  transform="matrix(1 0 0 -1 0 174)"  d="M87.04795 143.7322L98.21198 143.7322L98.21198 143.7322L98.21198 132.5681L98.21198 132.5681L87.04795 132.5681z" stroke="#000000" stroke-width="0.5582014" stroke-linejoin="miter" fill="none" />
    <path id=""  transform="matrix(1 0 0 -1 0 174)"  d="M87.04795 87.90643L98.21198 87.90643L98.21198 87.90643L98.21198 76.74243L98.21198 76.74243L87.04795 76.74243z" stroke="none" fill="#7EA6E0" fill-rule="nonzero" />
    <path id=""  transform="matrix(1 0 0 -1 0 174)"  d="M87.04795 87.90643L98.21198 87.90643L98.21198 87.90643L98.21198 76.74243L98.21198 76.74243L87.04795 76.74243z" stroke="#000000" stroke-width="0.5582014" stroke-linejoin="miter" fill="none" />
    <path id=""  transform="matrix(1 0 0 -1 0 174)"  d="M87.04795 110.2345L98.21198 110.2345L98.21198 110.2345L98.21198 99.0705L98.21198 99.0705L87.04795 99.0705z" stroke="none" fill="#FFFFFF" fill-rule="nonzero" />
    <path id=""  transform="matrix(1 0 0 -1 0 174)"  d="M87.04795 110.2345L98.21198 110.2345L98.21198 110.2345L98.21198 99.0705L98.21198 99.0705L87.04795 99.0705z" stroke="#000000" stroke-width="0.5582014" stroke-linejoin="miter" fill="none" />
    <path id=""  transform="matrix(1 0 0 -1 0 174)"  d="M87.04795 132.5681L98.21198 132.5681L98.21198 132.5681L98.21198 121.4041L98.21198 121.4041L87.04795 121.4041z" stroke="none" fill="#FFFFFF" fill-rule="nonzero" />
    <path id=""  transform="matrix(1 0 0 -1 0 174)"  d="M87.04795 132.5681L98.21198 132.5681L98.21198 132.5681L98.21198 121.4041L98.21198 121.4041L87.04795 121.4041z" stroke="#000000" stroke-width="0.5582014" stroke-linejoin="miter" fill="none" />
    <path id=""  transform="matrix(1 0 0 -1 0 174)"  d="M42.39184 132.5681L53.55587 132.5681L53.55587 132.5681L53.55587 121.4041L53.55587 121.4041L42.39184 121.4041z" stroke="none" fill="#7EA6E0" fill-rule="nonzero" />
    <path id=""  transform="matrix(1 0 0 -1 0 174)"  d="M42.39184 132.5681L53.55587 132.5681L53.55587 132.5681L53.55587 121.4041L53.55587 121.4041L42.39184 121.4041z" stroke="#000000" stroke-width="0.5582014" stroke-linejoin="miter" fill="none" />
    <path id=""  transform="matrix(1 0 0 -1 0 174)"  d="M42.39184 121.4041L53.55587 121.4041L53.55587 121.4041L53.55587 110.2401L53.55587 110.2401L42.39184 110.2401z" stroke="none" fill="#7EA6E0" fill-rule="nonzero" />
    <path id=""  transform="matrix(1 0 0 -1 0 174)"  d="M42.39184 121.4041L53.55587 121.4041L53.55587 121.4041L53.55587 110.2401L53.55587 110.2401L42.39184 110.2401z" stroke="#000000" stroke-width="0.5582014" stroke-linejoin="miter" fill="none" />
    <path id=""  transform="matrix(1 0 0 -1 0 174)"  d="M42.39184 143.7322L53.55587 143.7322L53.55587 143.7322L53.55587 132.5681L53.55587 132.5681L42.39184 132.5681z" stroke="none" fill="#7EA6E0" fill-rule="nonzero" />
    <path id=""  transform="matrix(1 0 0 -1 0 174)"  d="M42.39184 143.7322L53.55587 143.7322L53.55587 143.7322L53.55587 132.5681L53.55587 132.5681L42.39184 132.5681z" stroke="#000000" stroke-width="0.5582014" stroke-linejoin="miter" fill="none" />
    <path id=""  transform="matrix(1 0 0 -1 0 174)"  d="M42.39184 154.8962L53.55587 154.8962L53.55587 154.8962L53.55587 143.7322L53.55587 143.7322L42.39184 143.7322z" stroke="none" fill="#97D077" fill-rule="nonzero" />
    <path id=""  transform="matrix(1 0 0 -1 0 174)"  d="M42.39184 154.8962L53.55587 154.8962L53.55587 154.8962L53.55587 143.7322L53.55587 143.7322L42.39184 143.7322z" stroke="#000000" stroke-width="0.5582014" stroke-linejoin="miter" fill="none" />
    <path id=""  transform="matrix(1 0 0 -1 0 174)"  d="M53.55587 132.5681L64.71989 132.5681L64.71989 132.5681L64.71989 121.4041L64.71989 121.4041L53.55587 121.4041z" stroke="none" fill="#7EA6E0" fill-rule="nonzero" />
    <path id=""  transform="matrix(1 0 0 -1 0 174)"  d="M53.55587 132.5681L64.71989 132.5681L64.71989 132.5681L64.71989 121.4041L64.71989 121.4041L53.55587 121.4041z" stroke="#000000" stroke-width="0.5582014" stroke-linejoin="miter" fill="none" />
    <path id=""  transform="matrix(1 0 0 -1 0 174)"  d="M53.55587 121.4041L64.71989 121.4041L64.71989 121.4041L64.71989 110.2401L64.71989 110.2401L53.55587 110.2401z" stroke="none" fill="#7EA6E0" fill-rule="nonzero" />
    <path id=""  transform="matrix(1 0 0 -1 0 174)"  d="M53.55587 121.4041L64.71989 121.4041L64.71989 121.4041L64.71989 110.2401L64.71989 110.2401L53.55587 110.2401z" stroke="#000000" stroke-width="0.5582014" stroke-linejoin="miter" fill="none" />
    <path id=""  transform="matrix(1 0 0 -1 0 174)"  d="M53.55587 143.7322L64.71989 143.7322L64.71989 143.7322L64.71989 132.5681L64.71989 132.5681L53.55587 132.5681z" stroke="none" fill="#FFFFFF" fill-rule="nonzero" />
    <path id=""  transform="matrix(1 0 0 -1 0 174)"  d="M53.55587 143.7322L64.71989 143.7322L64.71989 143.7322L64.71989 132.5681L64.71989 132.5681L53.55587 132.5681z" stroke="#000000" stroke-width="0.5582014" stroke-linejoin="miter" fill="none" />
    <path id=""  transform="matrix(1 0 0 -1 0 174)"  d="M53.55587 154.8962L64.71989 154.8962L64.71989 154.8962L64.71989 143.7322L64.71989 143.7322L53.55587 143.7322z" stroke="none" fill="#97D077" fill-rule="nonzero" />
    <path id=""  transform="matrix(1 0 0 -1 0 174)"  d="M53.55587 154.8962L64.71989 154.8962L64.71989 154.8962L64.71989 143.7322L64.71989 143.7322L53.55587 143.7322z" stroke="#000000" stroke-width="0.5582014" stroke-linejoin="miter" fill="none" />
    <path id=""  transform="matrix(1 0 0 -1 0 174)"  d="M64.71989 132.5681L75.88393 132.5681L75.88393 132.5681L75.88393 121.4041L75.88393 121.4041L64.71989 121.4041z" stroke="none" fill="#FFFFFF" fill-rule="nonzero" />
    <path id=""  transform="matrix(1 0 0 -1 0 174)"  d="M64.71989 132.5681L75.88393 132.5681L75.88393 132.5681L75.88393 121.4041L75.88393 121.4041L64.71989 121.4041z" stroke="#000000" stroke-width="0.5582014" stroke-linejoin="miter" fill="none" />
    <path id=""  transform="matrix(1 0 0 -1 0 174)"  d="M64.71989 121.4041L75.88393 121.4041L75.88393 121.4041L75.88393 110.2401L75.88393 110.2401L64.71989 110.2401z" stroke="none" fill="#7EA6E0" fill-rule="nonzero" />
    <path id=""  transform="matrix(1 0 0 -1 0 174)"  d="M64.71989 121.4041L75.88393 121.4041L75.88393 121.4041L75.88393 110.2401L75.88393 110.2401L64.71989 110.2401z" stroke="#000000" stroke-width="0.5582014" stroke-linejoin="miter" fill="none" />
    <path id=""  transform="matrix(1 0 0 -1 0 174)"  d="M64.71989 143.7322L75.88393 143.7322L75.88393 143.7322L75.88393 132.5681L75.88393 132.5681L64.71989 132.5681z" stroke="none" fill="#FFFFFF" fill-rule="nonzero" />
    <path id=""  transform="matrix(1 0 0 -1 0 174)"  d="M64.71989 143.7322L75.88393 143.7322L75.88393 143.7322L75.88393 132.5681L75.88393 132.5681L64.71989 132.5681z" stroke="#000000" stroke-width="0.5582014" stroke-linejoin="miter" fill="none" />
    <path id=""  transform="matrix(1 0 0 -1 0 174)"  d="M64.71989 154.8962L75.88393 154.8962L75.88393 154.8962L75.88393 143.7322L75.88393 143.7322L64.71989 143.7322z" stroke="none" fill="#97D077" fill-rule="nonzero" />
    <path id=""  transform="matrix(1 0 0 -1 0 174)"  d="M64.71989 154.8962L75.88393 154.8962L75.88393 154.8962L75.88393 143.7322L75.88393 143.7322L64.71989 143.7322z" stroke="#000000" stroke-width="0.5582014" stroke-linejoin="miter" fill="none" />
    <path id=""  transform="matrix(1 0 0 -1 0 174)"  d="M75.88393 132.5681L87.04795 132.5681L87.04795 132.5681L87.04795 121.4041L87.04795 121.4041L75.88393 121.4041z" stroke="none" fill="#FFFFFF" fill-rule="nonzero" />
    <path id=""  transform="matrix(1 0 0 -1 0 174)"  d="M75.88393 132.5681L87.04795 132.5681L87.04795 132.5681L87.04795 121.4041L87.04795 121.4041L75.88393 121.4041z" stroke="#000000" stroke-width="0.5582014" stroke-linejoin="miter" fill="none" />
    <path id=""  transform="matrix(1 0 0 -1 0 174)"  d="M75.88393 121.4041L87.04795 121.4041L87.04795 121.4041L87.04795 110.2401L87.04795 110.2401L75.88393 110.2401z" stroke="none" fill="#FFFFFF" fill-rule="nonzero" />
    <path id=""  transform="matrix(1 0 0 -1 0 174)"  d="M75.88393 121.4041L87.04795 121.4041L87.04795 121.4041L87.04795 110.2401L87.04795 110.2401L75.88393 110.2401z" stroke="#000000" stroke-width="0.5582014" stroke-linejoin="miter" fill="none" />
    <path id=""  transform="matrix(1 0 0 -1 0 174)"  d="M75.88393 143.7322L87.04795 143.7322L87.04795 143.7322L87.04795 132.5681L87.04795 132.5681L75.88393 132.5681z" stroke="none" fill="#FFFFFF" fill-rule="nonzero" />
    <path id=""  transform="matrix(1 0 0 -1 0 174)"  d="M75.88393 143.7322L87.04795 143.7322L87.04795 143.7322L87.04795 132.5681L87.04795 132.5681L75.88393 132.5681z" stroke="#000000" stroke-width="0.5582014" stroke-linejoin="miter" fill="none" />
    <path id=""  transform="matrix(1 0 0 -1 0 174)"  d="M75.88393 154.8962L87.04795 154.8962L87.04795 154.8962L87.04795 143.7322L87.04795 143.7322L75.88393 143.7322z" stroke="none" fill="#97D077" fill-rule="nonzero" />
    <path id=""  transform="matrix(1 0 0 -1 0 174)"  d="M75.88393 154.8962L87.04795 154.8962L87.04795 154.8962L87.04795 143.7322L87.04795 143.7322L75.88393 143.7322z" stroke="#000000" stroke-width="0.5582014" stroke-linejoin="miter" fill="none" />
    <path id=""  transform="matrix(1 0 0 -1 0 174)"  d="M53.55587 76.74243L64.71989 76.74243L64.71989 76.74243L64.71989 65.57837L64.71989 65.57837L53.55587 65.57837z" stroke="none" fill="#FFFFFF" fill-rule="nonzero" />
    <path id=""  transform="matrix(1 0 0 -1 0 174)"  d="M53.55587 76.74243L64.71989 76.74243L64.71989 76.74243L64.71989 65.57837L64.71989 65.57837L53.55587 65.57837z" stroke="#000000" stroke-width="0.5582014" stroke-linejoin="miter" fill="none" />
    <path id=""  transform="matrix(1 0 0 -1 0 174)"  d="M53.55587 65.57837L64.71989 65.57837L64.71989 65.57837L64.71989 54.41437L64.71989 54.41437L53.55587 54.41437z" stroke="none" fill="#FFFFFF" fill-rule="nonzero" />
    <path id=""  transform="matrix(1 0 0 -1 0 174)"  d="M53.55587 65.57837L64.71989 65.57837L64.71989 65.57837L64.71989 54.41437L64.71989 54.41437L53.55587 54.41437z" stroke="#000000" stroke-width="0.5582014" stroke-linejoin="miter" fill="none" />
    <path id=""  transform="matrix(1 0 0 -1 0 174)"  d="M64.71989 76.74243L75.88393 76.74243L75.88393 76.74243L75.88393 65.57837L75.88393 65.57837L64.71989 65.57837z" stroke="none" fill="#FFFFFF" fill-rule="nonzero" />
    <path id=""  transform="matrix(1 0 0 -1 0 174)"  d="M64.71989 76.74243L75.88393 76.74243L75.88393 76.74243L75.88393 65.57837L75.88393 65.57837L64.71989 65.57837z" stroke="#000000" stroke-width="0.5582014" stroke-linejoin="miter" fill="none" />
    <path id=""  transform="matrix(1 0 0 -1 0 174)"  d="M64.71989 65.57837L75.88393 65.57837L75.88393 65.57837L75.88393 54.41437L75.88393 54.41437L64.71989 54.41437z" stroke="none" fill="#FFFFFF" fill-rule="nonzero" />
    <path id=""  transform="matrix(1 0 0 -1 0 174)"  d="M64.71989 65.57837L75.88393 65.57837L75.88393 65.57837L75.88393 54.41437L75.88393 54.41437L64.71989 54.41437z" stroke="#000000" stroke-width="0.5582014" stroke-linejoin="miter" fill="none" />
    <path id=""  transform="matrix(1 0 0 -1 0 174)"  d="M75.88393 76.74243L87.04795 76.74243L87.04795 76.74243L87.04795 65.57837L87.04795 65.57837L75.88393 65.57837z" stroke="none" fill="#FFFFFF" fill-rule="nonzero" />
    <path id=""  transform="matrix(1 0 0 -1 0 174)"  d="M75.88393 76.74243L87.04795 76.74243L87.04795 76.74243L87.04795 65.57837L87.04795 65.57837L75.88393 65.57837z" stroke="#000000" stroke-width="0.5582014" stroke-linejoin="miter" fill="none" />
    <path id=""  transform="matrix(1 0 0 -1 0 174)"  d="M75.88393 65.57837L87.04795 65.57837L87.04795 65.57837L87.04795 54.41437L87.04795 54.41437L75.88393 54.41437z" stroke="none" fill="#FFFFFF" fill-rule="nonzero" />
    <path id=""  transform="matrix(1 0 0 -1 0 174)"  d="M75.88393 65.57837L87.04795 65.57837L87.04795 65.57837L87.04795 54.41437L87.04795 54.41437L75.88393 54.41437z" stroke="#000000" stroke-width="0.5582014" stroke-linejoin="miter" fill="none" />
    <path id=""  transform="matrix(1 0 0 -1 0 174)"  d="M42.39184 76.73682L53.55587 76.73682L53.55587 76.73682L53.55587 65.57281L53.55587 65.57281L42.39184 65.57281z" stroke="none" fill="#FFFFFF" fill-rule="nonzero" />
    <path id=""  transform="matrix(1 0 0 -1 0 174)"  d="M42.39184 76.73682L53.55587 76.73682L53.55587 76.73682L53.55587 65.57281L53.55587 65.57281L42.39184 65.57281z" stroke="#000000" stroke-width="0.5582014" stroke-linejoin="miter" fill="none" />
    <path id=""  transform="matrix(1 0 0 -1 0 174)"  d="M42.39184 65.57281L53.55587 65.57281L53.55587 65.57281L53.55587 54.40875L53.55587 54.40875L42.39184 54.40875z" stroke="none" fill="#FFFFFF" fill-rule="nonzero" />
    <path id=""  transform="matrix(1 0 0 -1 0 174)"  d="M42.39184 65.57281L53.55587 65.57281L53.55587 65.57281L53.55587 54.40875L53.55587 54.40875L42.39184 54.40875z" stroke="#000000" stroke-width="0.5582014" stroke-linejoin="miter" fill="none" />
    <path id=""  transform="matrix(1 0 0 -1 0 174)"  d="M87.04795 76.73682L98.21198 76.73682L98.21198 76.73682L98.21198 65.57281L98.21198 65.57281L87.04795 65.57281z" stroke="none" fill="#7EA6E0" fill-rule="nonzero" />
    <path id=""  transform="matrix(1 0 0 -1 0 174)"  d="M87.04795 76.73682L98.21198 76.73682L98.21198 76.73682L98.21198 65.57281L98.21198 65.57281L87.04795 65.57281z" stroke="#000000" stroke-width="0.5582014" stroke-linejoin="miter" fill="none" />
    <path id=""  transform="matrix(1 0 0 -1 0 174)"  d="M87.04795 65.57281L98.21198 65.57281L98.21198 65.57281L98.21198 54.40875L98.21198 54.40875L87.04795 54.40875z" stroke="none" fill="#FFFFFF" fill-rule="nonzero" />
    <path id=""  transform="matrix(1 0 0 -1 0 174)"  d="M87.04795 65.57281L98.21198 65.57281L98.21198 65.57281L98.21198 54.40875L98.21198 54.40875L87.04795 54.40875z" stroke="#000000" stroke-width="0.5582014" stroke-linejoin="miter" fill="none" />
    <path id=""  transform="matrix(1 0 0 -1 0 174)"  d="M53.55587 54.43109L64.71989 54.43109L64.71989 54.43109L64.71989 43.26709L64.71989 43.26709L53.55587 43.26709z" stroke="none" fill="#FFFFFF" fill-rule="nonzero" />
    <path id=""  transform="matrix(1 0 0 -1 0 174)"  d="M53.55587 54.43109L64.71989 54.43109L64.71989 54.43109L64.71989 43.26709L64.71989 43.26709L53.55587 43.26709z" stroke="#000000" stroke-width="0.5582014" stroke-linejoin="miter" fill="none" />
    <path id=""  transform="matrix(1 0 0 -1 0 174)"  d="M64.71989 54.43109L75.88393 54.43109L75.88393 54.43109L75.88393 43.26709L75.88393 43.26709L64.71989 43.26709z" stroke="none" fill="#FFFFFF" fill-rule="nonzero" />
    <path id=""  transform="matrix(1 0 0 -1 0 174)"  d="M64.71989 54.43109L75.88393 54.43109L75.88393 54.43109L75.88393 43.26709L75.88393 43.26709L64.71989 43.26709z" stroke="#000000" stroke-width="0.5582014" stroke-linejoin="miter" fill="none" />
    <path id=""  transform="matrix(1 0 0 -1 0 174)"  d="M75.88393 54.43109L87.04795 54.43109L87.04795 54.43109L87.04795 43.26709L87.04795 43.26709L75.88393 43.26709z" stroke="none" fill="#FFFFFF" fill-rule="nonzero" />
    <path id=""  transform="matrix(1 0 0 -1 0 174)"  d="M75.88393 54.43109L87.04795 54.43109L87.04795 54.43109L87.04795 43.26709L87.04795 43.26709L75.88393 43.26709z" stroke="#000000" stroke-width="0.5582014" stroke-linejoin="miter" fill="none" />
    <path id=""  transform="matrix(1 0 0 -1 0 174)"  d="M42.39184 54.42554L53.55587 54.42554L53.55587 54.42554L53.55587 43.26147L53.55587 43.26147L42.39184 43.26147z" stroke="none" fill="#FFFFFF" fill-rule="nonzero" />
    <path id=""  transform="matrix(1 0 0 -1 0 174)"  d="M42.39184 54.42554L53.55587 54.42554L53.55587 54.42554L53.55587 43.26147L53.55587 43.26147L42.39184 43.26147z" stroke="#000000" stroke-width="0.5582014" stroke-linejoin="miter" fill="none" />
    <path id=""  transform="matrix(1 0 0 -1 0 174)"  d="M87.04795 54.42554L98.21198 54.42554L98.21198 54.42554L98.21198 43.26147L98.21198 43.26147L87.04795 43.26147z" stroke="none" fill="#FFFFFF" fill-rule="nonzero" />
    <path id=""  transform="matrix(1 0 0 -1 0 174)"  d="M87.04795 54.42554L98.21198 54.42554L98.21198 54.42554L98.21198 43.26147L98.21198 43.26147L87.04795 43.26147z" stroke="#000000" stroke-width="0.5582014" stroke-linejoin="miter" fill="none" />
    <path id=""  transform="matrix(1 0 0 -1 0 174)"  d="M53.55587 43.26147L64.71989 43.26147L64.71989 43.26147L64.71989 32.09747L64.71989 32.09747L53.55587 32.09747z" stroke="none" fill="#FFFFFF" fill-rule="nonzero" />
    <path id=""  transform="matrix(1 0 0 -1 0 174)"  d="M53.55587 43.26147L64.71989 43.26147L64.71989 43.26147L64.71989 32.09747L64.71989 32.09747L53.55587 32.09747z" stroke="#000000" stroke-width="0.5582014" stroke-linejoin="miter" fill="none" />
    <path id=""  transform="matrix(1 0 0 -1 0 174)"  d="M53.55587 32.09747L64.71989 32.09747L64.71989 32.09747L64.71989 20.93347L64.71989 20.93347L53.55587 20.93347z" stroke="none" fill="#FFFFFF" fill-rule="nonzero" />
    <path id=""  transform="matrix(1 0 0 -1 0 174)"  d="M53.55587 32.09747L64.71989 32.09747L64.71989 32.09747L64.71989 20.93347L64.71989 20.93347L53.55587 20.93347z" stroke="#000000" stroke-width="0.5582014" stroke-linejoin="miter" fill="none" />
    <path id=""  transform="matrix(1 0 0 -1 0 174)"  d="M64.71989 43.26147L75.88393 43.26147L75.88393 43.26147L75.88393 32.09747L75.88393 32.09747L64.71989 32.09747z" stroke="none" fill="#FFFFFF" fill-rule="nonzero" />
    <path id=""  transform="matrix(1 0 0 -1 0 174)"  d="M64.71989 43.26147L75.88393 43.26147L75.88393 43.26147L75.88393 32.09747L75.88393 32.09747L64.71989 32.09747z" stroke="#000000" stroke-width="0.5582014" stroke-linejoin="miter" fill="none" />
    <path id=""  transform="matrix(1 0 0 -1 0 174)"  d="M64.71989 32.09747L75.88393 32.09747L75.88393 32.09747L75.88393 20.93347L75.88393 20.93347L64.71989 20.93347z" stroke="none" fill="#FFFFFF" fill-rule="nonzero" />
    <path id=""  transform="matrix(1 0 0 -1 0 174)"  d="M64.71989 32.09747L75.88393 32.09747L75.88393 32.09747L75.88393 20.93347L75.88393 20.93347L64.71989 20.93347z" stroke="#000000" stroke-width="0.5582014" stroke-linejoin="miter" fill="none" />
    <path id=""  transform="matrix(1 0 0 -1 0 174)"  d="M75.88393 43.26147L87.04795 43.26147L87.04795 43.26147L87.04795 32.09747L87.04795 32.09747L75.88393 32.09747z" stroke="none" fill="#FFFFFF" fill-rule="nonzero" />
    <path id=""  transform="matrix(1 0 0 -1 0 174)"  d="M75.88393 43.26147L87.04795 43.26147L87.04795 43.26147L87.04795 32.09747L87.04795 32.09747L75.88393 32.09747z" stroke="#000000" stroke-width="0.5582014" stroke-linejoin="miter" fill="none" />
    <path id=""  transform="matrix(1 0 0 -1 0 174)"  d="M75.88393 32.09747L87.04795 32.09747L87.04795 32.09747L87.04795 20.93347L87.04795 20.93347L75.88393 20.93347z" stroke="none" fill="#FFFFFF" fill-rule="nonzero" />
    <path id=""  transform="matrix(1 0 0 -1 0 174)"  d="M75.88393 32.09747L87.04795 32.09747L87.04795 32.09747L87.04795 20.93347L87.04795 20.93347L75.88393 20.93347z" stroke="#000000" stroke-width="0.5582014" stroke-linejoin="miter" fill="none" />
    <path id=""  transform="matrix(1 0 0 -1 0 174)"  d="M42.39184 43.25592L53.55587 43.25592L53.55587 43.25592L53.55587 32.09192L53.55587 32.09192L42.39184 32.09192z" stroke="none" fill="#FFFFFF" fill-rule="nonzero" />
    <path id=""  transform="matrix(1 0 0 -1 0 174)"  d="M42.39184 43.25592L53.55587 43.25592L53.55587 43.25592L53.55587 32.09192L53.55587 32.09192L42.39184 32.09192z" stroke="#000000" stroke-width="0.5582014" stroke-linejoin="miter" fill="none" />
    <path id=""  transform="matrix(1 0 0 -1 0 174)"  d="M42.39184 32.09192L53.55587 32.09192L53.55587 32.09192L53.55587 20.92786L53.55587 20.92786L42.39184 20.92786z" stroke="none" fill="#FFFFFF" fill-rule="nonzero" />
    <path id=""  transform="matrix(1 0 0 -1 0 174)"  d="M42.39184 32.09192L53.55587 32.09192L53.55587 32.09192L53.55587 20.92786L53.55587 20.92786L42.39184 20.92786z" stroke="#000000" stroke-width="0.5582014" stroke-linejoin="miter" fill="none" />
    <path id=""  transform="matrix(1 0 0 -1 0 174)"  d="M87.04795 43.25592L98.21198 43.25592L98.21198 43.25592L98.21198 32.09192L98.21198 32.09192L87.04795 32.09192z" stroke="none" fill="#FFFFFF" fill-rule="nonzero" />
    <path id=""  transform="matrix(1 0 0 -1 0 174)"  d="M87.04795 43.25592L98.21198 43.25592L98.21198 43.25592L98.21198 32.09192L98.21198 32.09192L87.04795 32.09192z" stroke="#000000" stroke-width="0.5582014" stroke-linejoin="miter" fill="none" />
    <path id=""  transform="matrix(1 0 0 -1 0 174)"  d="M87.04795 32.09192L98.21198 32.09192L98.21198 32.09192L98.21198 20.92786L98.21198 20.92786L87.04795 20.92786z" stroke="none" fill="#FFFFFF" fill-rule="nonzero" />
    <path id=""  transform="matrix(1 0 0 -1 0 174)"  d="M87.04795 32.09192L98.21198 32.09192L98.21198 32.09192L98.21198 20.92786L98.21198 20.92786L87.04795 20.92786z" stroke="#000000" stroke-width="0.5582014" stroke-linejoin="miter" fill="none" />
    <path id=""  transform="matrix(1 0 0 -1 0 174)"  d="M87.04795 154.8962L98.21198 154.8962L98.21198 154.8962L98.21198 143.7322L98.21198 143.7322L87.04795 143.7322z" stroke="none" fill="#97D077" fill-rule="nonzero" />
    <path id=""  transform="matrix(1 0 0 -1 0 174)"  d="M87.04795 154.8962L98.21198 154.8962L98.21198 154.8962L98.21198 143.7322L98.21198 143.7322L87.04795 143.7322z" stroke="#000000" stroke-width="0.5582014" stroke-linejoin="miter" fill="none" />
    <path id=""  transform="matrix(1 0 0 -1 0 174)"  d="M31.22781 110.2457L42.39184 110.2457L42.39184 110.2457L42.39184 99.08167L42.39184 99.08167L31.22781 99.08167z" stroke="none" fill="#FFFFFF" fill-rule="nonzero" />
    <path id=""  transform="matrix(1 0 0 -1 0 174)"  d="M31.22781 110.2457L42.39184 110.2457L42.39184 110.2457L42.39184 99.08167L42.39184 99.08167L31.22781 99.08167z" stroke="#000000" stroke-width="0.5582014" stroke-linejoin="miter" fill="none" />
    <path id=""  transform="matrix(1 0 0 -1 0 174)"  d="M31.22781 99.08167L42.39184 99.08167L42.39184 99.08167L42.39184 87.9176L42.39184 87.9176L31.22781 87.9176z" stroke="none" fill="#FFFFFF" fill-rule="nonzero" />
    <path id=""  transform="matrix(1 0 0 -1 0 174)"  d="M31.22781 99.08167L42.39184 99.08167L42.39184 99.08167L42.39184 87.9176L42.39184 87.9176L31.22781 87.9176z" stroke="#000000" stroke-width="0.5582014" stroke-linejoin="miter" fill="none" />
    <path id=""  transform="matrix(1 0 0 -1 0 174)"  d="M31.22781 87.9176L42.39184 87.9176L42.39184 87.9176L42.39184 76.7536L42.39184 76.7536L31.22781 76.7536z" stroke="none" fill="#FFFFFF" fill-rule="nonzero" />
    <path id=""  transform="matrix(1 0 0 -1 0 174)"  d="M31.22781 87.9176L42.39184 87.9176L42.39184 87.9176L42.39184 76.7536L42.39184 76.7536L31.22781 76.7536z" stroke="#000000" stroke-width="0.5582014" stroke-linejoin="miter" fill="none" />
    <path id=""  transform="matrix(1 0 0 -1 0 174)"  d="M20.06379 110.2401L31.22781 110.2401L31.22781 110.2401L31.22781 99.07605L31.22781 99.07605L20.06379 99.07605z" stroke="none" fill="#97D077" fill-rule="nonzero" />
    <path id=""  transform="matrix(1 0 0 -1 0 174)"  d="M20.06379 110.2401L31.22781 110.2401L31.22781 110.2401L31.22781 99.07605L31.22781 99.07605L20.06379 99.07605z" stroke="#000000" stroke-width="0.5582014" stroke-linejoin="miter" fill="none" />
    <path id=""  transform="matrix(1 0 0 -1 0 174)"  d="M20.06379 99.07605L31.22781 99.07605L31.22781 99.07605L31.22781 87.91205L31.22781 87.91205L20.06379 87.91205z" stroke="none" fill="#97D077" fill-rule="nonzero" />
    <path id=""  transform="matrix(1 0 0 -1 0 174)"  d="M20.06379 99.07605L31.22781 99.07605L31.22781 99.07605L31.22781 87.91205L31.22781 87.91205L20.06379 87.91205z" stroke="#000000" stroke-width="0.5582014" stroke-linejoin="miter" fill="none" />
    <path id=""  transform="matrix(1 0 0 -1 0 174)"  d="M20.06379 87.91205L31.22781 87.91205L31.22781 87.91205L31.22781 76.74799L31.22781 76.74799L20.06379 76.74799z" stroke="none" fill="#97D077" fill-rule="nonzero" />
    <path id=""  transform="matrix(1 0 0 -1 0 174)"  d="M20.06379 87.91205L31.22781 87.91205L31.22781 87.91205L31.22781 76.74799L31.22781 76.74799L20.06379 76.74799z" stroke="#000000" stroke-width="0.5582014" stroke-linejoin="miter" fill="none" />
    <path id=""  transform="matrix(1 0 0 -1 0 174)"  d="M20.06379 132.5737L31.22781 132.5737L31.22781 132.5737L31.22781 121.4097L31.22781 121.4097L20.06379 121.4097z" stroke="none" fill="#97D077" fill-rule="nonzero" />
    <path id=""  transform="matrix(1 0 0 -1 0 174)"  d="M20.06379 132.5737L31.22781 132.5737L31.22781 132.5737L31.22781 121.4097L31.22781 121.4097L20.06379 121.4097z" stroke="#000000" stroke-width="0.5582014" stroke-linejoin="miter" fill="none" />
    <path id=""  transform="matrix(1 0 0 -1 0 174)"  d="M20.06379 121.4097L31.22781 121.4097L31.22781 121.4097L31.22781 110.2457L31.22781 110.2457L20.06379 110.2457z" stroke="none" fill="#97D077" fill-rule="nonzero" />
    <path id=""  transform="matrix(1 0 0 -1 0 174)"  d="M20.06379 121.4097L31.22781 121.4097L31.22781 121.4097L31.22781 110.2457L31.22781 110.2457L20.06379 110.2457z" stroke="#000000" stroke-width="0.5582014" stroke-linejoin="miter" fill="none" />
    <path id=""  transform="matrix(1 0 0 -1 0 174)"  d="M20.06379 143.7377L31.22781 143.7377L31.22781 143.7377L31.22781 132.5737L31.22781 132.5737L20.06379 132.5737z" stroke="none" fill="#97D077" fill-rule="nonzero" />
    <path id=""  transform="matrix(1 0 0 -1 0 174)"  d="M20.06379 143.7377L31.22781 143.7377L31.22781 143.7377L31.22781 132.5737L31.22781 132.5737L20.06379 132.5737z" stroke="#000000" stroke-width="0.5582014" stroke-linejoin="miter" fill="none" />
    <path id=""  transform="matrix(1 0 0 -1 0 174)"  d="M20.06379 154.9018L31.22781 154.9018L31.22781 154.9018L31.22781 143.7377L31.22781 143.7377L20.06379 143.7377z" stroke="none" fill="#97D077" fill-rule="nonzero" />
    <path id=""  transform="matrix(1 0 0 -1 0 174)"  d="M20.06379 154.9018L31.22781 154.9018L31.22781 154.9018L31.22781 143.7377L31.22781 143.7377L20.06379 143.7377z" stroke="#000000" stroke-width="0.5582014" stroke-linejoin="miter" fill="none" />
    <path id=""  transform="matrix(1 0 0 -1 0 174)"  d="M31.22781 132.5737L42.39184 132.5737L42.39184 132.5737L42.39184 121.4097L42.39184 121.4097L31.22781 121.4097z" stroke="none" fill="#7EA6E0" fill-rule="nonzero" />
    <path id=""  transform="matrix(1 0 0 -1 0 174)"  d="M31.22781 132.5737L42.39184 132.5737L42.39184 132.5737L42.39184 121.4097L42.39184 121.4097L31.22781 121.4097z" stroke="#000000" stroke-width="0.5582014" stroke-linejoin="miter" fill="none" />
    <path id=""  transform="matrix(1 0 0 -1 0 174)"  d="M31.22781 121.4097L42.39184 121.4097L42.39184 121.4097L42.39184 110.2457L42.39184 110.2457L31.22781 110.2457z" stroke="none" fill="#FFFFFF" fill-rule="nonzero" />
    <path id=""  transform="matrix(1 0 0 -1 0 174)"  d="M31.22781 121.4097L42.39184 121.4097L42.39184 121.4097L42.39184 110.2457L42.39184 110.2457L31.22781 110.2457z" stroke="#000000" stroke-width="0.5582014" stroke-linejoin="miter" fill="none" />
    <path id=""  transform="matrix(1 0 0 -1 0 174)"  d="M31.22781 143.7377L42.39184 143.7377L42.39184 143.7377L42.39184 132.5737L42.39184 132.5737L31.22781 132.5737z" stroke="none" fill="#7EA6E0" fill-rule="nonzero" />
    <path id=""  transform="matrix(1 0 0 -1 0 174)"  d="M31.22781 143.7377L42.39184 143.7377L42.39184 143.7377L42.39184 132.5737L42.39184 132.5737L31.22781 132.5737z" stroke="#000000" stroke-width="0.5582014" stroke-linejoin="miter" fill="none" />
    <path id=""  transform="matrix(1 0 0 -1 0 174)"  d="M31.22781 154.9018L42.39184 154.9018L42.39184 154.9018L42.39184 143.7377L42.39184 143.7377L31.22781 143.7377z" stroke="none" fill="#97D077" fill-rule="nonzero" />
    <path id=""  transform="matrix(1 0 0 -1 0 174)"  d="M31.22781 154.9018L42.39184 154.9018L42.39184 154.9018L42.39184 143.7377L42.39184 143.7377L31.22781 143.7377z" stroke="#000000" stroke-width="0.5582014" stroke-linejoin="miter" fill="none" />
    <path id=""  transform="matrix(1 0 0 -1 0 174)"  d="M31.22781 76.74799L42.39184 76.74799L42.39184 76.74799L42.39184 65.58398L42.39184 65.58398L31.22781 65.58398z" stroke="none" fill="#FFFFFF" fill-rule="nonzero" />
    <path id=""  transform="matrix(1 0 0 -1 0 174)"  d="M31.22781 76.74799L42.39184 76.74799L42.39184 76.74799L42.39184 65.58398L42.39184 65.58398L31.22781 65.58398z" stroke="#000000" stroke-width="0.5582014" stroke-linejoin="miter" fill="none" />
    <path id=""  transform="matrix(1 0 0 -1 0 174)"  d="M31.22781 65.58398L42.39184 65.58398L42.39184 65.58398L42.39184 54.41992L42.39184 54.41992L31.22781 54.41992z" stroke="none" fill="#FFFFFF" fill-rule="nonzero" />
    <path id=""  transform="matrix(1 0 0 -1 0 174)"  d="M31.22781 65.58398L42.39184 65.58398L42.39184 65.58398L42.39184 54.41992L42.39184 54.41992L31.22781 54.41992z" stroke="#000000" stroke-width="0.5582014" stroke-linejoin="miter" fill="none" />
    <path id=""  transform="matrix(1 0 0 -1 0 174)"  d="M20.06379 76.74243L31.22781 76.74243L31.22781 76.74243L31.22781 65.57837L31.22781 65.57837L20.06379 65.57837z" stroke="none" fill="#97D077" fill-rule="nonzero" />
    <path id=""  transform="matrix(1 0 0 -1 0 174)"  d="M20.06379 76.74243L31.22781 76.74243L31.22781 76.74243L31.22781 65.57837L31.22781 65.57837L20.06379 65.57837z" stroke="#000000" stroke-width="0.5582014" stroke-linejoin="miter" fill="none" />
    <path id=""  transform="matrix(1 0 0 -1 0 174)"  d="M20.06379 65.57837L31.22781 65.57837L31.22781 65.57837L31.22781 54.41437L31.22781 54.41437L20.06379 54.41437z" stroke="none" fill="#97D077" fill-rule="nonzero" />
    <path id=""  transform="matrix(1 0 0 -1 0 174)"  d="M20.06379 65.57837L31.22781 65.57837L31.22781 65.57837L31.22781 54.41437L31.22781 54.41437L20.06379 54.41437z" stroke="#000000" stroke-width="0.5582014" stroke-linejoin="miter" fill="none" />
    <path id=""  transform="matrix(1 0 0 -1 0 174)"  d="M31.22781 54.43671L42.39184 54.43671L42.39184 54.43671L42.39184 43.27271L42.39184 43.27271L31.22781 43.27271z" stroke="none" fill="#FFFFFF" fill-rule="nonzero" />
    <path id=""  transform="matrix(1 0 0 -1 0 174)"  d="M31.22781 54.43671L42.39184 54.43671L42.39184 54.43671L42.39184 43.27271L42.39184 43.27271L31.22781 43.27271z" stroke="#000000" stroke-width="0.5582014" stroke-linejoin="miter" fill="none" />
    <path id=""  transform="matrix(1 0 0 -1 0 174)"  d="M20.06379 54.43109L31.22781 54.43109L31.22781 54.43109L31.22781 43.26709L31.22781 43.26709L20.06379 43.26709z" stroke="none" fill="#97D077" fill-rule="nonzero" />
    <path id=""  transform="matrix(1 0 0 -1 0 174)"  d="M20.06379 54.43109L31.22781 54.43109L31.22781 54.43109L31.22781 43.26709L31.22781 43.26709L20.06379 43.26709z" stroke="#000000" stroke-width="0.5582014" stroke-linejoin="miter" fill="none" />
    <path id=""  transform="matrix(1 0 0 -1 0 174)"  d="M31.22781 43.26709L42.39184 43.26709L42.39184 43.26709L42.39184 32.10309L42.39184 32.10309L31.22781 32.10309z" stroke="none" fill="#FFFFFF" fill-rule="nonzero" />
    <path id=""  transform="matrix(1 0 0 -1 0 174)"  d="M31.22781 43.26709L42.39184 43.26709L42.39184 43.26709L42.39184 32.10309L42.39184 32.10309L31.22781 32.10309z" stroke="#000000" stroke-width="0.5582014" stroke-linejoin="miter" fill="none" />
    <path id=""  transform="matrix(1 0 0 -1 0 174)"  d="M31.22781 32.10309L42.39184 32.10309L42.39184 32.10309L42.39184 20.93903L42.39184 20.93903L31.22781 20.93903z" stroke="none" fill="#7EA6E0" fill-rule="nonzero" />
    <path id=""  transform="matrix(1 0 0 -1 0 174)"  d="M31.22781 32.10309L42.39184 32.10309L42.39184 32.10309L42.39184 20.93903L42.39184 20.93903L31.22781 20.93903z" stroke="#000000" stroke-width="0.5582014" stroke-linejoin="miter" fill="none" />
    <path id=""  transform="matrix(1 0 0 -1 0 174)"  d="M20.06379 43.26147L31.22781 43.26147L31.22781 43.26147L31.22781 32.09747L31.22781 32.09747L20.06379 32.09747z" stroke="none" fill="#97D077" fill-rule="nonzero" />
    <path id=""  transform="matrix(1 0 0 -1 0 174)"  d="M20.06379 43.26147L31.22781 43.26147L31.22781 43.26147L31.22781 32.09747L31.22781 32.09747L20.06379 32.09747z" stroke="#000000" stroke-width="0.5582014" stroke-linejoin="miter" fill="none" />
    <path id=""  transform="matrix(1 0 0 -1 0 174)"  d="M20.06379 32.09747L31.22781 32.09747L31.22781 32.09747L31.22781 20.93347L31.22781 20.93347L20.06379 20.93347z" stroke="none" fill="#97D077" fill-rule="nonzero" />
    <path id=""  transform="matrix(1 0 0 -1 0 174)"  d="M20.06379 32.09747L31.22781 32.09747L31.22781 32.09747L31.22781 20.93347L31.22781 20.93347L20.06379 20.93347z" stroke="#000000" stroke-width="0.5582014" stroke-linejoin="miter" fill="none" />
		</g>
	</g>
</g>
</svg>