<?xml version="1.0" standalone="no"?>
<!DOCTYPE svg PUBLIC "-//W3C//DTD SVG 1.1//EN" "http://www.w3.org/Graphics/SVG/1.1/DTD/svg11.dtd">
<svg xmlns="http://www.w3.org/2000/svg" xmlns:xlink="http://www.w3.org/1999/xlink" version="1.1" id="body_1" width="232" height="232">

<defs>
    <clipPath  id="1">

    <path id=""  clip-rule="evenodd" transform="matrix(1 0 0 1 0 0)"  d="M0 174L0 -0.9599915L0 -0.9599915L174 -0.9599915L174 -0.9599915L174 174L174 174L0 174z" />    </clipPath>
    <clipPath  id="2">

    <path id=""  clip-rule="evenodd" transform="matrix(1 0 0 1 0 0)"  d="M0 -0.9599915L174.2344 -0.9599915L174.2344 -0.9599915L174.2344 174.0009L174.2344 174.0009L0 174.0009z" />    </clipPath>
    <clipPath  id="3">

    <path id=""  clip-rule="evenodd" transform="matrix(1 0 0 1 0 0)"  d="M18.75 17.79001L155.25 17.79001L155.25 17.79001L155.25 155.04L155.25 155.04L18.75 155.04z" />    </clipPath>
</defs>

<g transform="matrix(1.3333 0 0 1.3333 0 0)">
	<g clip-path="url(#1)" >
		<g clip-path="url(#2)" >
    <path id=""  transform="matrix(1 0 0 -1 0 174)"  d="M0 174.96L174 174.96L174 174.96L174 0.2099915L174 0.2099915L0 0.2099915z" stroke="none" fill="#FFFFFF" fill-rule="nonzero" />
		</g>
		<g clip-path="url(#3)" >
    <path id=""  transform="matrix(1 0 0 -1 0 174)"  d="M109.376 110.2345L120.54 110.2345L120.54 110.2345L120.54 99.07043L120.54 99.07043L109.376 99.07043z" stroke="none" fill="#FFFFFF" fill-rule="nonzero" />
    <path id=""  transform="matrix(1 0 0 -1 0 174)"  d="M109.376 110.2345L120.54 110.2345L120.54 110.2345L120.54 99.07043L120.54 99.07043L109.376 99.07043z" stroke="#000000" stroke-width="0.5582014" stroke-linejoin="miter" fill="none" />
    <path id=""  transform="matrix(1 0 0 -1 0 174)"  d="M109.376 99.07043L120.54 99.07043L120.54 99.07043L120.54 87.90643L120.54 87.90643L109.376 87.90643z" stroke="none" fill="#FFFFFF" fill-rule="nonzero" />
    <path id=""  transform="matrix(1 0 0 -1 0 174)"  d="M109.376 99.07043L120.54 99.07043L120.54 99.07043L120.54 87.90643L120.54 87.90643L109.376 87.90643z" stroke="#000000" stroke-width="0.5582014" stroke-linejoin="miter" fill="none" />
    <path id=""  transform="matrix(1 0 0 -1 0 174)"  d="M109.376 87.90643L120.54 87.90643L120.54 87.90643L120.54 76.74237L120.54 76.74237L109.376 76.74237z" stroke="none" fill="#FFFFFF" fill-rule="nonzero" />
    <path id=""  transform="matrix(1 0 0 -1 0 174)"  d="M109.376 87.90643L120.54 87.90643L120.54 87.90643L120.54 76.74237L120.54 76.74237L109.376 76.74237z" stroke="#000000" stroke-width="0.5582014" stroke-linejoin="miter" fill="none" />
    <path id=""  transform="matrix(1 0 0 -1 0 174)"  d="M120.54 110.2345L131.704 110.2345L131.704 110.2345L131.704 99.07043L131.704 99.07043L120.54 99.07043z" stroke="none" fill="#FFFFFF" fill-rule="nonzero" />
    <path id=""  transform="matrix(1 0 0 -1 0 174)"  d="M120.54 110.2345L131.704 110.2345L131.704 110.2345L131.704 99.07043L131.704 99.07043L120.54 99.07043z" stroke="#000000" stroke-width="0.5582014" stroke-linejoin="miter" fill="none" />
    <path id=""  transform="matrix(1 0 0 -1 0 174)"  d="M120.54 99.07043L131.704 99.07043L131.704 99.07043L131.704 87.90643L131.704 87.90643L120.54 87.90643z" stroke="none" fill="#FFFFFF" fill-rule="nonzero" />
    <path id=""  transform="matrix(1 0 0 -1 0 174)"  d="M120.54 99.07043L131.704 99.07043L131.704 99.07043L131.704 87.90643L131.704 87.90643L120.54 87.90643z" stroke="#000000" stroke-width="0.5582014" stroke-linejoin="miter" fill="none" />
    <path id=""  transform="matrix(1 0 0 -1 0 174)"  d="M120.54 87.90643L131.704 87.90643L131.704 87.90643L131.704 76.74237L131.704 76.74237L120.54 76.74237z" stroke="none" fill="#FFFFFF" fill-rule="nonzero" />
    <path id=""  transform="matrix(1 0 0 -1 0 174)"  d="M120.54 87.90643L131.704 87.90643L131.704 87.90643L131.704 76.74237L131.704 76.74237L120.54 76.74237z" stroke="#000000" stroke-width="0.5582014" stroke-linejoin="miter" fill="none" />
    <path id=""  transform="matrix(1 0 0 -1 0 174)"  d="M131.704 110.2345L142.8681 110.2345L142.8681 110.2345L142.8681 99.07043L142.8681 99.07043L131.704 99.07043z" stroke="none" fill="#FFFFFF" fill-rule="nonzero" />
    <path id=""  transform="matrix(1 0 0 -1 0 174)"  d="M131.704 110.2345L142.8681 110.2345L142.8681 110.2345L142.8681 99.07043L142.8681 99.07043L131.704 99.07043z" stroke="#000000" stroke-width="0.5582014" stroke-linejoin="miter" fill="none" />
    <path id=""  transform="matrix(1 0 0 -1 0 174)"  d="M131.704 99.07043L142.8681 99.07043L142.8681 99.07043L142.8681 87.90643L142.8681 87.90643L131.704 87.90643z" stroke="none" fill="#FFFFFF" fill-rule="nonzero" />
    <path id=""  transform="matrix(1 0 0 -1 0 174)"  d="M131.704 99.07043L142.8681 99.07043L142.8681 99.07043L142.8681 87.90643L142.8681 87.90643L131.704 87.90643z" stroke="#000000" stroke-width="0.5582014" stroke-linejoin="miter" fill="none" />
    <path id=""  transform="matrix(1 0 0 -1 0 174)"  d="M131.704 87.90643L142.8681 87.90643L142.8681 87.90643L142.8681 76.74237L142.8681 76.74237L131.704 76.74237z" stroke="none" fill="#FFFFFF" fill-rule="nonzero" />
    <path id=""  transform="matrix(1 0 0 -1 0 174)"  d="M131.704 87.90643L142.8681 87.90643L142.8681 87.90643L142.8681 76.74237L142.8681 76.74237L131.704 76.74237z" stroke="#000000" stroke-width="0.5582014" stroke-linejoin="miter" fill="none" />
    <path id=""  transform="matrix(1 0 0 -1 0 174)"  d="M98.21198 110.2289L109.376 110.2289L109.376 110.2289L109.376 99.06488L109.376 99.06488L98.21198 99.06488z" stroke="none" fill="#FFFFFF" fill-rule="nonzero" />
    <path id=""  transform="matrix(1 0 0 -1 0 174)"  d="M98.21198 110.2289L109.376 110.2289L109.376 110.2289L109.376 99.06488L109.376 99.06488L98.21198 99.06488z" stroke="#000000" stroke-width="0.5582014" stroke-linejoin="miter" fill="none" />
    <path id=""  transform="matrix(1 0 0 -1 0 174)"  d="M98.21198 99.06488L109.376 99.06488L109.376 99.06488L109.376 87.90082L109.376 87.90082L98.21198 87.90082z" stroke="none" fill="#FFB570" fill-rule="nonzero" />
    <path id=""  transform="matrix(1 0 0 -1 0 174)"  d="M98.21198 99.06488L109.376 99.06488L109.376 99.06488L109.376 87.90082L109.376 87.90082L98.21198 87.90082z" stroke="#000000" stroke-width="0.5582014" stroke-linejoin="miter" fill="none" />
    <path id=""  transform="matrix(1 0 0 -1 0 174)"  d="M98.21198 87.90082L109.376 87.90082L109.376 87.90082L109.376 76.73682L109.376 76.73682L98.21198 76.73682z" stroke="none" fill="#7EA6E0" fill-rule="nonzero" />
    <path id=""  transform="matrix(1 0 0 -1 0 174)"  d="M98.21198 87.90082L109.376 87.90082L109.376 87.90082L109.376 76.73682L109.376 76.73682L98.21198 76.73682z" stroke="#000000" stroke-width="0.5582014" stroke-linejoin="miter" fill="none" />
    <path id=""  transform="matrix(1 0 0 -1 0 174)"  d="M142.8681 99.06488L154.0321 99.06488L154.0321 99.06488L154.0321 87.90082L154.0321 87.90082L142.8681 87.90082z" stroke="none" fill="#FFFFFF" fill-rule="nonzero" />
    <path id=""  transform="matrix(1 0 0 -1 0 174)"  d="M142.8681 99.06488L154.0321 99.06488L154.0321 99.06488L154.0321 87.90082L154.0321 87.90082L142.8681 87.90082z" stroke="#000000" stroke-width="0.5582014" stroke-linejoin="miter" fill="none" />
    <path id=""  transform="matrix(1 0 0 -1 0 174)"  d="M142.8681 121.3985L154.0321 121.3985L154.0321 121.3985L154.0321 110.2345L154.0321 110.2345L142.8681 110.2345z" stroke="none" fill="#FFFFFF" fill-rule="nonzero" />
    <path id=""  transform="matrix(1 0 0 -1 0 174)"  d="M142.8681 121.3985L154.0321 121.3985L154.0321 121.3985L154.0321 110.2345L154.0321 110.2345L142.8681 110.2345z" stroke="#000000" stroke-width="0.5582014" stroke-linejoin="miter" fill="none" />
    <path id=""  transform="matrix(1 0 0 -1 0 174)"  d="M142.8681 143.7266L154.0321 143.7266L154.0321 143.7266L154.0321 132.5626L154.0321 132.5626L142.8681 132.5626z" stroke="none" fill="#FFFFFF" fill-rule="nonzero" />
    <path id=""  transform="matrix(1 0 0 -1 0 174)"  d="M142.8681 143.7266L154.0321 143.7266L154.0321 143.7266L154.0321 132.5626L154.0321 132.5626L142.8681 132.5626z" stroke="#000000" stroke-width="0.5582014" stroke-linejoin="miter" fill="none" />
    <path id=""  transform="matrix(1 0 0 -1 0 174)"  d="M142.8681 87.90082L154.0321 87.90082L154.0321 87.90082L154.0321 76.73682L154.0321 76.73682L142.8681 76.73682z" stroke="none" fill="#FFFFFF" fill-rule="nonzero" />
    <path id=""  transform="matrix(1 0 0 -1 0 174)"  d="M142.8681 87.90082L154.0321 87.90082L154.0321 87.90082L154.0321 76.73682L154.0321 76.73682L142.8681 76.73682z" stroke="#000000" stroke-width="0.5582014" stroke-linejoin="miter" fill="none" />
    <path id=""  transform="matrix(1 0 0 -1 0 174)"  d="M142.8681 110.2289L154.0321 110.2289L154.0321 110.2289L154.0321 99.06488L154.0321 99.06488L142.8681 99.06488z" stroke="none" fill="#FFB570" fill-rule="nonzero" />
    <path id=""  transform="matrix(1 0 0 -1 0 174)"  d="M142.8681 110.2289L154.0321 110.2289L154.0321 110.2289L154.0321 99.06488L154.0321 99.06488L142.8681 99.06488z" stroke="#000000" stroke-width="0.5582014" stroke-linejoin="miter" fill="none" />
    <path id=""  transform="matrix(1 0 0 -1 0 174)"  d="M142.8681 132.5626L154.0321 132.5626L154.0321 132.5626L154.0321 121.3985L154.0321 121.3985L142.8681 121.3985z" stroke="none" fill="#FFFFFF" fill-rule="nonzero" />
    <path id=""  transform="matrix(1 0 0 -1 0 174)"  d="M142.8681 132.5626L154.0321 132.5626L154.0321 132.5626L154.0321 121.3985L154.0321 121.3985L142.8681 121.3985z" stroke="#000000" stroke-width="0.5582014" stroke-linejoin="miter" fill="none" />
    <path id=""  transform="matrix(1 0 0 -1 0 174)"  d="M98.21198 132.5626L109.376 132.5626L109.376 132.5626L109.376 121.3985L109.376 121.3985L98.21198 121.3985z" stroke="none" fill="#FFFFFF" fill-rule="nonzero" />
    <path id=""  transform="matrix(1 0 0 -1 0 174)"  d="M98.21198 132.5626L109.376 132.5626L109.376 132.5626L109.376 121.3985L109.376 121.3985L98.21198 121.3985z" stroke="#000000" stroke-width="0.5582014" stroke-linejoin="miter" fill="none" />
    <path id=""  transform="matrix(1 0 0 -1 0 174)"  d="M98.21198 121.3985L109.376 121.3985L109.376 121.3985L109.376 110.2345L109.376 110.2345L98.21198 110.2345z" stroke="none" fill="#FFB570" fill-rule="nonzero" />
    <path id=""  transform="matrix(1 0 0 -1 0 174)"  d="M98.21198 121.3985L109.376 121.3985L109.376 121.3985L109.376 110.2345L109.376 110.2345L98.21198 110.2345z" stroke="#000000" stroke-width="0.5582014" stroke-linejoin="miter" fill="none" />
    <path id=""  transform="matrix(1 0 0 -1 0 174)"  d="M98.21198 143.7266L109.376 143.7266L109.376 143.7266L109.376 132.5626L109.376 132.5626L98.21198 132.5626z" stroke="none" fill="#FFFFFF" fill-rule="nonzero" />
    <path id=""  transform="matrix(1 0 0 -1 0 174)"  d="M98.21198 143.7266L109.376 143.7266L109.376 143.7266L109.376 132.5626L109.376 132.5626L98.21198 132.5626z" stroke="#000000" stroke-width="0.5582014" stroke-linejoin="miter" fill="none" />
    <path id=""  transform="matrix(1 0 0 -1 0 174)"  d="M98.21198 154.8906L109.376 154.8906L109.376 154.8906L109.376 143.7266L109.376 143.7266L98.21198 143.7266z" stroke="none" fill="#97D077" fill-rule="nonzero" />
    <path id=""  transform="matrix(1 0 0 -1 0 174)"  d="M98.21198 154.8906L109.376 154.8906L109.376 154.8906L109.376 143.7266L109.376 143.7266L98.21198 143.7266z" stroke="#000000" stroke-width="0.5582014" stroke-linejoin="miter" fill="none" />
    <path id=""  transform="matrix(1 0 0 -1 0 174)"  d="M109.376 132.5626L120.54 132.5626L120.54 132.5626L120.54 121.3985L120.54 121.3985L109.376 121.3985z" stroke="none" fill="#FFFFFF" fill-rule="nonzero" />
    <path id=""  transform="matrix(1 0 0 -1 0 174)"  d="M109.376 132.5626L120.54 132.5626L120.54 132.5626L120.54 121.3985L120.54 121.3985L109.376 121.3985z" stroke="#000000" stroke-width="0.5582014" stroke-linejoin="miter" fill="none" />
    <path id=""  transform="matrix(1 0 0 -1 0 174)"  d="M109.376 121.3985L120.54 121.3985L120.54 121.3985L120.54 110.2345L120.54 110.2345L109.376 110.2345z" stroke="none" fill="#FFFFFF" fill-rule="nonzero" />
    <path id=""  transform="matrix(1 0 0 -1 0 174)"  d="M109.376 121.3985L120.54 121.3985L120.54 121.3985L120.54 110.2345L120.54 110.2345L109.376 110.2345z" stroke="#000000" stroke-width="0.5582014" stroke-linejoin="miter" fill="none" />
    <path id=""  transform="matrix(1 0 0 -1 0 174)"  d="M109.376 143.7266L120.54 143.7266L120.54 143.7266L120.54 132.5626L120.54 132.5626L109.376 132.5626z" stroke="none" fill="#FFFFFF" fill-rule="nonzero" />
    <path id=""  transform="matrix(1 0 0 -1 0 174)"  d="M109.376 143.7266L120.54 143.7266L120.54 143.7266L120.54 132.5626L120.54 132.5626L109.376 132.5626z" stroke="#000000" stroke-width="0.5582014" stroke-linejoin="miter" fill="none" />
    <path id=""  transform="matrix(1 0 0 -1 0 174)"  d="M109.376 154.8906L120.54 154.8906L120.54 154.8906L120.54 143.7266L120.54 143.7266L109.376 143.7266z" stroke="none" fill="#97D077" fill-rule="nonzero" />
    <path id=""  transform="matrix(1 0 0 -1 0 174)"  d="M109.376 154.8906L120.54 154.8906L120.54 154.8906L120.54 143.7266L120.54 143.7266L109.376 143.7266z" stroke="#000000" stroke-width="0.5582014" stroke-linejoin="miter" fill="none" />
    <path id=""  transform="matrix(1 0 0 -1 0 174)"  d="M120.54 132.5626L131.704 132.5626L131.704 132.5626L131.704 121.3985L131.704 121.3985L120.54 121.3985z" stroke="none" fill="#FFFFFF" fill-rule="nonzero" />
    <path id=""  transform="matrix(1 0 0 -1 0 174)"  d="M120.54 132.5626L131.704 132.5626L131.704 132.5626L131.704 121.3985L131.704 121.3985L120.54 121.3985z" stroke="#000000" stroke-width="0.5582014" stroke-linejoin="miter" fill="none" />
    <path id=""  transform="matrix(1 0 0 -1 0 174)"  d="M120.54 121.3985L131.704 121.3985L131.704 121.3985L131.704 110.2345L131.704 110.2345L120.54 110.2345z" stroke="none" fill="#FFFFFF" fill-rule="nonzero" />
    <path id=""  transform="matrix(1 0 0 -1 0 174)"  d="M120.54 121.3985L131.704 121.3985L131.704 121.3985L131.704 110.2345L131.704 110.2345L120.54 110.2345z" stroke="#000000" stroke-width="0.5582014" stroke-linejoin="miter" fill="none" />
    <path id=""  transform="matrix(1 0 0 -1 0 174)"  d="M120.54 143.7266L131.704 143.7266L131.704 143.7266L131.704 132.5626L131.704 132.5626L120.54 132.5626z" stroke="none" fill="#FFFFFF" fill-rule="nonzero" />
    <path id=""  transform="matrix(1 0 0 -1 0 174)"  d="M120.54 143.7266L131.704 143.7266L131.704 143.7266L131.704 132.5626L131.704 132.5626L120.54 132.5626z" stroke="#000000" stroke-width="0.5582014" stroke-linejoin="miter" fill="none" />
    <path id=""  transform="matrix(1 0 0 -1 0 174)"  d="M120.54 154.8906L131.704 154.8906L131.704 154.8906L131.704 143.7266L131.704 143.7266L120.54 143.7266z" stroke="none" fill="#97D077" fill-rule="nonzero" />
    <path id=""  transform="matrix(1 0 0 -1 0 174)"  d="M120.54 154.8906L131.704 154.8906L131.704 154.8906L131.704 143.7266L131.704 143.7266L120.54 143.7266z" stroke="#000000" stroke-width="0.5582014" stroke-linejoin="miter" fill="none" />
    <path id=""  transform="matrix(1 0 0 -1 0 174)"  d="M131.704 132.5626L142.8681 132.5626L142.8681 132.5626L142.8681 121.3985L142.8681 121.3985L131.704 121.3985z" stroke="none" fill="#FFB570" fill-rule="nonzero" />
    <path id=""  transform="matrix(1 0 0 -1 0 174)"  d="M131.704 132.5626L142.8681 132.5626L142.8681 132.5626L142.8681 121.3985L142.8681 121.3985L131.704 121.3985z" stroke="#000000" stroke-width="0.5582014" stroke-linejoin="miter" fill="none" />
    <path id=""  transform="matrix(1 0 0 -1 0 174)"  d="M131.704 121.3985L142.8681 121.3985L142.8681 121.3985L142.8681 110.2345L142.8681 110.2345L131.704 110.2345z" stroke="none" fill="#FFFFFF" fill-rule="nonzero" />
    <path id=""  transform="matrix(1 0 0 -1 0 174)"  d="M131.704 121.3985L142.8681 121.3985L142.8681 121.3985L142.8681 110.2345L142.8681 110.2345L131.704 110.2345z" stroke="#000000" stroke-width="0.5582014" stroke-linejoin="miter" fill="none" />
    <path id=""  transform="matrix(1 0 0 -1 0 174)"  d="M131.704 143.7266L142.8681 143.7266L142.8681 143.7266L142.8681 132.5626L142.8681 132.5626L131.704 132.5626z" stroke="none" fill="#FFFFFF" fill-rule="nonzero" />
    <path id=""  transform="matrix(1 0 0 -1 0 174)"  d="M131.704 143.7266L142.8681 143.7266L142.8681 143.7266L142.8681 132.5626L142.8681 132.5626L131.704 132.5626z" stroke="#000000" stroke-width="0.5582014" stroke-linejoin="miter" fill="none" />
    <path id=""  transform="matrix(1 0 0 -1 0 174)"  d="M131.704 154.8906L142.8681 154.8906L142.8681 154.8906L142.8681 143.7266L142.8681 143.7266L131.704 143.7266z" stroke="none" fill="#97D077" fill-rule="nonzero" />
    <path id=""  transform="matrix(1 0 0 -1 0 174)"  d="M131.704 154.8906L142.8681 154.8906L142.8681 154.8906L142.8681 143.7266L142.8681 143.7266L131.704 143.7266z" stroke="#000000" stroke-width="0.5582014" stroke-linejoin="miter" fill="none" />
    <path id=""  transform="matrix(1 0 0 -1 0 174)"  d="M109.376 76.73682L120.54 76.73682L120.54 76.73682L120.54 65.57275L120.54 65.57275L109.376 65.57275z" stroke="none" fill="#7EA6E0" fill-rule="nonzero" />
    <path id=""  transform="matrix(1 0 0 -1 0 174)"  d="M109.376 76.73682L120.54 76.73682L120.54 76.73682L120.54 65.57275L120.54 65.57275L109.376 65.57275z" stroke="#000000" stroke-width="0.5582014" stroke-linejoin="miter" fill="none" />
    <path id=""  transform="matrix(1 0 0 -1 0 174)"  d="M109.376 65.57275L120.54 65.57275L120.54 65.57275L120.54 54.40875L120.54 54.40875L109.376 54.40875z" stroke="none" fill="#7EA6E0" fill-rule="nonzero" />
    <path id=""  transform="matrix(1 0 0 -1 0 174)"  d="M109.376 65.57275L120.54 65.57275L120.54 65.57275L120.54 54.40875L120.54 54.40875L109.376 54.40875z" stroke="#000000" stroke-width="0.5582014" stroke-linejoin="miter" fill="none" />
    <path id=""  transform="matrix(1 0 0 -1 0 174)"  d="M120.54 76.73682L131.704 76.73682L131.704 76.73682L131.704 65.57275L131.704 65.57275L120.54 65.57275z" stroke="none" fill="#FFFFFF" fill-rule="nonzero" />
    <path id=""  transform="matrix(1 0 0 -1 0 174)"  d="M120.54 76.73682L131.704 76.73682L131.704 76.73682L131.704 65.57275L131.704 65.57275L120.54 65.57275z" stroke="#000000" stroke-width="0.5582014" stroke-linejoin="miter" fill="none" />
    <path id=""  transform="matrix(1 0 0 -1 0 174)"  d="M120.54 65.57275L131.704 65.57275L131.704 65.57275L131.704 54.40875L131.704 54.40875L120.54 54.40875z" stroke="none" fill="#7EA6E0" fill-rule="nonzero" />
    <path id=""  transform="matrix(1 0 0 -1 0 174)"  d="M120.54 65.57275L131.704 65.57275L131.704 65.57275L131.704 54.40875L131.704 54.40875L120.54 54.40875z" stroke="#000000" stroke-width="0.5582014" stroke-linejoin="miter" fill="none" />
    <path id=""  transform="matrix(1 0 0 -1 0 174)"  d="M131.704 76.73682L142.8681 76.73682L142.8681 76.73682L142.8681 65.57275L142.8681 65.57275L131.704 65.57275z" stroke="none" fill="#FFFFFF" fill-rule="nonzero" />
    <path id=""  transform="matrix(1 0 0 -1 0 174)"  d="M131.704 76.73682L142.8681 76.73682L142.8681 76.73682L142.8681 65.57275L142.8681 65.57275L131.704 65.57275z" stroke="#000000" stroke-width="0.5582014" stroke-linejoin="miter" fill="none" />
    <path id=""  transform="matrix(1 0 0 -1 0 174)"  d="M131.704 65.57275L142.8681 65.57275L142.8681 65.57275L142.8681 54.40875L142.8681 54.40875L131.704 54.40875z" stroke="none" fill="#FFFFFF" fill-rule="nonzero" />
    <path id=""  transform="matrix(1 0 0 -1 0 174)"  d="M131.704 65.57275L142.8681 65.57275L142.8681 65.57275L142.8681 54.40875L142.8681 54.40875L131.704 54.40875z" stroke="#000000" stroke-width="0.5582014" stroke-linejoin="miter" fill="none" />
    <path id=""  transform="matrix(1 0 0 -1 0 174)"  d="M98.21198 76.7312L109.376 76.7312L109.376 76.7312L109.376 65.5672L109.376 65.5672L98.21198 65.5672z" stroke="none" fill="#7EA6E0" fill-rule="nonzero" />
    <path id=""  transform="matrix(1 0 0 -1 0 174)"  d="M98.21198 76.7312L109.376 76.7312L109.376 76.7312L109.376 65.5672L109.376 65.5672L98.21198 65.5672z" stroke="#000000" stroke-width="0.5582014" stroke-linejoin="miter" fill="none" />
    <path id=""  transform="matrix(1 0 0 -1 0 174)"  d="M98.21198 65.5672L109.376 65.5672L109.376 65.5672L109.376 54.40314L109.376 54.40314L98.21198 54.40314z" stroke="none" fill="#7EA6E0" fill-rule="nonzero" />
    <path id=""  transform="matrix(1 0 0 -1 0 174)"  d="M98.21198 65.5672L109.376 65.5672L109.376 65.5672L109.376 54.40314L109.376 54.40314L98.21198 54.40314z" stroke="#000000" stroke-width="0.5582014" stroke-linejoin="miter" fill="none" />
    <path id=""  transform="matrix(1 0 0 -1 0 174)"  d="M142.8681 76.7312L154.0321 76.7312L154.0321 76.7312L154.0321 65.5672L154.0321 65.5672L142.8681 65.5672z" stroke="none" fill="#FFFFFF" fill-rule="nonzero" />
    <path id=""  transform="matrix(1 0 0 -1 0 174)"  d="M142.8681 76.7312L154.0321 76.7312L154.0321 76.7312L154.0321 65.5672L154.0321 65.5672L142.8681 65.5672z" stroke="#000000" stroke-width="0.5582014" stroke-linejoin="miter" fill="none" />
    <path id=""  transform="matrix(1 0 0 -1 0 174)"  d="M142.8681 65.5672L154.0321 65.5672L154.0321 65.5672L154.0321 54.40314L154.0321 54.40314L142.8681 54.40314z" stroke="none" fill="#FFFFFF" fill-rule="nonzero" />
    <path id=""  transform="matrix(1 0 0 -1 0 174)"  d="M142.8681 65.5672L154.0321 65.5672L154.0321 65.5672L154.0321 54.40314L154.0321 54.40314L142.8681 54.40314z" stroke="#000000" stroke-width="0.5582014" stroke-linejoin="miter" fill="none" />
    <path id=""  transform="matrix(1 0 0 -1 0 174)"  d="M109.376 54.42554L120.54 54.42554L120.54 54.42554L120.54 43.26147L120.54 43.26147L109.376 43.26147z" stroke="none" fill="#7EA6E0" fill-rule="nonzero" />
    <path id=""  transform="matrix(1 0 0 -1 0 174)"  d="M109.376 54.42554L120.54 54.42554L120.54 54.42554L120.54 43.26147L120.54 43.26147L109.376 43.26147z" stroke="#000000" stroke-width="0.5582014" stroke-linejoin="miter" fill="none" />
    <path id=""  transform="matrix(1 0 0 -1 0 174)"  d="M120.54 54.42554L131.704 54.42554L131.704 54.42554L131.704 43.26147L131.704 43.26147L120.54 43.26147z" stroke="none" fill="#7EA6E0" fill-rule="nonzero" />
    <path id=""  transform="matrix(1 0 0 -1 0 174)"  d="M120.54 54.42554L131.704 54.42554L131.704 54.42554L131.704 43.26147L131.704 43.26147L120.54 43.26147z" stroke="#000000" stroke-width="0.5582014" stroke-linejoin="miter" fill="none" />
    <path id=""  transform="matrix(1 0 0 -1 0 174)"  d="M131.704 54.42554L142.8681 54.42554L142.8681 54.42554L142.8681 43.26147L142.8681 43.26147L131.704 43.26147z" stroke="none" fill="#7EA6E0" fill-rule="nonzero" />
    <path id=""  transform="matrix(1 0 0 -1 0 174)"  d="M131.704 54.42554L142.8681 54.42554L142.8681 54.42554L142.8681 43.26147L142.8681 43.26147L131.704 43.26147z" stroke="#000000" stroke-width="0.5582014" stroke-linejoin="miter" fill="none" />
    <path id=""  transform="matrix(1 0 0 -1 0 174)"  d="M98.21198 54.41992L109.376 54.41992L109.376 54.41992L109.376 43.25592L109.376 43.25592L98.21198 43.25592z" stroke="none" fill="#FFFFFF" fill-rule="nonzero" />
    <path id=""  transform="matrix(1 0 0 -1 0 174)"  d="M98.21198 54.41992L109.376 54.41992L109.376 54.41992L109.376 43.25592L109.376 43.25592L98.21198 43.25592z" stroke="#000000" stroke-width="0.5582014" stroke-linejoin="miter" fill="none" />
    <path id=""  transform="matrix(1 0 0 -1 0 174)"  d="M142.8681 54.41992L154.0321 54.41992L154.0321 54.41992L154.0321 43.25592L154.0321 43.25592L142.8681 43.25592z" stroke="none" fill="#FFFFFF" fill-rule="nonzero" />
    <path id=""  transform="matrix(1 0 0 -1 0 174)"  d="M142.8681 54.41992L154.0321 54.41992L154.0321 54.41992L154.0321 43.25592L154.0321 43.25592L142.8681 43.25592z" stroke="#000000" stroke-width="0.5582014" stroke-linejoin="miter" fill="none" />
    <path id=""  transform="matrix(1 0 0 -1 0 174)"  d="M109.376 43.25592L120.54 43.25592L120.54 43.25592L120.54 32.09186L120.54 32.09186L109.376 32.09186z" stroke="none" fill="#FFFFFF" fill-rule="nonzero" />
    <path id=""  transform="matrix(1 0 0 -1 0 174)"  d="M109.376 43.25592L120.54 43.25592L120.54 43.25592L120.54 32.09186L120.54 32.09186L109.376 32.09186z" stroke="#000000" stroke-width="0.5582014" stroke-linejoin="miter" fill="none" />
    <path id=""  transform="matrix(1 0 0 -1 0 174)"  d="M109.376 32.09186L120.54 32.09186L120.54 32.09186L120.54 20.92786L120.54 20.92786L109.376 20.92786z" stroke="none" fill="#FFB570" fill-rule="nonzero" />
    <path id=""  transform="matrix(1 0 0 -1 0 174)"  d="M109.376 32.09186L120.54 32.09186L120.54 32.09186L120.54 20.92786L120.54 20.92786L109.376 20.92786z" stroke="#000000" stroke-width="0.5582014" stroke-linejoin="miter" fill="none" />
    <path id=""  transform="matrix(1 0 0 -1 0 174)"  d="M120.54 43.25592L131.704 43.25592L131.704 43.25592L131.704 32.09186L131.704 32.09186L120.54 32.09186z" stroke="none" fill="#7EA6E0" fill-rule="nonzero" />
    <path id=""  transform="matrix(1 0 0 -1 0 174)"  d="M120.54 43.25592L131.704 43.25592L131.704 43.25592L131.704 32.09186L131.704 32.09186L120.54 32.09186z" stroke="#000000" stroke-width="0.5582014" stroke-linejoin="miter" fill="none" />
    <path id=""  transform="matrix(1 0 0 -1 0 174)"  d="M120.54 32.09186L131.704 32.09186L131.704 32.09186L131.704 20.92786L131.704 20.92786L120.54 20.92786z" stroke="none" fill="#FFFFFF" fill-rule="nonzero" />
    <path id=""  transform="matrix(1 0 0 -1 0 174)"  d="M120.54 32.09186L131.704 32.09186L131.704 32.09186L131.704 20.92786L131.704 20.92786L120.54 20.92786z" stroke="#000000" stroke-width="0.5582014" stroke-linejoin="miter" fill="none" />
    <path id=""  transform="matrix(1 0 0 -1 0 174)"  d="M131.704 43.25592L142.8681 43.25592L142.8681 43.25592L142.8681 32.09186L142.8681 32.09186L131.704 32.09186z" stroke="none" fill="#7EA6E0" fill-rule="nonzero" />
    <path id=""  transform="matrix(1 0 0 -1 0 174)"  d="M131.704 43.25592L142.8681 43.25592L142.8681 43.25592L142.8681 32.09186L142.8681 32.09186L131.704 32.09186z" stroke="#000000" stroke-width="0.5582014" stroke-linejoin="miter" fill="none" />
    <path id=""  transform="matrix(1 0 0 -1 0 174)"  d="M131.704 32.09186L142.8681 32.09186L142.8681 32.09186L142.8681 20.92786L142.8681 20.92786L131.704 20.92786z" stroke="none" fill="#7EA6E0" fill-rule="nonzero" />
    <path id=""  transform="matrix(1 0 0 -1 0 174)"  d="M131.704 32.09186L142.8681 32.09186L142.8681 32.09186L142.8681 20.92786L142.8681 20.92786L131.704 20.92786z" stroke="#000000" stroke-width="0.5582014" stroke-linejoin="miter" fill="none" />
    <path id=""  transform="matrix(1 0 0 -1 0 174)"  d="M98.21198 43.25031L109.376 43.25031L109.376 43.25031L109.376 32.0863L109.376 32.0863L98.21198 32.0863z" stroke="none" fill="#FFFFFF" fill-rule="nonzero" />
    <path id=""  transform="matrix(1 0 0 -1 0 174)"  d="M98.21198 43.25031L109.376 43.25031L109.376 43.25031L109.376 32.0863L109.376 32.0863L98.21198 32.0863z" stroke="#000000" stroke-width="0.5582014" stroke-linejoin="miter" fill="none" />
    <path id=""  transform="matrix(1 0 0 -1 0 174)"  d="M98.21198 32.0863L109.376 32.0863L109.376 32.0863L109.376 20.92224L109.376 20.92224L98.21198 20.92224z" stroke="none" fill="#FFFFFF" fill-rule="nonzero" />
    <path id=""  transform="matrix(1 0 0 -1 0 174)"  d="M98.21198 32.0863L109.376 32.0863L109.376 32.0863L109.376 20.92224L109.376 20.92224L98.21198 20.92224z" stroke="#000000" stroke-width="0.5582014" stroke-linejoin="miter" fill="none" />
    <path id=""  transform="matrix(1 0 0 -1 0 174)"  d="M142.8681 43.25031L154.0321 43.25031L154.0321 43.25031L154.0321 32.0863L154.0321 32.0863L142.8681 32.0863z" stroke="none" fill="#7EA6E0" fill-rule="nonzero" />
    <path id=""  transform="matrix(1 0 0 -1 0 174)"  d="M142.8681 43.25031L154.0321 43.25031L154.0321 43.25031L154.0321 32.0863L154.0321 32.0863L142.8681 32.0863z" stroke="#000000" stroke-width="0.5582014" stroke-linejoin="miter" fill="none" />
    <path id=""  transform="matrix(1 0 0 -1 0 174)"  d="M142.8681 32.0863L154.0321 32.0863L154.0321 32.0863L154.0321 20.92224L154.0321 20.92224L142.8681 20.92224z" stroke="none" fill="#7EA6E0" fill-rule="nonzero" />
    <path id=""  transform="matrix(1 0 0 -1 0 174)"  d="M142.8681 32.0863L154.0321 32.0863L154.0321 32.0863L154.0321 20.92224L154.0321 20.92224L142.8681 20.92224z" stroke="#000000" stroke-width="0.5582014" stroke-linejoin="miter" fill="none" />
    <path id=""  transform="matrix(1 0 0 -1 0 174)"  d="M142.8681 154.8906L154.0321 154.8906L154.0321 154.8906L154.0321 143.7266L154.0321 143.7266L142.8681 143.7266z" stroke="none" fill="#97D077" fill-rule="nonzero" />
    <path id=""  transform="matrix(1 0 0 -1 0 174)"  d="M142.8681 154.8906L154.0321 154.8906L154.0321 154.8906L154.0321 143.7266L154.0321 143.7266L142.8681 143.7266z" stroke="#000000" stroke-width="0.5582014" stroke-linejoin="miter" fill="none" />
    <path id=""  transform="matrix(1 0 0 -1 0 174)"  d="M53.55588 110.2401L64.71991 110.2401L64.71991 110.2401L64.71991 99.07605L64.71991 99.07605L53.55588 99.07605z" stroke="none" fill="#7EA6E0" fill-rule="nonzero" />
    <path id=""  transform="matrix(1 0 0 -1 0 174)"  d="M53.55588 110.2401L64.71991 110.2401L64.71991 110.2401L64.71991 99.07605L64.71991 99.07605L53.55588 99.07605z" stroke="#000000" stroke-width="0.5582014" stroke-linejoin="miter" fill="none" />
    <path id=""  transform="matrix(1 0 0 -1 0 174)"  d="M53.55588 99.07605L64.71991 99.07605L64.71991 99.07605L64.71991 87.91199L64.71991 87.91199L53.55588 87.91199z" stroke="none" fill="#FFFFFF" fill-rule="nonzero" />
    <path id=""  transform="matrix(1 0 0 -1 0 174)"  d="M53.55588 99.07605L64.71991 99.07605L64.71991 99.07605L64.71991 87.91199L64.71991 87.91199L53.55588 87.91199z" stroke="#000000" stroke-width="0.5582014" stroke-linejoin="miter" fill="none" />
    <path id=""  transform="matrix(1 0 0 -1 0 174)"  d="M53.55588 87.91199L64.71991 87.91199L64.71991 87.91199L64.71991 76.74799L64.71991 76.74799L53.55588 76.74799z" stroke="none" fill="#FFFFFF" fill-rule="nonzero" />
    <path id=""  transform="matrix(1 0 0 -1 0 174)"  d="M53.55588 87.91199L64.71991 87.91199L64.71991 87.91199L64.71991 76.74799L64.71991 76.74799L53.55588 76.74799z" stroke="#000000" stroke-width="0.5582014" stroke-linejoin="miter" fill="none" />
    <path id=""  transform="matrix(1 0 0 -1 0 174)"  d="M64.71991 110.2401L75.88391 110.2401L75.88391 110.2401L75.88391 99.07605L75.88391 99.07605L64.71991 99.07605z" stroke="none" fill="#7EA6E0" fill-rule="nonzero" />
    <path id=""  transform="matrix(1 0 0 -1 0 174)"  d="M64.71991 110.2401L75.88391 110.2401L75.88391 110.2401L75.88391 99.07605L75.88391 99.07605L64.71991 99.07605z" stroke="#000000" stroke-width="0.5582014" stroke-linejoin="miter" fill="none" />
    <path id=""  transform="matrix(1 0 0 -1 0 174)"  d="M64.71991 99.07605L75.88391 99.07605L75.88391 99.07605L75.88391 87.91199L75.88391 87.91199L64.71991 87.91199z" stroke="none" fill="#7EA6E0" fill-rule="nonzero" />
    <path id=""  transform="matrix(1 0 0 -1 0 174)"  d="M64.71991 99.07605L75.88391 99.07605L75.88391 99.07605L75.88391 87.91199L75.88391 87.91199L64.71991 87.91199z" stroke="#000000" stroke-width="0.5582014" stroke-linejoin="miter" fill="none" />
    <path id=""  transform="matrix(1 0 0 -1 0 174)"  d="M64.71991 87.91199L75.88391 87.91199L75.88391 87.91199L75.88391 76.74799L75.88391 76.74799L64.71991 76.74799z" stroke="none" fill="#FFFFFF" fill-rule="nonzero" />
    <path id=""  transform="matrix(1 0 0 -1 0 174)"  d="M64.71991 87.91199L75.88391 87.91199L75.88391 87.91199L75.88391 76.74799L75.88391 76.74799L64.71991 76.74799z" stroke="#000000" stroke-width="0.5582014" stroke-linejoin="miter" fill="none" />
    <path id=""  transform="matrix(1 0 0 -1 0 174)"  d="M75.88391 110.2401L87.04794 110.2401L87.04794 110.2401L87.04794 99.07605L87.04794 99.07605L75.88391 99.07605z" stroke="none" fill="#7EA6E0" fill-rule="nonzero" />
    <path id=""  transform="matrix(1 0 0 -1 0 174)"  d="M75.88391 110.2401L87.04794 110.2401L87.04794 110.2401L87.04794 99.07605L87.04794 99.07605L75.88391 99.07605z" stroke="#000000" stroke-width="0.5582014" stroke-linejoin="miter" fill="none" />
    <path id=""  transform="matrix(1 0 0 -1 0 174)"  d="M75.88391 99.07605L87.04794 99.07605L87.04794 99.07605L87.04794 87.91199L87.04794 87.91199L75.88391 87.91199z" stroke="none" fill="#7EA6E0" fill-rule="nonzero" />
    <path id=""  transform="matrix(1 0 0 -1 0 174)"  d="M75.88391 99.07605L87.04794 99.07605L87.04794 99.07605L87.04794 87.91199L87.04794 87.91199L75.88391 87.91199z" stroke="#000000" stroke-width="0.5582014" stroke-linejoin="miter" fill="none" />
    <path id=""  transform="matrix(1 0 0 -1 0 174)"  d="M75.88391 87.91199L87.04794 87.91199L87.04794 87.91199L87.04794 76.74799L87.04794 76.74799L75.88391 76.74799z" stroke="none" fill="#7EA6E0" fill-rule="nonzero" />
    <path id=""  transform="matrix(1 0 0 -1 0 174)"  d="M75.88391 87.91199L87.04794 87.91199L87.04794 87.91199L87.04794 76.74799L87.04794 76.74799L75.88391 76.74799z" stroke="#000000" stroke-width="0.5582014" stroke-linejoin="miter" fill="none" />
    <path id=""  transform="matrix(1 0 0 -1 0 174)"  d="M42.39185 110.2345L53.55588 110.2345L53.55588 110.2345L53.55588 99.07043L53.55588 99.07043L42.39185 99.07043z" stroke="none" fill="#FFFFFF" fill-rule="nonzero" />
    <path id=""  transform="matrix(1 0 0 -1 0 174)"  d="M42.39185 110.2345L53.55588 110.2345L53.55588 110.2345L53.55588 99.07043L53.55588 99.07043L42.39185 99.07043z" stroke="#000000" stroke-width="0.5582014" stroke-linejoin="miter" fill="none" />
    <path id=""  transform="matrix(1 0 0 -1 0 174)"  d="M42.39185 99.07043L53.55588 99.07043L53.55588 99.07043L53.55588 87.90643L53.55588 87.90643L42.39185 87.90643z" stroke="none" fill="#FFFFFF" fill-rule="nonzero" />
    <path id=""  transform="matrix(1 0 0 -1 0 174)"  d="M42.39185 99.07043L53.55588 99.07043L53.55588 99.07043L53.55588 87.90643L53.55588 87.90643L42.39185 87.90643z" stroke="#000000" stroke-width="0.5582014" stroke-linejoin="miter" fill="none" />
    <path id=""  transform="matrix(1 0 0 -1 0 174)"  d="M42.39185 87.90643L53.55588 87.90643L53.55588 87.90643L53.55588 76.74237L53.55588 76.74237L42.39185 76.74237z" stroke="none" fill="#FFB570" fill-rule="nonzero" />
    <path id=""  transform="matrix(1 0 0 -1 0 174)"  d="M42.39185 87.90643L53.55588 87.90643L53.55588 87.90643L53.55588 76.74237L53.55588 76.74237L42.39185 76.74237z" stroke="#000000" stroke-width="0.5582014" stroke-linejoin="miter" fill="none" />
    <path id=""  transform="matrix(1 0 0 -1 0 174)"  d="M87.04794 99.07043L98.21201 99.07043L98.21201 99.07043L98.21201 87.90643L98.21201 87.90643L87.04794 87.90643z" stroke="none" fill="#7EA6E0" fill-rule="nonzero" />
    <path id=""  transform="matrix(1 0 0 -1 0 174)"  d="M87.04794 99.07043L98.21201 99.07043L98.21201 99.07043L98.21201 87.90643L98.21201 87.90643L87.04794 87.90643z" stroke="#000000" stroke-width="0.5582014" stroke-linejoin="miter" fill="none" />
    <path id=""  transform="matrix(1 0 0 -1 0 174)"  d="M87.04794 121.4041L98.21201 121.4041L98.21201 121.4041L98.21201 110.2401L98.21201 110.2401L87.04794 110.2401z" stroke="none" fill="#FFFFFF" fill-rule="nonzero" />
    <path id=""  transform="matrix(1 0 0 -1 0 174)"  d="M87.04794 121.4041L98.21201 121.4041L98.21201 121.4041L98.21201 110.2401L98.21201 110.2401L87.04794 110.2401z" stroke="#000000" stroke-width="0.5582014" stroke-linejoin="miter" fill="none" />
    <path id=""  transform="matrix(1 0 0 -1 0 174)"  d="M87.04794 143.7322L98.21201 143.7322L98.21201 143.7322L98.21201 132.5681L98.21201 132.5681L87.04794 132.5681z" stroke="none" fill="#FFB570" fill-rule="nonzero" />
    <path id=""  transform="matrix(1 0 0 -1 0 174)"  d="M87.04794 143.7322L98.21201 143.7322L98.21201 143.7322L98.21201 132.5681L98.21201 132.5681L87.04794 132.5681z" stroke="#000000" stroke-width="0.5582014" stroke-linejoin="miter" fill="none" />
    <path id=""  transform="matrix(1 0 0 -1 0 174)"  d="M87.04794 87.90643L98.21201 87.90643L98.21201 87.90643L98.21201 76.74237L98.21201 76.74237L87.04794 76.74237z" stroke="none" fill="#7EA6E0" fill-rule="nonzero" />
    <path id=""  transform="matrix(1 0 0 -1 0 174)"  d="M87.04794 87.90643L98.21201 87.90643L98.21201 87.90643L98.21201 76.74237L98.21201 76.74237L87.04794 76.74237z" stroke="#000000" stroke-width="0.5582014" stroke-linejoin="miter" fill="none" />
    <path id=""  transform="matrix(1 0 0 -1 0 174)"  d="M87.04794 110.2345L98.21201 110.2345L98.21201 110.2345L98.21201 99.07043L98.21201 99.07043L87.04794 99.07043z" stroke="none" fill="#FFFFFF" fill-rule="nonzero" />
    <path id=""  transform="matrix(1 0 0 -1 0 174)"  d="M87.04794 110.2345L98.21201 110.2345L98.21201 110.2345L98.21201 99.07043L98.21201 99.07043L87.04794 99.07043z" stroke="#000000" stroke-width="0.5582014" stroke-linejoin="miter" fill="none" />
    <path id=""  transform="matrix(1 0 0 -1 0 174)"  d="M87.04794 132.5681L98.21201 132.5681L98.21201 132.5681L98.21201 121.4041L98.21201 121.4041L87.04794 121.4041z" stroke="none" fill="#FFFFFF" fill-rule="nonzero" />
    <path id=""  transform="matrix(1 0 0 -1 0 174)"  d="M87.04794 132.5681L98.21201 132.5681L98.21201 132.5681L98.21201 121.4041L98.21201 121.4041L87.04794 121.4041z" stroke="#000000" stroke-width="0.5582014" stroke-linejoin="miter" fill="none" />
    <path id=""  transform="matrix(1 0 0 -1 0 174)"  d="M42.39185 132.5681L53.55588 132.5681L53.55588 132.5681L53.55588 121.4041L53.55588 121.4041L42.39185 121.4041z" stroke="none" fill="#7EA6E0" fill-rule="nonzero" />
    <path id=""  transform="matrix(1 0 0 -1 0 174)"  d="M42.39185 132.5681L53.55588 132.5681L53.55588 132.5681L53.55588 121.4041L53.55588 121.4041L42.39185 121.4041z" stroke="#000000" stroke-width="0.5582014" stroke-linejoin="miter" fill="none" />
    <path id=""  transform="matrix(1 0 0 -1 0 174)"  d="M42.39185 121.4041L53.55588 121.4041L53.55588 121.4041L53.55588 110.2401L53.55588 110.2401L42.39185 110.2401z" stroke="none" fill="#7EA6E0" fill-rule="nonzero" />
    <path id=""  transform="matrix(1 0 0 -1 0 174)"  d="M42.39185 121.4041L53.55588 121.4041L53.55588 121.4041L53.55588 110.2401L53.55588 110.2401L42.39185 110.2401z" stroke="#000000" stroke-width="0.5582014" stroke-linejoin="miter" fill="none" />
    <path id=""  transform="matrix(1 0 0 -1 0 174)"  d="M42.39185 143.7322L53.55588 143.7322L53.55588 143.7322L53.55588 132.5681L53.55588 132.5681L42.39185 132.5681z" stroke="none" fill="#7EA6E0" fill-rule="nonzero" />
    <path id=""  transform="matrix(1 0 0 -1 0 174)"  d="M42.39185 143.7322L53.55588 143.7322L53.55588 143.7322L53.55588 132.5681L53.55588 132.5681L42.39185 132.5681z" stroke="#000000" stroke-width="0.5582014" stroke-linejoin="miter" fill="none" />
    <path id=""  transform="matrix(1 0 0 -1 0 174)"  d="M42.39185 154.8962L53.55588 154.8962L53.55588 154.8962L53.55588 143.7322L53.55588 143.7322L42.39185 143.7322z" stroke="none" fill="#97D077" fill-rule="nonzero" />
    <path id=""  transform="matrix(1 0 0 -1 0 174)"  d="M42.39185 154.8962L53.55588 154.8962L53.55588 154.8962L53.55588 143.7322L53.55588 143.7322L42.39185 143.7322z" stroke="#000000" stroke-width="0.5582014" stroke-linejoin="miter" fill="none" />
    <path id=""  transform="matrix(1 0 0 -1 0 174)"  d="M53.55588 132.5681L64.71991 132.5681L64.71991 132.5681L64.71991 121.4041L64.71991 121.4041L53.55588 121.4041z" stroke="none" fill="#7EA6E0" fill-rule="nonzero" />
    <path id=""  transform="matrix(1 0 0 -1 0 174)"  d="M53.55588 132.5681L64.71991 132.5681L64.71991 132.5681L64.71991 121.4041L64.71991 121.4041L53.55588 121.4041z" stroke="#000000" stroke-width="0.5582014" stroke-linejoin="miter" fill="none" />
    <path id=""  transform="matrix(1 0 0 -1 0 174)"  d="M53.55588 121.4041L64.71991 121.4041L64.71991 121.4041L64.71991 110.2401L64.71991 110.2401L53.55588 110.2401z" stroke="none" fill="#7EA6E0" fill-rule="nonzero" />
    <path id=""  transform="matrix(1 0 0 -1 0 174)"  d="M53.55588 121.4041L64.71991 121.4041L64.71991 121.4041L64.71991 110.2401L64.71991 110.2401L53.55588 110.2401z" stroke="#000000" stroke-width="0.5582014" stroke-linejoin="miter" fill="none" />
    <path id=""  transform="matrix(1 0 0 -1 0 174)"  d="M53.55588 143.7322L64.71991 143.7322L64.71991 143.7322L64.71991 132.5681L64.71991 132.5681L53.55588 132.5681z" stroke="none" fill="#FFFFFF" fill-rule="nonzero" />
    <path id=""  transform="matrix(1 0 0 -1 0 174)"  d="M53.55588 143.7322L64.71991 143.7322L64.71991 143.7322L64.71991 132.5681L64.71991 132.5681L53.55588 132.5681z" stroke="#000000" stroke-width="0.5582014" stroke-linejoin="miter" fill="none" />
    <path id=""  transform="matrix(1 0 0 -1 0 174)"  d="M53.55588 154.8962L64.71991 154.8962L64.71991 154.8962L64.71991 143.7322L64.71991 143.7322L53.55588 143.7322z" stroke="none" fill="#97D077" fill-rule="nonzero" />
    <path id=""  transform="matrix(1 0 0 -1 0 174)"  d="M53.55588 154.8962L64.71991 154.8962L64.71991 154.8962L64.71991 143.7322L64.71991 143.7322L53.55588 143.7322z" stroke="#000000" stroke-width="0.5582014" stroke-linejoin="miter" fill="none" />
    <path id=""  transform="matrix(1 0 0 -1 0 174)"  d="M64.71991 132.5681L75.88391 132.5681L75.88391 132.5681L75.88391 121.4041L75.88391 121.4041L64.71991 121.4041z" stroke="none" fill="#FFFFFF" fill-rule="nonzero" />
    <path id=""  transform="matrix(1 0 0 -1 0 174)"  d="M64.71991 132.5681L75.88391 132.5681L75.88391 132.5681L75.88391 121.4041L75.88391 121.4041L64.71991 121.4041z" stroke="#000000" stroke-width="0.5582014" stroke-linejoin="miter" fill="none" />
    <path id=""  transform="matrix(1 0 0 -1 0 174)"  d="M64.71991 121.4041L75.88391 121.4041L75.88391 121.4041L75.88391 110.2401L75.88391 110.2401L64.71991 110.2401z" stroke="none" fill="#7EA6E0" fill-rule="nonzero" />
    <path id=""  transform="matrix(1 0 0 -1 0 174)"  d="M64.71991 121.4041L75.88391 121.4041L75.88391 121.4041L75.88391 110.2401L75.88391 110.2401L64.71991 110.2401z" stroke="#000000" stroke-width="0.5582014" stroke-linejoin="miter" fill="none" />
    <path id=""  transform="matrix(1 0 0 -1 0 174)"  d="M64.71991 143.7322L75.88391 143.7322L75.88391 143.7322L75.88391 132.5681L75.88391 132.5681L64.71991 132.5681z" stroke="none" fill="#FFFFFF" fill-rule="nonzero" />
    <path id=""  transform="matrix(1 0 0 -1 0 174)"  d="M64.71991 143.7322L75.88391 143.7322L75.88391 143.7322L75.88391 132.5681L75.88391 132.5681L64.71991 132.5681z" stroke="#000000" stroke-width="0.5582014" stroke-linejoin="miter" fill="none" />
    <path id=""  transform="matrix(1 0 0 -1 0 174)"  d="M64.71991 154.8962L75.88391 154.8962L75.88391 154.8962L75.88391 143.7322L75.88391 143.7322L64.71991 143.7322z" stroke="none" fill="#97D077" fill-rule="nonzero" />
    <path id=""  transform="matrix(1 0 0 -1 0 174)"  d="M64.71991 154.8962L75.88391 154.8962L75.88391 154.8962L75.88391 143.7322L75.88391 143.7322L64.71991 143.7322z" stroke="#000000" stroke-width="0.5582014" stroke-linejoin="miter" fill="none" />
    <path id=""  transform="matrix(1 0 0 -1 0 174)"  d="M75.88391 132.5681L87.04794 132.5681L87.04794 132.5681L87.04794 121.4041L87.04794 121.4041L75.88391 121.4041z" stroke="none" fill="#FFFFFF" fill-rule="nonzero" />
    <path id=""  transform="matrix(1 0 0 -1 0 174)"  d="M75.88391 132.5681L87.04794 132.5681L87.04794 132.5681L87.04794 121.4041L87.04794 121.4041L75.88391 121.4041z" stroke="#000000" stroke-width="0.5582014" stroke-linejoin="miter" fill="none" />
    <path id=""  transform="matrix(1 0 0 -1 0 174)"  d="M75.88391 121.4041L87.04794 121.4041L87.04794 121.4041L87.04794 110.2401L87.04794 110.2401L75.88391 110.2401z" stroke="none" fill="#FFFFFF" fill-rule="nonzero" />
    <path id=""  transform="matrix(1 0 0 -1 0 174)"  d="M75.88391 121.4041L87.04794 121.4041L87.04794 121.4041L87.04794 110.2401L87.04794 110.2401L75.88391 110.2401z" stroke="#000000" stroke-width="0.5582014" stroke-linejoin="miter" fill="none" />
    <path id=""  transform="matrix(1 0 0 -1 0 174)"  d="M75.88391 143.7322L87.04794 143.7322L87.04794 143.7322L87.04794 132.5681L87.04794 132.5681L75.88391 132.5681z" stroke="none" fill="#FFFFFF" fill-rule="nonzero" />
    <path id=""  transform="matrix(1 0 0 -1 0 174)"  d="M75.88391 143.7322L87.04794 143.7322L87.04794 143.7322L87.04794 132.5681L87.04794 132.5681L75.88391 132.5681z" stroke="#000000" stroke-width="0.5582014" stroke-linejoin="miter" fill="none" />
    <path id=""  transform="matrix(1 0 0 -1 0 174)"  d="M75.88391 154.8962L87.04794 154.8962L87.04794 154.8962L87.04794 143.7322L87.04794 143.7322L75.88391 143.7322z" stroke="none" fill="#97D077" fill-rule="nonzero" />
    <path id=""  transform="matrix(1 0 0 -1 0 174)"  d="M75.88391 154.8962L87.04794 154.8962L87.04794 154.8962L87.04794 143.7322L87.04794 143.7322L75.88391 143.7322z" stroke="#000000" stroke-width="0.5582014" stroke-linejoin="miter" fill="none" />
    <path id=""  transform="matrix(1 0 0 -1 0 174)"  d="M53.55588 76.74237L64.71991 76.74237L64.71991 76.74237L64.71991 65.57837L64.71991 65.57837L53.55588 65.57837z" stroke="none" fill="#FFFFFF" fill-rule="nonzero" />
    <path id=""  transform="matrix(1 0 0 -1 0 174)"  d="M53.55588 76.74237L64.71991 76.74237L64.71991 76.74237L64.71991 65.57837L64.71991 65.57837L53.55588 65.57837z" stroke="#000000" stroke-width="0.5582014" stroke-linejoin="miter" fill="none" />
    <path id=""  transform="matrix(1 0 0 -1 0 174)"  d="M53.55588 65.57837L64.71991 65.57837L64.71991 65.57837L64.71991 54.41437L64.71991 54.41437L53.55588 54.41437z" stroke="none" fill="#FFFFFF" fill-rule="nonzero" />
    <path id=""  transform="matrix(1 0 0 -1 0 174)"  d="M53.55588 65.57837L64.71991 65.57837L64.71991 65.57837L64.71991 54.41437L64.71991 54.41437L53.55588 54.41437z" stroke="#000000" stroke-width="0.5582014" stroke-linejoin="miter" fill="none" />
    <path id=""  transform="matrix(1 0 0 -1 0 174)"  d="M64.71991 76.74237L75.88391 76.74237L75.88391 76.74237L75.88391 65.57837L75.88391 65.57837L64.71991 65.57837z" stroke="none" fill="#FFB570" fill-rule="nonzero" />
    <path id=""  transform="matrix(1 0 0 -1 0 174)"  d="M64.71991 76.74237L75.88391 76.74237L75.88391 76.74237L75.88391 65.57837L75.88391 65.57837L64.71991 65.57837z" stroke="#000000" stroke-width="0.5582014" stroke-linejoin="miter" fill="none" />
    <path id=""  transform="matrix(1 0 0 -1 0 174)"  d="M64.71991 65.57837L75.88391 65.57837L75.88391 65.57837L75.88391 54.41437L75.88391 54.41437L64.71991 54.41437z" stroke="none" fill="#FFFFFF" fill-rule="nonzero" />
    <path id=""  transform="matrix(1 0 0 -1 0 174)"  d="M64.71991 65.57837L75.88391 65.57837L75.88391 65.57837L75.88391 54.41437L75.88391 54.41437L64.71991 54.41437z" stroke="#000000" stroke-width="0.5582014" stroke-linejoin="miter" fill="none" />
    <path id=""  transform="matrix(1 0 0 -1 0 174)"  d="M75.88391 76.74237L87.04794 76.74237L87.04794 76.74237L87.04794 65.57837L87.04794 65.57837L75.88391 65.57837z" stroke="none" fill="#FFFFFF" fill-rule="nonzero" />
    <path id=""  transform="matrix(1 0 0 -1 0 174)"  d="M75.88391 76.74237L87.04794 76.74237L87.04794 76.74237L87.04794 65.57837L87.04794 65.57837L75.88391 65.57837z" stroke="#000000" stroke-width="0.5582014" stroke-linejoin="miter" fill="none" />
    <path id=""  transform="matrix(1 0 0 -1 0 174)"  d="M75.88391 65.57837L87.04794 65.57837L87.04794 65.57837L87.04794 54.41437L87.04794 54.41437L75.88391 54.41437z" stroke="none" fill="#FFFFFF" fill-rule="nonzero" />
    <path id=""  transform="matrix(1 0 0 -1 0 174)"  d="M75.88391 65.57837L87.04794 65.57837L87.04794 65.57837L87.04794 54.41437L87.04794 54.41437L75.88391 54.41437z" stroke="#000000" stroke-width="0.5582014" stroke-linejoin="miter" fill="none" />
    <path id=""  transform="matrix(1 0 0 -1 0 174)"  d="M42.39185 76.73682L53.55588 76.73682L53.55588 76.73682L53.55588 65.57275L53.55588 65.57275L42.39185 65.57275z" stroke="none" fill="#FFFFFF" fill-rule="nonzero" />
    <path id=""  transform="matrix(1 0 0 -1 0 174)"  d="M42.39185 76.73682L53.55588 76.73682L53.55588 76.73682L53.55588 65.57275L53.55588 65.57275L42.39185 65.57275z" stroke="#000000" stroke-width="0.5582014" stroke-linejoin="miter" fill="none" />
    <path id=""  transform="matrix(1 0 0 -1 0 174)"  d="M42.39185 65.57275L53.55588 65.57275L53.55588 65.57275L53.55588 54.40875L53.55588 54.40875L42.39185 54.40875z" stroke="none" fill="#FFFFFF" fill-rule="nonzero" />
    <path id=""  transform="matrix(1 0 0 -1 0 174)"  d="M42.39185 65.57275L53.55588 65.57275L53.55588 65.57275L53.55588 54.40875L53.55588 54.40875L42.39185 54.40875z" stroke="#000000" stroke-width="0.5582014" stroke-linejoin="miter" fill="none" />
    <path id=""  transform="matrix(1 0 0 -1 0 174)"  d="M87.04794 76.73682L98.21201 76.73682L98.21201 76.73682L98.21201 65.57275L98.21201 65.57275L87.04794 65.57275z" stroke="none" fill="#7EA6E0" fill-rule="nonzero" />
    <path id=""  transform="matrix(1 0 0 -1 0 174)"  d="M87.04794 76.73682L98.21201 76.73682L98.21201 76.73682L98.21201 65.57275L98.21201 65.57275L87.04794 65.57275z" stroke="#000000" stroke-width="0.5582014" stroke-linejoin="miter" fill="none" />
    <path id=""  transform="matrix(1 0 0 -1 0 174)"  d="M87.04794 65.57275L98.21201 65.57275L98.21201 65.57275L98.21201 54.40875L98.21201 54.40875L87.04794 54.40875z" stroke="none" fill="#FFFFFF" fill-rule="nonzero" />
    <path id=""  transform="matrix(1 0 0 -1 0 174)"  d="M87.04794 65.57275L98.21201 65.57275L98.21201 65.57275L98.21201 54.40875L98.21201 54.40875L87.04794 54.40875z" stroke="#000000" stroke-width="0.5582014" stroke-linejoin="miter" fill="none" />
    <path id=""  transform="matrix(1 0 0 -1 0 174)"  d="M53.55588 54.43109L64.71991 54.43109L64.71991 54.43109L64.71991 43.26709L64.71991 43.26709L53.55588 43.26709z" stroke="none" fill="#FFFFFF" fill-rule="nonzero" />
    <path id=""  transform="matrix(1 0 0 -1 0 174)"  d="M53.55588 54.43109L64.71991 54.43109L64.71991 54.43109L64.71991 43.26709L64.71991 43.26709L53.55588 43.26709z" stroke="#000000" stroke-width="0.5582014" stroke-linejoin="miter" fill="none" />
    <path id=""  transform="matrix(1 0 0 -1 0 174)"  d="M64.71991 54.43109L75.88391 54.43109L75.88391 54.43109L75.88391 43.26709L75.88391 43.26709L64.71991 43.26709z" stroke="none" fill="#FFFFFF" fill-rule="nonzero" />
    <path id=""  transform="matrix(1 0 0 -1 0 174)"  d="M64.71991 54.43109L75.88391 54.43109L75.88391 54.43109L75.88391 43.26709L75.88391 43.26709L64.71991 43.26709z" stroke="#000000" stroke-width="0.5582014" stroke-linejoin="miter" fill="none" />
    <path id=""  transform="matrix(1 0 0 -1 0 174)"  d="M75.88391 54.43109L87.04794 54.43109L87.04794 54.43109L87.04794 43.26709L87.04794 43.26709L75.88391 43.26709z" stroke="none" fill="#FFFFFF" fill-rule="nonzero" />
    <path id=""  transform="matrix(1 0 0 -1 0 174)"  d="M75.88391 54.43109L87.04794 54.43109L87.04794 54.43109L87.04794 43.26709L87.04794 43.26709L75.88391 43.26709z" stroke="#000000" stroke-width="0.5582014" stroke-linejoin="miter" fill="none" />
    <path id=""  transform="matrix(1 0 0 -1 0 174)"  d="M42.39185 54.42554L53.55588 54.42554L53.55588 54.42554L53.55588 43.26147L53.55588 43.26147L42.39185 43.26147z" stroke="none" fill="#FFFFFF" fill-rule="nonzero" />
    <path id=""  transform="matrix(1 0 0 -1 0 174)"  d="M42.39185 54.42554L53.55588 54.42554L53.55588 54.42554L53.55588 43.26147L53.55588 43.26147L42.39185 43.26147z" stroke="#000000" stroke-width="0.5582014" stroke-linejoin="miter" fill="none" />
    <path id=""  transform="matrix(1 0 0 -1 0 174)"  d="M87.04794 54.42554L98.21201 54.42554L98.21201 54.42554L98.21201 43.26147L98.21201 43.26147L87.04794 43.26147z" stroke="none" fill="#FFB570" fill-rule="nonzero" />
    <path id=""  transform="matrix(1 0 0 -1 0 174)"  d="M87.04794 54.42554L98.21201 54.42554L98.21201 54.42554L98.21201 43.26147L98.21201 43.26147L87.04794 43.26147z" stroke="#000000" stroke-width="0.5582014" stroke-linejoin="miter" fill="none" />
    <path id=""  transform="matrix(1 0 0 -1 0 174)"  d="M53.55588 43.26147L64.71991 43.26147L64.71991 43.26147L64.71991 32.09747L64.71991 32.09747L53.55588 32.09747z" stroke="none" fill="#FFB570" fill-rule="nonzero" />
    <path id=""  transform="matrix(1 0 0 -1 0 174)"  d="M53.55588 43.26147L64.71991 43.26147L64.71991 43.26147L64.71991 32.09747L64.71991 32.09747L53.55588 32.09747z" stroke="#000000" stroke-width="0.5582014" stroke-linejoin="miter" fill="none" />
    <path id=""  transform="matrix(1 0 0 -1 0 174)"  d="M53.55588 32.09747L64.71991 32.09747L64.71991 32.09747L64.71991 20.93341L64.71991 20.93341L53.55588 20.93341z" stroke="none" fill="#FFFFFF" fill-rule="nonzero" />
    <path id=""  transform="matrix(1 0 0 -1 0 174)"  d="M53.55588 32.09747L64.71991 32.09747L64.71991 32.09747L64.71991 20.93341L64.71991 20.93341L53.55588 20.93341z" stroke="#000000" stroke-width="0.5582014" stroke-linejoin="miter" fill="none" />
    <path id=""  transform="matrix(1 0 0 -1 0 174)"  d="M64.71991 43.26147L75.88391 43.26147L75.88391 43.26147L75.88391 32.09747L75.88391 32.09747L64.71991 32.09747z" stroke="none" fill="#FFFFFF" fill-rule="nonzero" />
    <path id=""  transform="matrix(1 0 0 -1 0 174)"  d="M64.71991 43.26147L75.88391 43.26147L75.88391 43.26147L75.88391 32.09747L75.88391 32.09747L64.71991 32.09747z" stroke="#000000" stroke-width="0.5582014" stroke-linejoin="miter" fill="none" />
    <path id=""  transform="matrix(1 0 0 -1 0 174)"  d="M64.71991 32.09747L75.88391 32.09747L75.88391 32.09747L75.88391 20.93341L75.88391 20.93341L64.71991 20.93341z" stroke="none" fill="#FFFFFF" fill-rule="nonzero" />
    <path id=""  transform="matrix(1 0 0 -1 0 174)"  d="M64.71991 32.09747L75.88391 32.09747L75.88391 32.09747L75.88391 20.93341L75.88391 20.93341L64.71991 20.93341z" stroke="#000000" stroke-width="0.5582014" stroke-linejoin="miter" fill="none" />
    <path id=""  transform="matrix(1 0 0 -1 0 174)"  d="M75.88391 43.26147L87.04794 43.26147L87.04794 43.26147L87.04794 32.09747L87.04794 32.09747L75.88391 32.09747z" stroke="none" fill="#FFFFFF" fill-rule="nonzero" />
    <path id=""  transform="matrix(1 0 0 -1 0 174)"  d="M75.88391 43.26147L87.04794 43.26147L87.04794 43.26147L87.04794 32.09747L87.04794 32.09747L75.88391 32.09747z" stroke="#000000" stroke-width="0.5582014" stroke-linejoin="miter" fill="none" />
    <path id=""  transform="matrix(1 0 0 -1 0 174)"  d="M75.88391 32.09747L87.04794 32.09747L87.04794 32.09747L87.04794 20.93341L87.04794 20.93341L75.88391 20.93341z" stroke="none" fill="#FFFFFF" fill-rule="nonzero" />
    <path id=""  transform="matrix(1 0 0 -1 0 174)"  d="M75.88391 32.09747L87.04794 32.09747L87.04794 32.09747L87.04794 20.93341L87.04794 20.93341L75.88391 20.93341z" stroke="#000000" stroke-width="0.5582014" stroke-linejoin="miter" fill="none" />
    <path id=""  transform="matrix(1 0 0 -1 0 174)"  d="M42.39185 43.25592L53.55588 43.25592L53.55588 43.25592L53.55588 32.09186L53.55588 32.09186L42.39185 32.09186z" stroke="none" fill="#FFFFFF" fill-rule="nonzero" />
    <path id=""  transform="matrix(1 0 0 -1 0 174)"  d="M42.39185 43.25592L53.55588 43.25592L53.55588 43.25592L53.55588 32.09186L53.55588 32.09186L42.39185 32.09186z" stroke="#000000" stroke-width="0.5582014" stroke-linejoin="miter" fill="none" />
    <path id=""  transform="matrix(1 0 0 -1 0 174)"  d="M42.39185 32.09186L53.55588 32.09186L53.55588 32.09186L53.55588 20.92786L53.55588 20.92786L42.39185 20.92786z" stroke="none" fill="#FFFFFF" fill-rule="nonzero" />
    <path id=""  transform="matrix(1 0 0 -1 0 174)"  d="M42.39185 32.09186L53.55588 32.09186L53.55588 32.09186L53.55588 20.92786L53.55588 20.92786L42.39185 20.92786z" stroke="#000000" stroke-width="0.5582014" stroke-linejoin="miter" fill="none" />
    <path id=""  transform="matrix(1 0 0 -1 0 174)"  d="M87.04794 43.25592L98.21201 43.25592L98.21201 43.25592L98.21201 32.09186L98.21201 32.09186L87.04794 32.09186z" stroke="none" fill="#FFFFFF" fill-rule="nonzero" />
    <path id=""  transform="matrix(1 0 0 -1 0 174)"  d="M87.04794 43.25592L98.21201 43.25592L98.21201 43.25592L98.21201 32.09186L98.21201 32.09186L87.04794 32.09186z" stroke="#000000" stroke-width="0.5582014" stroke-linejoin="miter" fill="none" />
    <path id=""  transform="matrix(1 0 0 -1 0 174)"  d="M87.04794 32.09186L98.21201 32.09186L98.21201 32.09186L98.21201 20.92786L98.21201 20.92786L87.04794 20.92786z" stroke="none" fill="#FFFFFF" fill-rule="nonzero" />
    <path id=""  transform="matrix(1 0 0 -1 0 174)"  d="M87.04794 32.09186L98.21201 32.09186L98.21201 32.09186L98.21201 20.92786L98.21201 20.92786L87.04794 20.92786z" stroke="#000000" stroke-width="0.5582014" stroke-linejoin="miter" fill="none" />
    <path id=""  transform="matrix(1 0 0 -1 0 174)"  d="M87.04794 154.8962L98.21201 154.8962L98.21201 154.8962L98.21201 143.7322L98.21201 143.7322L87.04794 143.7322z" stroke="none" fill="#97D077" fill-rule="nonzero" />
    <path id=""  transform="matrix(1 0 0 -1 0 174)"  d="M87.04794 154.8962L98.21201 154.8962L98.21201 154.8962L98.21201 143.7322L98.21201 143.7322L87.04794 143.7322z" stroke="#000000" stroke-width="0.5582014" stroke-linejoin="miter" fill="none" />
    <path id=""  transform="matrix(1 0 0 -1 0 174)"  d="M31.22781 110.2457L42.39185 110.2457L42.39185 110.2457L42.39185 99.0816L42.39185 99.0816L31.22781 99.0816z" stroke="none" fill="#FFFFFF" fill-rule="nonzero" />
    <path id=""  transform="matrix(1 0 0 -1 0 174)"  d="M31.22781 110.2457L42.39185 110.2457L42.39185 110.2457L42.39185 99.0816L42.39185 99.0816L31.22781 99.0816z" stroke="#000000" stroke-width="0.5582014" stroke-linejoin="miter" fill="none" />
    <path id=""  transform="matrix(1 0 0 -1 0 174)"  d="M31.22781 99.0816L42.39185 99.0816L42.39185 99.0816L42.39185 87.9176L42.39185 87.9176L31.22781 87.9176z" stroke="none" fill="#FFFFFF" fill-rule="nonzero" />
    <path id=""  transform="matrix(1 0 0 -1 0 174)"  d="M31.22781 99.0816L42.39185 99.0816L42.39185 99.0816L42.39185 87.9176L42.39185 87.9176L31.22781 87.9176z" stroke="#000000" stroke-width="0.5582014" stroke-linejoin="miter" fill="none" />
    <path id=""  transform="matrix(1 0 0 -1 0 174)"  d="M31.22781 87.9176L42.39185 87.9176L42.39185 87.9176L42.39185 76.7536L42.39185 76.7536L31.22781 76.7536z" stroke="none" fill="#FFFFFF" fill-rule="nonzero" />
    <path id=""  transform="matrix(1 0 0 -1 0 174)"  d="M31.22781 87.9176L42.39185 87.9176L42.39185 87.9176L42.39185 76.7536L42.39185 76.7536L31.22781 76.7536z" stroke="#000000" stroke-width="0.5582014" stroke-linejoin="miter" fill="none" />
    <path id=""  transform="matrix(1 0 0 -1 0 174)"  d="M20.06378 110.2401L31.22781 110.2401L31.22781 110.2401L31.22781 99.07605L31.22781 99.07605L20.06378 99.07605z" stroke="none" fill="#97D077" fill-rule="nonzero" />
    <path id=""  transform="matrix(1 0 0 -1 0 174)"  d="M20.06378 110.2401L31.22781 110.2401L31.22781 110.2401L31.22781 99.07605L31.22781 99.07605L20.06378 99.07605z" stroke="#000000" stroke-width="0.5582014" stroke-linejoin="miter" fill="none" />
    <path id=""  transform="matrix(1 0 0 -1 0 174)"  d="M20.06378 99.07605L31.22781 99.07605L31.22781 99.07605L31.22781 87.91199L31.22781 87.91199L20.06378 87.91199z" stroke="none" fill="#97D077" fill-rule="nonzero" />
    <path id=""  transform="matrix(1 0 0 -1 0 174)"  d="M20.06378 99.07605L31.22781 99.07605L31.22781 99.07605L31.22781 87.91199L31.22781 87.91199L20.06378 87.91199z" stroke="#000000" stroke-width="0.5582014" stroke-linejoin="miter" fill="none" />
    <path id=""  transform="matrix(1 0 0 -1 0 174)"  d="M20.06378 87.91199L31.22781 87.91199L31.22781 87.91199L31.22781 76.74799L31.22781 76.74799L20.06378 76.74799z" stroke="none" fill="#97D077" fill-rule="nonzero" />
    <path id=""  transform="matrix(1 0 0 -1 0 174)"  d="M20.06378 87.91199L31.22781 87.91199L31.22781 87.91199L31.22781 76.74799L31.22781 76.74799L20.06378 76.74799z" stroke="#000000" stroke-width="0.5582014" stroke-linejoin="miter" fill="none" />
    <path id=""  transform="matrix(1 0 0 -1 0 174)"  d="M20.06378 132.5737L31.22781 132.5737L31.22781 132.5737L31.22781 121.4097L31.22781 121.4097L20.06378 121.4097z" stroke="none" fill="#97D077" fill-rule="nonzero" />
    <path id=""  transform="matrix(1 0 0 -1 0 174)"  d="M20.06378 132.5737L31.22781 132.5737L31.22781 132.5737L31.22781 121.4097L31.22781 121.4097L20.06378 121.4097z" stroke="#000000" stroke-width="0.5582014" stroke-linejoin="miter" fill="none" />
    <path id=""  transform="matrix(1 0 0 -1 0 174)"  d="M20.06378 121.4097L31.22781 121.4097L31.22781 121.4097L31.22781 110.2457L31.22781 110.2457L20.06378 110.2457z" stroke="none" fill="#97D077" fill-rule="nonzero" />
    <path id=""  transform="matrix(1 0 0 -1 0 174)"  d="M20.06378 121.4097L31.22781 121.4097L31.22781 121.4097L31.22781 110.2457L31.22781 110.2457L20.06378 110.2457z" stroke="#000000" stroke-width="0.5582014" stroke-linejoin="miter" fill="none" />
    <path id=""  transform="matrix(1 0 0 -1 0 174)"  d="M20.06378 143.7377L31.22781 143.7377L31.22781 143.7377L31.22781 132.5737L31.22781 132.5737L20.06378 132.5737z" stroke="none" fill="#7EA6E0" fill-rule="nonzero" />
    <path id=""  transform="matrix(1 0 0 -1 0 174)"  d="M20.06378 143.7377L31.22781 143.7377L31.22781 143.7377L31.22781 132.5737L31.22781 132.5737L20.06378 132.5737z" stroke="#000000" stroke-width="0.5582014" stroke-linejoin="miter" fill="none" />
    <path id=""  transform="matrix(1 0 0 -1 0 174)"  d="M20.06378 154.9017L31.22781 154.9017L31.22781 154.9017L31.22781 143.7377L31.22781 143.7377L20.06378 143.7377z" stroke="none" fill="#7EA6E0" fill-rule="nonzero" />
    <path id=""  transform="matrix(1 0 0 -1 0 174)"  d="M20.06378 154.9017L31.22781 154.9017L31.22781 154.9017L31.22781 143.7377L31.22781 143.7377L20.06378 143.7377z" stroke="#000000" stroke-width="0.5582014" stroke-linejoin="miter" fill="none" />
    <path id=""  transform="matrix(1 0 0 -1 0 174)"  d="M31.22781 132.5737L42.39185 132.5737L42.39185 132.5737L42.39185 121.4097L42.39185 121.4097L31.22781 121.4097z" stroke="none" fill="#7EA6E0" fill-rule="nonzero" />
    <path id=""  transform="matrix(1 0 0 -1 0 174)"  d="M31.22781 132.5737L42.39185 132.5737L42.39185 132.5737L42.39185 121.4097L42.39185 121.4097L31.22781 121.4097z" stroke="#000000" stroke-width="0.5582014" stroke-linejoin="miter" fill="none" />
    <path id=""  transform="matrix(1 0 0 -1 0 174)"  d="M31.22781 121.4097L42.39185 121.4097L42.39185 121.4097L42.39185 110.2457L42.39185 110.2457L31.22781 110.2457z" stroke="none" fill="#FFFFFF" fill-rule="nonzero" />
    <path id=""  transform="matrix(1 0 0 -1 0 174)"  d="M31.22781 121.4097L42.39185 121.4097L42.39185 121.4097L42.39185 110.2457L42.39185 110.2457L31.22781 110.2457z" stroke="#000000" stroke-width="0.5582014" stroke-linejoin="miter" fill="none" />
    <path id=""  transform="matrix(1 0 0 -1 0 174)"  d="M31.22781 143.7377L42.39185 143.7377L42.39185 143.7377L42.39185 132.5737L42.39185 132.5737L31.22781 132.5737z" stroke="none" fill="#7EA6E0" fill-rule="nonzero" />
    <path id=""  transform="matrix(1 0 0 -1 0 174)"  d="M31.22781 143.7377L42.39185 143.7377L42.39185 143.7377L42.39185 132.5737L42.39185 132.5737L31.22781 132.5737z" stroke="#000000" stroke-width="0.5582014" stroke-linejoin="miter" fill="none" />
    <path id=""  transform="matrix(1 0 0 -1 0 174)"  d="M31.22781 154.9017L42.39185 154.9017L42.39185 154.9017L42.39185 143.7377L42.39185 143.7377L31.22781 143.7377z" stroke="none" fill="#7EA6E0" fill-rule="nonzero" />
    <path id=""  transform="matrix(1 0 0 -1 0 174)"  d="M31.22781 154.9017L42.39185 154.9017L42.39185 154.9017L42.39185 143.7377L42.39185 143.7377L31.22781 143.7377z" stroke="#000000" stroke-width="0.5582014" stroke-linejoin="miter" fill="none" />
    <path id=""  transform="matrix(1 0 0 -1 0 174)"  d="M31.22781 76.74799L42.39185 76.74799L42.39185 76.74799L42.39185 65.58398L42.39185 65.58398L31.22781 65.58398z" stroke="none" fill="#FFFFFF" fill-rule="nonzero" />
    <path id=""  transform="matrix(1 0 0 -1 0 174)"  d="M31.22781 76.74799L42.39185 76.74799L42.39185 76.74799L42.39185 65.58398L42.39185 65.58398L31.22781 65.58398z" stroke="#000000" stroke-width="0.5582014" stroke-linejoin="miter" fill="none" />
    <path id=""  transform="matrix(1 0 0 -1 0 174)"  d="M31.22781 65.58398L42.39185 65.58398L42.39185 65.58398L42.39185 54.41992L42.39185 54.41992L31.22781 54.41992z" stroke="none" fill="#FFB570" fill-rule="nonzero" />
    <path id=""  transform="matrix(1 0 0 -1 0 174)"  d="M31.22781 65.58398L42.39185 65.58398L42.39185 65.58398L42.39185 54.41992L42.39185 54.41992L31.22781 54.41992z" stroke="#000000" stroke-width="0.5582014" stroke-linejoin="miter" fill="none" />
    <path id=""  transform="matrix(1 0 0 -1 0 174)"  d="M20.06378 76.74237L31.22781 76.74237L31.22781 76.74237L31.22781 65.57837L31.22781 65.57837L20.06378 65.57837z" stroke="none" fill="#97D077" fill-rule="nonzero" />
    <path id=""  transform="matrix(1 0 0 -1 0 174)"  d="M20.06378 76.74237L31.22781 76.74237L31.22781 76.74237L31.22781 65.57837L31.22781 65.57837L20.06378 65.57837z" stroke="#000000" stroke-width="0.5582014" stroke-linejoin="miter" fill="none" />
    <path id=""  transform="matrix(1 0 0 -1 0 174)"  d="M20.06378 65.57837L31.22781 65.57837L31.22781 65.57837L31.22781 54.41437L31.22781 54.41437L20.06378 54.41437z" stroke="none" fill="#97D077" fill-rule="nonzero" />
    <path id=""  transform="matrix(1 0 0 -1 0 174)"  d="M20.06378 65.57837L31.22781 65.57837L31.22781 65.57837L31.22781 54.41437L31.22781 54.41437L20.06378 54.41437z" stroke="#000000" stroke-width="0.5582014" stroke-linejoin="miter" fill="none" />
    <path id=""  transform="matrix(1 0 0 -1 0 174)"  d="M31.22781 54.43671L42.39185 54.43671L42.39185 54.43671L42.39185 43.27264L42.39185 43.27264L31.22781 43.27264z" stroke="none" fill="#FFFFFF" fill-rule="nonzero" />
    <path id=""  transform="matrix(1 0 0 -1 0 174)"  d="M31.22781 54.43671L42.39185 54.43671L42.39185 54.43671L42.39185 43.27264L42.39185 43.27264L31.22781 43.27264z" stroke="#000000" stroke-width="0.5582014" stroke-linejoin="miter" fill="none" />
    <path id=""  transform="matrix(1 0 0 -1 0 174)"  d="M20.06378 54.43109L31.22781 54.43109L31.22781 54.43109L31.22781 43.26709L31.22781 43.26709L20.06378 43.26709z" stroke="none" fill="#97D077" fill-rule="nonzero" />
    <path id=""  transform="matrix(1 0 0 -1 0 174)"  d="M20.06378 54.43109L31.22781 54.43109L31.22781 54.43109L31.22781 43.26709L31.22781 43.26709L20.06378 43.26709z" stroke="#000000" stroke-width="0.5582014" stroke-linejoin="miter" fill="none" />
    <path id=""  transform="matrix(1 0 0 -1 0 174)"  d="M31.22781 43.26709L42.39185 43.26709L42.39185 43.26709L42.39185 32.10303L42.39185 32.10303L31.22781 32.10303z" stroke="none" fill="#FFFFFF" fill-rule="nonzero" />
    <path id=""  transform="matrix(1 0 0 -1 0 174)"  d="M31.22781 43.26709L42.39185 43.26709L42.39185 43.26709L42.39185 32.10303L42.39185 32.10303L31.22781 32.10303z" stroke="#000000" stroke-width="0.5582014" stroke-linejoin="miter" fill="none" />
    <path id=""  transform="matrix(1 0 0 -1 0 174)"  d="M31.22781 32.10303L42.39185 32.10303L42.39185 32.10303L42.39185 20.93903L42.39185 20.93903L31.22781 20.93903z" stroke="none" fill="#FFFFFF" fill-rule="nonzero" />
    <path id=""  transform="matrix(1 0 0 -1 0 174)"  d="M31.22781 32.10303L42.39185 32.10303L42.39185 32.10303L42.39185 20.93903L42.39185 20.93903L31.22781 20.93903z" stroke="#000000" stroke-width="0.5582014" stroke-linejoin="miter" fill="none" />
    <path id=""  transform="matrix(1 0 0 -1 0 174)"  d="M20.06378 43.26147L31.22781 43.26147L31.22781 43.26147L31.22781 32.09747L31.22781 32.09747L20.06378 32.09747z" stroke="none" fill="#97D077" fill-rule="nonzero" />
    <path id=""  transform="matrix(1 0 0 -1 0 174)"  d="M20.06378 43.26147L31.22781 43.26147L31.22781 43.26147L31.22781 32.09747L31.22781 32.09747L20.06378 32.09747z" stroke="#000000" stroke-width="0.5582014" stroke-linejoin="miter" fill="none" />
    <path id=""  transform="matrix(1 0 0 -1 0 174)"  d="M20.06378 32.09747L31.22781 32.09747L31.22781 32.09747L31.22781 20.93341L31.22781 20.93341L20.06378 20.93341z" stroke="none" fill="#97D077" fill-rule="nonzero" />
    <path id=""  transform="matrix(1 0 0 -1 0 174)"  d="M20.06378 32.09747L31.22781 32.09747L31.22781 32.09747L31.22781 20.93341L31.22781 20.93341L20.06378 20.93341z" stroke="#000000" stroke-width="0.5582014" stroke-linejoin="miter" fill="none" />
		</g>
	</g>
</g>
</svg>