<?xml version="1.0" standalone="no"?>
<!DOCTYPE svg PUBLIC "-//W3C//DTD SVG 1.1//EN" "http://www.w3.org/Graphics/SVG/1.1/DTD/svg11.dtd">
<svg xmlns="http://www.w3.org/2000/svg" xmlns:xlink="http://www.w3.org/1999/xlink" version="1.1" id="body_1" width="232" height="232">

<defs>
    <clipPath  id="1">

    <path id=""  clip-rule="evenodd" transform="matrix(1 0 0 1 0 0)"  d="M0 174L0 -0.9599915L0 -0.9599915L174 -0.9599915L174 -0.9599915L174 174L174 174L0 174z" />    </clipPath>
    <clipPath  id="2">

    <path id=""  clip-rule="evenodd" transform="matrix(1 0 0 1 0 0)"  d="M0 -0.9599915L174.2344 -0.9599915L174.2344 -0.9599915L174.2344 174.0009L174.2344 174.0009L0 174.0009z" />    </clipPath>
    <clipPath  id="3">

    <path id=""  clip-rule="evenodd" transform="matrix(1 0 0 1 0 0)"  d="M18.75 17.79001L155.25 17.79001L155.25 17.79001L155.25 155.04L155.25 155.04L18.75 155.04z" />    </clipPath>
</defs>

<g transform="matrix(1.3333 0 0 1.3333 0 0)">
	<g clip-path="url(#1)" >
		<g clip-path="url(#2)" >
    <path id=""  transform="matrix(1 0 0 -1 0 174)"  d="M0 174.96L174 174.96L174 174.96L174 0.2099915L174 0.2099915L0 0.2099915z" stroke="none" fill="#FFFFFF" fill-rule="nonzero" />
		</g>
		<g clip-path="url(#3)" >
    <path id=""  transform="matrix(1 0 0 -1 0 174)"  d="M109.376 110.2345L120.54 110.2345L120.54 110.2345L120.54 99.07048L120.54 99.07048L109.376 99.07048z" stroke="none" fill="#97D077" fill-rule="nonzero" />
    <path id=""  transform="matrix(1 0 0 -1 0 174)"  d="M109.376 110.2345L120.54 110.2345L120.54 110.2345L120.54 99.07048L120.54 99.07048L109.376 99.07048z" stroke="#000000" stroke-width="0.5582014" stroke-linejoin="miter" fill="none" />
    <path id=""  transform="matrix(1 0 0 -1 0 174)"  d="M109.376 99.07048L120.54 99.07048L120.54 99.07048L120.54 87.90645L120.54 87.90645L109.376 87.90645z" stroke="none" fill="#97D077" fill-rule="nonzero" />
    <path id=""  transform="matrix(1 0 0 -1 0 174)"  d="M109.376 99.07048L120.54 99.07048L120.54 99.07048L120.54 87.90645L120.54 87.90645L109.376 87.90645z" stroke="#000000" stroke-width="0.5582014" stroke-linejoin="miter" fill="none" />
    <path id=""  transform="matrix(1 0 0 -1 0 174)"  d="M109.376 87.90645L120.54 87.90645L120.54 87.90645L120.54 76.74243L120.54 76.74243L109.376 76.74243z" stroke="none" fill="#97D077" fill-rule="nonzero" />
    <path id=""  transform="matrix(1 0 0 -1 0 174)"  d="M109.376 87.90645L120.54 87.90645L120.54 87.90645L120.54 76.74243L120.54 76.74243L109.376 76.74243z" stroke="#000000" stroke-width="0.5582014" stroke-linejoin="miter" fill="none" />
    <path id=""  transform="matrix(1 0 0 -1 0 174)"  d="M120.54 110.2345L131.7041 110.2345L131.7041 110.2345L131.7041 99.07048L131.7041 99.07048L120.54 99.07048z" stroke="none" fill="#FFFFFF" fill-rule="nonzero" />
    <path id=""  transform="matrix(1 0 0 -1 0 174)"  d="M120.54 110.2345L131.7041 110.2345L131.7041 110.2345L131.7041 99.07048L131.7041 99.07048L120.54 99.07048z" stroke="#000000" stroke-width="0.5582014" stroke-linejoin="miter" fill="none" />
    <path id=""  transform="matrix(1 0 0 -1 0 174)"  d="M120.54 99.07048L131.7041 99.07048L131.7041 99.07048L131.7041 87.90645L131.7041 87.90645L120.54 87.90645z" stroke="none" fill="#FFFFFF" fill-rule="nonzero" />
    <path id=""  transform="matrix(1 0 0 -1 0 174)"  d="M120.54 99.07048L131.7041 99.07048L131.7041 99.07048L131.7041 87.90645L131.7041 87.90645L120.54 87.90645z" stroke="#000000" stroke-width="0.5582014" stroke-linejoin="miter" fill="none" />
    <path id=""  transform="matrix(1 0 0 -1 0 174)"  d="M120.54 87.90645L131.7041 87.90645L131.7041 87.90645L131.7041 76.74243L131.7041 76.74243L120.54 76.74243z" stroke="none" fill="#FFFFFF" fill-rule="nonzero" />
    <path id=""  transform="matrix(1 0 0 -1 0 174)"  d="M120.54 87.90645L131.7041 87.90645L131.7041 87.90645L131.7041 76.74243L131.7041 76.74243L120.54 76.74243z" stroke="#000000" stroke-width="0.5582014" stroke-linejoin="miter" fill="none" />
    <path id=""  transform="matrix(1 0 0 -1 0 174)"  d="M131.7041 110.2345L142.8681 110.2345L142.8681 110.2345L142.8681 99.07048L142.8681 99.07048L131.7041 99.07048z" stroke="none" fill="#FFFFFF" fill-rule="nonzero" />
    <path id=""  transform="matrix(1 0 0 -1 0 174)"  d="M131.7041 110.2345L142.8681 110.2345L142.8681 110.2345L142.8681 99.07048L142.8681 99.07048L131.7041 99.07048z" stroke="#000000" stroke-width="0.5582014" stroke-linejoin="miter" fill="none" />
    <path id=""  transform="matrix(1 0 0 -1 0 174)"  d="M131.7041 99.07048L142.8681 99.07048L142.8681 99.07048L142.8681 87.90645L142.8681 87.90645L131.7041 87.90645z" stroke="none" fill="#FFFFFF" fill-rule="nonzero" />
    <path id=""  transform="matrix(1 0 0 -1 0 174)"  d="M131.7041 99.07048L142.8681 99.07048L142.8681 99.07048L142.8681 87.90645L142.8681 87.90645L131.7041 87.90645z" stroke="#000000" stroke-width="0.5582014" stroke-linejoin="miter" fill="none" />
    <path id=""  transform="matrix(1 0 0 -1 0 174)"  d="M131.7041 87.90645L142.8681 87.90645L142.8681 87.90645L142.8681 76.74243L142.8681 76.74243L131.7041 76.74243z" stroke="none" fill="#FFFFFF" fill-rule="nonzero" />
    <path id=""  transform="matrix(1 0 0 -1 0 174)"  d="M131.7041 87.90645L142.8681 87.90645L142.8681 87.90645L142.8681 76.74243L142.8681 76.74243L131.7041 76.74243z" stroke="#000000" stroke-width="0.5582014" stroke-linejoin="miter" fill="none" />
    <path id=""  transform="matrix(1 0 0 -1 0 174)"  d="M98.21198 110.2289L109.376 110.2289L109.376 110.2289L109.376 99.0649L109.376 99.0649L98.21198 99.0649z" stroke="none" fill="#FFFFFF" fill-rule="nonzero" />
    <path id=""  transform="matrix(1 0 0 -1 0 174)"  d="M98.21198 110.2289L109.376 110.2289L109.376 110.2289L109.376 99.0649L109.376 99.0649L98.21198 99.0649z" stroke="#000000" stroke-width="0.5582014" stroke-linejoin="miter" fill="none" />
    <path id=""  transform="matrix(1 0 0 -1 0 174)"  d="M98.21198 99.0649L109.376 99.0649L109.376 99.0649L109.376 87.90086L109.376 87.90086L98.21198 87.90086z" stroke="none" fill="#FFFFFF" fill-rule="nonzero" />
    <path id=""  transform="matrix(1 0 0 -1 0 174)"  d="M98.21198 99.0649L109.376 99.0649L109.376 99.0649L109.376 87.90086L109.376 87.90086L98.21198 87.90086z" stroke="#000000" stroke-width="0.5582014" stroke-linejoin="miter" fill="none" />
    <path id=""  transform="matrix(1 0 0 -1 0 174)"  d="M98.21198 87.90086L109.376 87.90086L109.376 87.90086L109.376 76.73683L109.376 76.73683L98.21198 76.73683z" stroke="none" fill="#FFFFFF" fill-rule="nonzero" />
    <path id=""  transform="matrix(1 0 0 -1 0 174)"  d="M98.21198 87.90086L109.376 87.90086L109.376 87.90086L109.376 76.73683L109.376 76.73683L98.21198 76.73683z" stroke="#000000" stroke-width="0.5582014" stroke-linejoin="miter" fill="none" />
    <path id=""  transform="matrix(1 0 0 -1 0 174)"  d="M142.8681 99.0649L154.0321 99.0649L154.0321 99.0649L154.0321 87.90086L154.0321 87.90086L142.8681 87.90086z" stroke="none" fill="#FFFFFF" fill-rule="nonzero" />
    <path id=""  transform="matrix(1 0 0 -1 0 174)"  d="M142.8681 99.0649L154.0321 99.0649L154.0321 99.0649L154.0321 87.90086L154.0321 87.90086L142.8681 87.90086z" stroke="#000000" stroke-width="0.5582014" stroke-linejoin="miter" fill="none" />
    <path id=""  transform="matrix(1 0 0 -1 0 174)"  d="M142.8681 121.3985L154.0321 121.3985L154.0321 121.3985L154.0321 110.2345L154.0321 110.2345L142.8681 110.2345z" stroke="none" fill="#FFFFFF" fill-rule="nonzero" />
    <path id=""  transform="matrix(1 0 0 -1 0 174)"  d="M142.8681 121.3985L154.0321 121.3985L154.0321 121.3985L154.0321 110.2345L154.0321 110.2345L142.8681 110.2345z" stroke="#000000" stroke-width="0.5582014" stroke-linejoin="miter" fill="none" />
    <path id=""  transform="matrix(1 0 0 -1 0 174)"  d="M142.8681 143.7266L154.0321 143.7266L154.0321 143.7266L154.0321 132.5626L154.0321 132.5626L142.8681 132.5626z" stroke="none" fill="#FFFFFF" fill-rule="nonzero" />
    <path id=""  transform="matrix(1 0 0 -1 0 174)"  d="M142.8681 143.7266L154.0321 143.7266L154.0321 143.7266L154.0321 132.5626L154.0321 132.5626L142.8681 132.5626z" stroke="#000000" stroke-width="0.5582014" stroke-linejoin="miter" fill="none" />
    <path id=""  transform="matrix(1 0 0 -1 0 174)"  d="M142.8681 87.90086L154.0321 87.90086L154.0321 87.90086L154.0321 76.73683L154.0321 76.73683L142.8681 76.73683z" stroke="none" fill="#FFFFFF" fill-rule="nonzero" />
    <path id=""  transform="matrix(1 0 0 -1 0 174)"  d="M142.8681 87.90086L154.0321 87.90086L154.0321 87.90086L154.0321 76.73683L154.0321 76.73683L142.8681 76.73683z" stroke="#000000" stroke-width="0.5582014" stroke-linejoin="miter" fill="none" />
    <path id=""  transform="matrix(1 0 0 -1 0 174)"  d="M142.8681 110.2289L154.0321 110.2289L154.0321 110.2289L154.0321 99.0649L154.0321 99.0649L142.8681 99.0649z" stroke="none" fill="#FFFFFF" fill-rule="nonzero" />
    <path id=""  transform="matrix(1 0 0 -1 0 174)"  d="M142.8681 110.2289L154.0321 110.2289L154.0321 110.2289L154.0321 99.0649L154.0321 99.0649L142.8681 99.0649z" stroke="#000000" stroke-width="0.5582014" stroke-linejoin="miter" fill="none" />
    <path id=""  transform="matrix(1 0 0 -1 0 174)"  d="M142.8681 132.5626L154.0321 132.5626L154.0321 132.5626L154.0321 121.3985L154.0321 121.3985L142.8681 121.3985z" stroke="none" fill="#FFFFFF" fill-rule="nonzero" />
    <path id=""  transform="matrix(1 0 0 -1 0 174)"  d="M142.8681 132.5626L154.0321 132.5626L154.0321 132.5626L154.0321 121.3985L154.0321 121.3985L142.8681 121.3985z" stroke="#000000" stroke-width="0.5582014" stroke-linejoin="miter" fill="none" />
    <path id=""  transform="matrix(1 0 0 -1 0 174)"  d="M98.21198 132.5626L109.376 132.5626L109.376 132.5626L109.376 121.3985L109.376 121.3985L98.21198 121.3985z" stroke="none" fill="#FFFFFF" fill-rule="nonzero" />
    <path id=""  transform="matrix(1 0 0 -1 0 174)"  d="M98.21198 132.5626L109.376 132.5626L109.376 132.5626L109.376 121.3985L109.376 121.3985L98.21198 121.3985z" stroke="#000000" stroke-width="0.5582014" stroke-linejoin="miter" fill="none" />
    <path id=""  transform="matrix(1 0 0 -1 0 174)"  d="M98.21198 121.3985L109.376 121.3985L109.376 121.3985L109.376 110.2345L109.376 110.2345L98.21198 110.2345z" stroke="none" fill="#FFFFFF" fill-rule="nonzero" />
    <path id=""  transform="matrix(1 0 0 -1 0 174)"  d="M98.21198 121.3985L109.376 121.3985L109.376 121.3985L109.376 110.2345L109.376 110.2345L98.21198 110.2345z" stroke="#000000" stroke-width="0.5582014" stroke-linejoin="miter" fill="none" />
    <path id=""  transform="matrix(1 0 0 -1 0 174)"  d="M98.21198 143.7266L109.376 143.7266L109.376 143.7266L109.376 132.5626L109.376 132.5626L98.21198 132.5626z" stroke="none" fill="#FFFFFF" fill-rule="nonzero" />
    <path id=""  transform="matrix(1 0 0 -1 0 174)"  d="M98.21198 143.7266L109.376 143.7266L109.376 143.7266L109.376 132.5626L109.376 132.5626L98.21198 132.5626z" stroke="#000000" stroke-width="0.5582014" stroke-linejoin="miter" fill="none" />
    <path id=""  transform="matrix(1 0 0 -1 0 174)"  d="M98.21198 154.8906L109.376 154.8906L109.376 154.8906L109.376 143.7266L109.376 143.7266L98.21198 143.7266z" stroke="none" fill="#97D077" fill-rule="nonzero" />
    <path id=""  transform="matrix(1 0 0 -1 0 174)"  d="M98.21198 154.8906L109.376 154.8906L109.376 154.8906L109.376 143.7266L109.376 143.7266L98.21198 143.7266z" stroke="#000000" stroke-width="0.5582014" stroke-linejoin="miter" fill="none" />
    <path id=""  transform="matrix(1 0 0 -1 0 174)"  d="M109.376 132.5626L120.54 132.5626L120.54 132.5626L120.54 121.3985L120.54 121.3985L109.376 121.3985z" stroke="none" fill="#97D077" fill-rule="nonzero" />
    <path id=""  transform="matrix(1 0 0 -1 0 174)"  d="M109.376 132.5626L120.54 132.5626L120.54 132.5626L120.54 121.3985L120.54 121.3985L109.376 121.3985z" stroke="#000000" stroke-width="0.5582014" stroke-linejoin="miter" fill="none" />
    <path id=""  transform="matrix(1 0 0 -1 0 174)"  d="M109.376 121.3985L120.54 121.3985L120.54 121.3985L120.54 110.2345L120.54 110.2345L109.376 110.2345z" stroke="none" fill="#97D077" fill-rule="nonzero" />
    <path id=""  transform="matrix(1 0 0 -1 0 174)"  d="M109.376 121.3985L120.54 121.3985L120.54 121.3985L120.54 110.2345L120.54 110.2345L109.376 110.2345z" stroke="#000000" stroke-width="0.5582014" stroke-linejoin="miter" fill="none" />
    <path id=""  transform="matrix(1 0 0 -1 0 174)"  d="M109.376 143.7266L120.54 143.7266L120.54 143.7266L120.54 132.5626L120.54 132.5626L109.376 132.5626z" stroke="none" fill="#97D077" fill-rule="nonzero" />
    <path id=""  transform="matrix(1 0 0 -1 0 174)"  d="M109.376 143.7266L120.54 143.7266L120.54 143.7266L120.54 132.5626L120.54 132.5626L109.376 132.5626z" stroke="#000000" stroke-width="0.5582014" stroke-linejoin="miter" fill="none" />
    <path id=""  transform="matrix(1 0 0 -1 0 174)"  d="M109.376 154.8906L120.54 154.8906L120.54 154.8906L120.54 143.7266L120.54 143.7266L109.376 143.7266z" stroke="none" fill="#97D077" fill-rule="nonzero" />
    <path id=""  transform="matrix(1 0 0 -1 0 174)"  d="M109.376 154.8906L120.54 154.8906L120.54 154.8906L120.54 143.7266L120.54 143.7266L109.376 143.7266z" stroke="#000000" stroke-width="0.5582014" stroke-linejoin="miter" fill="none" />
    <path id=""  transform="matrix(1 0 0 -1 0 174)"  d="M120.54 132.5626L131.7041 132.5626L131.7041 132.5626L131.7041 121.3985L131.7041 121.3985L120.54 121.3985z" stroke="none" fill="#FFFFFF" fill-rule="nonzero" />
    <path id=""  transform="matrix(1 0 0 -1 0 174)"  d="M120.54 132.5626L131.7041 132.5626L131.7041 132.5626L131.7041 121.3985L131.7041 121.3985L120.54 121.3985z" stroke="#000000" stroke-width="0.5582014" stroke-linejoin="miter" fill="none" />
    <path id=""  transform="matrix(1 0 0 -1 0 174)"  d="M120.54 121.3985L131.7041 121.3985L131.7041 121.3985L131.7041 110.2345L131.7041 110.2345L120.54 110.2345z" stroke="none" fill="#FFFFFF" fill-rule="nonzero" />
    <path id=""  transform="matrix(1 0 0 -1 0 174)"  d="M120.54 121.3985L131.7041 121.3985L131.7041 121.3985L131.7041 110.2345L131.7041 110.2345L120.54 110.2345z" stroke="#000000" stroke-width="0.5582014" stroke-linejoin="miter" fill="none" />
    <path id=""  transform="matrix(1 0 0 -1 0 174)"  d="M120.54 143.7266L131.7041 143.7266L131.7041 143.7266L131.7041 132.5626L131.7041 132.5626L120.54 132.5626z" stroke="none" fill="#FFFFFF" fill-rule="nonzero" />
    <path id=""  transform="matrix(1 0 0 -1 0 174)"  d="M120.54 143.7266L131.7041 143.7266L131.7041 143.7266L131.7041 132.5626L131.7041 132.5626L120.54 132.5626z" stroke="#000000" stroke-width="0.5582014" stroke-linejoin="miter" fill="none" />
    <path id=""  transform="matrix(1 0 0 -1 0 174)"  d="M120.54 154.8906L131.7041 154.8906L131.7041 154.8906L131.7041 143.7266L131.7041 143.7266L120.54 143.7266z" stroke="none" fill="#97D077" fill-rule="nonzero" />
    <path id=""  transform="matrix(1 0 0 -1 0 174)"  d="M120.54 154.8906L131.7041 154.8906L131.7041 154.8906L131.7041 143.7266L131.7041 143.7266L120.54 143.7266z" stroke="#000000" stroke-width="0.5582014" stroke-linejoin="miter" fill="none" />
    <path id=""  transform="matrix(1 0 0 -1 0 174)"  d="M131.7041 132.5626L142.8681 132.5626L142.8681 132.5626L142.8681 121.3985L142.8681 121.3985L131.7041 121.3985z" stroke="none" fill="#FFFFFF" fill-rule="nonzero" />
    <path id=""  transform="matrix(1 0 0 -1 0 174)"  d="M131.7041 132.5626L142.8681 132.5626L142.8681 132.5626L142.8681 121.3985L142.8681 121.3985L131.7041 121.3985z" stroke="#000000" stroke-width="0.5582014" stroke-linejoin="miter" fill="none" />
    <path id=""  transform="matrix(1 0 0 -1 0 174)"  d="M131.7041 121.3985L142.8681 121.3985L142.8681 121.3985L142.8681 110.2345L142.8681 110.2345L131.7041 110.2345z" stroke="none" fill="#FFFFFF" fill-rule="nonzero" />
    <path id=""  transform="matrix(1 0 0 -1 0 174)"  d="M131.7041 121.3985L142.8681 121.3985L142.8681 121.3985L142.8681 110.2345L142.8681 110.2345L131.7041 110.2345z" stroke="#000000" stroke-width="0.5582014" stroke-linejoin="miter" fill="none" />
    <path id=""  transform="matrix(1 0 0 -1 0 174)"  d="M131.7041 143.7266L142.8681 143.7266L142.8681 143.7266L142.8681 132.5626L142.8681 132.5626L131.7041 132.5626z" stroke="none" fill="#FFFFFF" fill-rule="nonzero" />
    <path id=""  transform="matrix(1 0 0 -1 0 174)"  d="M131.7041 143.7266L142.8681 143.7266L142.8681 143.7266L142.8681 132.5626L142.8681 132.5626L131.7041 132.5626z" stroke="#000000" stroke-width="0.5582014" stroke-linejoin="miter" fill="none" />
    <path id=""  transform="matrix(1 0 0 -1 0 174)"  d="M131.7041 154.8906L142.8681 154.8906L142.8681 154.8906L142.8681 143.7266L142.8681 143.7266L131.7041 143.7266z" stroke="none" fill="#97D077" fill-rule="nonzero" />
    <path id=""  transform="matrix(1 0 0 -1 0 174)"  d="M131.7041 154.8906L142.8681 154.8906L142.8681 154.8906L142.8681 143.7266L142.8681 143.7266L131.7041 143.7266z" stroke="#000000" stroke-width="0.5582014" stroke-linejoin="miter" fill="none" />
    <path id=""  transform="matrix(1 0 0 -1 0 174)"  d="M109.376 76.73683L120.54 76.73683L120.54 76.73683L120.54 65.57281L120.54 65.57281L109.376 65.57281z" stroke="none" fill="#97D077" fill-rule="nonzero" />
    <path id=""  transform="matrix(1 0 0 -1 0 174)"  d="M109.376 76.73683L120.54 76.73683L120.54 76.73683L120.54 65.57281L120.54 65.57281L109.376 65.57281z" stroke="#000000" stroke-width="0.5582014" stroke-linejoin="miter" fill="none" />
    <path id=""  transform="matrix(1 0 0 -1 0 174)"  d="M109.376 65.57281L120.54 65.57281L120.54 65.57281L120.54 54.40878L120.54 54.40878L109.376 54.40878z" stroke="none" fill="#97D077" fill-rule="nonzero" />
    <path id=""  transform="matrix(1 0 0 -1 0 174)"  d="M109.376 65.57281L120.54 65.57281L120.54 65.57281L120.54 54.40878L120.54 54.40878L109.376 54.40878z" stroke="#000000" stroke-width="0.5582014" stroke-linejoin="miter" fill="none" />
    <path id=""  transform="matrix(1 0 0 -1 0 174)"  d="M120.54 76.73683L131.7041 76.73683L131.7041 76.73683L131.7041 65.57281L131.7041 65.57281L120.54 65.57281z" stroke="none" fill="#FFFFFF" fill-rule="nonzero" />
    <path id=""  transform="matrix(1 0 0 -1 0 174)"  d="M120.54 76.73683L131.7041 76.73683L131.7041 76.73683L131.7041 65.57281L131.7041 65.57281L120.54 65.57281z" stroke="#000000" stroke-width="0.5582014" stroke-linejoin="miter" fill="none" />
    <path id=""  transform="matrix(1 0 0 -1 0 174)"  d="M120.54 65.57281L131.7041 65.57281L131.7041 65.57281L131.7041 54.40878L131.7041 54.40878L120.54 54.40878z" stroke="none" fill="#97D077" fill-rule="nonzero" />
    <path id=""  transform="matrix(1 0 0 -1 0 174)"  d="M120.54 65.57281L131.7041 65.57281L131.7041 65.57281L131.7041 54.40878L131.7041 54.40878L120.54 54.40878z" stroke="#000000" stroke-width="0.5582014" stroke-linejoin="miter" fill="none" />
    <path id=""  transform="matrix(1 0 0 -1 0 174)"  d="M131.7041 76.73683L142.8681 76.73683L142.8681 76.73683L142.8681 65.57281L142.8681 65.57281L131.7041 65.57281z" stroke="none" fill="#FFFFFF" fill-rule="nonzero" />
    <path id=""  transform="matrix(1 0 0 -1 0 174)"  d="M131.7041 76.73683L142.8681 76.73683L142.8681 76.73683L142.8681 65.57281L142.8681 65.57281L131.7041 65.57281z" stroke="#000000" stroke-width="0.5582014" stroke-linejoin="miter" fill="none" />
    <path id=""  transform="matrix(1 0 0 -1 0 174)"  d="M131.7041 65.57281L142.8681 65.57281L142.8681 65.57281L142.8681 54.40878L142.8681 54.40878L131.7041 54.40878z" stroke="none" fill="#97D077" fill-rule="nonzero" />
    <path id=""  transform="matrix(1 0 0 -1 0 174)"  d="M131.7041 65.57281L142.8681 65.57281L142.8681 65.57281L142.8681 54.40878L142.8681 54.40878L131.7041 54.40878z" stroke="#000000" stroke-width="0.5582014" stroke-linejoin="miter" fill="none" />
    <path id=""  transform="matrix(1 0 0 -1 0 174)"  d="M98.21198 76.73126L109.376 76.73126L109.376 76.73126L109.376 65.56725L109.376 65.56725L98.21198 65.56725z" stroke="none" fill="#FFFFFF" fill-rule="nonzero" />
    <path id=""  transform="matrix(1 0 0 -1 0 174)"  d="M98.21198 76.73126L109.376 76.73126L109.376 76.73126L109.376 65.56725L109.376 65.56725L98.21198 65.56725z" stroke="#000000" stroke-width="0.5582014" stroke-linejoin="miter" fill="none" />
    <path id=""  transform="matrix(1 0 0 -1 0 174)"  d="M98.21198 65.56725L109.376 65.56725L109.376 65.56725L109.376 54.40321L109.376 54.40321L98.21198 54.40321z" stroke="none" fill="#97D077" fill-rule="nonzero" />
    <path id=""  transform="matrix(1 0 0 -1 0 174)"  d="M98.21198 65.56725L109.376 65.56725L109.376 65.56725L109.376 54.40321L109.376 54.40321L98.21198 54.40321z" stroke="#000000" stroke-width="0.5582014" stroke-linejoin="miter" fill="none" />
    <path id=""  transform="matrix(1 0 0 -1 0 174)"  d="M142.8681 76.73126L154.0321 76.73126L154.0321 76.73126L154.0321 65.56725L154.0321 65.56725L142.8681 65.56725z" stroke="none" fill="#FFFFFF" fill-rule="nonzero" />
    <path id=""  transform="matrix(1 0 0 -1 0 174)"  d="M142.8681 76.73126L154.0321 76.73126L154.0321 76.73126L154.0321 65.56725L154.0321 65.56725L142.8681 65.56725z" stroke="#000000" stroke-width="0.5582014" stroke-linejoin="miter" fill="none" />
    <path id=""  transform="matrix(1 0 0 -1 0 174)"  d="M142.8681 65.56725L154.0321 65.56725L154.0321 65.56725L154.0321 54.40321L154.0321 54.40321L142.8681 54.40321z" stroke="none" fill="#97D077" fill-rule="nonzero" />
    <path id=""  transform="matrix(1 0 0 -1 0 174)"  d="M142.8681 65.56725L154.0321 65.56725L154.0321 65.56725L154.0321 54.40321L154.0321 54.40321L142.8681 54.40321z" stroke="#000000" stroke-width="0.5582014" stroke-linejoin="miter" fill="none" />
    <path id=""  transform="matrix(1 0 0 -1 0 174)"  d="M109.376 54.42552L120.54 54.42552L120.54 54.42552L120.54 43.26151L120.54 43.26151L109.376 43.26151z" stroke="none" fill="#97D077" fill-rule="nonzero" />
    <path id=""  transform="matrix(1 0 0 -1 0 174)"  d="M109.376 54.42552L120.54 54.42552L120.54 54.42552L120.54 43.26151L120.54 43.26151L109.376 43.26151z" stroke="#000000" stroke-width="0.5582014" stroke-linejoin="miter" fill="none" />
    <path id=""  transform="matrix(1 0 0 -1 0 174)"  d="M120.54 54.42552L131.7041 54.42552L131.7041 54.42552L131.7041 43.26151L131.7041 43.26151L120.54 43.26151z" stroke="none" fill="#FFFFFF" fill-rule="nonzero" />
    <path id=""  transform="matrix(1 0 0 -1 0 174)"  d="M120.54 54.42552L131.7041 54.42552L131.7041 54.42552L131.7041 43.26151L131.7041 43.26151L120.54 43.26151z" stroke="#000000" stroke-width="0.5582014" stroke-linejoin="miter" fill="none" />
    <path id=""  transform="matrix(1 0 0 -1 0 174)"  d="M131.7041 54.42552L142.8681 54.42552L142.8681 54.42552L142.8681 43.26151L142.8681 43.26151L131.7041 43.26151z" stroke="none" fill="#FFFFFF" fill-rule="nonzero" />
    <path id=""  transform="matrix(1 0 0 -1 0 174)"  d="M131.7041 54.42552L142.8681 54.42552L142.8681 54.42552L142.8681 43.26151L142.8681 43.26151L131.7041 43.26151z" stroke="#000000" stroke-width="0.5582014" stroke-linejoin="miter" fill="none" />
    <path id=""  transform="matrix(1 0 0 -1 0 174)"  d="M98.21198 54.41995L109.376 54.41995L109.376 54.41995L109.376 43.25594L109.376 43.25594L98.21198 43.25594z" stroke="none" fill="#FFFFFF" fill-rule="nonzero" />
    <path id=""  transform="matrix(1 0 0 -1 0 174)"  d="M98.21198 54.41995L109.376 54.41995L109.376 54.41995L109.376 43.25594L109.376 43.25594L98.21198 43.25594z" stroke="#000000" stroke-width="0.5582014" stroke-linejoin="miter" fill="none" />
    <path id=""  transform="matrix(1 0 0 -1 0 174)"  d="M142.8681 54.41995L154.0321 54.41995L154.0321 54.41995L154.0321 43.25594L154.0321 43.25594L142.8681 43.25594z" stroke="none" fill="#FFFFFF" fill-rule="nonzero" />
    <path id=""  transform="matrix(1 0 0 -1 0 174)"  d="M142.8681 54.41995L154.0321 54.41995L154.0321 54.41995L154.0321 43.25594L154.0321 43.25594L142.8681 43.25594z" stroke="#000000" stroke-width="0.5582014" stroke-linejoin="miter" fill="none" />
    <path id=""  transform="matrix(1 0 0 -1 0 174)"  d="M109.376 43.25594L120.54 43.25594L120.54 43.25594L120.54 32.09192L120.54 32.09192L109.376 32.09192z" stroke="none" fill="#97D077" fill-rule="nonzero" />
    <path id=""  transform="matrix(1 0 0 -1 0 174)"  d="M109.376 43.25594L120.54 43.25594L120.54 43.25594L120.54 32.09192L120.54 32.09192L109.376 32.09192z" stroke="#000000" stroke-width="0.5582014" stroke-linejoin="miter" fill="none" />
    <path id=""  transform="matrix(1 0 0 -1 0 174)"  d="M109.376 32.09192L120.54 32.09192L120.54 32.09192L120.54 20.92789L120.54 20.92789L109.376 20.92789z" stroke="none" fill="#97D077" fill-rule="nonzero" />
    <path id=""  transform="matrix(1 0 0 -1 0 174)"  d="M109.376 32.09192L120.54 32.09192L120.54 32.09192L120.54 20.92789L120.54 20.92789L109.376 20.92789z" stroke="#000000" stroke-width="0.5582014" stroke-linejoin="miter" fill="none" />
    <path id=""  transform="matrix(1 0 0 -1 0 174)"  d="M120.54 43.25594L131.7041 43.25594L131.7041 43.25594L131.7041 32.09192L131.7041 32.09192L120.54 32.09192z" stroke="none" fill="#FFFFFF" fill-rule="nonzero" />
    <path id=""  transform="matrix(1 0 0 -1 0 174)"  d="M120.54 43.25594L131.7041 43.25594L131.7041 43.25594L131.7041 32.09192L131.7041 32.09192L120.54 32.09192z" stroke="#000000" stroke-width="0.5582014" stroke-linejoin="miter" fill="none" />
    <path id=""  transform="matrix(1 0 0 -1 0 174)"  d="M120.54 32.09192L131.7041 32.09192L131.7041 32.09192L131.7041 20.92789L131.7041 20.92789L120.54 20.92789z" stroke="none" fill="#FFFFFF" fill-rule="nonzero" />
    <path id=""  transform="matrix(1 0 0 -1 0 174)"  d="M120.54 32.09192L131.7041 32.09192L131.7041 32.09192L131.7041 20.92789L131.7041 20.92789L120.54 20.92789z" stroke="#000000" stroke-width="0.5582014" stroke-linejoin="miter" fill="none" />
    <path id=""  transform="matrix(1 0 0 -1 0 174)"  d="M131.7041 43.25594L142.8681 43.25594L142.8681 43.25594L142.8681 32.09192L142.8681 32.09192L131.7041 32.09192z" stroke="none" fill="#FFFFFF" fill-rule="nonzero" />
    <path id=""  transform="matrix(1 0 0 -1 0 174)"  d="M131.7041 43.25594L142.8681 43.25594L142.8681 43.25594L142.8681 32.09192L142.8681 32.09192L131.7041 32.09192z" stroke="#000000" stroke-width="0.5582014" stroke-linejoin="miter" fill="none" />
    <path id=""  transform="matrix(1 0 0 -1 0 174)"  d="M131.7041 32.09192L142.8681 32.09192L142.8681 32.09192L142.8681 20.92789L142.8681 20.92789L131.7041 20.92789z" stroke="none" fill="#FFFFFF" fill-rule="nonzero" />
    <path id=""  transform="matrix(1 0 0 -1 0 174)"  d="M131.7041 32.09192L142.8681 32.09192L142.8681 32.09192L142.8681 20.92789L142.8681 20.92789L131.7041 20.92789z" stroke="#000000" stroke-width="0.5582014" stroke-linejoin="miter" fill="none" />
    <path id=""  transform="matrix(1 0 0 -1 0 174)"  d="M98.21198 43.25035L109.376 43.25035L109.376 43.25035L109.376 32.0863L109.376 32.0863L98.21198 32.0863z" stroke="none" fill="#FFFFFF" fill-rule="nonzero" />
    <path id=""  transform="matrix(1 0 0 -1 0 174)"  d="M98.21198 43.25035L109.376 43.25035L109.376 43.25035L109.376 32.0863L109.376 32.0863L98.21198 32.0863z" stroke="#000000" stroke-width="0.5582014" stroke-linejoin="miter" fill="none" />
    <path id=""  transform="matrix(1 0 0 -1 0 174)"  d="M98.21198 32.0863L109.376 32.0863L109.376 32.0863L109.376 20.9223L109.376 20.9223L98.21198 20.9223z" stroke="none" fill="#FFFFFF" fill-rule="nonzero" />
    <path id=""  transform="matrix(1 0 0 -1 0 174)"  d="M98.21198 32.0863L109.376 32.0863L109.376 32.0863L109.376 20.9223L109.376 20.9223L98.21198 20.9223z" stroke="#000000" stroke-width="0.5582014" stroke-linejoin="miter" fill="none" />
    <path id=""  transform="matrix(1 0 0 -1 0 174)"  d="M142.8681 43.25035L154.0321 43.25035L154.0321 43.25035L154.0321 32.0863L154.0321 32.0863L142.8681 32.0863z" stroke="none" fill="#FFFFFF" fill-rule="nonzero" />
    <path id=""  transform="matrix(1 0 0 -1 0 174)"  d="M142.8681 43.25035L154.0321 43.25035L154.0321 43.25035L154.0321 32.0863L154.0321 32.0863L142.8681 32.0863z" stroke="#000000" stroke-width="0.5582014" stroke-linejoin="miter" fill="none" />
    <path id=""  transform="matrix(1 0 0 -1 0 174)"  d="M142.8681 32.0863L154.0321 32.0863L154.0321 32.0863L154.0321 20.9223L154.0321 20.9223L142.8681 20.9223z" stroke="none" fill="#FFFFFF" fill-rule="nonzero" />
    <path id=""  transform="matrix(1 0 0 -1 0 174)"  d="M142.8681 32.0863L154.0321 32.0863L154.0321 32.0863L154.0321 20.9223L154.0321 20.9223L142.8681 20.9223z" stroke="#000000" stroke-width="0.5582014" stroke-linejoin="miter" fill="none" />
    <path id=""  transform="matrix(1 0 0 -1 0 174)"  d="M142.8681 154.8906L154.0321 154.8906L154.0321 154.8906L154.0321 143.7266L154.0321 143.7266L142.8681 143.7266z" stroke="none" fill="#97D077" fill-rule="nonzero" />
    <path id=""  transform="matrix(1 0 0 -1 0 174)"  d="M142.8681 154.8906L154.0321 154.8906L154.0321 154.8906L154.0321 143.7266L154.0321 143.7266L142.8681 143.7266z" stroke="#000000" stroke-width="0.5582014" stroke-linejoin="miter" fill="none" />
    <path id=""  transform="matrix(1 0 0 -1 0 174)"  d="M53.55586 110.2401L64.71989 110.2401L64.71989 110.2401L64.71989 99.07607L64.71989 99.07607L53.55586 99.07607z" stroke="none" fill="#FFFFFF" fill-rule="nonzero" />
    <path id=""  transform="matrix(1 0 0 -1 0 174)"  d="M53.55586 110.2401L64.71989 110.2401L64.71989 110.2401L64.71989 99.07607L64.71989 99.07607L53.55586 99.07607z" stroke="#000000" stroke-width="0.5582014" stroke-linejoin="miter" fill="none" />
    <path id=""  transform="matrix(1 0 0 -1 0 174)"  d="M53.55586 99.07607L64.71989 99.07607L64.71989 99.07607L64.71989 87.91205L64.71989 87.91205L53.55586 87.91205z" stroke="none" fill="#FFFFFF" fill-rule="nonzero" />
    <path id=""  transform="matrix(1 0 0 -1 0 174)"  d="M53.55586 99.07607L64.71989 99.07607L64.71989 99.07607L64.71989 87.91205L64.71989 87.91205L53.55586 87.91205z" stroke="#000000" stroke-width="0.5582014" stroke-linejoin="miter" fill="none" />
    <path id=""  transform="matrix(1 0 0 -1 0 174)"  d="M53.55586 87.91205L64.71989 87.91205L64.71989 87.91205L64.71989 76.74802L64.71989 76.74802L53.55586 76.74802z" stroke="none" fill="#FFFFFF" fill-rule="nonzero" />
    <path id=""  transform="matrix(1 0 0 -1 0 174)"  d="M53.55586 87.91205L64.71989 87.91205L64.71989 87.91205L64.71989 76.74802L64.71989 76.74802L53.55586 76.74802z" stroke="#000000" stroke-width="0.5582014" stroke-linejoin="miter" fill="none" />
    <path id=""  transform="matrix(1 0 0 -1 0 174)"  d="M64.71989 110.2401L75.88393 110.2401L75.88393 110.2401L75.88393 99.07607L75.88393 99.07607L64.71989 99.07607z" stroke="none" fill="#FFFFFF" fill-rule="nonzero" />
    <path id=""  transform="matrix(1 0 0 -1 0 174)"  d="M64.71989 110.2401L75.88393 110.2401L75.88393 110.2401L75.88393 99.07607L75.88393 99.07607L64.71989 99.07607z" stroke="#000000" stroke-width="0.5582014" stroke-linejoin="miter" fill="none" />
    <path id=""  transform="matrix(1 0 0 -1 0 174)"  d="M64.71989 99.07607L75.88393 99.07607L75.88393 99.07607L75.88393 87.91205L75.88393 87.91205L64.71989 87.91205z" stroke="none" fill="#FFFFFF" fill-rule="nonzero" />
    <path id=""  transform="matrix(1 0 0 -1 0 174)"  d="M64.71989 99.07607L75.88393 99.07607L75.88393 99.07607L75.88393 87.91205L75.88393 87.91205L64.71989 87.91205z" stroke="#000000" stroke-width="0.5582014" stroke-linejoin="miter" fill="none" />
    <path id=""  transform="matrix(1 0 0 -1 0 174)"  d="M64.71989 87.91205L75.88393 87.91205L75.88393 87.91205L75.88393 76.74802L75.88393 76.74802L64.71989 76.74802z" stroke="none" fill="#FFFFFF" fill-rule="nonzero" />
    <path id=""  transform="matrix(1 0 0 -1 0 174)"  d="M64.71989 87.91205L75.88393 87.91205L75.88393 87.91205L75.88393 76.74802L75.88393 76.74802L64.71989 76.74802z" stroke="#000000" stroke-width="0.5582014" stroke-linejoin="miter" fill="none" />
    <path id=""  transform="matrix(1 0 0 -1 0 174)"  d="M75.88393 110.2401L87.04796 110.2401L87.04796 110.2401L87.04796 99.07607L87.04796 99.07607L75.88393 99.07607z" stroke="none" fill="#FFFFFF" fill-rule="nonzero" />
    <path id=""  transform="matrix(1 0 0 -1 0 174)"  d="M75.88393 110.2401L87.04796 110.2401L87.04796 110.2401L87.04796 99.07607L87.04796 99.07607L75.88393 99.07607z" stroke="#000000" stroke-width="0.5582014" stroke-linejoin="miter" fill="none" />
    <path id=""  transform="matrix(1 0 0 -1 0 174)"  d="M75.88393 99.07607L87.04796 99.07607L87.04796 99.07607L87.04796 87.91205L87.04796 87.91205L75.88393 87.91205z" stroke="none" fill="#FFFFFF" fill-rule="nonzero" />
    <path id=""  transform="matrix(1 0 0 -1 0 174)"  d="M75.88393 99.07607L87.04796 99.07607L87.04796 99.07607L87.04796 87.91205L87.04796 87.91205L75.88393 87.91205z" stroke="#000000" stroke-width="0.5582014" stroke-linejoin="miter" fill="none" />
    <path id=""  transform="matrix(1 0 0 -1 0 174)"  d="M75.88393 87.91205L87.04796 87.91205L87.04796 87.91205L87.04796 76.74802L87.04796 76.74802L75.88393 76.74802z" stroke="none" fill="#FFFFFF" fill-rule="nonzero" />
    <path id=""  transform="matrix(1 0 0 -1 0 174)"  d="M75.88393 87.91205L87.04796 87.91205L87.04796 87.91205L87.04796 76.74802L87.04796 76.74802L75.88393 76.74802z" stroke="#000000" stroke-width="0.5582014" stroke-linejoin="miter" fill="none" />
    <path id=""  transform="matrix(1 0 0 -1 0 174)"  d="M42.39185 110.2345L53.55586 110.2345L53.55586 110.2345L53.55586 99.07048L53.55586 99.07048L42.39185 99.07048z" stroke="none" fill="#FFFFFF" fill-rule="nonzero" />
    <path id=""  transform="matrix(1 0 0 -1 0 174)"  d="M42.39185 110.2345L53.55586 110.2345L53.55586 110.2345L53.55586 99.07048L53.55586 99.07048L42.39185 99.07048z" stroke="#000000" stroke-width="0.5582014" stroke-linejoin="miter" fill="none" />
    <path id=""  transform="matrix(1 0 0 -1 0 174)"  d="M42.39185 99.07048L53.55586 99.07048L53.55586 99.07048L53.55586 87.90645L53.55586 87.90645L42.39185 87.90645z" stroke="none" fill="#FFFFFF" fill-rule="nonzero" />
    <path id=""  transform="matrix(1 0 0 -1 0 174)"  d="M42.39185 99.07048L53.55586 99.07048L53.55586 99.07048L53.55586 87.90645L53.55586 87.90645L42.39185 87.90645z" stroke="#000000" stroke-width="0.5582014" stroke-linejoin="miter" fill="none" />
    <path id=""  transform="matrix(1 0 0 -1 0 174)"  d="M42.39185 87.90645L53.55586 87.90645L53.55586 87.90645L53.55586 76.74243L53.55586 76.74243L42.39185 76.74243z" stroke="none" fill="#FFFFFF" fill-rule="nonzero" />
    <path id=""  transform="matrix(1 0 0 -1 0 174)"  d="M42.39185 87.90645L53.55586 87.90645L53.55586 87.90645L53.55586 76.74243L53.55586 76.74243L42.39185 76.74243z" stroke="#000000" stroke-width="0.5582014" stroke-linejoin="miter" fill="none" />
    <path id=""  transform="matrix(1 0 0 -1 0 174)"  d="M87.04796 99.07048L98.21198 99.07048L98.21198 99.07048L98.21198 87.90645L98.21198 87.90645L87.04796 87.90645z" stroke="none" fill="#FFFFFF" fill-rule="nonzero" />
    <path id=""  transform="matrix(1 0 0 -1 0 174)"  d="M87.04796 99.07048L98.21198 99.07048L98.21198 99.07048L98.21198 87.90645L98.21198 87.90645L87.04796 87.90645z" stroke="#000000" stroke-width="0.5582014" stroke-linejoin="miter" fill="none" />
    <path id=""  transform="matrix(1 0 0 -1 0 174)"  d="M87.04796 121.4041L98.21198 121.4041L98.21198 121.4041L98.21198 110.2401L98.21198 110.2401L87.04796 110.2401z" stroke="none" fill="#FFFFFF" fill-rule="nonzero" />
    <path id=""  transform="matrix(1 0 0 -1 0 174)"  d="M87.04796 121.4041L98.21198 121.4041L98.21198 121.4041L98.21198 110.2401L98.21198 110.2401L87.04796 110.2401z" stroke="#000000" stroke-width="0.5582014" stroke-linejoin="miter" fill="none" />
    <path id=""  transform="matrix(1 0 0 -1 0 174)"  d="M87.04796 143.7322L98.21198 143.7322L98.21198 143.7322L98.21198 132.5681L98.21198 132.5681L87.04796 132.5681z" stroke="none" fill="#FFFFFF" fill-rule="nonzero" />
    <path id=""  transform="matrix(1 0 0 -1 0 174)"  d="M87.04796 143.7322L98.21198 143.7322L98.21198 143.7322L98.21198 132.5681L98.21198 132.5681L87.04796 132.5681z" stroke="#000000" stroke-width="0.5582014" stroke-linejoin="miter" fill="none" />
    <path id=""  transform="matrix(1 0 0 -1 0 174)"  d="M87.04796 87.90645L98.21198 87.90645L98.21198 87.90645L98.21198 76.74243L98.21198 76.74243L87.04796 76.74243z" stroke="none" fill="#FFFFFF" fill-rule="nonzero" />
    <path id=""  transform="matrix(1 0 0 -1 0 174)"  d="M87.04796 87.90645L98.21198 87.90645L98.21198 87.90645L98.21198 76.74243L98.21198 76.74243L87.04796 76.74243z" stroke="#000000" stroke-width="0.5582014" stroke-linejoin="miter" fill="none" />
    <path id=""  transform="matrix(1 0 0 -1 0 174)"  d="M87.04796 110.2345L98.21198 110.2345L98.21198 110.2345L98.21198 99.07048L98.21198 99.07048L87.04796 99.07048z" stroke="none" fill="#FFFFFF" fill-rule="nonzero" />
    <path id=""  transform="matrix(1 0 0 -1 0 174)"  d="M87.04796 110.2345L98.21198 110.2345L98.21198 110.2345L98.21198 99.07048L98.21198 99.07048L87.04796 99.07048z" stroke="#000000" stroke-width="0.5582014" stroke-linejoin="miter" fill="none" />
    <path id=""  transform="matrix(1 0 0 -1 0 174)"  d="M87.04796 132.5681L98.21198 132.5681L98.21198 132.5681L98.21198 121.4041L98.21198 121.4041L87.04796 121.4041z" stroke="none" fill="#FFFFFF" fill-rule="nonzero" />
    <path id=""  transform="matrix(1 0 0 -1 0 174)"  d="M87.04796 132.5681L98.21198 132.5681L98.21198 132.5681L98.21198 121.4041L98.21198 121.4041L87.04796 121.4041z" stroke="#000000" stroke-width="0.5582014" stroke-linejoin="miter" fill="none" />
    <path id=""  transform="matrix(1 0 0 -1 0 174)"  d="M42.39185 132.5681L53.55586 132.5681L53.55586 132.5681L53.55586 121.4041L53.55586 121.4041L42.39185 121.4041z" stroke="none" fill="#FFFFFF" fill-rule="nonzero" />
    <path id=""  transform="matrix(1 0 0 -1 0 174)"  d="M42.39185 132.5681L53.55586 132.5681L53.55586 132.5681L53.55586 121.4041L53.55586 121.4041L42.39185 121.4041z" stroke="#000000" stroke-width="0.5582014" stroke-linejoin="miter" fill="none" />
    <path id=""  transform="matrix(1 0 0 -1 0 174)"  d="M42.39185 121.4041L53.55586 121.4041L53.55586 121.4041L53.55586 110.2401L53.55586 110.2401L42.39185 110.2401z" stroke="none" fill="#FFFFFF" fill-rule="nonzero" />
    <path id=""  transform="matrix(1 0 0 -1 0 174)"  d="M42.39185 121.4041L53.55586 121.4041L53.55586 121.4041L53.55586 110.2401L53.55586 110.2401L42.39185 110.2401z" stroke="#000000" stroke-width="0.5582014" stroke-linejoin="miter" fill="none" />
    <path id=""  transform="matrix(1 0 0 -1 0 174)"  d="M42.39185 143.7322L53.55586 143.7322L53.55586 143.7322L53.55586 132.5681L53.55586 132.5681L42.39185 132.5681z" stroke="none" fill="#FFFFFF" fill-rule="nonzero" />
    <path id=""  transform="matrix(1 0 0 -1 0 174)"  d="M42.39185 143.7322L53.55586 143.7322L53.55586 143.7322L53.55586 132.5681L53.55586 132.5681L42.39185 132.5681z" stroke="#000000" stroke-width="0.5582014" stroke-linejoin="miter" fill="none" />
    <path id=""  transform="matrix(1 0 0 -1 0 174)"  d="M42.39185 154.8962L53.55586 154.8962L53.55586 154.8962L53.55586 143.7322L53.55586 143.7322L42.39185 143.7322z" stroke="none" fill="#97D077" fill-rule="nonzero" />
    <path id=""  transform="matrix(1 0 0 -1 0 174)"  d="M42.39185 154.8962L53.55586 154.8962L53.55586 154.8962L53.55586 143.7322L53.55586 143.7322L42.39185 143.7322z" stroke="#000000" stroke-width="0.5582014" stroke-linejoin="miter" fill="none" />
    <path id=""  transform="matrix(1 0 0 -1 0 174)"  d="M53.55586 132.5681L64.71989 132.5681L64.71989 132.5681L64.71989 121.4041L64.71989 121.4041L53.55586 121.4041z" stroke="none" fill="#FFFFFF" fill-rule="nonzero" />
    <path id=""  transform="matrix(1 0 0 -1 0 174)"  d="M53.55586 132.5681L64.71989 132.5681L64.71989 132.5681L64.71989 121.4041L64.71989 121.4041L53.55586 121.4041z" stroke="#000000" stroke-width="0.5582014" stroke-linejoin="miter" fill="none" />
    <path id=""  transform="matrix(1 0 0 -1 0 174)"  d="M53.55586 121.4041L64.71989 121.4041L64.71989 121.4041L64.71989 110.2401L64.71989 110.2401L53.55586 110.2401z" stroke="none" fill="#FFFFFF" fill-rule="nonzero" />
    <path id=""  transform="matrix(1 0 0 -1 0 174)"  d="M53.55586 121.4041L64.71989 121.4041L64.71989 121.4041L64.71989 110.2401L64.71989 110.2401L53.55586 110.2401z" stroke="#000000" stroke-width="0.5582014" stroke-linejoin="miter" fill="none" />
    <path id=""  transform="matrix(1 0 0 -1 0 174)"  d="M53.55586 143.7322L64.71989 143.7322L64.71989 143.7322L64.71989 132.5681L64.71989 132.5681L53.55586 132.5681z" stroke="none" fill="#FFFFFF" fill-rule="nonzero" />
    <path id=""  transform="matrix(1 0 0 -1 0 174)"  d="M53.55586 143.7322L64.71989 143.7322L64.71989 143.7322L64.71989 132.5681L64.71989 132.5681L53.55586 132.5681z" stroke="#000000" stroke-width="0.5582014" stroke-linejoin="miter" fill="none" />
    <path id=""  transform="matrix(1 0 0 -1 0 174)"  d="M53.55586 154.8962L64.71989 154.8962L64.71989 154.8962L64.71989 143.7322L64.71989 143.7322L53.55586 143.7322z" stroke="none" fill="#97D077" fill-rule="nonzero" />
    <path id=""  transform="matrix(1 0 0 -1 0 174)"  d="M53.55586 154.8962L64.71989 154.8962L64.71989 154.8962L64.71989 143.7322L64.71989 143.7322L53.55586 143.7322z" stroke="#000000" stroke-width="0.5582014" stroke-linejoin="miter" fill="none" />
    <path id=""  transform="matrix(1 0 0 -1 0 174)"  d="M64.71989 132.5681L75.88393 132.5681L75.88393 132.5681L75.88393 121.4041L75.88393 121.4041L64.71989 121.4041z" stroke="none" fill="#FFFFFF" fill-rule="nonzero" />
    <path id=""  transform="matrix(1 0 0 -1 0 174)"  d="M64.71989 132.5681L75.88393 132.5681L75.88393 132.5681L75.88393 121.4041L75.88393 121.4041L64.71989 121.4041z" stroke="#000000" stroke-width="0.5582014" stroke-linejoin="miter" fill="none" />
    <path id=""  transform="matrix(1 0 0 -1 0 174)"  d="M64.71989 121.4041L75.88393 121.4041L75.88393 121.4041L75.88393 110.2401L75.88393 110.2401L64.71989 110.2401z" stroke="none" fill="#FFFFFF" fill-rule="nonzero" />
    <path id=""  transform="matrix(1 0 0 -1 0 174)"  d="M64.71989 121.4041L75.88393 121.4041L75.88393 121.4041L75.88393 110.2401L75.88393 110.2401L64.71989 110.2401z" stroke="#000000" stroke-width="0.5582014" stroke-linejoin="miter" fill="none" />
    <path id=""  transform="matrix(1 0 0 -1 0 174)"  d="M64.71989 143.7322L75.88393 143.7322L75.88393 143.7322L75.88393 132.5681L75.88393 132.5681L64.71989 132.5681z" stroke="none" fill="#FFFFFF" fill-rule="nonzero" />
    <path id=""  transform="matrix(1 0 0 -1 0 174)"  d="M64.71989 143.7322L75.88393 143.7322L75.88393 143.7322L75.88393 132.5681L75.88393 132.5681L64.71989 132.5681z" stroke="#000000" stroke-width="0.5582014" stroke-linejoin="miter" fill="none" />
    <path id=""  transform="matrix(1 0 0 -1 0 174)"  d="M64.71989 154.8962L75.88393 154.8962L75.88393 154.8962L75.88393 143.7322L75.88393 143.7322L64.71989 143.7322z" stroke="none" fill="#97D077" fill-rule="nonzero" />
    <path id=""  transform="matrix(1 0 0 -1 0 174)"  d="M64.71989 154.8962L75.88393 154.8962L75.88393 154.8962L75.88393 143.7322L75.88393 143.7322L64.71989 143.7322z" stroke="#000000" stroke-width="0.5582014" stroke-linejoin="miter" fill="none" />
    <path id=""  transform="matrix(1 0 0 -1 0 174)"  d="M75.88393 132.5681L87.04796 132.5681L87.04796 132.5681L87.04796 121.4041L87.04796 121.4041L75.88393 121.4041z" stroke="none" fill="#FFFFFF" fill-rule="nonzero" />
    <path id=""  transform="matrix(1 0 0 -1 0 174)"  d="M75.88393 132.5681L87.04796 132.5681L87.04796 132.5681L87.04796 121.4041L87.04796 121.4041L75.88393 121.4041z" stroke="#000000" stroke-width="0.5582014" stroke-linejoin="miter" fill="none" />
    <path id=""  transform="matrix(1 0 0 -1 0 174)"  d="M75.88393 121.4041L87.04796 121.4041L87.04796 121.4041L87.04796 110.2401L87.04796 110.2401L75.88393 110.2401z" stroke="none" fill="#FFFFFF" fill-rule="nonzero" />
    <path id=""  transform="matrix(1 0 0 -1 0 174)"  d="M75.88393 121.4041L87.04796 121.4041L87.04796 121.4041L87.04796 110.2401L87.04796 110.2401L75.88393 110.2401z" stroke="#000000" stroke-width="0.5582014" stroke-linejoin="miter" fill="none" />
    <path id=""  transform="matrix(1 0 0 -1 0 174)"  d="M75.88393 143.7322L87.04796 143.7322L87.04796 143.7322L87.04796 132.5681L87.04796 132.5681L75.88393 132.5681z" stroke="none" fill="#FFFFFF" fill-rule="nonzero" />
    <path id=""  transform="matrix(1 0 0 -1 0 174)"  d="M75.88393 143.7322L87.04796 143.7322L87.04796 143.7322L87.04796 132.5681L87.04796 132.5681L75.88393 132.5681z" stroke="#000000" stroke-width="0.5582014" stroke-linejoin="miter" fill="none" />
    <path id=""  transform="matrix(1 0 0 -1 0 174)"  d="M75.88393 154.8962L87.04796 154.8962L87.04796 154.8962L87.04796 143.7322L87.04796 143.7322L75.88393 143.7322z" stroke="none" fill="#97D077" fill-rule="nonzero" />
    <path id=""  transform="matrix(1 0 0 -1 0 174)"  d="M75.88393 154.8962L87.04796 154.8962L87.04796 154.8962L87.04796 143.7322L87.04796 143.7322L75.88393 143.7322z" stroke="#000000" stroke-width="0.5582014" stroke-linejoin="miter" fill="none" />
    <path id=""  transform="matrix(1 0 0 -1 0 174)"  d="M53.55586 76.74243L64.71989 76.74243L64.71989 76.74243L64.71989 65.5784L64.71989 65.5784L53.55586 65.5784z" stroke="none" fill="#FFFFFF" fill-rule="nonzero" />
    <path id=""  transform="matrix(1 0 0 -1 0 174)"  d="M53.55586 76.74243L64.71989 76.74243L64.71989 76.74243L64.71989 65.5784L64.71989 65.5784L53.55586 65.5784z" stroke="#000000" stroke-width="0.5582014" stroke-linejoin="miter" fill="none" />
    <path id=""  transform="matrix(1 0 0 -1 0 174)"  d="M53.55586 65.5784L64.71989 65.5784L64.71989 65.5784L64.71989 54.41437L64.71989 54.41437L53.55586 54.41437z" stroke="none" fill="#97D077" fill-rule="nonzero" />
    <path id=""  transform="matrix(1 0 0 -1 0 174)"  d="M53.55586 65.5784L64.71989 65.5784L64.71989 65.5784L64.71989 54.41437L64.71989 54.41437L53.55586 54.41437z" stroke="#000000" stroke-width="0.5582014" stroke-linejoin="miter" fill="none" />
    <path id=""  transform="matrix(1 0 0 -1 0 174)"  d="M64.71989 76.74243L75.88393 76.74243L75.88393 76.74243L75.88393 65.5784L75.88393 65.5784L64.71989 65.5784z" stroke="none" fill="#FFFFFF" fill-rule="nonzero" />
    <path id=""  transform="matrix(1 0 0 -1 0 174)"  d="M64.71989 76.74243L75.88393 76.74243L75.88393 76.74243L75.88393 65.5784L75.88393 65.5784L64.71989 65.5784z" stroke="#000000" stroke-width="0.5582014" stroke-linejoin="miter" fill="none" />
    <path id=""  transform="matrix(1 0 0 -1 0 174)"  d="M64.71989 65.5784L75.88393 65.5784L75.88393 65.5784L75.88393 54.41437L75.88393 54.41437L64.71989 54.41437z" stroke="none" fill="#97D077" fill-rule="nonzero" />
    <path id=""  transform="matrix(1 0 0 -1 0 174)"  d="M64.71989 65.5784L75.88393 65.5784L75.88393 65.5784L75.88393 54.41437L75.88393 54.41437L64.71989 54.41437z" stroke="#000000" stroke-width="0.5582014" stroke-linejoin="miter" fill="none" />
    <path id=""  transform="matrix(1 0 0 -1 0 174)"  d="M75.88393 76.74243L87.04796 76.74243L87.04796 76.74243L87.04796 65.5784L87.04796 65.5784L75.88393 65.5784z" stroke="none" fill="#FFFFFF" fill-rule="nonzero" />
    <path id=""  transform="matrix(1 0 0 -1 0 174)"  d="M75.88393 76.74243L87.04796 76.74243L87.04796 76.74243L87.04796 65.5784L87.04796 65.5784L75.88393 65.5784z" stroke="#000000" stroke-width="0.5582014" stroke-linejoin="miter" fill="none" />
    <path id=""  transform="matrix(1 0 0 -1 0 174)"  d="M75.88393 65.5784L87.04796 65.5784L87.04796 65.5784L87.04796 54.41437L87.04796 54.41437L75.88393 54.41437z" stroke="none" fill="#97D077" fill-rule="nonzero" />
    <path id=""  transform="matrix(1 0 0 -1 0 174)"  d="M75.88393 65.5784L87.04796 65.5784L87.04796 65.5784L87.04796 54.41437L87.04796 54.41437L75.88393 54.41437z" stroke="#000000" stroke-width="0.5582014" stroke-linejoin="miter" fill="none" />
    <path id=""  transform="matrix(1 0 0 -1 0 174)"  d="M42.39185 76.73683L53.55586 76.73683L53.55586 76.73683L53.55586 65.57281L53.55586 65.57281L42.39185 65.57281z" stroke="none" fill="#FFFFFF" fill-rule="nonzero" />
    <path id=""  transform="matrix(1 0 0 -1 0 174)"  d="M42.39185 76.73683L53.55586 76.73683L53.55586 76.73683L53.55586 65.57281L53.55586 65.57281L42.39185 65.57281z" stroke="#000000" stroke-width="0.5582014" stroke-linejoin="miter" fill="none" />
    <path id=""  transform="matrix(1 0 0 -1 0 174)"  d="M42.39185 65.57281L53.55586 65.57281L53.55586 65.57281L53.55586 54.40878L53.55586 54.40878L42.39185 54.40878z" stroke="none" fill="#97D077" fill-rule="nonzero" />
    <path id=""  transform="matrix(1 0 0 -1 0 174)"  d="M42.39185 65.57281L53.55586 65.57281L53.55586 65.57281L53.55586 54.40878L53.55586 54.40878L42.39185 54.40878z" stroke="#000000" stroke-width="0.5582014" stroke-linejoin="miter" fill="none" />
    <path id=""  transform="matrix(1 0 0 -1 0 174)"  d="M87.04796 76.73683L98.21198 76.73683L98.21198 76.73683L98.21198 65.57281L98.21198 65.57281L87.04796 65.57281z" stroke="none" fill="#FFFFFF" fill-rule="nonzero" />
    <path id=""  transform="matrix(1 0 0 -1 0 174)"  d="M87.04796 76.73683L98.21198 76.73683L98.21198 76.73683L98.21198 65.57281L98.21198 65.57281L87.04796 65.57281z" stroke="#000000" stroke-width="0.5582014" stroke-linejoin="miter" fill="none" />
    <path id=""  transform="matrix(1 0 0 -1 0 174)"  d="M87.04796 65.57281L98.21198 65.57281L98.21198 65.57281L98.21198 54.40878L98.21198 54.40878L87.04796 54.40878z" stroke="none" fill="#97D077" fill-rule="nonzero" />
    <path id=""  transform="matrix(1 0 0 -1 0 174)"  d="M87.04796 65.57281L98.21198 65.57281L98.21198 65.57281L98.21198 54.40878L98.21198 54.40878L87.04796 54.40878z" stroke="#000000" stroke-width="0.5582014" stroke-linejoin="miter" fill="none" />
    <path id=""  transform="matrix(1 0 0 -1 0 174)"  d="M53.55586 54.43112L64.71989 54.43112L64.71989 54.43112L64.71989 43.26709L64.71989 43.26709L53.55586 43.26709z" stroke="none" fill="#FFFFFF" fill-rule="nonzero" />
    <path id=""  transform="matrix(1 0 0 -1 0 174)"  d="M53.55586 54.43112L64.71989 54.43112L64.71989 54.43112L64.71989 43.26709L64.71989 43.26709L53.55586 43.26709z" stroke="#000000" stroke-width="0.5582014" stroke-linejoin="miter" fill="none" />
    <path id=""  transform="matrix(1 0 0 -1 0 174)"  d="M64.71989 54.43112L75.88393 54.43112L75.88393 54.43112L75.88393 43.26709L75.88393 43.26709L64.71989 43.26709z" stroke="none" fill="#FFFFFF" fill-rule="nonzero" />
    <path id=""  transform="matrix(1 0 0 -1 0 174)"  d="M64.71989 54.43112L75.88393 54.43112L75.88393 54.43112L75.88393 43.26709L75.88393 43.26709L64.71989 43.26709z" stroke="#000000" stroke-width="0.5582014" stroke-linejoin="miter" fill="none" />
    <path id=""  transform="matrix(1 0 0 -1 0 174)"  d="M75.88393 54.43112L87.04796 54.43112L87.04796 54.43112L87.04796 43.26709L87.04796 43.26709L75.88393 43.26709z" stroke="none" fill="#FFFFFF" fill-rule="nonzero" />
    <path id=""  transform="matrix(1 0 0 -1 0 174)"  d="M75.88393 54.43112L87.04796 54.43112L87.04796 54.43112L87.04796 43.26709L87.04796 43.26709L75.88393 43.26709z" stroke="#000000" stroke-width="0.5582014" stroke-linejoin="miter" fill="none" />
    <path id=""  transform="matrix(1 0 0 -1 0 174)"  d="M42.39185 54.42552L53.55586 54.42552L53.55586 54.42552L53.55586 43.26151L53.55586 43.26151L42.39185 43.26151z" stroke="none" fill="#FFFFFF" fill-rule="nonzero" />
    <path id=""  transform="matrix(1 0 0 -1 0 174)"  d="M42.39185 54.42552L53.55586 54.42552L53.55586 54.42552L53.55586 43.26151L53.55586 43.26151L42.39185 43.26151z" stroke="#000000" stroke-width="0.5582014" stroke-linejoin="miter" fill="none" />
    <path id=""  transform="matrix(1 0 0 -1 0 174)"  d="M87.04796 54.42552L98.21198 54.42552L98.21198 54.42552L98.21198 43.26151L98.21198 43.26151L87.04796 43.26151z" stroke="none" fill="#FFFFFF" fill-rule="nonzero" />
    <path id=""  transform="matrix(1 0 0 -1 0 174)"  d="M87.04796 54.42552L98.21198 54.42552L98.21198 54.42552L98.21198 43.26151L98.21198 43.26151L87.04796 43.26151z" stroke="#000000" stroke-width="0.5582014" stroke-linejoin="miter" fill="none" />
    <path id=""  transform="matrix(1 0 0 -1 0 174)"  d="M53.55586 43.26151L64.71989 43.26151L64.71989 43.26151L64.71989 32.09747L64.71989 32.09747L53.55586 32.09747z" stroke="none" fill="#FFFFFF" fill-rule="nonzero" />
    <path id=""  transform="matrix(1 0 0 -1 0 174)"  d="M53.55586 43.26151L64.71989 43.26151L64.71989 43.26151L64.71989 32.09747L64.71989 32.09747L53.55586 32.09747z" stroke="#000000" stroke-width="0.5582014" stroke-linejoin="miter" fill="none" />
    <path id=""  transform="matrix(1 0 0 -1 0 174)"  d="M53.55586 32.09747L64.71989 32.09747L64.71989 32.09747L64.71989 20.93344L64.71989 20.93344L53.55586 20.93344z" stroke="none" fill="#FFFFFF" fill-rule="nonzero" />
    <path id=""  transform="matrix(1 0 0 -1 0 174)"  d="M53.55586 32.09747L64.71989 32.09747L64.71989 32.09747L64.71989 20.93344L64.71989 20.93344L53.55586 20.93344z" stroke="#000000" stroke-width="0.5582014" stroke-linejoin="miter" fill="none" />
    <path id=""  transform="matrix(1 0 0 -1 0 174)"  d="M64.71989 43.26151L75.88393 43.26151L75.88393 43.26151L75.88393 32.09747L75.88393 32.09747L64.71989 32.09747z" stroke="none" fill="#FFFFFF" fill-rule="nonzero" />
    <path id=""  transform="matrix(1 0 0 -1 0 174)"  d="M64.71989 43.26151L75.88393 43.26151L75.88393 43.26151L75.88393 32.09747L75.88393 32.09747L64.71989 32.09747z" stroke="#000000" stroke-width="0.5582014" stroke-linejoin="miter" fill="none" />
    <path id=""  transform="matrix(1 0 0 -1 0 174)"  d="M64.71989 32.09747L75.88393 32.09747L75.88393 32.09747L75.88393 20.93344L75.88393 20.93344L64.71989 20.93344z" stroke="none" fill="#FFFFFF" fill-rule="nonzero" />
    <path id=""  transform="matrix(1 0 0 -1 0 174)"  d="M64.71989 32.09747L75.88393 32.09747L75.88393 32.09747L75.88393 20.93344L75.88393 20.93344L64.71989 20.93344z" stroke="#000000" stroke-width="0.5582014" stroke-linejoin="miter" fill="none" />
    <path id=""  transform="matrix(1 0 0 -1 0 174)"  d="M75.88393 43.26151L87.04796 43.26151L87.04796 43.26151L87.04796 32.09747L87.04796 32.09747L75.88393 32.09747z" stroke="none" fill="#FFFFFF" fill-rule="nonzero" />
    <path id=""  transform="matrix(1 0 0 -1 0 174)"  d="M75.88393 43.26151L87.04796 43.26151L87.04796 43.26151L87.04796 32.09747L87.04796 32.09747L75.88393 32.09747z" stroke="#000000" stroke-width="0.5582014" stroke-linejoin="miter" fill="none" />
    <path id=""  transform="matrix(1 0 0 -1 0 174)"  d="M75.88393 32.09747L87.04796 32.09747L87.04796 32.09747L87.04796 20.93344L87.04796 20.93344L75.88393 20.93344z" stroke="none" fill="#FFFFFF" fill-rule="nonzero" />
    <path id=""  transform="matrix(1 0 0 -1 0 174)"  d="M75.88393 32.09747L87.04796 32.09747L87.04796 32.09747L87.04796 20.93344L87.04796 20.93344L75.88393 20.93344z" stroke="#000000" stroke-width="0.5582014" stroke-linejoin="miter" fill="none" />
    <path id=""  transform="matrix(1 0 0 -1 0 174)"  d="M42.39185 43.25594L53.55586 43.25594L53.55586 43.25594L53.55586 32.09192L53.55586 32.09192L42.39185 32.09192z" stroke="none" fill="#FFFFFF" fill-rule="nonzero" />
    <path id=""  transform="matrix(1 0 0 -1 0 174)"  d="M42.39185 43.25594L53.55586 43.25594L53.55586 43.25594L53.55586 32.09192L53.55586 32.09192L42.39185 32.09192z" stroke="#000000" stroke-width="0.5582014" stroke-linejoin="miter" fill="none" />
    <path id=""  transform="matrix(1 0 0 -1 0 174)"  d="M42.39185 32.09192L53.55586 32.09192L53.55586 32.09192L53.55586 20.92789L53.55586 20.92789L42.39185 20.92789z" stroke="none" fill="#FFFFFF" fill-rule="nonzero" />
    <path id=""  transform="matrix(1 0 0 -1 0 174)"  d="M42.39185 32.09192L53.55586 32.09192L53.55586 32.09192L53.55586 20.92789L53.55586 20.92789L42.39185 20.92789z" stroke="#000000" stroke-width="0.5582014" stroke-linejoin="miter" fill="none" />
    <path id=""  transform="matrix(1 0 0 -1 0 174)"  d="M87.04796 43.25594L98.21198 43.25594L98.21198 43.25594L98.21198 32.09192L98.21198 32.09192L87.04796 32.09192z" stroke="none" fill="#FFFFFF" fill-rule="nonzero" />
    <path id=""  transform="matrix(1 0 0 -1 0 174)"  d="M87.04796 43.25594L98.21198 43.25594L98.21198 43.25594L98.21198 32.09192L98.21198 32.09192L87.04796 32.09192z" stroke="#000000" stroke-width="0.5582014" stroke-linejoin="miter" fill="none" />
    <path id=""  transform="matrix(1 0 0 -1 0 174)"  d="M87.04796 32.09192L98.21198 32.09192L98.21198 32.09192L98.21198 20.92789L98.21198 20.92789L87.04796 20.92789z" stroke="none" fill="#FFFFFF" fill-rule="nonzero" />
    <path id=""  transform="matrix(1 0 0 -1 0 174)"  d="M87.04796 32.09192L98.21198 32.09192L98.21198 32.09192L98.21198 20.92789L98.21198 20.92789L87.04796 20.92789z" stroke="#000000" stroke-width="0.5582014" stroke-linejoin="miter" fill="none" />
    <path id=""  transform="matrix(1 0 0 -1 0 174)"  d="M87.04796 154.8962L98.21198 154.8962L98.21198 154.8962L98.21198 143.7322L98.21198 143.7322L87.04796 143.7322z" stroke="none" fill="#97D077" fill-rule="nonzero" />
    <path id=""  transform="matrix(1 0 0 -1 0 174)"  d="M87.04796 154.8962L98.21198 154.8962L98.21198 154.8962L98.21198 143.7322L98.21198 143.7322L87.04796 143.7322z" stroke="#000000" stroke-width="0.5582014" stroke-linejoin="miter" fill="none" />
    <path id=""  transform="matrix(1 0 0 -1 0 174)"  d="M31.22781 110.2457L42.39185 110.2457L42.39185 110.2457L42.39185 99.08163L42.39185 99.08163L31.22781 99.08163z" stroke="none" fill="#FFFFFF" fill-rule="nonzero" />
    <path id=""  transform="matrix(1 0 0 -1 0 174)"  d="M31.22781 110.2457L42.39185 110.2457L42.39185 110.2457L42.39185 99.08163L42.39185 99.08163L31.22781 99.08163z" stroke="#000000" stroke-width="0.5582014" stroke-linejoin="miter" fill="none" />
    <path id=""  transform="matrix(1 0 0 -1 0 174)"  d="M31.22781 99.08163L42.39185 99.08163L42.39185 99.08163L42.39185 87.91762L42.39185 87.91762L31.22781 87.91762z" stroke="none" fill="#FFFFFF" fill-rule="nonzero" />
    <path id=""  transform="matrix(1 0 0 -1 0 174)"  d="M31.22781 99.08163L42.39185 99.08163L42.39185 99.08163L42.39185 87.91762L42.39185 87.91762L31.22781 87.91762z" stroke="#000000" stroke-width="0.5582014" stroke-linejoin="miter" fill="none" />
    <path id=""  transform="matrix(1 0 0 -1 0 174)"  d="M31.22781 87.91762L42.39185 87.91762L42.39185 87.91762L42.39185 76.75359L42.39185 76.75359L31.22781 76.75359z" stroke="none" fill="#FFFFFF" fill-rule="nonzero" />
    <path id=""  transform="matrix(1 0 0 -1 0 174)"  d="M31.22781 87.91762L42.39185 87.91762L42.39185 87.91762L42.39185 76.75359L42.39185 76.75359L31.22781 76.75359z" stroke="#000000" stroke-width="0.5582014" stroke-linejoin="miter" fill="none" />
    <path id=""  transform="matrix(1 0 0 -1 0 174)"  d="M20.06378 110.2401L31.22781 110.2401L31.22781 110.2401L31.22781 99.07607L31.22781 99.07607L20.06378 99.07607z" stroke="none" fill="#97D077" fill-rule="nonzero" />
    <path id=""  transform="matrix(1 0 0 -1 0 174)"  d="M20.06378 110.2401L31.22781 110.2401L31.22781 110.2401L31.22781 99.07607L31.22781 99.07607L20.06378 99.07607z" stroke="#000000" stroke-width="0.5582014" stroke-linejoin="miter" fill="none" />
    <path id=""  transform="matrix(1 0 0 -1 0 174)"  d="M20.06378 99.07607L31.22781 99.07607L31.22781 99.07607L31.22781 87.91205L31.22781 87.91205L20.06378 87.91205z" stroke="none" fill="#97D077" fill-rule="nonzero" />
    <path id=""  transform="matrix(1 0 0 -1 0 174)"  d="M20.06378 99.07607L31.22781 99.07607L31.22781 99.07607L31.22781 87.91205L31.22781 87.91205L20.06378 87.91205z" stroke="#000000" stroke-width="0.5582014" stroke-linejoin="miter" fill="none" />
    <path id=""  transform="matrix(1 0 0 -1 0 174)"  d="M20.06378 87.91205L31.22781 87.91205L31.22781 87.91205L31.22781 76.74802L31.22781 76.74802L20.06378 76.74802z" stroke="none" fill="#97D077" fill-rule="nonzero" />
    <path id=""  transform="matrix(1 0 0 -1 0 174)"  d="M20.06378 87.91205L31.22781 87.91205L31.22781 87.91205L31.22781 76.74802L31.22781 76.74802L20.06378 76.74802z" stroke="#000000" stroke-width="0.5582014" stroke-linejoin="miter" fill="none" />
    <path id=""  transform="matrix(1 0 0 -1 0 174)"  d="M20.06378 132.5737L31.22781 132.5737L31.22781 132.5737L31.22781 121.4097L31.22781 121.4097L20.06378 121.4097z" stroke="none" fill="#97D077" fill-rule="nonzero" />
    <path id=""  transform="matrix(1 0 0 -1 0 174)"  d="M20.06378 132.5737L31.22781 132.5737L31.22781 132.5737L31.22781 121.4097L31.22781 121.4097L20.06378 121.4097z" stroke="#000000" stroke-width="0.5582014" stroke-linejoin="miter" fill="none" />
    <path id=""  transform="matrix(1 0 0 -1 0 174)"  d="M20.06378 121.4097L31.22781 121.4097L31.22781 121.4097L31.22781 110.2457L31.22781 110.2457L20.06378 110.2457z" stroke="none" fill="#97D077" fill-rule="nonzero" />
    <path id=""  transform="matrix(1 0 0 -1 0 174)"  d="M20.06378 121.4097L31.22781 121.4097L31.22781 121.4097L31.22781 110.2457L31.22781 110.2457L20.06378 110.2457z" stroke="#000000" stroke-width="0.5582014" stroke-linejoin="miter" fill="none" />
    <path id=""  transform="matrix(1 0 0 -1 0 174)"  d="M20.06378 143.7377L31.22781 143.7377L31.22781 143.7377L31.22781 132.5737L31.22781 132.5737L20.06378 132.5737z" stroke="none" fill="#97D077" fill-rule="nonzero" />
    <path id=""  transform="matrix(1 0 0 -1 0 174)"  d="M20.06378 143.7377L31.22781 143.7377L31.22781 143.7377L31.22781 132.5737L31.22781 132.5737L20.06378 132.5737z" stroke="#000000" stroke-width="0.5582014" stroke-linejoin="miter" fill="none" />
    <path id=""  transform="matrix(1 0 0 -1 0 174)"  d="M20.06378 154.9018L31.22781 154.9018L31.22781 154.9018L31.22781 143.7378L31.22781 143.7378L20.06378 143.7378z" stroke="none" fill="#97D077" fill-rule="nonzero" />
    <path id=""  transform="matrix(1 0 0 -1 0 174)"  d="M20.06378 154.9018L31.22781 154.9018L31.22781 154.9018L31.22781 143.7378L31.22781 143.7378L20.06378 143.7378z" stroke="#000000" stroke-width="0.5582014" stroke-linejoin="miter" fill="none" />
    <path id=""  transform="matrix(1 0 0 -1 0 174)"  d="M31.22781 132.5737L42.39185 132.5737L42.39185 132.5737L42.39185 121.4097L42.39185 121.4097L31.22781 121.4097z" stroke="none" fill="#FFFFFF" fill-rule="nonzero" />
    <path id=""  transform="matrix(1 0 0 -1 0 174)"  d="M31.22781 132.5737L42.39185 132.5737L42.39185 132.5737L42.39185 121.4097L42.39185 121.4097L31.22781 121.4097z" stroke="#000000" stroke-width="0.5582014" stroke-linejoin="miter" fill="none" />
    <path id=""  transform="matrix(1 0 0 -1 0 174)"  d="M31.22781 121.4097L42.39185 121.4097L42.39185 121.4097L42.39185 110.2457L42.39185 110.2457L31.22781 110.2457z" stroke="none" fill="#FFFFFF" fill-rule="nonzero" />
    <path id=""  transform="matrix(1 0 0 -1 0 174)"  d="M31.22781 121.4097L42.39185 121.4097L42.39185 121.4097L42.39185 110.2457L42.39185 110.2457L31.22781 110.2457z" stroke="#000000" stroke-width="0.5582014" stroke-linejoin="miter" fill="none" />
    <path id=""  transform="matrix(1 0 0 -1 0 174)"  d="M31.22781 143.7377L42.39185 143.7377L42.39185 143.7377L42.39185 132.5737L42.39185 132.5737L31.22781 132.5737z" stroke="none" fill="#FFFFFF" fill-rule="nonzero" />
    <path id=""  transform="matrix(1 0 0 -1 0 174)"  d="M31.22781 143.7377L42.39185 143.7377L42.39185 143.7377L42.39185 132.5737L42.39185 132.5737L31.22781 132.5737z" stroke="#000000" stroke-width="0.5582014" stroke-linejoin="miter" fill="none" />
    <path id=""  transform="matrix(1 0 0 -1 0 174)"  d="M31.22781 154.9018L42.39185 154.9018L42.39185 154.9018L42.39185 143.7378L42.39185 143.7378L31.22781 143.7378z" stroke="none" fill="#97D077" fill-rule="nonzero" />
    <path id=""  transform="matrix(1 0 0 -1 0 174)"  d="M31.22781 154.9018L42.39185 154.9018L42.39185 154.9018L42.39185 143.7378L42.39185 143.7378L31.22781 143.7378z" stroke="#000000" stroke-width="0.5582014" stroke-linejoin="miter" fill="none" />
    <path id=""  transform="matrix(1 0 0 -1 0 174)"  d="M31.22781 76.74802L42.39185 76.74802L42.39185 76.74802L42.39185 65.58398L42.39185 65.58398L31.22781 65.58398z" stroke="none" fill="#FFFFFF" fill-rule="nonzero" />
    <path id=""  transform="matrix(1 0 0 -1 0 174)"  d="M31.22781 76.74802L42.39185 76.74802L42.39185 76.74802L42.39185 65.58398L42.39185 65.58398L31.22781 65.58398z" stroke="#000000" stroke-width="0.5582014" stroke-linejoin="miter" fill="none" />
    <path id=""  transform="matrix(1 0 0 -1 0 174)"  d="M31.22781 65.58398L42.39185 65.58398L42.39185 65.58398L42.39185 54.41995L42.39185 54.41995L31.22781 54.41995z" stroke="none" fill="#97D077" fill-rule="nonzero" />
    <path id=""  transform="matrix(1 0 0 -1 0 174)"  d="M31.22781 65.58398L42.39185 65.58398L42.39185 65.58398L42.39185 54.41995L42.39185 54.41995L31.22781 54.41995z" stroke="#000000" stroke-width="0.5582014" stroke-linejoin="miter" fill="none" />
    <path id=""  transform="matrix(1 0 0 -1 0 174)"  d="M20.06378 76.74243L31.22781 76.74243L31.22781 76.74243L31.22781 65.5784L31.22781 65.5784L20.06378 65.5784z" stroke="none" fill="#97D077" fill-rule="nonzero" />
    <path id=""  transform="matrix(1 0 0 -1 0 174)"  d="M20.06378 76.74243L31.22781 76.74243L31.22781 76.74243L31.22781 65.5784L31.22781 65.5784L20.06378 65.5784z" stroke="#000000" stroke-width="0.5582014" stroke-linejoin="miter" fill="none" />
    <path id=""  transform="matrix(1 0 0 -1 0 174)"  d="M20.06378 65.5784L31.22781 65.5784L31.22781 65.5784L31.22781 54.41437L31.22781 54.41437L20.06378 54.41437z" stroke="none" fill="#97D077" fill-rule="nonzero" />
    <path id=""  transform="matrix(1 0 0 -1 0 174)"  d="M20.06378 65.5784L31.22781 65.5784L31.22781 65.5784L31.22781 54.41437L31.22781 54.41437L20.06378 54.41437z" stroke="#000000" stroke-width="0.5582014" stroke-linejoin="miter" fill="none" />
    <path id=""  transform="matrix(1 0 0 -1 0 174)"  d="M31.22781 54.43671L42.39185 54.43671L42.39185 54.43671L42.39185 43.27267L42.39185 43.27267L31.22781 43.27267z" stroke="none" fill="#FFFFFF" fill-rule="nonzero" />
    <path id=""  transform="matrix(1 0 0 -1 0 174)"  d="M31.22781 54.43671L42.39185 54.43671L42.39185 54.43671L42.39185 43.27267L42.39185 43.27267L31.22781 43.27267z" stroke="#000000" stroke-width="0.5582014" stroke-linejoin="miter" fill="none" />
    <path id=""  transform="matrix(1 0 0 -1 0 174)"  d="M20.06378 54.43112L31.22781 54.43112L31.22781 54.43112L31.22781 43.26709L31.22781 43.26709L20.06378 43.26709z" stroke="none" fill="#97D077" fill-rule="nonzero" />
    <path id=""  transform="matrix(1 0 0 -1 0 174)"  d="M20.06378 54.43112L31.22781 54.43112L31.22781 54.43112L31.22781 43.26709L31.22781 43.26709L20.06378 43.26709z" stroke="#000000" stroke-width="0.5582014" stroke-linejoin="miter" fill="none" />
    <path id=""  transform="matrix(1 0 0 -1 0 174)"  d="M31.22781 43.26709L42.39185 43.26709L42.39185 43.26709L42.39185 32.10306L42.39185 32.10306L31.22781 32.10306z" stroke="none" fill="#FFFFFF" fill-rule="nonzero" />
    <path id=""  transform="matrix(1 0 0 -1 0 174)"  d="M31.22781 43.26709L42.39185 43.26709L42.39185 43.26709L42.39185 32.10306L42.39185 32.10306L31.22781 32.10306z" stroke="#000000" stroke-width="0.5582014" stroke-linejoin="miter" fill="none" />
    <path id=""  transform="matrix(1 0 0 -1 0 174)"  d="M31.22781 32.10306L42.39185 32.10306L42.39185 32.10306L42.39185 20.93903L42.39185 20.93903L31.22781 20.93903z" stroke="none" fill="#FFFFFF" fill-rule="nonzero" />
    <path id=""  transform="matrix(1 0 0 -1 0 174)"  d="M31.22781 32.10306L42.39185 32.10306L42.39185 32.10306L42.39185 20.93903L42.39185 20.93903L31.22781 20.93903z" stroke="#000000" stroke-width="0.5582014" stroke-linejoin="miter" fill="none" />
    <path id=""  transform="matrix(1 0 0 -1 0 174)"  d="M20.06378 43.26151L31.22781 43.26151L31.22781 43.26151L31.22781 32.09747L31.22781 32.09747L20.06378 32.09747z" stroke="none" fill="#97D077" fill-rule="nonzero" />
    <path id=""  transform="matrix(1 0 0 -1 0 174)"  d="M20.06378 43.26151L31.22781 43.26151L31.22781 43.26151L31.22781 32.09747L31.22781 32.09747L20.06378 32.09747z" stroke="#000000" stroke-width="0.5582014" stroke-linejoin="miter" fill="none" />
    <path id=""  transform="matrix(1 0 0 -1 0 174)"  d="M20.06378 32.09747L31.22781 32.09747L31.22781 32.09747L31.22781 20.93344L31.22781 20.93344L20.06378 20.93344z" stroke="none" fill="#97D077" fill-rule="nonzero" />
    <path id=""  transform="matrix(1 0 0 -1 0 174)"  d="M20.06378 32.09747L31.22781 32.09747L31.22781 32.09747L31.22781 20.93344L31.22781 20.93344L20.06378 20.93344z" stroke="#000000" stroke-width="0.5582014" stroke-linejoin="miter" fill="none" />
		</g>
	</g>
</g>
</svg>