<?xml version="1.0" standalone="no"?>
<!DOCTYPE svg PUBLIC "-//W3C//DTD SVG 1.1//EN" "http://www.w3.org/Graphics/SVG/1.1/DTD/svg11.dtd">
<svg xmlns="http://www.w3.org/2000/svg" xmlns:xlink="http://www.w3.org/1999/xlink" version="1.1" id="body_1" width="232" height="232">

<defs>
    <clipPath  id="1">

    <path id=""  clip-rule="evenodd" transform="matrix(1 0 0 1 0 0)"  d="M0 174L0 -0.9599915L0 -0.9599915L174 -0.9599915L174 -0.9599915L174 174L174 174L0 174z" />    </clipPath>
    <clipPath  id="2">

    <path id=""  clip-rule="evenodd" transform="matrix(1 0 0 1 0 0)"  d="M0 -0.9599915L174.2344 -0.9599915L174.2344 -0.9599915L174.2344 174.0009L174.2344 174.0009L0 174.0009z" />    </clipPath>
    <clipPath  id="3">

    <path id=""  clip-rule="evenodd" transform="matrix(1 0 0 1 0 0)"  d="M18.75 17.79001L155.25 17.79001L155.25 17.79001L155.25 155.04L155.25 155.04L18.75 155.04z" />    </clipPath>
</defs>

<g transform="matrix(1.3333 0 0 1.3333 0 0)">
	<g clip-path="url(#1)" >
		<g clip-path="url(#2)" >
    <path id=""  transform="matrix(1 0 0 -1 0 174)"  d="M0 174.96L174 174.96L174 174.96L174 0.2099915L174 0.2099915L0 0.2099915z" stroke="none" fill="#FFFFFF" fill-rule="nonzero" />
		</g>
		<g clip-path="url(#3)" >
    <path id=""  transform="matrix(1 0 0 -1 0 174)"  d="M109.376 110.2345L120.54 110.2345L120.54 110.2345L120.54 99.07043L120.54 99.07043L109.376 99.07043z" stroke="none" fill="#FFFFFF" fill-rule="nonzero" />
    <path id=""  transform="matrix(1 0 0 -1 0 174)"  d="M109.376 110.2345L120.54 110.2345L120.54 110.2345L120.54 99.07043L120.54 99.07043L109.376 99.07043z" stroke="#000000" stroke-width="0.5582014" stroke-linejoin="miter" fill="none" />
    <path id=""  transform="matrix(1 0 0 -1 0 174)"  d="M109.376 99.07043L120.54 99.07043L120.54 99.07043L120.54 87.90643L120.54 87.90643L109.376 87.90643z" stroke="none" fill="#FFFFFF" fill-rule="nonzero" />
    <path id=""  transform="matrix(1 0 0 -1 0 174)"  d="M109.376 99.07043L120.54 99.07043L120.54 99.07043L120.54 87.90643L120.54 87.90643L109.376 87.90643z" stroke="#000000" stroke-width="0.5582014" stroke-linejoin="miter" fill="none" />
    <path id=""  transform="matrix(1 0 0 -1 0 174)"  d="M109.376 87.90643L120.54 87.90643L120.54 87.90643L120.54 76.7424L120.54 76.7424L109.376 76.7424z" stroke="none" fill="#FFFFFF" fill-rule="nonzero" />
    <path id=""  transform="matrix(1 0 0 -1 0 174)"  d="M109.376 87.90643L120.54 87.90643L120.54 87.90643L120.54 76.7424L120.54 76.7424L109.376 76.7424z" stroke="#000000" stroke-width="0.5582014" stroke-linejoin="miter" fill="none" />
    <path id=""  transform="matrix(1 0 0 -1 0 174)"  d="M120.54 110.2345L131.7041 110.2345L131.7041 110.2345L131.7041 99.07043L131.7041 99.07043L120.54 99.07043z" stroke="none" fill="#CCCCCC" fill-rule="nonzero" />
    <path id=""  transform="matrix(1 0 0 -1 0 174)"  d="M120.54 110.2345L131.7041 110.2345L131.7041 110.2345L131.7041 99.07043L131.7041 99.07043L120.54 99.07043z" stroke="#000000" stroke-width="0.5582014" stroke-linejoin="miter" fill="none" />
    <path id=""  transform="matrix(1 0 0 -1 0 174)"  d="M120.54 99.07043L131.7041 99.07043L131.7041 99.07043L131.7041 87.90643L131.7041 87.90643L120.54 87.90643z" stroke="none" fill="#FFFFFF" fill-rule="nonzero" />
    <path id=""  transform="matrix(1 0 0 -1 0 174)"  d="M120.54 99.07043L131.7041 99.07043L131.7041 99.07043L131.7041 87.90643L131.7041 87.90643L120.54 87.90643z" stroke="#000000" stroke-width="0.5582014" stroke-linejoin="miter" fill="none" />
    <path id=""  transform="matrix(1 0 0 -1 0 174)"  d="M120.54 87.90643L131.7041 87.90643L131.7041 87.90643L131.7041 76.7424L131.7041 76.7424L120.54 76.7424z" stroke="none" fill="#FFFFFF" fill-rule="nonzero" />
    <path id=""  transform="matrix(1 0 0 -1 0 174)"  d="M120.54 87.90643L131.7041 87.90643L131.7041 87.90643L131.7041 76.7424L131.7041 76.7424L120.54 76.7424z" stroke="#000000" stroke-width="0.5582014" stroke-linejoin="miter" fill="none" />
    <path id=""  transform="matrix(1 0 0 -1 0 174)"  d="M131.7041 110.2345L142.8681 110.2345L142.8681 110.2345L142.8681 99.07043L142.8681 99.07043L131.7041 99.07043z" stroke="none" fill="#FFFFFF" fill-rule="nonzero" />
    <path id=""  transform="matrix(1 0 0 -1 0 174)"  d="M131.7041 110.2345L142.8681 110.2345L142.8681 110.2345L142.8681 99.07043L142.8681 99.07043L131.7041 99.07043z" stroke="#000000" stroke-width="0.5582014" stroke-linejoin="miter" fill="none" />
    <path id=""  transform="matrix(1 0 0 -1 0 174)"  d="M131.7041 99.07043L142.8681 99.07043L142.8681 99.07043L142.8681 87.90643L142.8681 87.90643L131.7041 87.90643z" stroke="none" fill="#CCCCCC" fill-rule="nonzero" />
    <path id=""  transform="matrix(1 0 0 -1 0 174)"  d="M131.7041 99.07043L142.8681 99.07043L142.8681 99.07043L142.8681 87.90643L142.8681 87.90643L131.7041 87.90643z" stroke="#000000" stroke-width="0.5582014" stroke-linejoin="miter" fill="none" />
    <path id=""  transform="matrix(1 0 0 -1 0 174)"  d="M131.7041 87.90643L142.8681 87.90643L142.8681 87.90643L142.8681 76.7424L142.8681 76.7424L131.7041 76.7424z" stroke="none" fill="#FFFFFF" fill-rule="nonzero" />
    <path id=""  transform="matrix(1 0 0 -1 0 174)"  d="M131.7041 87.90643L142.8681 87.90643L142.8681 87.90643L142.8681 76.7424L142.8681 76.7424L131.7041 76.7424z" stroke="#000000" stroke-width="0.5582014" stroke-linejoin="miter" fill="none" />
    <path id=""  transform="matrix(1 0 0 -1 0 174)"  d="M98.21201 110.2289L109.376 110.2289L109.376 110.2289L109.376 99.06491L109.376 99.06491L98.21201 99.06491z" stroke="none" fill="#FFFFFF" fill-rule="nonzero" />
    <path id=""  transform="matrix(1 0 0 -1 0 174)"  d="M98.21201 110.2289L109.376 110.2289L109.376 110.2289L109.376 99.06491L109.376 99.06491L98.21201 99.06491z" stroke="#000000" stroke-width="0.5582014" stroke-linejoin="miter" fill="none" />
    <path id=""  transform="matrix(1 0 0 -1 0 174)"  d="M98.21201 99.06491L109.376 99.06491L109.376 99.06491L109.376 87.90088L109.376 87.90088L98.21201 87.90088z" stroke="none" fill="#FFFFFF" fill-rule="nonzero" />
    <path id=""  transform="matrix(1 0 0 -1 0 174)"  d="M98.21201 99.06491L109.376 99.06491L109.376 99.06491L109.376 87.90088L109.376 87.90088L98.21201 87.90088z" stroke="#000000" stroke-width="0.5582014" stroke-linejoin="miter" fill="none" />
    <path id=""  transform="matrix(1 0 0 -1 0 174)"  d="M98.21201 87.90088L109.376 87.90088L109.376 87.90088L109.376 76.73685L109.376 76.73685L98.21201 76.73685z" stroke="none" fill="#FFFFFF" fill-rule="nonzero" />
    <path id=""  transform="matrix(1 0 0 -1 0 174)"  d="M98.21201 87.90088L109.376 87.90088L109.376 87.90088L109.376 76.73685L109.376 76.73685L98.21201 76.73685z" stroke="#000000" stroke-width="0.5582014" stroke-linejoin="miter" fill="none" />
    <path id=""  transform="matrix(1 0 0 -1 0 174)"  d="M142.8681 99.06491L154.0321 99.06491L154.0321 99.06491L154.0321 87.90088L154.0321 87.90088L142.8681 87.90088z" stroke="none" fill="#FFFFFF" fill-rule="nonzero" />
    <path id=""  transform="matrix(1 0 0 -1 0 174)"  d="M142.8681 99.06491L154.0321 99.06491L154.0321 99.06491L154.0321 87.90088L154.0321 87.90088L142.8681 87.90088z" stroke="#000000" stroke-width="0.5582014" stroke-linejoin="miter" fill="none" />
    <path id=""  transform="matrix(1 0 0 -1 0 174)"  d="M142.8681 121.3985L154.0321 121.3985L154.0321 121.3985L154.0321 110.2345L154.0321 110.2345L142.8681 110.2345z" stroke="none" fill="#FFFFFF" fill-rule="nonzero" />
    <path id=""  transform="matrix(1 0 0 -1 0 174)"  d="M142.8681 121.3985L154.0321 121.3985L154.0321 121.3985L154.0321 110.2345L154.0321 110.2345L142.8681 110.2345z" stroke="#000000" stroke-width="0.5582014" stroke-linejoin="miter" fill="none" />
    <path id=""  transform="matrix(1 0 0 -1 0 174)"  d="M142.8681 143.7266L154.0321 143.7266L154.0321 143.7266L154.0321 132.5625L154.0321 132.5625L142.8681 132.5625z" stroke="none" fill="#FFFFFF" fill-rule="nonzero" />
    <path id=""  transform="matrix(1 0 0 -1 0 174)"  d="M142.8681 143.7266L154.0321 143.7266L154.0321 143.7266L154.0321 132.5625L154.0321 132.5625L142.8681 132.5625z" stroke="#000000" stroke-width="0.5582014" stroke-linejoin="miter" fill="none" />
    <path id=""  transform="matrix(1 0 0 -1 0 174)"  d="M142.8681 87.90088L154.0321 87.90088L154.0321 87.90088L154.0321 76.73685L154.0321 76.73685L142.8681 76.73685z" stroke="none" fill="#CCCCCC" fill-rule="nonzero" />
    <path id=""  transform="matrix(1 0 0 -1 0 174)"  d="M142.8681 87.90088L154.0321 87.90088L154.0321 87.90088L154.0321 76.73685L154.0321 76.73685L142.8681 76.73685z" stroke="#000000" stroke-width="0.5582014" stroke-linejoin="miter" fill="none" />
    <path id=""  transform="matrix(1 0 0 -1 0 174)"  d="M142.8681 110.2289L154.0321 110.2289L154.0321 110.2289L154.0321 99.06491L154.0321 99.06491L142.8681 99.06491z" stroke="none" fill="#CCCCCC" fill-rule="nonzero" />
    <path id=""  transform="matrix(1 0 0 -1 0 174)"  d="M142.8681 110.2289L154.0321 110.2289L154.0321 110.2289L154.0321 99.06491L154.0321 99.06491L142.8681 99.06491z" stroke="#000000" stroke-width="0.5582014" stroke-linejoin="miter" fill="none" />
    <path id=""  transform="matrix(1 0 0 -1 0 174)"  d="M142.8681 132.5625L154.0321 132.5625L154.0321 132.5625L154.0321 121.3985L154.0321 121.3985L142.8681 121.3985z" stroke="none" fill="#CCCCCC" fill-rule="nonzero" />
    <path id=""  transform="matrix(1 0 0 -1 0 174)"  d="M142.8681 132.5625L154.0321 132.5625L154.0321 132.5625L154.0321 121.3985L154.0321 121.3985L142.8681 121.3985z" stroke="#000000" stroke-width="0.5582014" stroke-linejoin="miter" fill="none" />
    <path id=""  transform="matrix(1 0 0 -1 0 174)"  d="M98.21201 132.5625L109.376 132.5625L109.376 132.5625L109.376 121.3985L109.376 121.3985L98.21201 121.3985z" stroke="none" fill="#CCCCCC" fill-rule="nonzero" />
    <path id=""  transform="matrix(1 0 0 -1 0 174)"  d="M98.21201 132.5625L109.376 132.5625L109.376 132.5625L109.376 121.3985L109.376 121.3985L98.21201 121.3985z" stroke="#000000" stroke-width="0.5582014" stroke-linejoin="miter" fill="none" />
    <path id=""  transform="matrix(1 0 0 -1 0 174)"  d="M98.21201 121.3985L109.376 121.3985L109.376 121.3985L109.376 110.2345L109.376 110.2345L98.21201 110.2345z" stroke="none" fill="#FFFFFF" fill-rule="nonzero" />
    <path id=""  transform="matrix(1 0 0 -1 0 174)"  d="M98.21201 121.3985L109.376 121.3985L109.376 121.3985L109.376 110.2345L109.376 110.2345L98.21201 110.2345z" stroke="#000000" stroke-width="0.5582014" stroke-linejoin="miter" fill="none" />
    <path id=""  transform="matrix(1 0 0 -1 0 174)"  d="M98.21201 143.7266L109.376 143.7266L109.376 143.7266L109.376 132.5625L109.376 132.5625L98.21201 132.5625z" stroke="none" fill="#FFFFFF" fill-rule="nonzero" />
    <path id=""  transform="matrix(1 0 0 -1 0 174)"  d="M98.21201 143.7266L109.376 143.7266L109.376 143.7266L109.376 132.5625L109.376 132.5625L98.21201 132.5625z" stroke="#000000" stroke-width="0.5582014" stroke-linejoin="miter" fill="none" />
    <path id=""  transform="matrix(1 0 0 -1 0 174)"  d="M98.21201 154.8906L109.376 154.8906L109.376 154.8906L109.376 143.7266L109.376 143.7266L98.21201 143.7266z" stroke="none" fill="#CCCCCC" fill-rule="nonzero" />
    <path id=""  transform="matrix(1 0 0 -1 0 174)"  d="M98.21201 154.8906L109.376 154.8906L109.376 154.8906L109.376 143.7266L109.376 143.7266L98.21201 143.7266z" stroke="#000000" stroke-width="0.5582014" stroke-linejoin="miter" fill="none" />
    <path id=""  transform="matrix(1 0 0 -1 0 174)"  d="M109.376 132.5625L120.54 132.5625L120.54 132.5625L120.54 121.3985L120.54 121.3985L109.376 121.3985z" stroke="none" fill="#FFFFFF" fill-rule="nonzero" />
    <path id=""  transform="matrix(1 0 0 -1 0 174)"  d="M109.376 132.5625L120.54 132.5625L120.54 132.5625L120.54 121.3985L120.54 121.3985L109.376 121.3985z" stroke="#000000" stroke-width="0.5582014" stroke-linejoin="miter" fill="none" />
    <path id=""  transform="matrix(1 0 0 -1 0 174)"  d="M109.376 121.3985L120.54 121.3985L120.54 121.3985L120.54 110.2345L120.54 110.2345L109.376 110.2345z" stroke="none" fill="#CCCCCC" fill-rule="nonzero" />
    <path id=""  transform="matrix(1 0 0 -1 0 174)"  d="M109.376 121.3985L120.54 121.3985L120.54 121.3985L120.54 110.2345L120.54 110.2345L109.376 110.2345z" stroke="#000000" stroke-width="0.5582014" stroke-linejoin="miter" fill="none" />
    <path id=""  transform="matrix(1 0 0 -1 0 174)"  d="M109.376 143.7266L120.54 143.7266L120.54 143.7266L120.54 132.5625L120.54 132.5625L109.376 132.5625z" stroke="none" fill="#CCCCCC" fill-rule="nonzero" />
    <path id=""  transform="matrix(1 0 0 -1 0 174)"  d="M109.376 143.7266L120.54 143.7266L120.54 143.7266L120.54 132.5625L120.54 132.5625L109.376 132.5625z" stroke="#000000" stroke-width="0.5582014" stroke-linejoin="miter" fill="none" />
    <path id=""  transform="matrix(1 0 0 -1 0 174)"  d="M109.376 154.8906L120.54 154.8906L120.54 154.8906L120.54 143.7266L120.54 143.7266L109.376 143.7266z" stroke="none" fill="#FFFFFF" fill-rule="nonzero" />
    <path id=""  transform="matrix(1 0 0 -1 0 174)"  d="M109.376 154.8906L120.54 154.8906L120.54 154.8906L120.54 143.7266L120.54 143.7266L109.376 143.7266z" stroke="#000000" stroke-width="0.5582014" stroke-linejoin="miter" fill="none" />
    <path id=""  transform="matrix(1 0 0 -1 0 174)"  d="M120.54 132.5625L131.7041 132.5625L131.7041 132.5625L131.7041 121.3985L131.7041 121.3985L120.54 121.3985z" stroke="none" fill="#CCCCCC" fill-rule="nonzero" />
    <path id=""  transform="matrix(1 0 0 -1 0 174)"  d="M120.54 132.5625L131.7041 132.5625L131.7041 132.5625L131.7041 121.3985L131.7041 121.3985L120.54 121.3985z" stroke="#000000" stroke-width="0.5582014" stroke-linejoin="miter" fill="none" />
    <path id=""  transform="matrix(1 0 0 -1 0 174)"  d="M120.54 121.3985L131.7041 121.3985L131.7041 121.3985L131.7041 110.2345L131.7041 110.2345L120.54 110.2345z" stroke="none" fill="#FFFFFF" fill-rule="nonzero" />
    <path id=""  transform="matrix(1 0 0 -1 0 174)"  d="M120.54 121.3985L131.7041 121.3985L131.7041 121.3985L131.7041 110.2345L131.7041 110.2345L120.54 110.2345z" stroke="#000000" stroke-width="0.5582014" stroke-linejoin="miter" fill="none" />
    <path id=""  transform="matrix(1 0 0 -1 0 174)"  d="M120.54 143.7266L131.7041 143.7266L131.7041 143.7266L131.7041 132.5625L131.7041 132.5625L120.54 132.5625z" stroke="none" fill="#FFFFFF" fill-rule="nonzero" />
    <path id=""  transform="matrix(1 0 0 -1 0 174)"  d="M120.54 143.7266L131.7041 143.7266L131.7041 143.7266L131.7041 132.5625L131.7041 132.5625L120.54 132.5625z" stroke="#000000" stroke-width="0.5582014" stroke-linejoin="miter" fill="none" />
    <path id=""  transform="matrix(1 0 0 -1 0 174)"  d="M120.54 154.8906L131.7041 154.8906L131.7041 154.8906L131.7041 143.7266L131.7041 143.7266L120.54 143.7266z" stroke="none" fill="#CCCCCC" fill-rule="nonzero" />
    <path id=""  transform="matrix(1 0 0 -1 0 174)"  d="M120.54 154.8906L131.7041 154.8906L131.7041 154.8906L131.7041 143.7266L131.7041 143.7266L120.54 143.7266z" stroke="#000000" stroke-width="0.5582014" stroke-linejoin="miter" fill="none" />
    <path id=""  transform="matrix(1 0 0 -1 0 174)"  d="M131.7041 132.5625L142.8681 132.5625L142.8681 132.5625L142.8681 121.3985L142.8681 121.3985L131.7041 121.3985z" stroke="none" fill="#FFFFFF" fill-rule="nonzero" />
    <path id=""  transform="matrix(1 0 0 -1 0 174)"  d="M131.7041 132.5625L142.8681 132.5625L142.8681 132.5625L142.8681 121.3985L142.8681 121.3985L131.7041 121.3985z" stroke="#000000" stroke-width="0.5582014" stroke-linejoin="miter" fill="none" />
    <path id=""  transform="matrix(1 0 0 -1 0 174)"  d="M131.7041 121.3985L142.8681 121.3985L142.8681 121.3985L142.8681 110.2345L142.8681 110.2345L131.7041 110.2345z" stroke="none" fill="#CCCCCC" fill-rule="nonzero" />
    <path id=""  transform="matrix(1 0 0 -1 0 174)"  d="M131.7041 121.3985L142.8681 121.3985L142.8681 121.3985L142.8681 110.2345L142.8681 110.2345L131.7041 110.2345z" stroke="#000000" stroke-width="0.5582014" stroke-linejoin="miter" fill="none" />
    <path id=""  transform="matrix(1 0 0 -1 0 174)"  d="M131.7041 143.7266L142.8681 143.7266L142.8681 143.7266L142.8681 132.5625L142.8681 132.5625L131.7041 132.5625z" stroke="none" fill="#CCCCCC" fill-rule="nonzero" />
    <path id=""  transform="matrix(1 0 0 -1 0 174)"  d="M131.7041 143.7266L142.8681 143.7266L142.8681 143.7266L142.8681 132.5625L142.8681 132.5625L131.7041 132.5625z" stroke="#000000" stroke-width="0.5582014" stroke-linejoin="miter" fill="none" />
    <path id=""  transform="matrix(1 0 0 -1 0 174)"  d="M131.7041 154.8906L142.8681 154.8906L142.8681 154.8906L142.8681 143.7266L142.8681 143.7266L131.7041 143.7266z" stroke="none" fill="#FFFFFF" fill-rule="nonzero" />
    <path id=""  transform="matrix(1 0 0 -1 0 174)"  d="M131.7041 154.8906L142.8681 154.8906L142.8681 154.8906L142.8681 143.7266L142.8681 143.7266L131.7041 143.7266z" stroke="#000000" stroke-width="0.5582014" stroke-linejoin="miter" fill="none" />
    <path id=""  transform="matrix(1 0 0 -1 0 174)"  d="M109.376 76.73685L120.54 76.73685L120.54 76.73685L120.54 65.57281L120.54 65.57281L109.376 65.57281z" stroke="none" fill="#FFFFFF" fill-rule="nonzero" />
    <path id=""  transform="matrix(1 0 0 -1 0 174)"  d="M109.376 76.73685L120.54 76.73685L120.54 76.73685L120.54 65.57281L120.54 65.57281L109.376 65.57281z" stroke="#000000" stroke-width="0.5582014" stroke-linejoin="miter" fill="none" />
    <path id=""  transform="matrix(1 0 0 -1 0 174)"  d="M109.376 65.57281L120.54 65.57281L120.54 65.57281L120.54 54.40878L120.54 54.40878L109.376 54.40878z" stroke="none" fill="#FFFFFF" fill-rule="nonzero" />
    <path id=""  transform="matrix(1 0 0 -1 0 174)"  d="M109.376 65.57281L120.54 65.57281L120.54 65.57281L120.54 54.40878L120.54 54.40878L109.376 54.40878z" stroke="#000000" stroke-width="0.5582014" stroke-linejoin="miter" fill="none" />
    <path id=""  transform="matrix(1 0 0 -1 0 174)"  d="M120.54 76.73685L131.7041 76.73685L131.7041 76.73685L131.7041 65.57281L131.7041 65.57281L120.54 65.57281z" stroke="none" fill="#FFFFFF" fill-rule="nonzero" />
    <path id=""  transform="matrix(1 0 0 -1 0 174)"  d="M120.54 76.73685L131.7041 76.73685L131.7041 76.73685L131.7041 65.57281L131.7041 65.57281L120.54 65.57281z" stroke="#000000" stroke-width="0.5582014" stroke-linejoin="miter" fill="none" />
    <path id=""  transform="matrix(1 0 0 -1 0 174)"  d="M120.54 65.57281L131.7041 65.57281L131.7041 65.57281L131.7041 54.40878L131.7041 54.40878L120.54 54.40878z" stroke="none" fill="#FFFFFF" fill-rule="nonzero" />
    <path id=""  transform="matrix(1 0 0 -1 0 174)"  d="M120.54 65.57281L131.7041 65.57281L131.7041 65.57281L131.7041 54.40878L131.7041 54.40878L120.54 54.40878z" stroke="#000000" stroke-width="0.5582014" stroke-linejoin="miter" fill="none" />
    <path id=""  transform="matrix(1 0 0 -1 0 174)"  d="M131.7041 76.73685L142.8681 76.73685L142.8681 76.73685L142.8681 65.57281L142.8681 65.57281L131.7041 65.57281z" stroke="none" fill="#FFFFFF" fill-rule="nonzero" />
    <path id=""  transform="matrix(1 0 0 -1 0 174)"  d="M131.7041 76.73685L142.8681 76.73685L142.8681 76.73685L142.8681 65.57281L142.8681 65.57281L131.7041 65.57281z" stroke="#000000" stroke-width="0.5582014" stroke-linejoin="miter" fill="none" />
    <path id=""  transform="matrix(1 0 0 -1 0 174)"  d="M131.7041 65.57281L142.8681 65.57281L142.8681 65.57281L142.8681 54.40878L142.8681 54.40878L131.7041 54.40878z" stroke="none" fill="#FFFFFF" fill-rule="nonzero" />
    <path id=""  transform="matrix(1 0 0 -1 0 174)"  d="M131.7041 65.57281L142.8681 65.57281L142.8681 65.57281L142.8681 54.40878L142.8681 54.40878L131.7041 54.40878z" stroke="#000000" stroke-width="0.5582014" stroke-linejoin="miter" fill="none" />
    <path id=""  transform="matrix(1 0 0 -1 0 174)"  d="M98.21201 76.73126L109.376 76.73126L109.376 76.73126L109.376 65.56723L109.376 65.56723L98.21201 65.56723z" stroke="none" fill="#FFFFFF" fill-rule="nonzero" />
    <path id=""  transform="matrix(1 0 0 -1 0 174)"  d="M98.21201 76.73126L109.376 76.73126L109.376 76.73126L109.376 65.56723L109.376 65.56723L98.21201 65.56723z" stroke="#000000" stroke-width="0.5582014" stroke-linejoin="miter" fill="none" />
    <path id=""  transform="matrix(1 0 0 -1 0 174)"  d="M98.21201 65.56723L109.376 65.56723L109.376 65.56723L109.376 54.4032L109.376 54.4032L98.21201 54.4032z" stroke="none" fill="#FFFFFF" fill-rule="nonzero" />
    <path id=""  transform="matrix(1 0 0 -1 0 174)"  d="M98.21201 65.56723L109.376 65.56723L109.376 65.56723L109.376 54.4032L109.376 54.4032L98.21201 54.4032z" stroke="#000000" stroke-width="0.5582014" stroke-linejoin="miter" fill="none" />
    <path id=""  transform="matrix(1 0 0 -1 0 174)"  d="M142.8681 76.73126L154.0321 76.73126L154.0321 76.73126L154.0321 65.56723L154.0321 65.56723L142.8681 65.56723z" stroke="none" fill="#FFFFFF" fill-rule="nonzero" />
    <path id=""  transform="matrix(1 0 0 -1 0 174)"  d="M142.8681 76.73126L154.0321 76.73126L154.0321 76.73126L154.0321 65.56723L154.0321 65.56723L142.8681 65.56723z" stroke="#000000" stroke-width="0.5582014" stroke-linejoin="miter" fill="none" />
    <path id=""  transform="matrix(1 0 0 -1 0 174)"  d="M142.8681 65.56723L154.0321 65.56723L154.0321 65.56723L154.0321 54.4032L154.0321 54.4032L142.8681 54.4032z" stroke="none" fill="#FFFFFF" fill-rule="nonzero" />
    <path id=""  transform="matrix(1 0 0 -1 0 174)"  d="M142.8681 65.56723L154.0321 65.56723L154.0321 65.56723L154.0321 54.4032L154.0321 54.4032L142.8681 54.4032z" stroke="#000000" stroke-width="0.5582014" stroke-linejoin="miter" fill="none" />
    <path id=""  transform="matrix(1 0 0 -1 0 174)"  d="M109.376 54.42551L120.54 54.42551L120.54 54.42551L120.54 43.26147L120.54 43.26147L109.376 43.26147z" stroke="none" fill="#FFFFFF" fill-rule="nonzero" />
    <path id=""  transform="matrix(1 0 0 -1 0 174)"  d="M109.376 54.42551L120.54 54.42551L120.54 54.42551L120.54 43.26147L120.54 43.26147L109.376 43.26147z" stroke="#000000" stroke-width="0.5582014" stroke-linejoin="miter" fill="none" />
    <path id=""  transform="matrix(1 0 0 -1 0 174)"  d="M120.54 54.42551L131.7041 54.42551L131.7041 54.42551L131.7041 43.26147L131.7041 43.26147L120.54 43.26147z" stroke="none" fill="#FFFFFF" fill-rule="nonzero" />
    <path id=""  transform="matrix(1 0 0 -1 0 174)"  d="M120.54 54.42551L131.7041 54.42551L131.7041 54.42551L131.7041 43.26147L131.7041 43.26147L120.54 43.26147z" stroke="#000000" stroke-width="0.5582014" stroke-linejoin="miter" fill="none" />
    <path id=""  transform="matrix(1 0 0 -1 0 174)"  d="M131.7041 54.42551L142.8681 54.42551L142.8681 54.42551L142.8681 43.26147L142.8681 43.26147L131.7041 43.26147z" stroke="none" fill="#FFFFFF" fill-rule="nonzero" />
    <path id=""  transform="matrix(1 0 0 -1 0 174)"  d="M131.7041 54.42551L142.8681 54.42551L142.8681 54.42551L142.8681 43.26147L142.8681 43.26147L131.7041 43.26147z" stroke="#000000" stroke-width="0.5582014" stroke-linejoin="miter" fill="none" />
    <path id=""  transform="matrix(1 0 0 -1 0 174)"  d="M98.21201 54.41992L109.376 54.41992L109.376 54.41992L109.376 43.25589L109.376 43.25589L98.21201 43.25589z" stroke="none" fill="#FFFFFF" fill-rule="nonzero" />
    <path id=""  transform="matrix(1 0 0 -1 0 174)"  d="M98.21201 54.41992L109.376 54.41992L109.376 54.41992L109.376 43.25589L109.376 43.25589L98.21201 43.25589z" stroke="#000000" stroke-width="0.5582014" stroke-linejoin="miter" fill="none" />
    <path id=""  transform="matrix(1 0 0 -1 0 174)"  d="M142.8681 54.41992L154.0321 54.41992L154.0321 54.41992L154.0321 43.25589L154.0321 43.25589L142.8681 43.25589z" stroke="none" fill="#FFFFFF" fill-rule="nonzero" />
    <path id=""  transform="matrix(1 0 0 -1 0 174)"  d="M142.8681 54.41992L154.0321 54.41992L154.0321 54.41992L154.0321 43.25589L154.0321 43.25589L142.8681 43.25589z" stroke="#000000" stroke-width="0.5582014" stroke-linejoin="miter" fill="none" />
    <path id=""  transform="matrix(1 0 0 -1 0 174)"  d="M109.376 43.25589L120.54 43.25589L120.54 43.25589L120.54 32.09186L120.54 32.09186L109.376 32.09186z" stroke="none" fill="#FFFFFF" fill-rule="nonzero" />
    <path id=""  transform="matrix(1 0 0 -1 0 174)"  d="M109.376 43.25589L120.54 43.25589L120.54 43.25589L120.54 32.09186L120.54 32.09186L109.376 32.09186z" stroke="#000000" stroke-width="0.5582014" stroke-linejoin="miter" fill="none" />
    <path id=""  transform="matrix(1 0 0 -1 0 174)"  d="M109.376 32.09186L120.54 32.09186L120.54 32.09186L120.54 20.92786L120.54 20.92786L109.376 20.92786z" stroke="none" fill="#FFFFFF" fill-rule="nonzero" />
    <path id=""  transform="matrix(1 0 0 -1 0 174)"  d="M109.376 32.09186L120.54 32.09186L120.54 32.09186L120.54 20.92786L120.54 20.92786L109.376 20.92786z" stroke="#000000" stroke-width="0.5582014" stroke-linejoin="miter" fill="none" />
    <path id=""  transform="matrix(1 0 0 -1 0 174)"  d="M120.54 43.25589L131.7041 43.25589L131.7041 43.25589L131.7041 32.09186L131.7041 32.09186L120.54 32.09186z" stroke="none" fill="#FFFFFF" fill-rule="nonzero" />
    <path id=""  transform="matrix(1 0 0 -1 0 174)"  d="M120.54 43.25589L131.7041 43.25589L131.7041 43.25589L131.7041 32.09186L131.7041 32.09186L120.54 32.09186z" stroke="#000000" stroke-width="0.5582014" stroke-linejoin="miter" fill="none" />
    <path id=""  transform="matrix(1 0 0 -1 0 174)"  d="M120.54 32.09186L131.7041 32.09186L131.7041 32.09186L131.7041 20.92786L131.7041 20.92786L120.54 20.92786z" stroke="none" fill="#FFFFFF" fill-rule="nonzero" />
    <path id=""  transform="matrix(1 0 0 -1 0 174)"  d="M120.54 32.09186L131.7041 32.09186L131.7041 32.09186L131.7041 20.92786L131.7041 20.92786L120.54 20.92786z" stroke="#000000" stroke-width="0.5582014" stroke-linejoin="miter" fill="none" />
    <path id=""  transform="matrix(1 0 0 -1 0 174)"  d="M131.7041 43.25589L142.8681 43.25589L142.8681 43.25589L142.8681 32.09186L142.8681 32.09186L131.7041 32.09186z" stroke="none" fill="#FFFFFF" fill-rule="nonzero" />
    <path id=""  transform="matrix(1 0 0 -1 0 174)"  d="M131.7041 43.25589L142.8681 43.25589L142.8681 43.25589L142.8681 32.09186L142.8681 32.09186L131.7041 32.09186z" stroke="#000000" stroke-width="0.5582014" stroke-linejoin="miter" fill="none" />
    <path id=""  transform="matrix(1 0 0 -1 0 174)"  d="M131.7041 32.09186L142.8681 32.09186L142.8681 32.09186L142.8681 20.92786L142.8681 20.92786L131.7041 20.92786z" stroke="none" fill="#FFFFFF" fill-rule="nonzero" />
    <path id=""  transform="matrix(1 0 0 -1 0 174)"  d="M131.7041 32.09186L142.8681 32.09186L142.8681 32.09186L142.8681 20.92786L142.8681 20.92786L131.7041 20.92786z" stroke="#000000" stroke-width="0.5582014" stroke-linejoin="miter" fill="none" />
    <path id=""  transform="matrix(1 0 0 -1 0 174)"  d="M98.21201 43.25031L109.376 43.25031L109.376 43.25031L109.376 32.08627L109.376 32.08627L98.21201 32.08627z" stroke="none" fill="#FFFFFF" fill-rule="nonzero" />
    <path id=""  transform="matrix(1 0 0 -1 0 174)"  d="M98.21201 43.25031L109.376 43.25031L109.376 43.25031L109.376 32.08627L109.376 32.08627L98.21201 32.08627z" stroke="#000000" stroke-width="0.5582014" stroke-linejoin="miter" fill="none" />
    <path id=""  transform="matrix(1 0 0 -1 0 174)"  d="M98.21201 32.08627L109.376 32.08627L109.376 32.08627L109.376 20.92227L109.376 20.92227L98.21201 20.92227z" stroke="none" fill="#FFFFFF" fill-rule="nonzero" />
    <path id=""  transform="matrix(1 0 0 -1 0 174)"  d="M98.21201 32.08627L109.376 32.08627L109.376 32.08627L109.376 20.92227L109.376 20.92227L98.21201 20.92227z" stroke="#000000" stroke-width="0.5582014" stroke-linejoin="miter" fill="none" />
    <path id=""  transform="matrix(1 0 0 -1 0 174)"  d="M142.8681 43.25031L154.0321 43.25031L154.0321 43.25031L154.0321 32.08627L154.0321 32.08627L142.8681 32.08627z" stroke="none" fill="#FFFFFF" fill-rule="nonzero" />
    <path id=""  transform="matrix(1 0 0 -1 0 174)"  d="M142.8681 43.25031L154.0321 43.25031L154.0321 43.25031L154.0321 32.08627L154.0321 32.08627L142.8681 32.08627z" stroke="#000000" stroke-width="0.5582014" stroke-linejoin="miter" fill="none" />
    <path id=""  transform="matrix(1 0 0 -1 0 174)"  d="M142.8681 32.08627L154.0321 32.08627L154.0321 32.08627L154.0321 20.92227L154.0321 20.92227L142.8681 20.92227z" stroke="none" fill="#FFFFFF" fill-rule="nonzero" />
    <path id=""  transform="matrix(1 0 0 -1 0 174)"  d="M142.8681 32.08627L154.0321 32.08627L154.0321 32.08627L154.0321 20.92227L154.0321 20.92227L142.8681 20.92227z" stroke="#000000" stroke-width="0.5582014" stroke-linejoin="miter" fill="none" />
    <path id=""  transform="matrix(1 0 0 -1 0 174)"  d="M142.8681 154.8906L154.0321 154.8906L154.0321 154.8906L154.0321 143.7266L154.0321 143.7266L142.8681 143.7266z" stroke="none" fill="#CCCCCC" fill-rule="nonzero" />
    <path id=""  transform="matrix(1 0 0 -1 0 174)"  d="M142.8681 154.8906L154.0321 154.8906L154.0321 154.8906L154.0321 143.7266L154.0321 143.7266L142.8681 143.7266z" stroke="#000000" stroke-width="0.5582014" stroke-linejoin="miter" fill="none" />
    <path id=""  transform="matrix(1 0 0 -1 0 174)"  d="M53.55588 110.2401L64.71991 110.2401L64.71991 110.2401L64.71991 99.07605L64.71991 99.07605L53.55588 99.07605z" stroke="none" fill="#FFFFFF" fill-rule="nonzero" />
    <path id=""  transform="matrix(1 0 0 -1 0 174)"  d="M53.55588 110.2401L64.71991 110.2401L64.71991 110.2401L64.71991 99.07605L64.71991 99.07605L53.55588 99.07605z" stroke="#000000" stroke-width="0.5582014" stroke-linejoin="miter" fill="none" />
    <path id=""  transform="matrix(1 0 0 -1 0 174)"  d="M53.55588 99.07605L64.71991 99.07605L64.71991 99.07605L64.71991 87.91202L64.71991 87.91202L53.55588 87.91202z" stroke="none" fill="#FFFFFF" fill-rule="nonzero" />
    <path id=""  transform="matrix(1 0 0 -1 0 174)"  d="M53.55588 99.07605L64.71991 99.07605L64.71991 99.07605L64.71991 87.91202L64.71991 87.91202L53.55588 87.91202z" stroke="#000000" stroke-width="0.5582014" stroke-linejoin="miter" fill="none" />
    <path id=""  transform="matrix(1 0 0 -1 0 174)"  d="M53.55588 87.91202L64.71991 87.91202L64.71991 87.91202L64.71991 76.74799L64.71991 76.74799L53.55588 76.74799z" stroke="none" fill="#FFFFFF" fill-rule="nonzero" />
    <path id=""  transform="matrix(1 0 0 -1 0 174)"  d="M53.55588 87.91202L64.71991 87.91202L64.71991 87.91202L64.71991 76.74799L64.71991 76.74799L53.55588 76.74799z" stroke="#000000" stroke-width="0.5582014" stroke-linejoin="miter" fill="none" />
    <path id=""  transform="matrix(1 0 0 -1 0 174)"  d="M64.71991 110.2401L75.88394 110.2401L75.88394 110.2401L75.88394 99.07605L75.88394 99.07605L64.71991 99.07605z" stroke="none" fill="#FFFFFF" fill-rule="nonzero" />
    <path id=""  transform="matrix(1 0 0 -1 0 174)"  d="M64.71991 110.2401L75.88394 110.2401L75.88394 110.2401L75.88394 99.07605L75.88394 99.07605L64.71991 99.07605z" stroke="#000000" stroke-width="0.5582014" stroke-linejoin="miter" fill="none" />
    <path id=""  transform="matrix(1 0 0 -1 0 174)"  d="M64.71991 99.07605L75.88394 99.07605L75.88394 99.07605L75.88394 87.91202L75.88394 87.91202L64.71991 87.91202z" stroke="none" fill="#FFFFFF" fill-rule="nonzero" />
    <path id=""  transform="matrix(1 0 0 -1 0 174)"  d="M64.71991 99.07605L75.88394 99.07605L75.88394 99.07605L75.88394 87.91202L75.88394 87.91202L64.71991 87.91202z" stroke="#000000" stroke-width="0.5582014" stroke-linejoin="miter" fill="none" />
    <path id=""  transform="matrix(1 0 0 -1 0 174)"  d="M64.71991 87.91202L75.88394 87.91202L75.88394 87.91202L75.88394 76.74799L75.88394 76.74799L64.71991 76.74799z" stroke="none" fill="#FFFFFF" fill-rule="nonzero" />
    <path id=""  transform="matrix(1 0 0 -1 0 174)"  d="M64.71991 87.91202L75.88394 87.91202L75.88394 87.91202L75.88394 76.74799L75.88394 76.74799L64.71991 76.74799z" stroke="#000000" stroke-width="0.5582014" stroke-linejoin="miter" fill="none" />
    <path id=""  transform="matrix(1 0 0 -1 0 174)"  d="M75.88394 110.2401L87.04797 110.2401L87.04797 110.2401L87.04797 99.07605L87.04797 99.07605L75.88394 99.07605z" stroke="none" fill="#FFFFFF" fill-rule="nonzero" />
    <path id=""  transform="matrix(1 0 0 -1 0 174)"  d="M75.88394 110.2401L87.04797 110.2401L87.04797 110.2401L87.04797 99.07605L87.04797 99.07605L75.88394 99.07605z" stroke="#000000" stroke-width="0.5582014" stroke-linejoin="miter" fill="none" />
    <path id=""  transform="matrix(1 0 0 -1 0 174)"  d="M75.88394 99.07605L87.04797 99.07605L87.04797 99.07605L87.04797 87.91202L87.04797 87.91202L75.88394 87.91202z" stroke="none" fill="#FFFFFF" fill-rule="nonzero" />
    <path id=""  transform="matrix(1 0 0 -1 0 174)"  d="M75.88394 99.07605L87.04797 99.07605L87.04797 99.07605L87.04797 87.91202L87.04797 87.91202L75.88394 87.91202z" stroke="#000000" stroke-width="0.5582014" stroke-linejoin="miter" fill="none" />
    <path id=""  transform="matrix(1 0 0 -1 0 174)"  d="M75.88394 87.91202L87.04797 87.91202L87.04797 87.91202L87.04797 76.74799L87.04797 76.74799L75.88394 76.74799z" stroke="none" fill="#FFFFFF" fill-rule="nonzero" />
    <path id=""  transform="matrix(1 0 0 -1 0 174)"  d="M75.88394 87.91202L87.04797 87.91202L87.04797 87.91202L87.04797 76.74799L87.04797 76.74799L75.88394 76.74799z" stroke="#000000" stroke-width="0.5582014" stroke-linejoin="miter" fill="none" />
    <path id=""  transform="matrix(1 0 0 -1 0 174)"  d="M42.39185 110.2345L53.55588 110.2345L53.55588 110.2345L53.55588 99.07043L53.55588 99.07043L42.39185 99.07043z" stroke="none" fill="#FFFFFF" fill-rule="nonzero" />
    <path id=""  transform="matrix(1 0 0 -1 0 174)"  d="M42.39185 110.2345L53.55588 110.2345L53.55588 110.2345L53.55588 99.07043L53.55588 99.07043L42.39185 99.07043z" stroke="#000000" stroke-width="0.5582014" stroke-linejoin="miter" fill="none" />
    <path id=""  transform="matrix(1 0 0 -1 0 174)"  d="M42.39185 99.07043L53.55588 99.07043L53.55588 99.07043L53.55588 87.90643L53.55588 87.90643L42.39185 87.90643z" stroke="none" fill="#FFFFFF" fill-rule="nonzero" />
    <path id=""  transform="matrix(1 0 0 -1 0 174)"  d="M42.39185 99.07043L53.55588 99.07043L53.55588 99.07043L53.55588 87.90643L53.55588 87.90643L42.39185 87.90643z" stroke="#000000" stroke-width="0.5582014" stroke-linejoin="miter" fill="none" />
    <path id=""  transform="matrix(1 0 0 -1 0 174)"  d="M42.39185 87.90643L53.55588 87.90643L53.55588 87.90643L53.55588 76.7424L53.55588 76.7424L42.39185 76.7424z" stroke="none" fill="#FFFFFF" fill-rule="nonzero" />
    <path id=""  transform="matrix(1 0 0 -1 0 174)"  d="M42.39185 87.90643L53.55588 87.90643L53.55588 87.90643L53.55588 76.7424L53.55588 76.7424L42.39185 76.7424z" stroke="#000000" stroke-width="0.5582014" stroke-linejoin="miter" fill="none" />
    <path id=""  transform="matrix(1 0 0 -1 0 174)"  d="M87.04797 99.07043L98.21201 99.07043L98.21201 99.07043L98.21201 87.90643L98.21201 87.90643L87.04797 87.90643z" stroke="none" fill="#FFFFFF" fill-rule="nonzero" />
    <path id=""  transform="matrix(1 0 0 -1 0 174)"  d="M87.04797 99.07043L98.21201 99.07043L98.21201 99.07043L98.21201 87.90643L98.21201 87.90643L87.04797 87.90643z" stroke="#000000" stroke-width="0.5582014" stroke-linejoin="miter" fill="none" />
    <path id=""  transform="matrix(1 0 0 -1 0 174)"  d="M87.04797 121.4041L98.21201 121.4041L98.21201 121.4041L98.21201 110.2401L98.21201 110.2401L87.04797 110.2401z" stroke="none" fill="#FFFFFF" fill-rule="nonzero" />
    <path id=""  transform="matrix(1 0 0 -1 0 174)"  d="M87.04797 121.4041L98.21201 121.4041L98.21201 121.4041L98.21201 110.2401L98.21201 110.2401L87.04797 110.2401z" stroke="#000000" stroke-width="0.5582014" stroke-linejoin="miter" fill="none" />
    <path id=""  transform="matrix(1 0 0 -1 0 174)"  d="M87.04797 143.7321L98.21201 143.7321L98.21201 143.7321L98.21201 132.5681L98.21201 132.5681L87.04797 132.5681z" stroke="none" fill="#CCCCCC" fill-rule="nonzero" />
    <path id=""  transform="matrix(1 0 0 -1 0 174)"  d="M87.04797 143.7321L98.21201 143.7321L98.21201 143.7321L98.21201 132.5681L98.21201 132.5681L87.04797 132.5681z" stroke="#000000" stroke-width="0.5582014" stroke-linejoin="miter" fill="none" />
    <path id=""  transform="matrix(1 0 0 -1 0 174)"  d="M87.04797 87.90643L98.21201 87.90643L98.21201 87.90643L98.21201 76.7424L98.21201 76.7424L87.04797 76.7424z" stroke="none" fill="#FFFFFF" fill-rule="nonzero" />
    <path id=""  transform="matrix(1 0 0 -1 0 174)"  d="M87.04797 87.90643L98.21201 87.90643L98.21201 87.90643L98.21201 76.7424L98.21201 76.7424L87.04797 76.7424z" stroke="#000000" stroke-width="0.5582014" stroke-linejoin="miter" fill="none" />
    <path id=""  transform="matrix(1 0 0 -1 0 174)"  d="M87.04797 110.2345L98.21201 110.2345L98.21201 110.2345L98.21201 99.07043L98.21201 99.07043L87.04797 99.07043z" stroke="none" fill="#FFFFFF" fill-rule="nonzero" />
    <path id=""  transform="matrix(1 0 0 -1 0 174)"  d="M87.04797 110.2345L98.21201 110.2345L98.21201 110.2345L98.21201 99.07043L98.21201 99.07043L87.04797 99.07043z" stroke="#000000" stroke-width="0.5582014" stroke-linejoin="miter" fill="none" />
    <path id=""  transform="matrix(1 0 0 -1 0 174)"  d="M87.04797 132.5681L98.21201 132.5681L98.21201 132.5681L98.21201 121.4041L98.21201 121.4041L87.04797 121.4041z" stroke="none" fill="#FFFFFF" fill-rule="nonzero" />
    <path id=""  transform="matrix(1 0 0 -1 0 174)"  d="M87.04797 132.5681L98.21201 132.5681L98.21201 132.5681L98.21201 121.4041L98.21201 121.4041L87.04797 121.4041z" stroke="#000000" stroke-width="0.5582014" stroke-linejoin="miter" fill="none" />
    <path id=""  transform="matrix(1 0 0 -1 0 174)"  d="M42.39185 132.5681L53.55588 132.5681L53.55588 132.5681L53.55588 121.4041L53.55588 121.4041L42.39185 121.4041z" stroke="none" fill="#FFFFFF" fill-rule="nonzero" />
    <path id=""  transform="matrix(1 0 0 -1 0 174)"  d="M42.39185 132.5681L53.55588 132.5681L53.55588 132.5681L53.55588 121.4041L53.55588 121.4041L42.39185 121.4041z" stroke="#000000" stroke-width="0.5582014" stroke-linejoin="miter" fill="none" />
    <path id=""  transform="matrix(1 0 0 -1 0 174)"  d="M42.39185 121.4041L53.55588 121.4041L53.55588 121.4041L53.55588 110.2401L53.55588 110.2401L42.39185 110.2401z" stroke="none" fill="#FFFFFF" fill-rule="nonzero" />
    <path id=""  transform="matrix(1 0 0 -1 0 174)"  d="M42.39185 121.4041L53.55588 121.4041L53.55588 121.4041L53.55588 110.2401L53.55588 110.2401L42.39185 110.2401z" stroke="#000000" stroke-width="0.5582014" stroke-linejoin="miter" fill="none" />
    <path id=""  transform="matrix(1 0 0 -1 0 174)"  d="M42.39185 143.7321L53.55588 143.7321L53.55588 143.7321L53.55588 132.5681L53.55588 132.5681L42.39185 132.5681z" stroke="none" fill="#FFFFFF" fill-rule="nonzero" />
    <path id=""  transform="matrix(1 0 0 -1 0 174)"  d="M42.39185 143.7321L53.55588 143.7321L53.55588 143.7321L53.55588 132.5681L53.55588 132.5681L42.39185 132.5681z" stroke="#000000" stroke-width="0.5582014" stroke-linejoin="miter" fill="none" />
    <path id=""  transform="matrix(1 0 0 -1 0 174)"  d="M42.39185 154.8962L53.55588 154.8962L53.55588 154.8962L53.55588 143.7321L53.55588 143.7321L42.39185 143.7321z" stroke="none" fill="#FFFFFF" fill-rule="nonzero" />
    <path id=""  transform="matrix(1 0 0 -1 0 174)"  d="M42.39185 154.8962L53.55588 154.8962L53.55588 154.8962L53.55588 143.7321L53.55588 143.7321L42.39185 143.7321z" stroke="#000000" stroke-width="0.5582014" stroke-linejoin="miter" fill="none" />
    <path id=""  transform="matrix(1 0 0 -1 0 174)"  d="M53.55588 132.5681L64.71991 132.5681L64.71991 132.5681L64.71991 121.4041L64.71991 121.4041L53.55588 121.4041z" stroke="none" fill="#FFFFFF" fill-rule="nonzero" />
    <path id=""  transform="matrix(1 0 0 -1 0 174)"  d="M53.55588 132.5681L64.71991 132.5681L64.71991 132.5681L64.71991 121.4041L64.71991 121.4041L53.55588 121.4041z" stroke="#000000" stroke-width="0.5582014" stroke-linejoin="miter" fill="none" />
    <path id=""  transform="matrix(1 0 0 -1 0 174)"  d="M53.55588 121.4041L64.71991 121.4041L64.71991 121.4041L64.71991 110.2401L64.71991 110.2401L53.55588 110.2401z" stroke="none" fill="#FFFFFF" fill-rule="nonzero" />
    <path id=""  transform="matrix(1 0 0 -1 0 174)"  d="M53.55588 121.4041L64.71991 121.4041L64.71991 121.4041L64.71991 110.2401L64.71991 110.2401L53.55588 110.2401z" stroke="#000000" stroke-width="0.5582014" stroke-linejoin="miter" fill="none" />
    <path id=""  transform="matrix(1 0 0 -1 0 174)"  d="M53.55588 143.7321L64.71991 143.7321L64.71991 143.7321L64.71991 132.5681L64.71991 132.5681L53.55588 132.5681z" stroke="none" fill="#FFFFFF" fill-rule="nonzero" />
    <path id=""  transform="matrix(1 0 0 -1 0 174)"  d="M53.55588 143.7321L64.71991 143.7321L64.71991 143.7321L64.71991 132.5681L64.71991 132.5681L53.55588 132.5681z" stroke="#000000" stroke-width="0.5582014" stroke-linejoin="miter" fill="none" />
    <path id=""  transform="matrix(1 0 0 -1 0 174)"  d="M53.55588 154.8962L64.71991 154.8962L64.71991 154.8962L64.71991 143.7321L64.71991 143.7321L53.55588 143.7321z" stroke="none" fill="#FFFFFF" fill-rule="nonzero" />
    <path id=""  transform="matrix(1 0 0 -1 0 174)"  d="M53.55588 154.8962L64.71991 154.8962L64.71991 154.8962L64.71991 143.7321L64.71991 143.7321L53.55588 143.7321z" stroke="#000000" stroke-width="0.5582014" stroke-linejoin="miter" fill="none" />
    <path id=""  transform="matrix(1 0 0 -1 0 174)"  d="M64.71991 132.5681L75.88394 132.5681L75.88394 132.5681L75.88394 121.4041L75.88394 121.4041L64.71991 121.4041z" stroke="none" fill="#FFFFFF" fill-rule="nonzero" />
    <path id=""  transform="matrix(1 0 0 -1 0 174)"  d="M64.71991 132.5681L75.88394 132.5681L75.88394 132.5681L75.88394 121.4041L75.88394 121.4041L64.71991 121.4041z" stroke="#000000" stroke-width="0.5582014" stroke-linejoin="miter" fill="none" />
    <path id=""  transform="matrix(1 0 0 -1 0 174)"  d="M64.71991 121.4041L75.88394 121.4041L75.88394 121.4041L75.88394 110.2401L75.88394 110.2401L64.71991 110.2401z" stroke="none" fill="#FFFFFF" fill-rule="nonzero" />
    <path id=""  transform="matrix(1 0 0 -1 0 174)"  d="M64.71991 121.4041L75.88394 121.4041L75.88394 121.4041L75.88394 110.2401L75.88394 110.2401L64.71991 110.2401z" stroke="#000000" stroke-width="0.5582014" stroke-linejoin="miter" fill="none" />
    <path id=""  transform="matrix(1 0 0 -1 0 174)"  d="M64.71991 143.7321L75.88394 143.7321L75.88394 143.7321L75.88394 132.5681L75.88394 132.5681L64.71991 132.5681z" stroke="none" fill="#FFFFFF" fill-rule="nonzero" />
    <path id=""  transform="matrix(1 0 0 -1 0 174)"  d="M64.71991 143.7321L75.88394 143.7321L75.88394 143.7321L75.88394 132.5681L75.88394 132.5681L64.71991 132.5681z" stroke="#000000" stroke-width="0.5582014" stroke-linejoin="miter" fill="none" />
    <path id=""  transform="matrix(1 0 0 -1 0 174)"  d="M64.71991 154.8962L75.88394 154.8962L75.88394 154.8962L75.88394 143.7321L75.88394 143.7321L64.71991 143.7321z" stroke="none" fill="#FFFFFF" fill-rule="nonzero" />
    <path id=""  transform="matrix(1 0 0 -1 0 174)"  d="M64.71991 154.8962L75.88394 154.8962L75.88394 154.8962L75.88394 143.7321L75.88394 143.7321L64.71991 143.7321z" stroke="#000000" stroke-width="0.5582014" stroke-linejoin="miter" fill="none" />
    <path id=""  transform="matrix(1 0 0 -1 0 174)"  d="M75.88394 132.5681L87.04797 132.5681L87.04797 132.5681L87.04797 121.4041L87.04797 121.4041L75.88394 121.4041z" stroke="none" fill="#FFFFFF" fill-rule="nonzero" />
    <path id=""  transform="matrix(1 0 0 -1 0 174)"  d="M75.88394 132.5681L87.04797 132.5681L87.04797 132.5681L87.04797 121.4041L87.04797 121.4041L75.88394 121.4041z" stroke="#000000" stroke-width="0.5582014" stroke-linejoin="miter" fill="none" />
    <path id=""  transform="matrix(1 0 0 -1 0 174)"  d="M75.88394 121.4041L87.04797 121.4041L87.04797 121.4041L87.04797 110.2401L87.04797 110.2401L75.88394 110.2401z" stroke="none" fill="#FFFFFF" fill-rule="nonzero" />
    <path id=""  transform="matrix(1 0 0 -1 0 174)"  d="M75.88394 121.4041L87.04797 121.4041L87.04797 121.4041L87.04797 110.2401L87.04797 110.2401L75.88394 110.2401z" stroke="#000000" stroke-width="0.5582014" stroke-linejoin="miter" fill="none" />
    <path id=""  transform="matrix(1 0 0 -1 0 174)"  d="M75.88394 143.7321L87.04797 143.7321L87.04797 143.7321L87.04797 132.5681L87.04797 132.5681L75.88394 132.5681z" stroke="none" fill="#FFFFFF" fill-rule="nonzero" />
    <path id=""  transform="matrix(1 0 0 -1 0 174)"  d="M75.88394 143.7321L87.04797 143.7321L87.04797 143.7321L87.04797 132.5681L87.04797 132.5681L75.88394 132.5681z" stroke="#000000" stroke-width="0.5582014" stroke-linejoin="miter" fill="none" />
    <path id=""  transform="matrix(1 0 0 -1 0 174)"  d="M75.88394 154.8962L87.04797 154.8962L87.04797 154.8962L87.04797 143.7321L87.04797 143.7321L75.88394 143.7321z" stroke="none" fill="#CCCCCC" fill-rule="nonzero" />
    <path id=""  transform="matrix(1 0 0 -1 0 174)"  d="M75.88394 154.8962L87.04797 154.8962L87.04797 154.8962L87.04797 143.7321L87.04797 143.7321L75.88394 143.7321z" stroke="#000000" stroke-width="0.5582014" stroke-linejoin="miter" fill="none" />
    <path id=""  transform="matrix(1 0 0 -1 0 174)"  d="M53.55588 76.7424L64.71991 76.7424L64.71991 76.7424L64.71991 65.57837L64.71991 65.57837L53.55588 65.57837z" stroke="none" fill="#FFFFFF" fill-rule="nonzero" />
    <path id=""  transform="matrix(1 0 0 -1 0 174)"  d="M53.55588 76.7424L64.71991 76.7424L64.71991 76.7424L64.71991 65.57837L64.71991 65.57837L53.55588 65.57837z" stroke="#000000" stroke-width="0.5582014" stroke-linejoin="miter" fill="none" />
    <path id=""  transform="matrix(1 0 0 -1 0 174)"  d="M53.55588 65.57837L64.71991 65.57837L64.71991 65.57837L64.71991 54.41434L64.71991 54.41434L53.55588 54.41434z" stroke="none" fill="#FFFFFF" fill-rule="nonzero" />
    <path id=""  transform="matrix(1 0 0 -1 0 174)"  d="M53.55588 65.57837L64.71991 65.57837L64.71991 65.57837L64.71991 54.41434L64.71991 54.41434L53.55588 54.41434z" stroke="#000000" stroke-width="0.5582014" stroke-linejoin="miter" fill="none" />
    <path id=""  transform="matrix(1 0 0 -1 0 174)"  d="M64.71991 76.7424L75.88394 76.7424L75.88394 76.7424L75.88394 65.57837L75.88394 65.57837L64.71991 65.57837z" stroke="none" fill="#FFFFFF" fill-rule="nonzero" />
    <path id=""  transform="matrix(1 0 0 -1 0 174)"  d="M64.71991 76.7424L75.88394 76.7424L75.88394 76.7424L75.88394 65.57837L75.88394 65.57837L64.71991 65.57837z" stroke="#000000" stroke-width="0.5582014" stroke-linejoin="miter" fill="none" />
    <path id=""  transform="matrix(1 0 0 -1 0 174)"  d="M64.71991 65.57837L75.88394 65.57837L75.88394 65.57837L75.88394 54.41434L75.88394 54.41434L64.71991 54.41434z" stroke="none" fill="#FFFFFF" fill-rule="nonzero" />
    <path id=""  transform="matrix(1 0 0 -1 0 174)"  d="M64.71991 65.57837L75.88394 65.57837L75.88394 65.57837L75.88394 54.41434L75.88394 54.41434L64.71991 54.41434z" stroke="#000000" stroke-width="0.5582014" stroke-linejoin="miter" fill="none" />
    <path id=""  transform="matrix(1 0 0 -1 0 174)"  d="M75.88394 76.7424L87.04797 76.7424L87.04797 76.7424L87.04797 65.57837L87.04797 65.57837L75.88394 65.57837z" stroke="none" fill="#FFFFFF" fill-rule="nonzero" />
    <path id=""  transform="matrix(1 0 0 -1 0 174)"  d="M75.88394 76.7424L87.04797 76.7424L87.04797 76.7424L87.04797 65.57837L87.04797 65.57837L75.88394 65.57837z" stroke="#000000" stroke-width="0.5582014" stroke-linejoin="miter" fill="none" />
    <path id=""  transform="matrix(1 0 0 -1 0 174)"  d="M75.88394 65.57837L87.04797 65.57837L87.04797 65.57837L87.04797 54.41434L87.04797 54.41434L75.88394 54.41434z" stroke="none" fill="#FFFFFF" fill-rule="nonzero" />
    <path id=""  transform="matrix(1 0 0 -1 0 174)"  d="M75.88394 65.57837L87.04797 65.57837L87.04797 65.57837L87.04797 54.41434L87.04797 54.41434L75.88394 54.41434z" stroke="#000000" stroke-width="0.5582014" stroke-linejoin="miter" fill="none" />
    <path id=""  transform="matrix(1 0 0 -1 0 174)"  d="M42.39185 76.73685L53.55588 76.73685L53.55588 76.73685L53.55588 65.57281L53.55588 65.57281L42.39185 65.57281z" stroke="none" fill="#FFFFFF" fill-rule="nonzero" />
    <path id=""  transform="matrix(1 0 0 -1 0 174)"  d="M42.39185 76.73685L53.55588 76.73685L53.55588 76.73685L53.55588 65.57281L53.55588 65.57281L42.39185 65.57281z" stroke="#000000" stroke-width="0.5582014" stroke-linejoin="miter" fill="none" />
    <path id=""  transform="matrix(1 0 0 -1 0 174)"  d="M42.39185 65.57281L53.55588 65.57281L53.55588 65.57281L53.55588 54.40878L53.55588 54.40878L42.39185 54.40878z" stroke="none" fill="#FFFFFF" fill-rule="nonzero" />
    <path id=""  transform="matrix(1 0 0 -1 0 174)"  d="M42.39185 65.57281L53.55588 65.57281L53.55588 65.57281L53.55588 54.40878L53.55588 54.40878L42.39185 54.40878z" stroke="#000000" stroke-width="0.5582014" stroke-linejoin="miter" fill="none" />
    <path id=""  transform="matrix(1 0 0 -1 0 174)"  d="M87.04797 76.73685L98.21201 76.73685L98.21201 76.73685L98.21201 65.57281L98.21201 65.57281L87.04797 65.57281z" stroke="none" fill="#FFFFFF" fill-rule="nonzero" />
    <path id=""  transform="matrix(1 0 0 -1 0 174)"  d="M87.04797 76.73685L98.21201 76.73685L98.21201 76.73685L98.21201 65.57281L98.21201 65.57281L87.04797 65.57281z" stroke="#000000" stroke-width="0.5582014" stroke-linejoin="miter" fill="none" />
    <path id=""  transform="matrix(1 0 0 -1 0 174)"  d="M87.04797 65.57281L98.21201 65.57281L98.21201 65.57281L98.21201 54.40878L98.21201 54.40878L87.04797 54.40878z" stroke="none" fill="#FFFFFF" fill-rule="nonzero" />
    <path id=""  transform="matrix(1 0 0 -1 0 174)"  d="M87.04797 65.57281L98.21201 65.57281L98.21201 65.57281L98.21201 54.40878L98.21201 54.40878L87.04797 54.40878z" stroke="#000000" stroke-width="0.5582014" stroke-linejoin="miter" fill="none" />
    <path id=""  transform="matrix(1 0 0 -1 0 174)"  d="M53.55588 54.43109L64.71991 54.43109L64.71991 54.43109L64.71991 43.26709L64.71991 43.26709L53.55588 43.26709z" stroke="none" fill="#FFFFFF" fill-rule="nonzero" />
    <path id=""  transform="matrix(1 0 0 -1 0 174)"  d="M53.55588 54.43109L64.71991 54.43109L64.71991 54.43109L64.71991 43.26709L64.71991 43.26709L53.55588 43.26709z" stroke="#000000" stroke-width="0.5582014" stroke-linejoin="miter" fill="none" />
    <path id=""  transform="matrix(1 0 0 -1 0 174)"  d="M64.71991 54.43109L75.88394 54.43109L75.88394 54.43109L75.88394 43.26709L75.88394 43.26709L64.71991 43.26709z" stroke="none" fill="#FFFFFF" fill-rule="nonzero" />
    <path id=""  transform="matrix(1 0 0 -1 0 174)"  d="M64.71991 54.43109L75.88394 54.43109L75.88394 54.43109L75.88394 43.26709L75.88394 43.26709L64.71991 43.26709z" stroke="#000000" stroke-width="0.5582014" stroke-linejoin="miter" fill="none" />
    <path id=""  transform="matrix(1 0 0 -1 0 174)"  d="M75.88394 54.43109L87.04797 54.43109L87.04797 54.43109L87.04797 43.26709L87.04797 43.26709L75.88394 43.26709z" stroke="none" fill="#FFFFFF" fill-rule="nonzero" />
    <path id=""  transform="matrix(1 0 0 -1 0 174)"  d="M75.88394 54.43109L87.04797 54.43109L87.04797 54.43109L87.04797 43.26709L87.04797 43.26709L75.88394 43.26709z" stroke="#000000" stroke-width="0.5582014" stroke-linejoin="miter" fill="none" />
    <path id=""  transform="matrix(1 0 0 -1 0 174)"  d="M42.39185 54.42551L53.55588 54.42551L53.55588 54.42551L53.55588 43.26147L53.55588 43.26147L42.39185 43.26147z" stroke="none" fill="#FFFFFF" fill-rule="nonzero" />
    <path id=""  transform="matrix(1 0 0 -1 0 174)"  d="M42.39185 54.42551L53.55588 54.42551L53.55588 54.42551L53.55588 43.26147L53.55588 43.26147L42.39185 43.26147z" stroke="#000000" stroke-width="0.5582014" stroke-linejoin="miter" fill="none" />
    <path id=""  transform="matrix(1 0 0 -1 0 174)"  d="M87.04797 54.42551L98.21201 54.42551L98.21201 54.42551L98.21201 43.26147L98.21201 43.26147L87.04797 43.26147z" stroke="none" fill="#FFFFFF" fill-rule="nonzero" />
    <path id=""  transform="matrix(1 0 0 -1 0 174)"  d="M87.04797 54.42551L98.21201 54.42551L98.21201 54.42551L98.21201 43.26147L98.21201 43.26147L87.04797 43.26147z" stroke="#000000" stroke-width="0.5582014" stroke-linejoin="miter" fill="none" />
    <path id=""  transform="matrix(1 0 0 -1 0 174)"  d="M53.55588 43.26147L64.71991 43.26147L64.71991 43.26147L64.71991 32.09747L64.71991 32.09747L53.55588 32.09747z" stroke="none" fill="#FFFFFF" fill-rule="nonzero" />
    <path id=""  transform="matrix(1 0 0 -1 0 174)"  d="M53.55588 43.26147L64.71991 43.26147L64.71991 43.26147L64.71991 32.09747L64.71991 32.09747L53.55588 32.09747z" stroke="#000000" stroke-width="0.5582014" stroke-linejoin="miter" fill="none" />
    <path id=""  transform="matrix(1 0 0 -1 0 174)"  d="M53.55588 32.09747L64.71991 32.09747L64.71991 32.09747L64.71991 20.93344L64.71991 20.93344L53.55588 20.93344z" stroke="none" fill="#FFFFFF" fill-rule="nonzero" />
    <path id=""  transform="matrix(1 0 0 -1 0 174)"  d="M53.55588 32.09747L64.71991 32.09747L64.71991 32.09747L64.71991 20.93344L64.71991 20.93344L53.55588 20.93344z" stroke="#000000" stroke-width="0.5582014" stroke-linejoin="miter" fill="none" />
    <path id=""  transform="matrix(1 0 0 -1 0 174)"  d="M64.71991 43.26147L75.88394 43.26147L75.88394 43.26147L75.88394 32.09747L75.88394 32.09747L64.71991 32.09747z" stroke="none" fill="#FFFFFF" fill-rule="nonzero" />
    <path id=""  transform="matrix(1 0 0 -1 0 174)"  d="M64.71991 43.26147L75.88394 43.26147L75.88394 43.26147L75.88394 32.09747L75.88394 32.09747L64.71991 32.09747z" stroke="#000000" stroke-width="0.5582014" stroke-linejoin="miter" fill="none" />
    <path id=""  transform="matrix(1 0 0 -1 0 174)"  d="M64.71991 32.09747L75.88394 32.09747L75.88394 32.09747L75.88394 20.93344L75.88394 20.93344L64.71991 20.93344z" stroke="none" fill="#FFFFFF" fill-rule="nonzero" />
    <path id=""  transform="matrix(1 0 0 -1 0 174)"  d="M64.71991 32.09747L75.88394 32.09747L75.88394 32.09747L75.88394 20.93344L75.88394 20.93344L64.71991 20.93344z" stroke="#000000" stroke-width="0.5582014" stroke-linejoin="miter" fill="none" />
    <path id=""  transform="matrix(1 0 0 -1 0 174)"  d="M75.88394 43.26147L87.04797 43.26147L87.04797 43.26147L87.04797 32.09747L87.04797 32.09747L75.88394 32.09747z" stroke="none" fill="#FFFFFF" fill-rule="nonzero" />
    <path id=""  transform="matrix(1 0 0 -1 0 174)"  d="M75.88394 43.26147L87.04797 43.26147L87.04797 43.26147L87.04797 32.09747L87.04797 32.09747L75.88394 32.09747z" stroke="#000000" stroke-width="0.5582014" stroke-linejoin="miter" fill="none" />
    <path id=""  transform="matrix(1 0 0 -1 0 174)"  d="M75.88394 32.09747L87.04797 32.09747L87.04797 32.09747L87.04797 20.93344L87.04797 20.93344L75.88394 20.93344z" stroke="none" fill="#FFFFFF" fill-rule="nonzero" />
    <path id=""  transform="matrix(1 0 0 -1 0 174)"  d="M75.88394 32.09747L87.04797 32.09747L87.04797 32.09747L87.04797 20.93344L87.04797 20.93344L75.88394 20.93344z" stroke="#000000" stroke-width="0.5582014" stroke-linejoin="miter" fill="none" />
    <path id=""  transform="matrix(1 0 0 -1 0 174)"  d="M42.39185 43.25589L53.55588 43.25589L53.55588 43.25589L53.55588 32.09186L53.55588 32.09186L42.39185 32.09186z" stroke="none" fill="#FFFFFF" fill-rule="nonzero" />
    <path id=""  transform="matrix(1 0 0 -1 0 174)"  d="M42.39185 43.25589L53.55588 43.25589L53.55588 43.25589L53.55588 32.09186L53.55588 32.09186L42.39185 32.09186z" stroke="#000000" stroke-width="0.5582014" stroke-linejoin="miter" fill="none" />
    <path id=""  transform="matrix(1 0 0 -1 0 174)"  d="M42.39185 32.09186L53.55588 32.09186L53.55588 32.09186L53.55588 20.92786L53.55588 20.92786L42.39185 20.92786z" stroke="none" fill="#FFFFFF" fill-rule="nonzero" />
    <path id=""  transform="matrix(1 0 0 -1 0 174)"  d="M42.39185 32.09186L53.55588 32.09186L53.55588 32.09186L53.55588 20.92786L53.55588 20.92786L42.39185 20.92786z" stroke="#000000" stroke-width="0.5582014" stroke-linejoin="miter" fill="none" />
    <path id=""  transform="matrix(1 0 0 -1 0 174)"  d="M87.04797 43.25589L98.21201 43.25589L98.21201 43.25589L98.21201 32.09186L98.21201 32.09186L87.04797 32.09186z" stroke="none" fill="#FFFFFF" fill-rule="nonzero" />
    <path id=""  transform="matrix(1 0 0 -1 0 174)"  d="M87.04797 43.25589L98.21201 43.25589L98.21201 43.25589L98.21201 32.09186L98.21201 32.09186L87.04797 32.09186z" stroke="#000000" stroke-width="0.5582014" stroke-linejoin="miter" fill="none" />
    <path id=""  transform="matrix(1 0 0 -1 0 174)"  d="M87.04797 32.09186L98.21201 32.09186L98.21201 32.09186L98.21201 20.92786L98.21201 20.92786L87.04797 20.92786z" stroke="none" fill="#FFFFFF" fill-rule="nonzero" />
    <path id=""  transform="matrix(1 0 0 -1 0 174)"  d="M87.04797 32.09186L98.21201 32.09186L98.21201 32.09186L98.21201 20.92786L98.21201 20.92786L87.04797 20.92786z" stroke="#000000" stroke-width="0.5582014" stroke-linejoin="miter" fill="none" />
    <path id=""  transform="matrix(1 0 0 -1 0 174)"  d="M87.04797 154.8962L98.21201 154.8962L98.21201 154.8962L98.21201 143.7321L98.21201 143.7321L87.04797 143.7321z" stroke="none" fill="#FFFFFF" fill-rule="nonzero" />
    <path id=""  transform="matrix(1 0 0 -1 0 174)"  d="M87.04797 154.8962L98.21201 154.8962L98.21201 154.8962L98.21201 143.7321L98.21201 143.7321L87.04797 143.7321z" stroke="#000000" stroke-width="0.5582014" stroke-linejoin="miter" fill="none" />
    <path id=""  transform="matrix(1 0 0 -1 0 174)"  d="M31.22784 110.2457L42.39185 110.2457L42.39185 110.2457L42.39185 99.08163L42.39185 99.08163L31.22784 99.08163z" stroke="none" fill="#FFFFFF" fill-rule="nonzero" />
    <path id=""  transform="matrix(1 0 0 -1 0 174)"  d="M31.22784 110.2457L42.39185 110.2457L42.39185 110.2457L42.39185 99.08163L42.39185 99.08163L31.22784 99.08163z" stroke="#000000" stroke-width="0.5582014" stroke-linejoin="miter" fill="none" />
    <path id=""  transform="matrix(1 0 0 -1 0 174)"  d="M31.22784 99.08163L42.39185 99.08163L42.39185 99.08163L42.39185 87.9176L42.39185 87.9176L31.22784 87.9176z" stroke="none" fill="#FFFFFF" fill-rule="nonzero" />
    <path id=""  transform="matrix(1 0 0 -1 0 174)"  d="M31.22784 99.08163L42.39185 99.08163L42.39185 99.08163L42.39185 87.9176L42.39185 87.9176L31.22784 87.9176z" stroke="#000000" stroke-width="0.5582014" stroke-linejoin="miter" fill="none" />
    <path id=""  transform="matrix(1 0 0 -1 0 174)"  d="M31.22784 87.9176L42.39185 87.9176L42.39185 87.9176L42.39185 76.75357L42.39185 76.75357L31.22784 76.75357z" stroke="none" fill="#FFFFFF" fill-rule="nonzero" />
    <path id=""  transform="matrix(1 0 0 -1 0 174)"  d="M31.22784 87.9176L42.39185 87.9176L42.39185 87.9176L42.39185 76.75357L42.39185 76.75357L31.22784 76.75357z" stroke="#000000" stroke-width="0.5582014" stroke-linejoin="miter" fill="none" />
    <path id=""  transform="matrix(1 0 0 -1 0 174)"  d="M20.06381 110.2401L31.22784 110.2401L31.22784 110.2401L31.22784 99.07605L31.22784 99.07605L20.06381 99.07605z" stroke="none" fill="#FFFFFF" fill-rule="nonzero" />
    <path id=""  transform="matrix(1 0 0 -1 0 174)"  d="M20.06381 110.2401L31.22784 110.2401L31.22784 110.2401L31.22784 99.07605L31.22784 99.07605L20.06381 99.07605z" stroke="#000000" stroke-width="0.5582014" stroke-linejoin="miter" fill="none" />
    <path id=""  transform="matrix(1 0 0 -1 0 174)"  d="M20.06381 99.07605L31.22784 99.07605L31.22784 99.07605L31.22784 87.91202L31.22784 87.91202L20.06381 87.91202z" stroke="none" fill="#FFFFFF" fill-rule="nonzero" />
    <path id=""  transform="matrix(1 0 0 -1 0 174)"  d="M20.06381 99.07605L31.22784 99.07605L31.22784 99.07605L31.22784 87.91202L31.22784 87.91202L20.06381 87.91202z" stroke="#000000" stroke-width="0.5582014" stroke-linejoin="miter" fill="none" />
    <path id=""  transform="matrix(1 0 0 -1 0 174)"  d="M20.06381 87.91202L31.22784 87.91202L31.22784 87.91202L31.22784 76.74799L31.22784 76.74799L20.06381 76.74799z" stroke="none" fill="#FFFFFF" fill-rule="nonzero" />
    <path id=""  transform="matrix(1 0 0 -1 0 174)"  d="M20.06381 87.91202L31.22784 87.91202L31.22784 87.91202L31.22784 76.74799L31.22784 76.74799L20.06381 76.74799z" stroke="#000000" stroke-width="0.5582014" stroke-linejoin="miter" fill="none" />
    <path id=""  transform="matrix(1 0 0 -1 0 174)"  d="M20.06381 132.5737L31.22784 132.5737L31.22784 132.5737L31.22784 121.4097L31.22784 121.4097L20.06381 121.4097z" stroke="none" fill="#FFFFFF" fill-rule="nonzero" />
    <path id=""  transform="matrix(1 0 0 -1 0 174)"  d="M20.06381 132.5737L31.22784 132.5737L31.22784 132.5737L31.22784 121.4097L31.22784 121.4097L20.06381 121.4097z" stroke="#000000" stroke-width="0.5582014" stroke-linejoin="miter" fill="none" />
    <path id=""  transform="matrix(1 0 0 -1 0 174)"  d="M20.06381 121.4097L31.22784 121.4097L31.22784 121.4097L31.22784 110.2457L31.22784 110.2457L20.06381 110.2457z" stroke="none" fill="#FFFFFF" fill-rule="nonzero" />
    <path id=""  transform="matrix(1 0 0 -1 0 174)"  d="M20.06381 121.4097L31.22784 121.4097L31.22784 121.4097L31.22784 110.2457L31.22784 110.2457L20.06381 110.2457z" stroke="#000000" stroke-width="0.5582014" stroke-linejoin="miter" fill="none" />
    <path id=""  transform="matrix(1 0 0 -1 0 174)"  d="M20.06381 143.7377L31.22784 143.7377L31.22784 143.7377L31.22784 132.5737L31.22784 132.5737L20.06381 132.5737z" stroke="none" fill="#FFFFFF" fill-rule="nonzero" />
    <path id=""  transform="matrix(1 0 0 -1 0 174)"  d="M20.06381 143.7377L31.22784 143.7377L31.22784 143.7377L31.22784 132.5737L31.22784 132.5737L20.06381 132.5737z" stroke="#000000" stroke-width="0.5582014" stroke-linejoin="miter" fill="none" />
    <path id=""  transform="matrix(1 0 0 -1 0 174)"  d="M20.06381 154.9018L31.22784 154.9018L31.22784 154.9018L31.22784 143.7377L31.22784 143.7377L20.06381 143.7377z" stroke="none" fill="#FFFFFF" fill-rule="nonzero" />
    <path id=""  transform="matrix(1 0 0 -1 0 174)"  d="M20.06381 154.9018L31.22784 154.9018L31.22784 154.9018L31.22784 143.7377L31.22784 143.7377L20.06381 143.7377z" stroke="#000000" stroke-width="0.5582014" stroke-linejoin="miter" fill="none" />
    <path id=""  transform="matrix(1 0 0 -1 0 174)"  d="M31.22784 132.5737L42.39185 132.5737L42.39185 132.5737L42.39185 121.4097L42.39185 121.4097L31.22784 121.4097z" stroke="none" fill="#FFFFFF" fill-rule="nonzero" />
    <path id=""  transform="matrix(1 0 0 -1 0 174)"  d="M31.22784 132.5737L42.39185 132.5737L42.39185 132.5737L42.39185 121.4097L42.39185 121.4097L31.22784 121.4097z" stroke="#000000" stroke-width="0.5582014" stroke-linejoin="miter" fill="none" />
    <path id=""  transform="matrix(1 0 0 -1 0 174)"  d="M31.22784 121.4097L42.39185 121.4097L42.39185 121.4097L42.39185 110.2457L42.39185 110.2457L31.22784 110.2457z" stroke="none" fill="#FFFFFF" fill-rule="nonzero" />
    <path id=""  transform="matrix(1 0 0 -1 0 174)"  d="M31.22784 121.4097L42.39185 121.4097L42.39185 121.4097L42.39185 110.2457L42.39185 110.2457L31.22784 110.2457z" stroke="#000000" stroke-width="0.5582014" stroke-linejoin="miter" fill="none" />
    <path id=""  transform="matrix(1 0 0 -1 0 174)"  d="M31.22784 143.7377L42.39185 143.7377L42.39185 143.7377L42.39185 132.5737L42.39185 132.5737L31.22784 132.5737z" stroke="none" fill="#FFFFFF" fill-rule="nonzero" />
    <path id=""  transform="matrix(1 0 0 -1 0 174)"  d="M31.22784 143.7377L42.39185 143.7377L42.39185 143.7377L42.39185 132.5737L42.39185 132.5737L31.22784 132.5737z" stroke="#000000" stroke-width="0.5582014" stroke-linejoin="miter" fill="none" />
    <path id=""  transform="matrix(1 0 0 -1 0 174)"  d="M31.22784 154.9018L42.39185 154.9018L42.39185 154.9018L42.39185 143.7377L42.39185 143.7377L31.22784 143.7377z" stroke="none" fill="#FFFFFF" fill-rule="nonzero" />
    <path id=""  transform="matrix(1 0 0 -1 0 174)"  d="M31.22784 154.9018L42.39185 154.9018L42.39185 154.9018L42.39185 143.7377L42.39185 143.7377L31.22784 143.7377z" stroke="#000000" stroke-width="0.5582014" stroke-linejoin="miter" fill="none" />
    <path id=""  transform="matrix(1 0 0 -1 0 174)"  d="M31.22784 76.74799L42.39185 76.74799L42.39185 76.74799L42.39185 65.58395L42.39185 65.58395L31.22784 65.58395z" stroke="none" fill="#FFFFFF" fill-rule="nonzero" />
    <path id=""  transform="matrix(1 0 0 -1 0 174)"  d="M31.22784 76.74799L42.39185 76.74799L42.39185 76.74799L42.39185 65.58395L42.39185 65.58395L31.22784 65.58395z" stroke="#000000" stroke-width="0.5582014" stroke-linejoin="miter" fill="none" />
    <path id=""  transform="matrix(1 0 0 -1 0 174)"  d="M31.22784 65.58395L42.39185 65.58395L42.39185 65.58395L42.39185 54.41992L42.39185 54.41992L31.22784 54.41992z" stroke="none" fill="#FFFFFF" fill-rule="nonzero" />
    <path id=""  transform="matrix(1 0 0 -1 0 174)"  d="M31.22784 65.58395L42.39185 65.58395L42.39185 65.58395L42.39185 54.41992L42.39185 54.41992L31.22784 54.41992z" stroke="#000000" stroke-width="0.5582014" stroke-linejoin="miter" fill="none" />
    <path id=""  transform="matrix(1 0 0 -1 0 174)"  d="M20.06381 76.7424L31.22784 76.7424L31.22784 76.7424L31.22784 65.57837L31.22784 65.57837L20.06381 65.57837z" stroke="none" fill="#FFFFFF" fill-rule="nonzero" />
    <path id=""  transform="matrix(1 0 0 -1 0 174)"  d="M20.06381 76.7424L31.22784 76.7424L31.22784 76.7424L31.22784 65.57837L31.22784 65.57837L20.06381 65.57837z" stroke="#000000" stroke-width="0.5582014" stroke-linejoin="miter" fill="none" />
    <path id=""  transform="matrix(1 0 0 -1 0 174)"  d="M20.06381 65.57837L31.22784 65.57837L31.22784 65.57837L31.22784 54.41434L31.22784 54.41434L20.06381 54.41434z" stroke="none" fill="#FFFFFF" fill-rule="nonzero" />
    <path id=""  transform="matrix(1 0 0 -1 0 174)"  d="M20.06381 65.57837L31.22784 65.57837L31.22784 65.57837L31.22784 54.41434L31.22784 54.41434L20.06381 54.41434z" stroke="#000000" stroke-width="0.5582014" stroke-linejoin="miter" fill="none" />
    <path id=""  transform="matrix(1 0 0 -1 0 174)"  d="M31.22784 54.43668L42.39185 54.43668L42.39185 54.43668L42.39185 43.27267L42.39185 43.27267L31.22784 43.27267z" stroke="none" fill="#FFFFFF" fill-rule="nonzero" />
    <path id=""  transform="matrix(1 0 0 -1 0 174)"  d="M31.22784 54.43668L42.39185 54.43668L42.39185 54.43668L42.39185 43.27267L42.39185 43.27267L31.22784 43.27267z" stroke="#000000" stroke-width="0.5582014" stroke-linejoin="miter" fill="none" />
    <path id=""  transform="matrix(1 0 0 -1 0 174)"  d="M20.06381 54.43109L31.22784 54.43109L31.22784 54.43109L31.22784 43.26709L31.22784 43.26709L20.06381 43.26709z" stroke="none" fill="#FFFFFF" fill-rule="nonzero" />
    <path id=""  transform="matrix(1 0 0 -1 0 174)"  d="M20.06381 54.43109L31.22784 54.43109L31.22784 54.43109L31.22784 43.26709L31.22784 43.26709L20.06381 43.26709z" stroke="#000000" stroke-width="0.5582014" stroke-linejoin="miter" fill="none" />
    <path id=""  transform="matrix(1 0 0 -1 0 174)"  d="M31.22784 43.26709L42.39185 43.26709L42.39185 43.26709L42.39185 32.10306L42.39185 32.10306L31.22784 32.10306z" stroke="none" fill="#FFFFFF" fill-rule="nonzero" />
    <path id=""  transform="matrix(1 0 0 -1 0 174)"  d="M31.22784 43.26709L42.39185 43.26709L42.39185 43.26709L42.39185 32.10306L42.39185 32.10306L31.22784 32.10306z" stroke="#000000" stroke-width="0.5582014" stroke-linejoin="miter" fill="none" />
    <path id=""  transform="matrix(1 0 0 -1 0 174)"  d="M31.22784 32.10306L42.39185 32.10306L42.39185 32.10306L42.39185 20.93903L42.39185 20.93903L31.22784 20.93903z" stroke="none" fill="#FFFFFF" fill-rule="nonzero" />
    <path id=""  transform="matrix(1 0 0 -1 0 174)"  d="M31.22784 32.10306L42.39185 32.10306L42.39185 32.10306L42.39185 20.93903L42.39185 20.93903L31.22784 20.93903z" stroke="#000000" stroke-width="0.5582014" stroke-linejoin="miter" fill="none" />
    <path id=""  transform="matrix(1 0 0 -1 0 174)"  d="M20.06381 43.26147L31.22784 43.26147L31.22784 43.26147L31.22784 32.09747L31.22784 32.09747L20.06381 32.09747z" stroke="none" fill="#FFFFFF" fill-rule="nonzero" />
    <path id=""  transform="matrix(1 0 0 -1 0 174)"  d="M20.06381 43.26147L31.22784 43.26147L31.22784 43.26147L31.22784 32.09747L31.22784 32.09747L20.06381 32.09747z" stroke="#000000" stroke-width="0.5582014" stroke-linejoin="miter" fill="none" />
    <path id=""  transform="matrix(1 0 0 -1 0 174)"  d="M20.06381 32.09747L31.22784 32.09747L31.22784 32.09747L31.22784 20.93344L31.22784 20.93344L20.06381 20.93344z" stroke="none" fill="#FFFFFF" fill-rule="nonzero" />
    <path id=""  transform="matrix(1 0 0 -1 0 174)"  d="M20.06381 32.09747L31.22784 32.09747L31.22784 32.09747L31.22784 20.93344L31.22784 20.93344L20.06381 20.93344z" stroke="#000000" stroke-width="0.5582014" stroke-linejoin="miter" fill="none" />
		</g>
	</g>
</g>
</svg>